Track_080AB1D0:
    .byte KEYSH, 0
LABEL_080AB1D2:
    .byte TEMPO, 48
    .byte VOICE, 0
    .byte VOL  , 120
    .byte PAN  , 64
    .byte XCMD , xIECV, 20, xIECL, 2
    .byte    N06, Bn0, v112
    .byte    N06, Cn1, v072
    .byte W12
    .byte    N02, Fs1, v060
    .byte W06
    .byte    N06, Bn0, v064
    .byte    N06, Cn1, v060
    .byte W06
    .byte    N10, Ds1, v127
    .byte W12
    .byte    N02, Fs1, v052
    .byte W06
    .byte    N06, Bn0, v080
    .byte    N06, Cn1, v072
    .byte    N10, Ds1, v052
    .byte W18
    .byte    Ds1, v127
    .byte    N02, Fs1, v072
    .byte W12
    .byte    N06, Bn0, v080
    .byte    N06, Cn1, v060
    .byte W06
    .byte    Ds1, v092
    .byte    N11, Fs1, v052
    .byte W06
    .byte    N10, Ds1, v127
    .byte W06
    .byte    N02, Fs1, v052
    .byte W06
LABEL_080AB21E:
    .byte    N06, Bn0, v112
    .byte    N06, Cn1, v072
    .byte W12
    .byte    N02, Fs1
    .byte W06
    .byte    N06, Bn0, v064
    .byte    N06, Cn1, v060
    .byte W06
    .byte    N10, Ds1, v127
    .byte W12
    .byte    N02, Fs1, v052
    .byte W06
    .byte    N06, Bn0, v092
    .byte    N06, Cn1, v072
    .byte    N10, Ds1, v052
    .byte W18
    .byte    Ds1, v127
    .byte    N02, Fs1, v072
    .byte W12
    .byte    N06, Bn0, v080
    .byte    N06, Cn1, v060
    .byte W06
    .byte    Ds1, v092
    .byte    N11, Fs1, v052
    .byte W06
    .byte    N10, Ds1, v127
    .byte W06
    .byte    N02, Fs1, v052
    .byte W06
    .byte PEND
LABEL_080AB25D:
    .byte    N06, Bn0, v112
    .byte    N06, Cn1, v072
    .byte W12
    .byte    N02, Fs1
    .byte W06
    .byte    N06, Bn0, v064
    .byte    N06, Cn1, v060
    .byte W06
    .byte    N10, Ds1, v127
    .byte W12
    .byte    N02, Fs1, v052
    .byte W06
    .byte    N06, Bn0, v080
    .byte    N06, Cn1, v072
    .byte    N10, Ds1, v052
    .byte W18
    .byte    Ds1, v127
    .byte    N02, Fs1, v072
    .byte W12
    .byte    N06, Bn0, v080
    .byte    N06, Cn1, v060
    .byte W06
    .byte    Ds1, v092
    .byte    N11, Fs1, v052
    .byte W06
    .byte    N10, Ds1, v127
    .byte W06
    .byte    N02, Fs1, v052
    .byte W06
    .byte PEND
    .byte PATT
    .word LABEL_080AB21E
    .byte PATT
    .word LABEL_080AB25D
    .byte PATT
    .word LABEL_080AB21E
    .byte PATT
    .word LABEL_080AB25D
    .byte PATT
    .word LABEL_080AB21E
    .byte PATT
    .word LABEL_080AB25D
    .byte PATT
    .word LABEL_080AB21E
    .byte PATT
    .word LABEL_080AB25D
    .byte    N06, Bn0, v112
    .byte    N06, Cn1, v072
    .byte W12
    .byte    N02, Fs1
    .byte W06
    .byte    N06, Bn0, v064
    .byte    N06, Cn1, v060
    .byte W06
    .byte    N10, Ds1, v127
    .byte W12
    .byte    N02, Fs1, v052
    .byte W06
    .byte    N06, Bn0, v092
    .byte    N06, Cn1, v072
    .byte    N10, Ds1, v052
    .byte W18
    .byte    N06, Ds1, v127
    .byte    N02, Fs1, v072
    .byte W12
    .byte    N06, Bn0, v080
    .byte    N06, Cn1, v060
    .byte    N06, Ds1
    .byte W06
    .byte    Ds1, v080
    .byte    N18, Bn1, v052
    .byte W06
    .byte    N06, Ds1, v100
    .byte W06
    .byte    Ds1, v127
    .byte W06
    .byte    Bn0, v112
    .byte    N36, Cs2, v060
    .byte W18
    .byte    N06, Bn0, v064
    .byte W06
    .byte    N10, Ds1, v127
    .byte W12
    .byte    N02, Fs1, v052
    .byte W06
    .byte    N06, Bn0, v080
    .byte W06
    .byte    Bn0, v112
    .byte W12
    .byte    Bn0, v092
    .byte    N02, Fs1, v072
    .byte W12
    .byte    N10, Ds1, v127
    .byte W12
    .byte    N02, Fs1, v052
    .byte W12
    .byte    N06, Bn0, v112
    .byte    N36, Cs2, v060
    .byte W18
    .byte    N06, Bn0, v064
    .byte W06
    .byte    N10, Ds1, v127
    .byte W12
    .byte    N02, Fs1, v052
    .byte W06
    .byte    N06, Bn0, v080
    .byte W06
    .byte    Bn0, v112
    .byte W12
    .byte    Bn0, v092
    .byte    N02, Fs1, v072
    .byte W12
    .byte    N10, Ds1, v127
    .byte W12
    .byte    N12, Fs1, v052
    .byte W12
    .byte    N06, Bn0, v112
    .byte W12
    .byte    N02, Fs1, v072
    .byte W06
    .byte    N06, Bn0, v064
    .byte W06
    .byte    N10, Ds1, v127
    .byte W12
    .byte    N02, Fs1, v052
    .byte W06
    .byte    N06, Bn0, v080
    .byte W06
    .byte    Bn0, v112
    .byte W12
    .byte    Bn0, v092
    .byte    N02, Fs1, v072
    .byte W12
    .byte    N10, Ds1, v127
    .byte W12
    .byte    N02, Fs1, v052
    .byte W12
    .byte    N06, Bn0, v112
    .byte W12
    .byte    N02, Fs1, v072
    .byte W06
    .byte    N06, Bn0, v064
    .byte W06
    .byte    N10, Ds1, v127
    .byte W12
    .byte    N02, Fs1, v052
    .byte W06
    .byte    N06, Bn0, v080
    .byte W06
    .byte    Bn0, v112
    .byte W12
    .byte    Bn0, v092
    .byte    N02, Fs1, v072
    .byte W12
    .byte    N06, Ds1, v127
    .byte W06
    .byte    Ds1, v060
    .byte W06
    .byte    Ds1, v092
    .byte    N02, Fs1, v052
    .byte W06
    .byte    N06, Ds1, v127
    .byte W06
    .byte    Bn0, v112
    .byte    N06, Cn1, v072
    .byte W12
    .byte    N02, Fs1
    .byte W06
    .byte    N06, Bn0, v064
    .byte    N06, Cn1, v060
    .byte W06
    .byte    N10, Ds1, v127
    .byte W12
    .byte    N02, Fs1, v052
    .byte W06
    .byte    N06, Bn0, v080
    .byte    N06, Cn1, v060
    .byte W06
    .byte    Bn0, v112
    .byte    N06, Cn1, v072
    .byte W12
    .byte    Bn0, v060
    .byte    N06, Cn1, v092
    .byte W12
    .byte    N10, Ds1, v127
    .byte W12
    .byte    N02, Fs1, v052
    .byte W12
    .byte    N06, Bn0, v112
    .byte    N06, Cn1, v072
    .byte W12
    .byte    N02, Fs1
    .byte W06
    .byte    N06, Bn0, v064
    .byte    N06, Cn1, v060
    .byte W06
    .byte    N10, Ds1, v127
    .byte W12
    .byte    N02, Fs1, v052
    .byte W06
    .byte    N06, Bn0, v080
    .byte    N06, Cn1, v060
    .byte W06
    .byte    Bn0, v112
    .byte    N06, Cn1, v072
    .byte W12
    .byte    Bn0, v060
    .byte    N06, Cn1, v092
    .byte W12
    .byte    N10, Ds1, v127
    .byte W12
    .byte    N12, Fs1, v052
    .byte W12
    .byte    N06, Bn0, v112
    .byte    N06, Cn1, v072
    .byte W12
    .byte    N02, Fs1
    .byte W06
    .byte    N06, Bn0, v064
    .byte    N06, Cn1, v060
    .byte W06
    .byte    N10, Ds1, v127
    .byte W12
    .byte    N02, Fs1, v052
    .byte W06
    .byte    N06, Bn0, v080
    .byte    N06, Cn1, v060
    .byte W06
    .byte    Bn0, v112
    .byte    N06, Cn1, v072
    .byte W12
    .byte    Bn0, v060
    .byte    N06, Cn1, v092
    .byte W12
    .byte    N10, Ds1, v127
    .byte W12
    .byte    N02, Fs1, v052
    .byte W06
    .byte    N02
    .byte W06
    .byte    N06, Bn0, v120
    .byte    N36, Cs2, v060
    .byte W24
    .byte    N10, Ds1, v127
    .byte W12
    .byte    Bn0
    .byte    N60, Cs2, v060
    .byte W42
    .byte    N06, Ds1
    .byte W06
    .byte    Ds1, v080
    .byte W06
    .byte    Ds1, v100
    .byte W06
    .byte    N01, Ds1, v127
    .byte W01
    .byte    N05
    .byte W05
    .byte    N06
    .byte W06
    .byte    N10, An1, v120
    .byte W06
    .byte    N06, Ds1, v127
    .byte W06
    .byte    N06
    .byte W06
    .byte    N10, Gs1, v120
    .byte W06
    .byte    N01, Ds1, v100
    .byte W01
    .byte    N05, Ds1, v127
    .byte W05
    .byte    N06, Gn1, v120
    .byte W06
    .byte GOTO
    .word LABEL_080AB1D2
    .byte FINE

Track_080AB48C:
    .byte KEYSH, 0
LABEL_080AB48E:
    .byte VOICE, 15
    .byte VOL  , 94
    .byte PAN  , 64
    .byte XCMD , xIECV, 40, xIECL, 3
    .byte BENDR, 12
    .byte LFOS , 28
    .byte LFODL, 14
    .byte MOD  , 3
    .byte MODT , 0
    .byte    N24, Dn2, v100
    .byte W24
    .byte    N12, An2
    .byte W12
    .byte    Dn2
    .byte W12
    .byte    N24, Fn2
    .byte W24
    .byte    Dn2
    .byte W24
LABEL_080AB4B1:
    .byte    N12, Gn2, v100
    .byte W12
    .byte    An2
    .byte W12
    .byte    Fn2
    .byte W12
    .byte    Gn2
    .byte W12
    .byte    N24, Dn2
    .byte W24
    .byte    Ds2
    .byte W24
    .byte PEND
LABEL_080AB4C1:
    .byte    N24, Dn2, v100
    .byte W24
    .byte    N12, An2
    .byte W12
    .byte    Dn2
    .byte W12
    .byte    N24, Fn2
    .byte W24
    .byte    Dn2
    .byte W24
    .byte PEND
LABEL_080AB4D0:
    .byte    N12, Gn2, v100
    .byte W12
    .byte    An2
    .byte W12
    .byte    Fn2
    .byte W12
    .byte    Gn2
    .byte W12
    .byte    N18, Dn2
    .byte W18
    .byte    N06, Dn2, v040
    .byte W06
    .byte    N24, Gn2, v100
    .byte W15
    .byte BEND , 63
    .byte W01
    .byte    Dn3
    .byte W02
    .byte    Cn3
    .byte W01
    .byte    An2
    .byte W02
    .byte    Fs2
    .byte W01
    .byte    Bn1
    .byte W01
    .byte    Cn1
    .byte W01
    .byte PEND
LABEL_080AB4F5:
    .byte BEND , 64
    .byte    N24, Dn2, v100
    .byte W24
    .byte    N12, An2
    .byte W12
    .byte    Dn2
    .byte W12
    .byte    N24, Fn2
    .byte W24
    .byte    Dn2
    .byte W24
    .byte PEND
    .byte PATT
    .word LABEL_080AB4B1
    .byte PATT
    .word LABEL_080AB4C1
    .byte PATT
    .word LABEL_080AB4D0
    .byte PATT
    .word LABEL_080AB4F5
    .byte PATT
    .word LABEL_080AB4B1
    .byte PATT
    .word LABEL_080AB4C1
    .byte    N12, Gn2, v100
    .byte W12
    .byte    An2
    .byte W12
    .byte    Fn2
    .byte W12
    .byte    Gn2
    .byte W12
    .byte    N18, Dn2
    .byte W18
    .byte    N06, Dn2, v040
    .byte W06
    .byte    Gn2, v100
    .byte W06
    .byte    Gn2, v040
    .byte W06
    .byte    Gn2, v100
    .byte W06
    .byte    Gn2, v040
    .byte W06
    .byte    N78, As2, v100
    .byte W84
    .byte    N06
    .byte W06
    .byte    As2, v040
    .byte W06
    .byte    N78, Bn2, v100
    .byte W84
    .byte    N06
    .byte W06
    .byte    Bn2, v040
    .byte W06
    .byte    N54, Cn3, v100
    .byte W60
    .byte    N06, Gn2
    .byte W06
    .byte    Gn2, v040
    .byte W06
    .byte    Cn3, v100
    .byte W06
    .byte    Cn3, v040
    .byte W06
    .byte    Fs2, v100
    .byte W06
    .byte    Fs2, v040
    .byte W06
    .byte    N66, Fn2, v100
    .byte W66
    .byte    N06, Fn2, v040
    .byte W06
    .byte    An2, v100
    .byte W24
    .byte    N05, As1
    .byte W06
    .byte    As1, v092
    .byte W06
    .byte    As1, v100
    .byte W06
    .byte    As1, v092
    .byte W06
    .byte    As2, v100
    .byte W06
    .byte    As2, v092
    .byte W06
    .byte    As1, v100
    .byte W06
    .byte    As1, v092
    .byte W06
    .byte    As1, v100
    .byte W06
    .byte    As1, v092
    .byte W06
    .byte    As1, v100
    .byte W06
    .byte    As1, v092
    .byte W06
    .byte    As2, v100
    .byte W06
    .byte    As2, v092
    .byte W06
    .byte    As1, v100
    .byte W06
    .byte    As1, v092
    .byte W06
    .byte    Bn1, v100
    .byte W06
    .byte    Bn1, v092
    .byte W06
    .byte    Bn1, v100
    .byte W06
    .byte    Bn1, v092
    .byte W06
    .byte    Bn2, v100
    .byte W06
    .byte    Bn2, v092
    .byte W06
    .byte    Bn1, v100
    .byte W06
    .byte    Bn1, v092
    .byte W06
    .byte    Bn1, v100
    .byte W06
    .byte    Bn1, v092
    .byte W06
    .byte    Bn1, v100
    .byte W06
    .byte    Bn1, v092
    .byte W06
    .byte    Bn2, v100
    .byte W06
    .byte    Bn2, v092
    .byte W06
    .byte    Bn1, v100
    .byte W06
    .byte    Bn1, v092
    .byte W06
    .byte    Cn2, v100
    .byte W06
    .byte    Cn2, v092
    .byte W06
    .byte    Cn2, v100
    .byte W06
    .byte    Cn2, v092
    .byte W06
    .byte    Cn3, v100
    .byte W06
    .byte    Cn3, v092
    .byte W06
    .byte    Cn2, v100
    .byte W06
    .byte    Cn2, v092
    .byte W06
    .byte    Cn2, v100
    .byte W06
    .byte    Cn2, v092
    .byte W06
    .byte    Cn2, v100
    .byte W06
    .byte    Cn2, v092
    .byte W06
    .byte    Cn3, v100
    .byte W06
    .byte    Cn3, v092
    .byte W06
    .byte    Cn2, v100
    .byte W06
    .byte    Cn2, v092
    .byte W06
    .byte    N36, En2, v100
    .byte W36
    .byte    N60, An2
    .byte W60
    .byte W48
    .byte GOTO
    .word LABEL_080AB48E
    .byte FINE

Track_080AB612:
    .byte KEYSH, 0
LABEL_080AB614:
    .byte VOICE, 20
    .byte VOL  , 120
    .byte PAN  , 64
    .byte XCMD , xIECV, 40, xIECL, 3
    .byte BENDR, 12
    .byte LFOS , 28
    .byte LFODL, 14
    .byte MOD  , 3
    .byte MODT , 0
    .byte    N06, Cn3, v100
    .byte W06
    .byte    N05, Cn3, v060
    .byte W06
    .byte    Cn3, v040
    .byte W06
    .byte    Cn3, v020
    .byte W06
    .byte    Cn3, v012
    .byte W24
    .byte    Bn2, v100
    .byte W06
    .byte    Bn2, v060
    .byte W06
    .byte    Bn2, v040
    .byte W06
    .byte    Bn2, v020
    .byte W06
    .byte    Bn2, v012
    .byte W24
LABEL_080AB649:
    .byte    N05, As2, v100
    .byte W06
    .byte    As2, v060
    .byte W06
    .byte    As2, v040
    .byte W06
    .byte    As2, v020
    .byte W06
    .byte    As2, v012
    .byte W24
    .byte    An2, v100
    .byte W06
    .byte    An2, v060
    .byte W06
    .byte    An2, v040
    .byte W06
    .byte    An2, v020
    .byte W06
    .byte    An2, v012
    .byte W24
    .byte PEND
LABEL_080AB669:
    .byte    N05, Cn3, v100
    .byte W06
    .byte    Cn3, v060
    .byte W06
    .byte    Cn3, v040
    .byte W06
    .byte    Cn3, v020
    .byte W06
    .byte    Cn3, v012
    .byte W24
    .byte    Bn2, v100
    .byte W06
    .byte    Bn2, v060
    .byte W06
    .byte    Bn2, v040
    .byte W06
    .byte    Bn2, v020
    .byte W06
    .byte    Bn2, v012
    .byte W24
    .byte PEND
    .byte PATT
    .word LABEL_080AB649
    .byte PATT
    .word LABEL_080AB669
    .byte PATT
    .word LABEL_080AB649
    .byte PATT
    .word LABEL_080AB669
    .byte PATT
    .word LABEL_080AB649
    .byte PATT
    .word LABEL_080AB669
    .byte PATT
    .word LABEL_080AB649
    .byte PATT
    .word LABEL_080AB669
    .byte PATT
    .word LABEL_080AB649
LABEL_080AB6B6:
    .byte    N05, Dn2, v100
    .byte W06
    .byte    Dn2, v040
    .byte W06
    .byte    Fn2, v100
    .byte W06
    .byte    Fn2, v040
    .byte W06
    .byte    An2, v100
    .byte W06
    .byte    An2, v040
    .byte W06
    .byte    Dn3, v100
    .byte W06
    .byte    Dn3, v080
    .byte W06
    .byte    Dn3, v060
    .byte W06
    .byte    Dn3, v040
    .byte W06
    .byte    Dn3, v020
    .byte W06
    .byte    Dn3, v012
    .byte W30
    .byte PEND
    .byte PATT
    .word LABEL_080AB6B6
    .byte    N05, Cn2, v100
    .byte W06
    .byte    Cn2, v040
    .byte W06
    .byte    Fn2, v100
    .byte W06
    .byte    Fn2, v040
    .byte W06
    .byte    Cn3, v100
    .byte W06
    .byte    Cn3, v040
    .byte W06
    .byte    Fn3, v100
    .byte W06
    .byte    Fn3, v080
    .byte W06
    .byte    Fn3, v040
    .byte W06
    .byte    Fn3, v020
    .byte W06
    .byte    Fn3, v100
    .byte W06
    .byte    Fn3, v040
    .byte W06
    .byte    En3, v100
    .byte W06
    .byte    En3, v040
    .byte W06
    .byte    Cn3, v100
    .byte W06
    .byte    Cn3, v040
    .byte W06
    .byte    Cn3, v100
    .byte W06
    .byte    Cn3, v040
    .byte W06
    .byte    An2, v100
    .byte W06
    .byte    An2, v040
    .byte W06
    .byte    Fn2, v100
    .byte W06
    .byte    Fn2, v040
    .byte W06
    .byte    En2, v100
    .byte W06
    .byte    En2, v080
    .byte W06
    .byte    En2, v060
    .byte W06
    .byte    En2, v040
    .byte W06
    .byte    En2, v020
    .byte W06
    .byte    En2, v012
    .byte W30
    .byte PATT
    .word LABEL_080AB6B6
    .byte PATT
    .word LABEL_080AB6B6
    .byte    N05, Cn2, v100
    .byte W06
    .byte    Cn2, v040
    .byte W06
    .byte    Fn2, v100
    .byte W06
    .byte    Fn2, v040
    .byte W06
    .byte    An2, v100
    .byte W06
    .byte    An2, v040
    .byte W06
    .byte    Cn3, v100
    .byte W06
    .byte    Cn3, v080
    .byte W06
    .byte    Cn3, v060
    .byte W06
    .byte    Cn3, v040
    .byte W06
    .byte    Dn3, v100
    .byte W06
    .byte    Dn3, v040
    .byte W06
    .byte    En3, v100
    .byte W06
    .byte    En3, v040
    .byte W06
    .byte    Fn3, v100
    .byte W06
    .byte    Fn3, v040
    .byte W06
    .byte    Gn3, v100
    .byte W06
    .byte    Gn3, v060
    .byte W06
    .byte    Gn3, v040
    .byte W06
    .byte    Gn3, v020
    .byte W06
    .byte    Gn3, v012
    .byte W12
    .byte    Cn3, v100
    .byte W06
    .byte    Cn3, v060
    .byte W06
    .byte    Cn3, v040
    .byte W06
    .byte    Cn3, v020
    .byte W06
    .byte    Cn3, v012
    .byte W06
    .byte    Cn3, v008
    .byte W30
    .byte W48
    .byte GOTO
    .word LABEL_080AB614
    .byte FINE

Track_080AB799:
    .byte KEYSH, 0
LABEL_080AB79B:
    .byte VOICE, 1
    .byte VOL  , 94
    .byte PAN  , 0
    .byte XCMD , xIECV, 40, xIECL, 3
    .byte BENDR, 12
    .byte LFOS , 28
    .byte LFODL, 14
    .byte MOD  , 4
    .byte MODT , 0
    .byte    N03, Dn3, v100
    .byte W03
    .byte    Dn3, v060
    .byte W03
    .byte    Dn4, v100
    .byte W03
    .byte    Dn4, v060
    .byte W03
    .byte    Dn5, v100
    .byte W03
    .byte    Dn5, v060
    .byte W03
    .byte    Dn4, v100
    .byte W03
    .byte    Dn4, v060
    .byte W03
    .byte PAN  , 127
    .byte    N03, Dn3, v100
    .byte W03
    .byte    Dn3, v060
    .byte W03
    .byte    Dn4, v100
    .byte W03
    .byte    Dn4, v060
    .byte W03
    .byte    Dn5, v100
    .byte W03
    .byte    Dn5, v060
    .byte W03
    .byte    Dn4, v100
    .byte W03
    .byte    Dn4, v060
    .byte W03
    .byte PAN  , 0
    .byte    N03, Dn3, v100
    .byte W03
    .byte    Dn3, v060
    .byte W03
    .byte    Dn4, v100
    .byte W03
    .byte    Dn4, v060
    .byte W03
    .byte    Dn5, v100
    .byte W03
    .byte    Dn5, v060
    .byte W03
    .byte    Dn4, v100
    .byte W03
    .byte    Dn4, v060
    .byte W03
    .byte PAN  , 127
    .byte    N03, Dn3, v100
    .byte W03
    .byte    Dn3, v060
    .byte W03
    .byte    Dn4, v100
    .byte W03
    .byte    Dn4, v060
    .byte W03
    .byte    Dn5, v100
    .byte W03
    .byte    Dn5, v060
    .byte W03
    .byte    Dn4, v100
    .byte W03
    .byte    Dn4, v060
    .byte W03
LABEL_080AB81A:
    .byte PAN  , 0
    .byte    N03, Dn3, v100
    .byte W03
    .byte    Dn3, v060
    .byte W03
    .byte    Dn4, v100
    .byte W03
    .byte    Dn4, v060
    .byte W03
    .byte    Dn5, v100
    .byte W03
    .byte    Dn5, v060
    .byte W03
    .byte    Dn4, v100
    .byte W03
    .byte    Dn4, v060
    .byte W03
    .byte PAN  , 127
    .byte    N03, Dn3, v100
    .byte W03
    .byte    Dn3, v060
    .byte W03
    .byte    Dn4, v100
    .byte W03
    .byte    Dn4, v060
    .byte W03
    .byte    Dn5, v100
    .byte W03
    .byte    Dn5, v060
    .byte W03
    .byte    Dn4, v100
    .byte W03
    .byte    Dn4, v060
    .byte W03
    .byte PAN  , 0
    .byte    N03, Dn3, v100
    .byte W03
    .byte    Dn3, v060
    .byte W03
    .byte    Dn4, v100
    .byte W03
    .byte    Dn4, v060
    .byte W03
    .byte    Dn5, v100
    .byte W03
    .byte    Dn5, v060
    .byte W03
    .byte    Dn4, v100
    .byte W03
    .byte    Dn4, v060
    .byte W03
    .byte PAN  , 127
    .byte    N03, Dn3, v100
    .byte W03
    .byte    Dn3, v060
    .byte W03
    .byte    Dn4, v100
    .byte W03
    .byte    Dn4, v060
    .byte W03
    .byte    Dn5, v100
    .byte W03
    .byte    Dn5, v060
    .byte W03
    .byte    Dn4, v100
    .byte W03
    .byte    Dn4, v060
    .byte W03
    .byte PEND
    .byte PATT
    .word LABEL_080AB81A
    .byte PATT
    .word LABEL_080AB81A
    .byte PATT
    .word LABEL_080AB81A
    .byte PATT
    .word LABEL_080AB81A
    .byte PATT
    .word LABEL_080AB81A
    .byte PATT
    .word LABEL_080AB81A
    .byte PATT
    .word LABEL_080AB81A
    .byte PATT
    .word LABEL_080AB81A
    .byte PATT
    .word LABEL_080AB81A
    .byte PATT
    .word LABEL_080AB81A
LABEL_080AB8B9:
    .byte PAN  , 0
    .byte    N03, An3, v100
    .byte W03
    .byte    An3, v060
    .byte W03
    .byte    An3, v100
    .byte W03
    .byte    An3, v060
    .byte W03
    .byte    An4, v100
    .byte W03
    .byte    An4, v060
    .byte W03
    .byte    N06, An5, v100
    .byte W06
    .byte    An5, v060
    .byte W06
    .byte    N03, An4, v100
    .byte W03
    .byte    An4, v060
    .byte W03
    .byte    An4, v100
    .byte W03
    .byte    An4, v060
    .byte W03
    .byte    An3, v100
    .byte W03
    .byte    An3, v060
    .byte W03
    .byte PAN  , 127
    .byte    N03, An3, v100
    .byte W03
    .byte    An3, v060
    .byte W03
    .byte    An3, v100
    .byte W03
    .byte    An3, v060
    .byte W03
    .byte    An4, v100
    .byte W03
    .byte    An4, v060
    .byte W03
    .byte    N06, An5, v100
    .byte W06
    .byte    An5, v060
    .byte W06
    .byte    N03, An4, v100
    .byte W03
    .byte    An4, v060
    .byte W03
    .byte    An4, v100
    .byte W03
    .byte    An4, v060
    .byte W03
    .byte    An3, v100
    .byte W03
    .byte    An3, v060
    .byte W03
    .byte PEND
    .byte PATT
    .word LABEL_080AB8B9
    .byte PAN  , 0
    .byte    N03, As3, v100
    .byte W03
    .byte    As3, v060
    .byte W03
    .byte    As3, v100
    .byte W03
    .byte    As3, v060
    .byte W03
    .byte    As4, v100
    .byte W03
    .byte    As4, v060
    .byte W03
    .byte    N06, Fn5, v100
    .byte W06
    .byte    Fn5, v060
    .byte W06
    .byte    N03, As4, v100
    .byte W03
    .byte    As4, v060
    .byte W03
    .byte    As4, v100
    .byte W03
    .byte    As4, v060
    .byte W03
    .byte    As3, v100
    .byte W03
    .byte    As3, v060
    .byte W03
    .byte PAN  , 127
    .byte    N03, As3, v100
    .byte W03
    .byte    As3, v060
    .byte W03
    .byte    As3, v100
    .byte W03
    .byte    As3, v060
    .byte W03
    .byte    As4, v100
    .byte W03
    .byte    As4, v060
    .byte W03
    .byte    N06, Fn5, v100
    .byte W06
    .byte    Fn5, v060
    .byte W06
    .byte    N03, As4, v100
    .byte W03
    .byte    As4, v060
    .byte W03
    .byte    As4, v100
    .byte W03
    .byte    As4, v060
    .byte W03
    .byte    As3, v100
    .byte W03
    .byte    As3, v060
    .byte W03
    .byte PAN  , 0
    .byte    N03, Cn4, v100
    .byte W03
    .byte    Cn4, v060
    .byte W03
    .byte    Cn4, v100
    .byte W03
    .byte    Cn4, v060
    .byte W03
    .byte    Cn5, v100
    .byte W03
    .byte    Cn5, v060
    .byte W03
    .byte    N06, En5, v100
    .byte W06
    .byte    En5, v060
    .byte W06
    .byte    N03, Cn5, v100
    .byte W03
    .byte    Cn5, v060
    .byte W03
    .byte    Cn5, v100
    .byte W03
    .byte    Cn5, v060
    .byte W03
    .byte    Cn4, v100
    .byte W03
    .byte    Cn4, v060
    .byte W03
    .byte PAN  , 127
    .byte    N03, Cn4, v100
    .byte W03
    .byte    Cn4, v060
    .byte W03
    .byte    Cn4, v100
    .byte W03
    .byte    Cn4, v060
    .byte W03
    .byte    Cn5, v100
    .byte W03
    .byte    Cn5, v060
    .byte W03
    .byte    N06, En5, v100
    .byte W06
    .byte    En5, v060
    .byte W06
    .byte    N03, Cn5, v100
    .byte W03
    .byte    Cn5, v060
    .byte W03
    .byte    Cn5, v100
    .byte W03
    .byte    Cn5, v060
    .byte W03
    .byte    Cn4, v100
    .byte W03
    .byte    Cn4, v060
    .byte W03
    .byte PATT
    .word LABEL_080AB8B9
    .byte PATT
    .word LABEL_080AB8B9
    .byte PAN  , 0
    .byte    N03, Cn3, v100
    .byte W03
    .byte    Cn3, v060
    .byte W03
    .byte    Cn4, v100
    .byte W03
    .byte    Cn4, v060
    .byte W03
    .byte    Cn5, v100
    .byte W03
    .byte    Cn5, v060
    .byte W03
    .byte    Cn4, v100
    .byte W03
    .byte    Cn4, v060
    .byte W03
    .byte PAN  , 127
    .byte    N03, Cn3, v100
    .byte W03
    .byte    Cn3, v060
    .byte W03
    .byte    Cn4, v100
    .byte W03
    .byte    Cn4, v060
    .byte W03
    .byte    Cn5, v100
    .byte W03
    .byte    Cn5, v060
    .byte W03
    .byte    Cn4, v100
    .byte W03
    .byte    Cn4, v060
    .byte W03
    .byte PAN  , 0
    .byte    N03, Cn3, v100
    .byte W03
    .byte    Cn3, v060
    .byte W03
    .byte    Cn4, v100
    .byte W03
    .byte    Cn4, v060
    .byte W03
    .byte    Cn5, v100
    .byte W03
    .byte    Cn5, v060
    .byte W03
    .byte    Cn4, v100
    .byte W03
    .byte    Cn4, v060
    .byte W03
    .byte PAN  , 127
    .byte    N03, Cn3, v100
    .byte W03
    .byte    Cn3, v060
    .byte W03
    .byte    Cn4, v100
    .byte W03
    .byte    Cn4, v060
    .byte W03
    .byte    Cn5, v100
    .byte W03
    .byte    Cn5, v060
    .byte W03
    .byte    Cn4, v100
    .byte W03
    .byte    Cn4, v060
    .byte W03
    .byte PAN  , 64
    .byte    N03, Dn3, v100
    .byte W03
    .byte    Dn3, v060
    .byte W03
    .byte    Dn4, v100
    .byte W03
    .byte    Dn4, v060
    .byte W03
    .byte PAN  , 0
    .byte    N03, Dn5, v100
    .byte W03
    .byte    Dn5, v060
    .byte W03
    .byte    Dn4, v100
    .byte W03
    .byte    Dn4, v060
    .byte W03
    .byte PAN  , 127
    .byte    N03, Dn5, v100
    .byte W03
    .byte    Dn5, v060
    .byte W03
    .byte    Dn4, v100
    .byte W03
    .byte    Dn4, v060
    .byte W03
    .byte PAN  , 64
    .byte    N03, Cs3, v100
    .byte W03
    .byte    Cs3, v060
    .byte W03
    .byte    Cs4, v100
    .byte W03
    .byte    Cs4, v060
    .byte W03
    .byte PAN  , 0
    .byte    N03, Gn4, v100
    .byte W03
    .byte    Gn4, v060
    .byte W03
    .byte    Cs4, v100
    .byte W03
    .byte    Cs4, v060
    .byte W03
    .byte PAN  , 127
    .byte    N03, Gn4, v100
    .byte W03
    .byte    Gn4, v060
    .byte W03
    .byte    Cs4, v100
    .byte W03
    .byte    Cs4, v060
    .byte W03
    .byte PAN  , 0
    .byte    N03, Cs3, v100
    .byte W03
    .byte    Cs3, v060
    .byte W03
    .byte    Cs4, v100
    .byte W03
    .byte    Cs4, v060
    .byte W03
    .byte PAN  , 127
    .byte    N03, Gn4, v100
    .byte W03
    .byte    Gn4, v060
    .byte W03
    .byte    Cs5, v100
    .byte W03
    .byte    Cs5, v060
    .byte W03
    .byte W48
    .byte GOTO
    .word LABEL_080AB79B
    .byte FINE

Track_080ABACE:
    .byte KEYSH, 0
LABEL_080ABAD0:
    .byte VOICE, 5
    .byte VOL  , 120
    .byte PAN  , 64
    .byte XCMD , xIECV, 40, xIECL, 3
    .byte BENDR, 12
    .byte LFOS , 31
    .byte LFODL, 14
    .byte MOD  , 5
    .byte MODT , 0
    .byte W96
    .byte W96
    .byte W96
    .byte W96
LABEL_080ABAE9:
    .byte W12
    .byte    N06, An3, v100
    .byte W06
    .byte    An3, v040
    .byte W06
    .byte    Gn3, v100
    .byte W06
    .byte    Gn3, v040
    .byte W06
    .byte    Fn3, v100
    .byte W06
    .byte    Fn3, v040
    .byte W06
    .byte    Gn3, v100
    .byte W06
    .byte    Gn3, v040
    .byte W06
    .byte    Fn3, v100
    .byte W06
    .byte    Fn3, v040
    .byte W06
    .byte    Cn3, v100
    .byte W06
    .byte    Cn3, v040
    .byte W06
    .byte    Dn3, v100
    .byte W06
    .byte    Dn3, v040
    .byte W06
    .byte PEND
LABEL_080ABB16:
    .byte W12
    .byte    N06, Dn3, v100
    .byte W06
    .byte    Dn3, v040
    .byte W06
    .byte    Cn3, v100
    .byte W06
    .byte    Cn3, v040
    .byte W06
    .byte    Dn3, v100
    .byte W06
    .byte    Dn3, v040
    .byte W06
    .byte    N18, Fn3, v080
    .byte W18
    .byte    N06, Fn3, v040
    .byte W06
    .byte    N18, Dn3, v080
    .byte W18
    .byte    N06, Dn3, v040
    .byte W06
    .byte PEND
    .byte PATT
    .word LABEL_080ABAE9
    .byte W12
    .byte    N06, Dn3, v100
    .byte W06
    .byte    Dn3, v040
    .byte W06
    .byte    Cn3, v100
    .byte W06
    .byte    Cn3, v040
    .byte W06
    .byte    Dn3, v100
    .byte W06
    .byte    Dn3, v040
    .byte W06
    .byte    Fn3, v100
    .byte W06
    .byte    Fn3, v040
    .byte W06
    .byte    Gn3, v100
    .byte W06
    .byte    Gn3, v040
    .byte W06
    .byte    N24, An3, v080
    .byte W24
    .byte    N06, An3, v040
    .byte W12
    .byte    An3, v100
    .byte W06
    .byte    An3, v040
    .byte W06
    .byte    Gn3, v100
    .byte W06
    .byte    Gn3, v040
    .byte W06
    .byte    Fn3, v100
    .byte W06
    .byte    Fn3, v040
    .byte W06
    .byte    Gn3, v100
    .byte W06
    .byte    Gn3, v040
    .byte W06
    .byte    Fn3, v100
    .byte W06
    .byte    Fn3, v040
    .byte W06
    .byte    Cn3, v100
    .byte W06
    .byte    Cn3, v040
    .byte W06
    .byte    Dn3, v100
    .byte W06
    .byte    Dn3, v040
    .byte W06
    .byte PATT
    .word LABEL_080ABB16
    .byte PATT
    .word LABEL_080ABAE9
    .byte W12
    .byte    N06, Dn3, v100
    .byte W06
    .byte    Dn3, v040
    .byte W06
    .byte    Cn3, v100
    .byte W06
    .byte    Cn3, v040
    .byte W06
    .byte    Dn3, v100
    .byte W06
    .byte    Dn3, v040
    .byte W06
    .byte    Fn3, v100
    .byte W06
    .byte    Fn3, v040
    .byte W06
    .byte    Gn3, v100
    .byte W06
    .byte    Gn3, v040
    .byte W06
    .byte    An3, v100
    .byte W06
    .byte    An3, v040
    .byte W06
    .byte    Cn4, v100
    .byte W06
    .byte    Cn4, v040
    .byte W06
LABEL_080ABBC8:
    .byte    N54, Dn4, v100
    .byte W54
    .byte    N06, Dn4, v040
    .byte W06
    .byte    Dn4, v100
    .byte W06
    .byte    Dn4, v040
    .byte W06
    .byte    Cn4, v100
    .byte W06
    .byte    Cn4, v040
    .byte W06
    .byte    An3, v100
    .byte W06
    .byte    An3, v040
    .byte W06
    .byte PEND
    .byte PATT
    .word LABEL_080ABBC8
    .byte    N18, Fn4, v100
    .byte W18
    .byte    N06, Fn4, v040
    .byte W06
    .byte    N18, En4, v100
    .byte W18
    .byte    N06, En4, v040
    .byte W06
    .byte    N18, Cn4, v100
    .byte W18
    .byte    N06, Cn4, v040
    .byte W06
    .byte    N18, An3, v100
    .byte W18
    .byte    N06, An3, v040
    .byte W06
    .byte    N30, Gn3, v100
    .byte W30
    .byte    N06, Gn3, v040
    .byte W06
    .byte    N30, An3, v100
    .byte W30
    .byte    N06, An3, v040
    .byte W06
    .byte    N18, Cn4, v100
    .byte W18
    .byte    N06, Cn4, v040
    .byte W06
    .byte PATT
    .word LABEL_080ABBC8
    .byte PATT
    .word LABEL_080ABBC8
    .byte    N18, Fn4, v100
    .byte W18
    .byte    N06, Fn4, v040
    .byte W06
    .byte    N18, En4, v100
    .byte W18
    .byte    N06, En4, v040
    .byte W06
    .byte    N18, Fn4, v100
    .byte W18
    .byte    N06, Fn4, v040
    .byte W06
    .byte    N18, Gn4, v100
    .byte W18
    .byte    N06, Gn4, v040
    .byte W06
    .byte TIE, An4, v100
    .byte W96
    .byte W24
    .byte EOT
    .byte    N06, An4, v040
    .byte W24
    .byte GOTO
    .word LABEL_080ABAD0
    .byte FINE

    .align 2, 0

global_label SongHeader_080ABC5C
    .byte 5
    .byte 0
    .byte 0
    .byte 163
    .word 0x809FCC8
    .word Track_080AB1D0
    .word Track_080AB48C
    .word Track_080AB612
    .word Track_080AB799
    .word Track_080ABACE
