Track_080B0230:
    .byte KEYSH, 0
LABEL_080B0232:
    .byte TEMPO, 50
    .byte VOICE, 0
    .byte VOL  , 120
    .byte PAN  , 64
    .byte XCMD , xIECV, 20, xIECL, 2
    .byte    N06, Bn0, v112
    .byte    N36, Cs2, v060
    .byte W12
    .byte    N06, Bn0, v092
    .byte W06
    .byte    Fs2, v072
    .byte W06
    .byte    N10, Dn1, v127
    .byte    N02, Fs1, v052
    .byte W06
    .byte    N06, Gn2, v072
    .byte W06
    .byte    N02, Fs1, v040
    .byte W06
    .byte    N06, Bn0, v092
    .byte W06
    .byte    N02, Fs1, v052
    .byte W06
    .byte    N06, Bn0, v112
    .byte W06
    .byte    Bn0, v092
    .byte    N02, Fs1, v040
    .byte W12
    .byte    N10, Dn1, v120
    .byte    N02, Fs1, v052
    .byte W12
    .byte    N11, Fs1, v040
    .byte    N06, Gs2, v072
    .byte W12
LABEL_080B027C:
    .byte    N06, Bn0, v112
    .byte    N02, Fs1, v052
    .byte W12
    .byte    N06, Bn0, v092
    .byte    N02, Fs1, v040
    .byte W06
    .byte    N06, Fs2, v072
    .byte W06
    .byte    N10, Dn1, v120
    .byte    N02, Fs1, v052
    .byte W06
    .byte    N06, Gn2, v072
    .byte W06
    .byte    N02, Fs1, v040
    .byte W06
    .byte    N06, Bn0, v092
    .byte W06
    .byte    N02, Fs1, v052
    .byte W06
    .byte    N06, Bn0, v112
    .byte W06
    .byte    Bn0, v092
    .byte    N02, Fs1, v040
    .byte W12
    .byte    N10, Dn1, v120
    .byte    N02, Fs1, v052
    .byte W12
    .byte    Fs1, v040
    .byte    N06, Gs2, v072
    .byte W06
    .byte    Dn1, v092
    .byte W06
    .byte PEND
LABEL_080B02C0:
    .byte    N06, Bn0, v112
    .byte    N02, Fs1, v052
    .byte W12
    .byte    N06, Bn0, v092
    .byte    N02, Fs1, v040
    .byte W06
    .byte    N06, Fs2, v072
    .byte W06
    .byte    N10, Dn1, v120
    .byte    N02, Fs1, v052
    .byte W06
    .byte    N06, Gn2, v072
    .byte W06
    .byte    N02, Fs1, v040
    .byte W06
    .byte    N06, Bn0, v092
    .byte W06
    .byte    N02, Fs1, v052
    .byte W06
    .byte    N06, Bn0, v112
    .byte W06
    .byte    Bn0, v092
    .byte    N02, Fs1, v040
    .byte W06
    .byte    N06, Gs2, v072
    .byte W06
    .byte    N10, Dn1, v120
    .byte    N02, Fs1, v052
    .byte W12
    .byte    N11, Fs1, v040
    .byte    N06, Gs2, v072
    .byte W12
    .byte PEND
    .byte    Bn0, v112
    .byte    N02, Fs1, v052
    .byte W12
    .byte    N06, Bn0, v092
    .byte    N02, Fs1, v040
    .byte W06
    .byte    N06, Fs2, v072
    .byte W06
    .byte    N10, Dn1, v120
    .byte W06
    .byte    N06, Gn2, v072
    .byte W06
    .byte    N02, Fs1, v040
    .byte    N06, Gs2, v072
    .byte W06
    .byte    Bn0, v092
    .byte W06
    .byte    Dn1, v120
    .byte    N02, Fs1, v052
    .byte W06
    .byte    N06, Bn0, v112
    .byte W06
    .byte    Bn0, v092
    .byte    N02, Fs1, v040
    .byte W06
    .byte    Dn1
    .byte W02
    .byte    Dn1, v080
    .byte W02
    .byte    Dn1, v112
    .byte W02
    .byte    N06, Dn1, v120
    .byte    N02, Fs1, v052
    .byte W06
    .byte    N06, Dn1, v120
    .byte W06
    .byte    N02, Fs1, v040
    .byte    N10, Gs1, v120
    .byte W12
LABEL_080B0353:
    .byte    N06, Bn0, v112
    .byte    N36, Cs2, v060
    .byte W12
    .byte    N06, Bn0, v092
    .byte W06
    .byte    Fs2, v072
    .byte W06
    .byte    N10, Dn1, v120
    .byte    N02, Fs1, v052
    .byte W06
    .byte    N06, Gn2, v072
    .byte W06
    .byte    N02, Fs1, v040
    .byte W06
    .byte    N06, Bn0, v092
    .byte W06
    .byte    N02, Fs1, v052
    .byte W06
    .byte    N06, Bn0, v112
    .byte W06
    .byte    Bn0, v092
    .byte    N02, Fs1, v040
    .byte W12
    .byte    N10, Dn1, v120
    .byte    N02, Fs1, v052
    .byte W12
    .byte    N11, Fs1, v040
    .byte    N06, Gs2, v072
    .byte W12
    .byte PEND
    .byte    Bn0, v112
    .byte    N02, Fs1, v052
    .byte W12
    .byte    N06, Bn0, v092
    .byte    N02, Fs1, v040
    .byte W06
    .byte    N06, Fs2, v072
    .byte W06
    .byte    N10, Dn1, v120
    .byte    N02, Fs1, v052
    .byte W06
    .byte    N06, Gn2, v072
    .byte W06
    .byte    N02, Fs1, v040
    .byte W06
    .byte    N06, Bn0, v092
    .byte W06
    .byte    N02, Fs1, v052
    .byte W06
    .byte    N06, Bn0, v112
    .byte W06
    .byte    Bn0, v092
    .byte    N02, Fs1, v040
    .byte W12
    .byte    N10, Dn1, v120
    .byte W12
    .byte    N02, Fs1, v040
    .byte    N06, Gs2, v072
    .byte W06
    .byte    Dn1, v092
    .byte W06
    .byte PATT
    .word LABEL_080B02C0
    .byte    N06, Bn0, v112
    .byte    N02, Fs1, v052
    .byte W12
    .byte    N06, Bn0, v092
    .byte    N02, Fs1, v040
    .byte W06
    .byte    N06, Fs2, v072
    .byte W06
    .byte    N10, Dn1, v120
    .byte    N02, Fs1, v052
    .byte W06
    .byte    N06, Gn2, v072
    .byte W06
    .byte    N02, Fs1, v040
    .byte W06
    .byte    N06, Bn0, v092
    .byte W06
    .byte    N02, Fs1, v052
    .byte W06
    .byte    N06, Bn0, v112
    .byte W06
    .byte    Bn0, v092
    .byte    N02, Fs1, v040
    .byte W12
    .byte    N06, Dn1, v120
    .byte    N02, Fs1, v052
    .byte W06
    .byte    N06, Dn1, v060
    .byte W06
    .byte    Dn1, v092
    .byte    N02, Fs1, v052
    .byte W06
    .byte    N06, Dn1, v120
    .byte W06
    .byte PATT
    .word LABEL_080B0353
    .byte PATT
    .word LABEL_080B027C
    .byte PATT
    .word LABEL_080B02C0
    .byte PATT
    .word LABEL_080B027C
    .byte PATT
    .word LABEL_080B0353
    .byte PATT
    .word LABEL_080B027C
    .byte PATT
    .word LABEL_080B02C0
    .byte    N06, Bn0, v112
    .byte    N02, Fs1, v052
    .byte W12
    .byte    Fs1, v040
    .byte W06
    .byte    N06, Fs2, v072
    .byte W06
    .byte    N10, Dn1, v120
    .byte    N02, Fs1, v052
    .byte W06
    .byte    N06, Gn2, v072
    .byte W06
    .byte    Bn0, v092
    .byte    N02, Fs1, v040
    .byte W12
    .byte    N06, Bn0, v112
    .byte    N06, Dn1, v120
    .byte    N02, Fs1, v052
    .byte W12
    .byte    N06, Gs2, v072
    .byte W09
    .byte    N01, Dn1, v052
    .byte W01
    .byte    Dn1, v080
    .byte W02
    .byte    N06, Bn0, v112
    .byte    N06, Dn1, v120
    .byte    N24, Cs2, v060
    .byte W12
    .byte    N06, Dn1
    .byte W06
    .byte    Gs1, v120
    .byte W06
    .byte GOTO
    .word LABEL_080B0232
    .byte FINE

Track_080B048B:
    .byte KEYSH, 0
LABEL_080B048D:
    .byte VOICE, 15
    .byte VOL  , 94
    .byte PAN  , 64
    .byte XCMD , xIECV, 40, xIECL, 3
    .byte    N11, Ds2, v120
    .byte W12
    .byte    N06, Fn2
    .byte W06
    .byte    Fn2, v040
    .byte W06
    .byte    Fn2, v020
    .byte W06
    .byte    Fn2, v008
    .byte W06
    .byte    Fn3, v120
    .byte W06
    .byte    Fn3, v040
    .byte W06
    .byte    Fn3, v020
    .byte W06
    .byte    Fn3, v008
    .byte W06
    .byte    N11, As2, v120
    .byte W12
    .byte    N06, Cn3
    .byte W06
    .byte    Cn3, v040
    .byte W06
    .byte    Dn2, v120
    .byte W06
    .byte    Dn2, v040
    .byte W06
LABEL_080B04C4:
    .byte    N11, Ds2, v120
    .byte W12
    .byte    N06, Fn2
    .byte W06
    .byte    Fn2, v040
    .byte W06
    .byte    Fn2, v020
    .byte W06
    .byte    Fn2, v008
    .byte W06
    .byte    Fn3, v120
    .byte W06
    .byte    Fn3, v040
    .byte W06
    .byte    N24, Bn2, v120
    .byte W24
    .byte    Cn3
    .byte W24
    .byte PEND
LABEL_080B04E1:
    .byte    N11, Ds2, v120
    .byte W12
    .byte    N06, Fn2
    .byte W06
    .byte    Fn2, v040
    .byte W06
    .byte    Fn2, v020
    .byte W06
    .byte    Fn2, v008
    .byte W06
    .byte    Fn3, v120
    .byte W06
    .byte    Fn3, v040
    .byte W06
    .byte    Fn3, v020
    .byte W06
    .byte    Fn3, v008
    .byte W06
    .byte    N11, As2, v120
    .byte W12
    .byte    N06, Cn3
    .byte W06
    .byte    Cn3, v040
    .byte W06
    .byte    Dn2, v120
    .byte W06
    .byte    Dn2, v040
    .byte W06
    .byte PEND
    .byte PATT
    .word LABEL_080B04C4
    .byte PATT
    .word LABEL_080B04E1
    .byte PATT
    .word LABEL_080B04C4
    .byte PATT
    .word LABEL_080B04E1
    .byte PATT
    .word LABEL_080B04C4
LABEL_080B0527:
    .byte    N11, As2, v120
    .byte W12
    .byte    N06, Cn3
    .byte W06
    .byte    Cn3, v040
    .byte W06
    .byte    Cn3, v020
    .byte W06
    .byte    Cn3, v008
    .byte W06
    .byte    Cn3, v120
    .byte W06
    .byte    Cn3, v040
    .byte W06
    .byte    Cn3, v020
    .byte W06
    .byte    Cn3, v008
    .byte W06
    .byte    N11, Fn3, v120
    .byte W12
    .byte    N06, Gn3
    .byte W06
    .byte    Gn3, v040
    .byte W06
    .byte    An2, v120
    .byte W06
    .byte    An2, v040
    .byte W06
    .byte PEND
LABEL_080B0554:
    .byte    N11, As2, v120
    .byte W12
    .byte    N06, Cn3
    .byte W06
    .byte    Cn3, v040
    .byte W06
    .byte    Cn3, v020
    .byte W06
    .byte    Cn3, v008
    .byte W06
    .byte    Cn3, v120
    .byte W06
    .byte    Cn3, v040
    .byte W18
    .byte    N12, Fs3, v120
    .byte W12
    .byte    N06, Gn3
    .byte W06
    .byte    Gn3, v040
    .byte W06
    .byte    Gn2, v120
    .byte W06
    .byte    Gn2, v040
    .byte W06
    .byte PEND
    .byte PATT
    .word LABEL_080B0527
    .byte    N11, As2, v120
    .byte W12
    .byte    N06, Cn3
    .byte W06
    .byte    Cn3, v040
    .byte W06
    .byte    Cn3, v020
    .byte W06
    .byte    Cn3, v008
    .byte W06
    .byte    Cn3, v120
    .byte W06
    .byte    Cn3, v040
    .byte W18
    .byte    N12, Fs3, v120
    .byte W12
    .byte    N06, Gn3
    .byte W06
    .byte    Gn3, v040
    .byte W06
    .byte    An2, v120
    .byte W06
    .byte    An2, v040
    .byte W06
    .byte PATT
    .word LABEL_080B0527
    .byte PATT
    .word LABEL_080B0554
    .byte PATT
    .word LABEL_080B0527
    .byte    N11, As2, v120
    .byte W12
    .byte    N06, Cn3
    .byte W06
    .byte    Cn3, v040
    .byte W06
    .byte    Cn3, v020
    .byte W06
    .byte    Cn3, v008
    .byte W06
    .byte    Cn3, v120
    .byte W06
    .byte    Cn3, v040
    .byte W06
    .byte    Cn4, v120
    .byte W06
    .byte    Cn4, v040
    .byte W06
    .byte    Cn4, v020
    .byte W06
    .byte    Cn4, v008
    .byte W06
    .byte    N18, Cn3, v120
    .byte W18
    .byte    N06, Cn3, v040
    .byte W06
    .byte GOTO
    .word LABEL_080B048D
    .byte FINE

Track_080B05E5:
    .byte KEYSH, 0
LABEL_080B05E7:
    .byte VOICE, 6
    .byte VOL  , 94
    .byte PAN  , 64
    .byte LFOS , 28
    .byte LFODL, 14
    .byte BENDR, 12
    .byte MODT , 0
    .byte MOD  , 4
    .byte XCMD , xIECV, 40, xIECL, 3
    .byte W12
    .byte    N06, An4, v100
    .byte W06
    .byte    Gs4, v080
    .byte W06
    .byte    An4, v100
    .byte W06
    .byte    Gs4, v080
    .byte W06
    .byte    An4, v100
    .byte W06
    .byte    An4, v040
    .byte W06
    .byte    An4, v020
    .byte W06
    .byte    An4, v008
    .byte W06
    .byte    Fn4, v100
    .byte W06
    .byte    Fn4, v040
    .byte W06
    .byte    Fn4, v100
    .byte W06
    .byte    Fn4, v040
    .byte W06
    .byte    Cn4, v100
    .byte W06
    .byte    Cn4, v040
    .byte W06
LABEL_080B0628:
    .byte W12
    .byte    N06, Bn3, v100
    .byte W06
    .byte    Bn3, v040
    .byte W06
    .byte    Cn4, v100
    .byte W06
    .byte    Cn4, v040
    .byte W06
    .byte    Ds4, v100
    .byte W06
    .byte    Ds4, v040
    .byte W06
    .byte    Dn4, v100
    .byte W06
    .byte    Dn4, v040
    .byte W06
    .byte    Cn4, v100
    .byte W06
    .byte    Cn4, v040
    .byte W06
    .byte    As3, v100
    .byte W06
    .byte    As3, v040
    .byte W06
    .byte    Cn4, v100
    .byte W06
    .byte    Cn4, v040
    .byte W06
    .byte PEND
LABEL_080B0655:
    .byte W12
    .byte    N06, An4, v100
    .byte W06
    .byte    Gs4, v080
    .byte W06
    .byte    An4, v100
    .byte W06
    .byte    Gs4, v080
    .byte W06
    .byte    An4, v100
    .byte W06
    .byte    An4, v040
    .byte W06
    .byte    An4, v020
    .byte W06
    .byte    An4, v008
    .byte W06
    .byte    Fn4, v100
    .byte W06
    .byte    Fn4, v040
    .byte W06
    .byte    Fn4, v100
    .byte W06
    .byte    Fn4, v040
    .byte W06
    .byte    Cn4, v100
    .byte W06
    .byte    Cn4, v040
    .byte W06
    .byte PEND
LABEL_080B0682:
    .byte    N06, Bn3, v100
    .byte W06
    .byte    Bn3, v040
    .byte W06
    .byte    Cn4, v100
    .byte W06
    .byte    Cn4, v040
    .byte W06
    .byte    Fn4, v100
    .byte W06
    .byte    Fn4, v040
    .byte W06
    .byte    An4, v100
    .byte W06
    .byte    Gs4
    .byte W06
    .byte    N30, An4
    .byte W30
    .byte    N06, An4, v040
    .byte W18
    .byte PEND
    .byte PATT
    .word LABEL_080B0655
    .byte PATT
    .word LABEL_080B0628
    .byte PATT
    .word LABEL_080B0655
    .byte PATT
    .word LABEL_080B0682
LABEL_080B06B6:
    .byte W12
    .byte PAN  , 64
    .byte    N06, Cn4, v100
    .byte W06
    .byte    Cn4, v040
    .byte W06
    .byte    En4, v100
    .byte W06
    .byte    En4, v040
    .byte W06
    .byte    Gn4, v100
    .byte W06
    .byte    Gn4, v040
    .byte W06
    .byte    As4, v100
    .byte W06
    .byte    As4, v040
    .byte W06
    .byte    An4, v100
    .byte W06
    .byte    An4, v040
    .byte W06
    .byte    Gn4, v100
    .byte W06
    .byte    Gn4, v040
    .byte W06
    .byte    Fn4, v100
    .byte W06
    .byte    Fn4, v040
    .byte W06
    .byte PEND
LABEL_080B06E5:
    .byte    N06, En4, v100
    .byte W06
    .byte    En4, v040
    .byte W06
    .byte    Fn4, v100
    .byte W06
    .byte    Fn4, v040
    .byte W06
    .byte    Gn4, v100
    .byte W06
    .byte    Gn4, v040
    .byte W06
    .byte    As3, v100
    .byte W06
    .byte    As3, v040
    .byte W06
    .byte    Cn4, v100
    .byte W06
    .byte    Cn4, v040
    .byte W06
    .byte PAN  , 127
    .byte    N06, Gn4, v080
    .byte W06
    .byte    Fs4
    .byte W06
    .byte    Gn4
    .byte W06
    .byte    Fs4
    .byte W06
    .byte    Gn4
    .byte W06
    .byte    Gn4, v040
    .byte W06
    .byte PEND
LABEL_080B0716:
    .byte W12
    .byte PAN  , 64
    .byte    N06, Cn4, v100
    .byte W06
    .byte    Cn4, v040
    .byte W06
    .byte    En4, v100
    .byte W06
    .byte    En4, v040
    .byte W06
    .byte    Gn4, v100
    .byte W06
    .byte    Gn4, v040
    .byte W06
    .byte    As4, v100
    .byte W06
    .byte    As4, v040
    .byte W06
    .byte    An4, v100
    .byte W06
    .byte    An4, v040
    .byte W06
    .byte    As4, v100
    .byte W06
    .byte    As4, v040
    .byte W06
    .byte    Cn5, v100
    .byte W06
    .byte    Cn5, v040
    .byte W06
    .byte PEND
    .byte    Dn5, v100
    .byte W06
    .byte    Dn5, v040
    .byte W06
    .byte    As4, v100
    .byte W06
    .byte    As4, v040
    .byte W06
    .byte    Gn4, v100
    .byte W06
    .byte    Gn4, v040
    .byte W06
    .byte    Fn4, v100
    .byte W06
    .byte    Fn4, v040
    .byte W06
    .byte    En4, v100
    .byte W06
    .byte    En4, v040
    .byte W06
    .byte PAN  , 127
    .byte    N06, En4, v080
    .byte W06
    .byte    Fn4
    .byte W06
    .byte    Gn4
    .byte W06
    .byte    Fn4
    .byte W06
    .byte    En4
    .byte W06
    .byte    En4, v040
    .byte W06
    .byte PATT
    .word LABEL_080B06B6
    .byte PATT
    .word LABEL_080B06E5
    .byte PATT
    .word LABEL_080B0716
    .byte    N06, Dn5, v100
    .byte W06
    .byte    Dn5, v040
    .byte W06
    .byte    Dn5, v100
    .byte W06
    .byte    Dn5, v040
    .byte W06
    .byte    En5, v100
    .byte W06
    .byte    En5, v040
    .byte W06
    .byte    Fn5, v100
    .byte W06
    .byte    Fn5, v040
    .byte W06
    .byte    Gn5, v100
    .byte W06
    .byte    Gn5, v040
    .byte W06
    .byte    N02, Fn5, v060
    .byte W02
    .byte    En5, v052
    .byte W02
    .byte    Dn5, v040
    .byte W02
    .byte    Cn5, v032
    .byte W02
    .byte    Bn4, v020
    .byte W02
    .byte    An4, v012
    .byte W02
    .byte    N18, Cn5, v100
    .byte W18
    .byte    N06, Cn5, v040
    .byte W06
    .byte GOTO
    .word LABEL_080B05E7
    .byte FINE

Track_080B07C3:
    .byte KEYSH, 0
LABEL_080B07C5:
    .byte VOICE, 1
    .byte VOL  , 85
    .byte PAN  , 0
    .byte LFOS , 28
    .byte LFODL, 14
    .byte BENDR, 12
    .byte MODT , 0
    .byte MOD  , 4
    .byte XCMD , xIECV, 40, xIECL, 3
    .byte W12
    .byte    N06, Fn4, v100
    .byte W06
    .byte    Fn4, v040
    .byte W06
    .byte    En4, v100
    .byte W06
    .byte    En4, v040
    .byte W06
    .byte    Fn4, v100
    .byte W06
    .byte    Fn4, v040
    .byte W18
    .byte PAN  , 127
    .byte    N06, Cn4, v100
    .byte W06
    .byte    Cn4, v040
    .byte W06
    .byte    As3, v100
    .byte W06
    .byte    As3, v040
    .byte W06
    .byte    An3, v100
    .byte W06
    .byte    An3, v040
    .byte W06
    .byte W12
    .byte PAN  , 0
    .byte    N06, Gs3, v100
    .byte W06
    .byte    Gs3, v040
    .byte W06
    .byte    An3, v100
    .byte W06
    .byte    An3, v040
    .byte W06
    .byte    Cn4, v100
    .byte W06
    .byte    Cn4, v040
    .byte W18
    .byte PAN  , 127
    .byte    N06, An3, v100
    .byte W06
    .byte    An3, v040
    .byte W06
    .byte    Gn3, v100
    .byte W06
    .byte    Gn3, v040
    .byte W06
    .byte    An3, v100
    .byte W06
    .byte    An3, v040
    .byte W06
    .byte W12
    .byte PAN  , 0
    .byte    N06, Fn4, v100
    .byte W06
    .byte    Fn4, v040
    .byte W06
    .byte    En4, v100
    .byte W06
    .byte    En4, v040
    .byte W06
    .byte    Fn4, v100
    .byte W06
    .byte    Fn4, v040
    .byte W18
    .byte PAN  , 127
    .byte    N06, Cn4, v100
    .byte W06
    .byte    Cn4, v040
    .byte W06
    .byte    As3, v100
    .byte W06
    .byte    As3, v040
    .byte W06
    .byte    An3, v100
    .byte W06
    .byte    An3, v040
    .byte W06
    .byte PAN  , 64
    .byte    N06, Gs3, v100
    .byte W06
    .byte    Gs3, v040
    .byte W06
    .byte    An3, v100
    .byte W06
    .byte    An3, v040
    .byte W06
    .byte    Cn4, v100
    .byte W06
    .byte    Cn4, v040
    .byte W06
    .byte    Fn4, v100
    .byte W06
    .byte    En4
    .byte W06
    .byte    N30, Fn4
    .byte W30
    .byte    N06, Fn4, v040
    .byte W18
LABEL_080B087A:
    .byte W12
    .byte    N06, Fn4, v100
    .byte W06
    .byte    En4, v080
    .byte W06
    .byte    Fn4, v100
    .byte W06
    .byte    En4, v080
    .byte W06
    .byte    Fn4, v100
    .byte W06
    .byte    Fn4, v040
    .byte W06
    .byte    Fn4, v020
    .byte W06
    .byte    Fn4, v008
    .byte W06
    .byte    Cn4, v100
    .byte W06
    .byte    Cn4, v040
    .byte W06
    .byte    Cn4, v100
    .byte W06
    .byte    Cn4, v040
    .byte W06
    .byte    An3, v100
    .byte W06
    .byte    An3, v040
    .byte W06
    .byte PEND
    .byte W12
    .byte    Gs3, v100
    .byte W06
    .byte    Gs3, v040
    .byte W06
    .byte    An3, v100
    .byte W06
    .byte    An3, v040
    .byte W06
    .byte    Cn4, v100
    .byte W06
    .byte    Cn4, v040
    .byte W06
    .byte    Bn3, v100
    .byte W06
    .byte    Bn3, v040
    .byte W06
    .byte    An3, v100
    .byte W06
    .byte    An3, v040
    .byte W06
    .byte    Gn3, v100
    .byte W06
    .byte    Gn3, v040
    .byte W06
    .byte    An3, v100
    .byte W06
    .byte    An3, v040
    .byte W06
    .byte PATT
    .word LABEL_080B087A
    .byte    N06, Gs3, v100
    .byte W06
    .byte    Gs3, v040
    .byte W06
    .byte    An3, v100
    .byte W06
    .byte    An3, v040
    .byte W06
    .byte    Cn4, v100
    .byte W06
    .byte    Cn4, v040
    .byte W06
    .byte    Fn4, v100
    .byte W06
    .byte    En4
    .byte W06
    .byte    N30, Fn4
    .byte W30
    .byte    N06, Fn4, v040
    .byte W18
    .byte W12
    .byte    Gn3, v072
    .byte W06
    .byte    Gn3, v032
    .byte W06
    .byte    Cn4, v072
    .byte W06
    .byte    Cn4, v032
    .byte W06
    .byte    En4, v072
    .byte W06
    .byte    En4, v032
    .byte W06
    .byte    Gn4, v072
    .byte W06
    .byte    Gn4, v032
    .byte W06
    .byte    Fn4, v072
    .byte W06
    .byte    Fn4, v032
    .byte W06
    .byte    En4, v072
    .byte W06
    .byte    En4, v032
    .byte W06
    .byte    Dn4, v072
    .byte W06
    .byte    Dn4, v032
    .byte W06
LABEL_080B0921:
    .byte    N06, Cn4, v072
    .byte W06
    .byte    Cn4, v032
    .byte W06
    .byte    Dn4, v072
    .byte W06
    .byte    Dn4, v032
    .byte W06
    .byte    En4, v072
    .byte W06
    .byte    En4, v032
    .byte W06
    .byte    Gn3, v072
    .byte W06
    .byte    Gn3, v032
    .byte W06
    .byte    Gn3, v072
    .byte W06
    .byte    Gn3, v032
    .byte W06
    .byte    En4, v080
    .byte W06
    .byte PAN  , 0
    .byte    N06, Ds4
    .byte W06
    .byte    En4
    .byte W06
    .byte    Ds4
    .byte W06
    .byte    En4
    .byte W06
    .byte    En4, v040
    .byte W06
    .byte PEND
LABEL_080B0952:
    .byte W12
    .byte PAN  , 64
    .byte    N06, Gn3, v072
    .byte W06
    .byte    Gn3, v032
    .byte W06
    .byte    Cn4, v072
    .byte W06
    .byte    Cn4, v032
    .byte W06
    .byte    En4, v072
    .byte W06
    .byte    En4, v032
    .byte W06
    .byte    Gn4, v072
    .byte W06
    .byte    Gn4, v032
    .byte W06
    .byte    Fn4, v072
    .byte W06
    .byte    Fn4, v032
    .byte W06
    .byte    Gn4, v072
    .byte W06
    .byte    Gn4, v032
    .byte W06
    .byte    An4, v072
    .byte W06
    .byte    An4, v032
    .byte W06
    .byte PEND
    .byte    As4, v072
    .byte W06
    .byte    As4, v032
    .byte W06
    .byte    Gn4, v072
    .byte W06
    .byte    Gn4, v032
    .byte W06
    .byte    En4, v072
    .byte W06
    .byte    En4, v032
    .byte W06
    .byte    Dn4, v072
    .byte W06
    .byte    Dn4, v032
    .byte W06
    .byte    Cn4, v072
    .byte W06
    .byte    Cn4, v032
    .byte W06
    .byte PAN  , 0
    .byte    N06, Cn4, v080
    .byte W06
    .byte    Dn4
    .byte W06
    .byte    En4
    .byte W06
    .byte    Dn4
    .byte W06
    .byte    Cn4
    .byte W06
    .byte    Cn4, v040
    .byte W06
    .byte W12
    .byte PAN  , 64
    .byte    N06, Gn3, v072
    .byte W06
    .byte    Gn3, v032
    .byte W06
    .byte    Cn4, v072
    .byte W06
    .byte    Cn4, v032
    .byte W06
    .byte    En4, v072
    .byte W06
    .byte    En4, v032
    .byte W06
    .byte    Gn4, v072
    .byte W06
    .byte    Gn4, v032
    .byte W06
    .byte    Fn4, v072
    .byte W06
    .byte    Fn4, v032
    .byte W06
    .byte    En4, v072
    .byte W06
    .byte    En4, v032
    .byte W06
    .byte    Dn4, v072
    .byte W06
    .byte    Dn4, v032
    .byte W06
    .byte PATT
    .word LABEL_080B0921
    .byte PATT
    .word LABEL_080B0952
    .byte    N06, As4, v072
    .byte W06
    .byte    As4, v032
    .byte W06
    .byte    As4, v072
    .byte W06
    .byte    As4, v032
    .byte W06
    .byte    Cn5, v072
    .byte W06
    .byte    Cn5, v032
    .byte W06
    .byte    Dn5, v072
    .byte W06
    .byte    Dn5, v032
    .byte W06
    .byte    En5, v072
    .byte W06
    .byte    En5, v032
    .byte W06
    .byte    N02, Dn5, v052
    .byte W02
    .byte    Cn5, v040
    .byte W02
    .byte    Bn4, v032
    .byte W02
    .byte    An4, v020
    .byte W02
    .byte    Gn4
    .byte W02
    .byte    Fn4, v012
    .byte W02
    .byte    N18, Gn4, v072
    .byte W18
    .byte    N06, Gn4, v032
    .byte W06
    .byte GOTO
    .word LABEL_080B07C5
    .byte FINE

Track_080B0A27:
    .byte KEYSH, 0
LABEL_080B0A29:
    .byte VOICE, 20
    .byte VOL  , 56
    .byte PAN  , 64
    .byte LFOS , 28
    .byte LFODL, 14
    .byte MOD  , 3
    .byte MODT , 0
    .byte    N96, Fn3, v052
    .byte    N96, An3, v040
    .byte W96
LABEL_080B0A3E:
    .byte    N96, An2, v040
    .byte    N96, Fn3, v052
    .byte W96
    .byte PEND
LABEL_080B0A46:
    .byte    N96, Fn3, v052
    .byte    N96, An3, v040
    .byte W96
    .byte PEND
    .byte    N72, Cn3
    .byte    N72, Fn3, v052
    .byte W72
    .byte    N24, En3, v040
    .byte    N24, Gn3
    .byte W24
    .byte PATT
    .word LABEL_080B0A46
    .byte PATT
    .word LABEL_080B0A3E
    .byte PATT
    .word LABEL_080B0A46
    .byte    N68, An2, v040
    .byte    N68, Fn3, v052
    .byte W72
    .byte    N24, Fn3, v040
    .byte    N24, An3
    .byte W24
    .byte    N96, En3
    .byte    N96, Gn3, v052
    .byte W96
LABEL_080B0A7C:
    .byte    N96, Cn3, v040
    .byte    N96, En3, v052
    .byte W96
    .byte PEND
    .byte    En3, v040
    .byte    N96, Gn3, v052
    .byte W96
    .byte    Gn3, v040
    .byte    N96, As3, v052
    .byte W96
    .byte    Gn2
    .byte    N96, Cn3, v040
    .byte W96
    .byte PATT
    .word LABEL_080B0A7C
    .byte    N96, En3, v040
    .byte    N96, Gn3, v052
    .byte W96
    .byte    N60, Gn3, v040
    .byte    N60, As3, v052
    .byte W72
    .byte    N24, Gn3, v040
    .byte    N24, En4
    .byte W24
    .byte GOTO
    .word LABEL_080B0A29
    .byte FINE

    .align 2, 0

global_label SongHeader_080B0AB4
    .byte 5
    .byte 0
    .byte 0
    .byte 163
    .word 0x80A0544
    .word Track_080B0230
    .word Track_080B048B
    .word Track_080B05E5
    .word Track_080B07C3
    .word Track_080B0A27
