#include "offsets.h"
    .include "constants.inc"
    .include "macros.inc"

Track_080A2F38:
    .byte KEYSH, 0
    .byte TEMPO, 71
    .byte PAN  , 64
    .byte XCMD , xIECV, 20, xIECL, 2
    .byte VOL  , 113
    .byte W96
    .byte VOICE, 0
    .byte    N06, Bn0, v112
    .byte    N36, Cs2, v060
    .byte    N96, As2, v072
    .byte W12
    .byte    N06, Bn0, v092
    .byte W12
    .byte    N10, Cs1, v127
    .byte W12
    .byte    N02, Fs1, v052
    .byte W12
    .byte    Fs1, v072
    .byte W12
    .byte    N06, Bn0, v112
    .byte    N02, Fs1, v072
    .byte W12
    .byte    N10, Cs1, v127
    .byte    N02, Fs1, v072
    .byte W12
    .byte    N06, Bn0, v092
    .byte    N02, Fs1, v052
    .byte W12
    .byte    N06, Bn0, v112
    .byte    N02, Fs1, v072
    .byte    N96, An2
    .byte W12
    .byte    N06, Bn0, v092
    .byte    N02, Fs1, v052
    .byte W12
    .byte    N10, Cs1, v127
    .byte    N02, Fs1, v072
    .byte W12
    .byte    Fs1, v052
    .byte W12
    .byte    Fs1, v072
    .byte W12
    .byte    N06, Bn0, v112
    .byte    N02, Fs1, v072
    .byte W12
    .byte    N10, Cs1, v127
    .byte    N02, Fs1, v072
    .byte W12
    .byte    N06, Bn0, v092
    .byte    N12, As1, v052
    .byte W12
    .byte    N06, Bn0, v112
    .byte    N02, Fs1, v072
    .byte    N96, As2
    .byte W12
    .byte    N06, Bn0, v092
    .byte    N02, Fs1, v052
    .byte W12
    .byte    N10, Cs1, v127
    .byte    N02, Fs1, v072
    .byte W12
    .byte    Fs1, v052
    .byte W12
    .byte    Fs1, v072
    .byte W12
    .byte    N06, Bn0, v112
    .byte    N02, Fs1, v072
    .byte W12
    .byte    N10, Cs1, v127
    .byte    N02, Fs1, v072
    .byte W12
    .byte    N06, Bn0, v092
    .byte    N02, Fs1, v052
    .byte W12
    .byte    N06, Bn0, v112
    .byte    N02, Fs1, v072
    .byte    N96, An2
    .byte W12
    .byte    N06, Bn0, v092
    .byte    N02, Fs1, v052
    .byte W12
    .byte    N10, Cs1, v127
    .byte    N02, Fs1, v072
    .byte W12
    .byte    Fs1, v052
    .byte W12
    .byte    Fs1, v072
    .byte W12
    .byte    N06, Bn0, v112
    .byte    N02, Fs1, v072
    .byte W12
    .byte    N10, Cs1, v127
    .byte    N02, Fs1, v072
    .byte W12
    .byte    Fs1, v052
    .byte    N11, Gn1, v120
    .byte W12
    .byte    N06, Bn0, v112
    .byte    N36, Cs2, v060
    .byte    N96, As2, v072
    .byte W12
    .byte    N06, Bn0, v092
    .byte W12
    .byte    N10, Cs1, v127
    .byte W12
    .byte    N02, Fs1, v052
    .byte W12
    .byte    Fs1, v072
    .byte W12
    .byte    N06, Bn0, v112
    .byte    N02, Fs1, v072
    .byte W12
    .byte    N10, Cs1, v127
    .byte    N02, Fs1, v072
    .byte W12
    .byte    N06, Bn0, v092
    .byte    N02, Fs1, v052
    .byte W12
    .byte    N06, Bn0, v112
    .byte    N02, Fs1, v072
    .byte    N96, An2
    .byte W12
    .byte    N06, Bn0, v092
    .byte    N02, Fs1, v052
    .byte W12
    .byte    N10, Cs1, v127
    .byte    N02, Fs1, v072
    .byte W12
    .byte    Fs1, v052
    .byte W12
    .byte    Fs1, v072
    .byte W12
    .byte    N06, Bn0, v112
    .byte    N02, Fs1, v072
    .byte W12
    .byte    N10, Cs1, v127
    .byte    N02, Fs1, v072
    .byte W12
    .byte    N06, Bn0, v092
    .byte    N02, Fs1, v052
    .byte W06
    .byte    Fs1, v040
    .byte W06
    .byte    N06, Bn0, v112
    .byte    N36, Cs2, v060
    .byte    N48, As2, v072
    .byte W12
    .byte    N06, Bn0, v092
    .byte W12
    .byte    N10, Cs1, v127
    .byte W12
    .byte    N02, Fs1, v052
    .byte W12
    .byte    N06, Bn0, v092
    .byte    N36, Cs2, v060
    .byte    N24, Bn2, v072
    .byte W12
    .byte    N12, Gn1, v112
    .byte W12
    .byte    N06, An1, v127
    .byte W06
    .byte    Gs1
    .byte W06
    .byte    Gn1
    .byte W06
    .byte    Bn0
    .byte    N66, Cs2, v080
    .byte W06
    .byte W96
    .byte W96
    .byte W48
    .byte VOL  , 28
    .byte    N06, Bn0, v112
    .byte    N02, Fs1, v072
    .byte W06
    .byte VOL  , 31
    .byte W06
    .byte    As0
    .byte    N06, Bn0, v112
    .byte    N02, Fs1, v072
    .byte W06
    .byte VOL  , 38
    .byte W06
    .byte    Fs1
    .byte    N10, Ds1, v127
    .byte    N02, Fs1, v072
    .byte W06
    .byte VOL  , 45
    .byte W06
    .byte    Cs2
    .byte    N02, Fs1, v052
    .byte W06
    .byte VOL  , 52
    .byte W06
    .byte    Gs2
    .byte    N06, Bn0, v112
    .byte    N02, Fs1, v072
    .byte W06
    .byte VOL  , 59
    .byte W06
    .byte    Ds3
    .byte    N02, Fs1, v052
    .byte W06
    .byte VOL  , 67
    .byte W06
    .byte    As3
    .byte    N10, Ds1, v127
    .byte    N02, Fs1, v072
    .byte W06
    .byte VOL  , 73
    .byte W06
    .byte    Fn4
    .byte    N02, Fs1, v052
    .byte W06
    .byte VOL  , 81
    .byte W06
    .byte    Cs5
    .byte    N06, Bn0, v112
    .byte    N02, Fs1, v072
    .byte W06
    .byte VOL  , 87
    .byte W06
    .byte    Gn5
    .byte    N06, Bn0, v112
    .byte    N02, Fs1, v072
    .byte W06
    .byte VOL  , 95
    .byte W06
    .byte    Ds6
    .byte    N10, Ds1, v127
    .byte    N02, Fs1, v072
    .byte W06
    .byte VOL  , 102
    .byte W06
    .byte    An6
    .byte    N02, As1, v052
    .byte W06
    .byte VOL  , 109
    .byte W06
LABEL_080A311B:
    .byte VOL  , 113
    .byte    N06, Bn0, v112
    .byte    N36, Cs2, v060
    .byte W24
    .byte    N10, Ds1, v127
    .byte W12
    .byte    N02, Fs1, v052
    .byte W12
    .byte    N06, Bn0, v112
    .byte    N02, Fs1, v072
    .byte W12
    .byte    N06, Bn0, v112
    .byte    N02, Fs1, v072
    .byte W12
    .byte    N10, Ds1, v127
    .byte    N02, Fs1, v072
    .byte W12
    .byte    Fs1, v052
    .byte W12
LABEL_080A3144:
    .byte    N06, Bn0, v112
    .byte    N02, Fs1, v072
    .byte W12
    .byte    Fs1, v052
    .byte W12
    .byte    N10, Ds1, v127
    .byte    N02, Fs1, v072
    .byte W12
    .byte    Fs1, v052
    .byte W12
    .byte    N06, Bn0, v112
    .byte    N02, Fs1, v072
    .byte W12
    .byte    N06, Bn0, v112
    .byte    N02, Fs1, v072
    .byte W12
    .byte    N10, Ds1, v127
    .byte    N02, Fs1, v072
    .byte W12
    .byte    N12, As1, v052
    .byte W12
    .byte PEND
LABEL_080A3172:
    .byte    N06, Bn0, v112
    .byte    N02, Fs1, v072
    .byte W12
    .byte    Fs1, v052
    .byte W12
    .byte    N10, Ds1, v127
    .byte    N02, Fs1, v072
    .byte W12
    .byte    Fs1, v052
    .byte W12
    .byte    N06, Bn0, v112
    .byte    N02, Fs1, v072
    .byte W12
    .byte    N06, Bn0, v112
    .byte    N02, Fs1, v072
    .byte W12
    .byte    N10, Ds1, v127
    .byte    N02, Fs1, v072
    .byte W12
    .byte    Fs1, v052
    .byte W12
    .byte PEND
LABEL_080A319F:
    .byte    N06, Bn0, v112
    .byte    N02, Fs1, v072
    .byte W12
    .byte    Fs1, v052
    .byte W12
    .byte    N10, Ds1, v127
    .byte    N02, Fs1, v072
    .byte W12
    .byte    Fs1, v052
    .byte W12
    .byte    N06, Bn0, v112
    .byte    N02, Fs1, v072
    .byte W12
    .byte    N06, Bn0, v112
    .byte    N02, Fs1, v072
    .byte W12
    .byte    N10, Ds1, v127
    .byte    N02, Fs1, v072
    .byte W12
    .byte    Fs1, v052
    .byte    N10, Gn1, v120
    .byte W12
    .byte PEND
    .byte    N06, Bn0, v112
    .byte    N36, Cs2, v060
    .byte W24
    .byte    N10, Ds1, v127
    .byte W12
    .byte    N02, Fs1, v052
    .byte W12
    .byte    N06, Bn0, v112
    .byte    N02, Fs1, v072
    .byte W12
    .byte    N06, Bn0, v112
    .byte    N02, Fs1, v072
    .byte W12
    .byte    N10, Ds1, v127
    .byte    N02, Fs1, v072
    .byte W12
    .byte    Fs1, v052
    .byte W12
    .byte PATT
    .word LABEL_080A3144
    .byte PATT
    .word LABEL_080A3172
    .byte PATT
    .word LABEL_080A319F
    .byte GOTO
    .word LABEL_080A311B
    .byte FINE

Track_080A320B:
    .byte KEYSH, 0
    .byte VOICE, 5
    .byte VOL  , 56
    .byte XCMD , xIECV, 40, xIECL, 3
    .byte BENDR, 12
    .byte LFOS , 28
    .byte LFODL, 14
    .byte MOD  , 3
    .byte MODT , 0
    .byte PAN  , 0
    .byte W80
    .byte W02
    .byte    N12, Bn3, v100
    .byte W12
    .byte    Dn4
    .byte W02
    .byte W10
    .byte    Fs4
    .byte W12
    .byte    En4
    .byte W12
    .byte    Dn4
    .byte W12
    .byte    N06, En4
    .byte W06
    .byte    N24, Bn3
    .byte W24
    .byte    N06, Bn3, v040
    .byte W06
    .byte    N12, Bn3, v100
    .byte W12
    .byte    Dn4
    .byte W02
LABEL_080A3241:
    .byte W10
    .byte    N12, Fs4, v100
    .byte W12
    .byte    En4
    .byte W12
    .byte    Dn4
    .byte W12
    .byte    N06, En4
    .byte W06
    .byte    N24, Bn3
    .byte W24
    .byte    N06, Bn3, v060
    .byte W06
    .byte    N12, Bn3, v100
    .byte W12
    .byte    Dn4
    .byte W02
    .byte PEND
    .byte W10
    .byte    N24, En4
    .byte W24
    .byte    Dn4
    .byte W24
    .byte    Cs4
    .byte W24
    .byte    An3
    .byte W14
    .byte W10
    .byte    N60, An4
    .byte W60
    .byte    N12, Gn4
    .byte W12
    .byte    Fs4
    .byte W12
    .byte    Gn4
    .byte W02
    .byte PATT
    .word LABEL_080A3241
    .byte PATT
    .word LABEL_080A3241
    .byte W10
    .byte    N24, En4, v100
    .byte W24
    .byte    Dn4
    .byte W24
    .byte    Cs4
    .byte W24
    .byte    N18, An3
    .byte W14
    .byte W04
    .byte TIE, Bn3
    .byte W92
    .byte W56
    .byte W02
    .byte VOL  , 47
    .byte W12
    .byte    Bn1
    .byte W12
    .byte    Fs1
    .byte W12
    .byte    En1
    .byte W02
    .byte W10
    .byte    Cs1
    .byte W12
    .byte    Bn0
    .byte W12
    .byte    An0
    .byte W12
    .byte    Gn0
    .byte W12
    .byte    En0
    .byte W12
    .byte    Dn0
    .byte W12
    .byte    BnM1
    .byte W12
    .byte    AnM1
    .byte W02
    .byte W10
    .byte EOT
    .byte VOL  , 28
    .byte W02
    .byte PAN  , 0
    .byte    N06, Cn4
    .byte W06
    .byte    Cn4, v040
    .byte W06
    .byte VOL  , 37
    .byte    N06, Gn4, v100
    .byte W06
    .byte    Gn4, v040
    .byte W06
    .byte VOL  , 47
    .byte    N06, Cn5, v100
    .byte W06
    .byte    Cn5, v040
    .byte W18
    .byte PAN  , 127
    .byte VOL  , 56
    .byte    N06, Cn4, v100
    .byte W06
    .byte    Cn4, v040
    .byte W06
    .byte    Gn4, v100
    .byte W06
    .byte    Gn4, v040
    .byte W06
    .byte VOL  , 66
    .byte    N06, Cn5, v100
    .byte W06
    .byte    Cn5, v040
    .byte W06
LABEL_080A32DF:
    .byte W12
    .byte VOL  , 75
    .byte PAN  , 0
    .byte    N06, Dn4, v100
    .byte W06
    .byte    Dn4, v040
    .byte W06
    .byte    An4, v100
    .byte W06
    .byte    An4, v040
    .byte W06
    .byte    Dn5, v100
    .byte W06
    .byte    Dn5, v040
    .byte W18
    .byte PAN  , 127
    .byte    N06, Dn4, v100
    .byte W06
    .byte    Dn4, v040
    .byte W06
    .byte    An4, v100
    .byte W06
    .byte    An4, v040
    .byte W06
    .byte    Dn5, v100
    .byte W06
    .byte    Dn5, v040
    .byte W06
    .byte PEND
    .byte PATT
    .word LABEL_080A32DF
LABEL_080A3312:
    .byte W12
    .byte PAN  , 0
    .byte    N06, Cn4, v100
    .byte W06
    .byte    Cn4, v040
    .byte W06
    .byte    Gn4, v100
    .byte W06
    .byte    Gn4, v040
    .byte W06
    .byte    Cn5, v100
    .byte W06
    .byte    Cn5, v040
    .byte W18
    .byte PAN  , 127
    .byte    N06, Cn4, v100
    .byte W06
    .byte    Cn4, v040
    .byte W06
    .byte    Gn4, v100
    .byte W06
    .byte    Gn4, v040
    .byte W06
    .byte    Cn5, v100
    .byte W06
    .byte    Cn5, v040
    .byte W06
    .byte PEND
    .byte PATT
    .word LABEL_080A3312
    .byte W12
    .byte PAN  , 0
    .byte    N06, Dn4, v100
    .byte W06
    .byte    Dn4, v040
    .byte W06
    .byte    An4, v100
    .byte W06
    .byte    An4, v040
    .byte W06
    .byte    Dn5, v100
    .byte W06
    .byte    Dn5, v040
    .byte W18
    .byte PAN  , 127
    .byte    N06, Dn4, v100
    .byte W06
    .byte    Dn4, v040
    .byte W06
    .byte    An4, v100
    .byte W06
    .byte    An4, v040
    .byte W06
    .byte    Dn5, v100
    .byte W06
    .byte    Dn5, v040
    .byte W06
    .byte PATT
    .word LABEL_080A32DF
    .byte PATT
    .word LABEL_080A3312
    .byte PATT
    .word LABEL_080A3312
    .byte GOTO
    .word LABEL_080A32DF
    .byte FINE

Track_080A3383:
    .byte KEYSH, 0
    .byte VOICE, 30
    .byte VOL  , 113
    .byte PAN  , 64
    .byte BENDR, 12
    .byte W84
    .byte    N04, Gs3, v052
    .byte W04
    .byte    An3
    .byte W04
    .byte    As3, v060
    .byte W04
LABEL_080A3397:
    .byte    N30, Bn3, v080
    .byte W30
    .byte    N18, Bn3, v020
    .byte W18
    .byte VOICE, 28
    .byte    N03, Bn3, v040
    .byte W06
    .byte    Dn4
    .byte W06
    .byte    Fs4
    .byte W06
    .byte    Dn4
    .byte W06
    .byte    Bn3
    .byte W06
    .byte    Dn4
    .byte W06
    .byte    Fs4
    .byte W06
    .byte    Dn4
    .byte W06
    .byte PEND
LABEL_080A33B4:
    .byte    N03, Bn3, v040
    .byte W06
    .byte    Dn4
    .byte W06
    .byte    Fs4
    .byte W06
    .byte    Dn4
    .byte W06
    .byte    Bn3
    .byte W06
    .byte    Dn4
    .byte W06
    .byte    Fs4
    .byte W06
    .byte    Dn4
    .byte W06
    .byte    Bn3
    .byte W06
    .byte    Dn4
    .byte W06
    .byte    Fs4
    .byte W06
    .byte    Dn4
    .byte W06
    .byte    Bn3
    .byte W06
    .byte    Dn4
    .byte W06
    .byte    Fs4
    .byte W06
    .byte    Dn4
    .byte W06
    .byte PEND
    .byte    An3
    .byte W06
    .byte    Cs4
    .byte W06
    .byte    En4
    .byte W06
    .byte    Cs4
    .byte W06
    .byte    An3
    .byte W06
    .byte    Cs4
    .byte W06
    .byte    En4
    .byte W06
    .byte    Cs4
    .byte W06
    .byte    An3
    .byte W06
    .byte    Cs4
    .byte W06
    .byte    En4
    .byte W06
    .byte    Cs4
    .byte W06
    .byte    An3
    .byte W06
    .byte    Cs4
    .byte W06
    .byte    En4
    .byte W06
    .byte    Cs4
    .byte W06
    .byte    An3
    .byte W06
    .byte    Cs4
    .byte W06
    .byte    Fs4
    .byte W06
    .byte    Cs4
    .byte W06
    .byte    An3
    .byte W06
    .byte    Cs4
    .byte W06
    .byte    Fs4
    .byte W06
    .byte    Cs4
    .byte W06
    .byte    As3
    .byte W06
    .byte    Dn4
    .byte W06
    .byte    Fs4
    .byte W06
    .byte    Dn4
    .byte W06
    .byte    As3
    .byte W06
    .byte    Dn4
    .byte W06
    .byte VOICE, 30
    .byte    N04, Gs3, v052
    .byte W04
    .byte    An3
    .byte W04
    .byte    As3
    .byte W04
    .byte PATT
    .word LABEL_080A3397
    .byte PATT
    .word LABEL_080A33B4
    .byte    N03, Gn4, v040
    .byte W06
    .byte    Bn3
    .byte W06
    .byte    En4
    .byte W06
    .byte    Bn3
    .byte W06
    .byte    Gn3
    .byte W06
    .byte    Bn3
    .byte W06
    .byte    En4
    .byte W06
    .byte    Bn3
    .byte W06
    .byte    En3
    .byte W06
    .byte    An3
    .byte W06
    .byte    Cs4
    .byte W06
    .byte    An3
    .byte W06
    .byte    En3
    .byte W06
    .byte    An3
    .byte W06
    .byte    Cs4
    .byte W06
    .byte VOICE, 20
    .byte    N06, Fs3
    .byte W06
    .byte    Fs3, v020
    .byte W06
    .byte    Dn3, v040
    .byte W06
    .byte    Dn3, v020
    .byte W06
    .byte    En3, v040
    .byte W06
    .byte    En3, v020
    .byte W06
    .byte    Bn2, v040
    .byte W06
    .byte    Bn2, v020
    .byte W06
    .byte    Bn2, v012
    .byte W06
    .byte    Bn2, v008
    .byte W06
    .byte    Fs3, v040
    .byte W06
    .byte    Fs3, v020
    .byte W06
    .byte    Dn3, v040
    .byte W06
    .byte    Dn3, v020
    .byte W06
    .byte    En3, v040
    .byte W06
    .byte    En3, v020
    .byte W06
    .byte    Bn2, v040
    .byte W06
    .byte    Bn2, v020
    .byte W06
    .byte    Bn2, v012
    .byte W06
    .byte    N06
    .byte W06
    .byte    Fs3, v040
    .byte W06
    .byte    Fs3, v020
    .byte W06
    .byte    Dn3, v040
    .byte W06
    .byte    Dn3, v020
    .byte W06
    .byte    En3, v040
    .byte W06
    .byte    En3, v020
    .byte W06
    .byte    Bn2, v040
    .byte W06
    .byte    Bn2, v020
    .byte W06
    .byte    Bn2, v012
    .byte W06
    .byte    N06
    .byte W06
    .byte    Fs3, v040
    .byte W06
    .byte    Fs3, v020
    .byte W06
    .byte    Dn3, v040
    .byte W06
    .byte VOL  , 113
    .byte    N06, Dn3, v020
    .byte W06
    .byte    En3, v040
    .byte W06
    .byte VOL  , 108
    .byte    N06, En3, v020
    .byte W06
    .byte    Bn2, v040
    .byte W06
    .byte VOL  , 102
    .byte    N06, Bn2, v020
    .byte W06
    .byte    Bn2, v012
    .byte W06
    .byte VOL  , 98
    .byte    N06
    .byte W06
    .byte    Fs3, v040
    .byte W06
    .byte VOL  , 92
    .byte    N06, Fs3, v020
    .byte W06
    .byte    Dn3, v040
    .byte W06
    .byte VOL  , 86
    .byte    N06, Dn3, v020
    .byte W06
    .byte    En3, v040
    .byte W06
    .byte VOL  , 82
    .byte    N06, En3, v020
    .byte W06
    .byte    Bn2, v040
    .byte W06
    .byte VOL  , 76
    .byte    N06, Bn2, v020
    .byte W06
    .byte    Bn2, v012
    .byte W06
    .byte VOL  , 70
    .byte    N06
    .byte W06
    .byte    Fs3, v040
    .byte W06
    .byte VOL  , 66
    .byte    N06, Fs3, v020
    .byte W06
    .byte    Dn3, v040
    .byte W06
    .byte VOL  , 60
    .byte    N06, Dn3, v020
    .byte W06
    .byte    En3, v040
    .byte W06
    .byte VOL  , 55
    .byte    N06, En3, v020
    .byte W06
    .byte    Bn2, v040
    .byte W06
    .byte VOL  , 50
    .byte    N06, Bn2, v020
    .byte W06
    .byte    Bn2, v012
    .byte W06
    .byte VOL  , 44
    .byte    N06
    .byte W06
    .byte    Fs3, v040
    .byte W06
    .byte VOL  , 39
    .byte    N06, Fs3, v020
    .byte W06
    .byte    Dn3, v040
    .byte W06
    .byte VOL  , 34
    .byte    N06, Dn3, v020
    .byte W06
    .byte    En3, v040
    .byte W06
LABEL_080A3534:
    .byte VOL  , 28
    .byte W96
    .byte    Fn7
    .byte W44
    .byte W02
    .byte    N12, An2, v080
    .byte W12
    .byte    N06, An2, v040
    .byte W06
    .byte    N12, Gn2, v080
    .byte W12
    .byte    N06, Gn2, v040
    .byte W06
    .byte    N12, Fs2, v080
    .byte W12
    .byte    En2
    .byte W02
    .byte W10
    .byte    En2, v040
    .byte W12
    .byte    En2, v020
    .byte W12
    .byte    En2, v012
    .byte W60
    .byte    Gn2, v080
    .byte W02
LABEL_080A355D:
    .byte W10
    .byte    N12, Gn2, v040
    .byte W12
    .byte    Gn2, v020
    .byte W12
    .byte    Gn2, v012
    .byte W60
    .byte W02
    .byte PEND
    .byte W96
    .byte W44
    .byte W02
    .byte    An2, v080
    .byte W12
    .byte    N06, An2, v040
    .byte W06
    .byte    N12, Gn2, v080
    .byte W12
    .byte    N06, Gn2, v040
    .byte W06
    .byte    N12, An2, v080
    .byte W12
    .byte    Bn2
    .byte W02
    .byte W10
    .byte    Bn2, v040
    .byte W12
    .byte    Bn2, v020
    .byte W12
    .byte    Bn2, v012
    .byte W60
    .byte    Gn2, v080
    .byte W02
    .byte PATT
    .word LABEL_080A355D
    .byte GOTO
    .word LABEL_080A3534
    .byte FINE

Track_080A359A:
    .byte KEYSH, 0
    .byte VOICE, 15
    .byte VOL  , 103
    .byte PAN  , 64
    .byte XCMD , xIECV, 40, xIECL, 3
    .byte BENDR, 12
    .byte LFOS , 28
    .byte LFODL, 14
    .byte MOD  , 3
    .byte MODT , 0
    .byte W96
LABEL_080A35B2:
    .byte    N10, Bn2, v100
    .byte W12
    .byte    N12
    .byte W12
    .byte    Bn2, v040
    .byte W12
    .byte    N05, An2, v100
    .byte W06
    .byte    N06, Bn2
    .byte W06
    .byte    Bn2, v040
    .byte W06
    .byte    N05, En2, v100
    .byte W06
    .byte    Fs2
    .byte W06
    .byte    An2
    .byte W06
    .byte    N06, Bn2
    .byte W06
    .byte    Bn2, v040
    .byte W06
    .byte    An2, v100
    .byte W06
    .byte    An2, v040
    .byte W06
    .byte PEND
LABEL_080A35DA:
    .byte    N10, Gn2, v100
    .byte W12
    .byte    N12
    .byte W12
    .byte    Gn2, v040
    .byte W12
    .byte    N05, Fs2, v100
    .byte W06
    .byte    N06, Gn2
    .byte W06
    .byte    Gn2, v040
    .byte W06
    .byte    N05, Cn2, v100
    .byte W06
    .byte    Dn2
    .byte W06
    .byte    Fs2
    .byte W06
    .byte    N06, Gn2
    .byte W06
    .byte    Gn2, v040
    .byte W06
    .byte    N05, Fs2, v100
    .byte W06
    .byte    N06, Gn2
    .byte W06
    .byte PEND
    .byte    N10, An2
    .byte W12
    .byte    N12
    .byte W12
    .byte    An2, v040
    .byte W12
    .byte    N05, Gn2, v100
    .byte W06
    .byte    N06, An2
    .byte W06
    .byte    An2, v040
    .byte W06
    .byte    N05, Dn2, v100
    .byte W06
    .byte    En2
    .byte W06
    .byte    Gn2
    .byte W06
    .byte    N06, An2
    .byte W06
    .byte    An2, v040
    .byte W06
    .byte    Gn2, v100
    .byte W06
    .byte    Gn2, v040
    .byte W06
    .byte    N10, Dn3, v100
    .byte W12
    .byte    N12
    .byte W12
    .byte    Dn3, v040
    .byte W12
    .byte    N05, Cn3, v100
    .byte W06
    .byte    N06, Dn3
    .byte W06
    .byte    Dn3, v040
    .byte W06
    .byte    N05, Gn2, v100
    .byte W06
    .byte    An2
    .byte W06
    .byte    Cn3
    .byte W06
    .byte    Dn3
    .byte W06
    .byte    An2
    .byte W06
    .byte    Cn3
    .byte W06
    .byte    N06, Dn3
    .byte W06
    .byte PATT
    .word LABEL_080A35B2
    .byte PATT
    .word LABEL_080A35DA
    .byte    N10, En2, v100
    .byte W12
    .byte    N12
    .byte W12
    .byte    N06, En2, v040
    .byte W06
    .byte    N05, En2, v100
    .byte W06
    .byte    Dn2
    .byte W06
    .byte    N06, En2
    .byte W06
    .byte    N10, Fs2
    .byte W12
    .byte    N06
    .byte W06
    .byte    Fs2, v040
    .byte W06
    .byte    N05, Fs2, v100
    .byte W06
    .byte    En2
    .byte W06
    .byte    Dn2
    .byte W06
    .byte TIE, Cn2
    .byte W06
    .byte W96
    .byte W96
    .byte W48
    .byte VOL  , 75
    .byte W48
    .byte W48
    .byte    Bn1
    .byte W24
    .byte EOT
    .byte VOL  , 103
    .byte    N12, Cs2
    .byte W12
    .byte    Cs2, v052
    .byte W12
LABEL_080A368F:
    .byte    N10, Dn2, v100
    .byte W12
    .byte    N12, Dn2, v040
    .byte W12
    .byte    Dn2, v020
    .byte W12
    .byte    Dn2, v100
    .byte W12
    .byte    Dn2, v040
    .byte W12
    .byte    Dn2, v100
    .byte W12
    .byte    Dn2, v040
    .byte W12
    .byte    An2, v100
    .byte W12
    .byte PEND
LABEL_080A36AA:
    .byte    N10, Dn2, v100
    .byte W12
    .byte    N12, Dn2, v040
    .byte W12
    .byte    Dn2, v020
    .byte W12
    .byte    Dn2, v100
    .byte W12
    .byte    Dn2, v040
    .byte W12
    .byte    Dn2, v100
    .byte W12
    .byte    Dn2, v040
    .byte W12
    .byte    Cs2, v100
    .byte W12
    .byte PEND
LABEL_080A36C5:
    .byte    N10, Cn2, v100
    .byte W12
    .byte    N12, Cn2, v040
    .byte W12
    .byte    Cn2, v020
    .byte W12
    .byte    Cn2, v100
    .byte W12
    .byte    Cn2, v040
    .byte W12
    .byte    Cn2, v100
    .byte W12
    .byte    Cn2, v040
    .byte W12
    .byte    Gn2, v100
    .byte W12
    .byte PEND
LABEL_080A36E0:
    .byte    N10, Cn2, v100
    .byte W12
    .byte    N12, Cn2, v040
    .byte W12
    .byte    Cn2, v020
    .byte W12
    .byte    Cn3, v100
    .byte W12
    .byte    Cn3, v040
    .byte W12
    .byte    Cn2, v100
    .byte W12
    .byte    Cn2, v040
    .byte W12
    .byte    Cs2, v100
    .byte W12
    .byte PEND
    .byte PATT
    .word LABEL_080A368F
    .byte PATT
    .word LABEL_080A36AA
    .byte PATT
    .word LABEL_080A36C5
    .byte PATT
    .word LABEL_080A36E0
    .byte GOTO
    .word LABEL_080A368F
    .byte FINE

Track_080A3715:
    .byte KEYSH, 0
    .byte VOICE, 2
    .byte VOL  , 94
    .byte PAN  , 64
    .byte XCMD , xIECV, 40, xIECL, 3
    .byte BENDR, 12
    .byte LFOS , 31
    .byte LFODL, 14
    .byte MOD  , 6
    .byte MODT , 0
    .byte W72
    .byte    N12, Bn3, v100
    .byte W12
    .byte    Dn4
    .byte W12
    .byte    Fs4
    .byte W12
    .byte    En4
    .byte W12
    .byte    Dn4
    .byte W12
    .byte    N06, En4
    .byte W06
    .byte LFODL, 8
    .byte    N24, Bn3
    .byte W24
    .byte    N06, Bn3, v040
    .byte W06
    .byte LFODL, 14
    .byte    N12, Bn3, v100
    .byte W12
    .byte    Dn4
    .byte W12
LABEL_080A374D:
    .byte    N12, Fs4, v100
    .byte W12
    .byte    En4
    .byte W12
    .byte    Dn4
    .byte W12
    .byte    N06, En4
    .byte W06
    .byte LFODL, 8
    .byte    N24, Bn3
    .byte W24
    .byte    N06, Bn3, v060
    .byte W06
    .byte LFODL, 14
    .byte    N12, Bn3, v100
    .byte W12
    .byte    Dn4
    .byte W12
    .byte PEND
    .byte LFODL, 8
    .byte    N24, En4
    .byte W24
    .byte    Dn4
    .byte W24
    .byte    Cs4
    .byte W24
    .byte    An3
    .byte W24
    .byte LFODL, 14
    .byte    N60, An4
    .byte W60
    .byte    N12, Gn4
    .byte W12
    .byte    Fs4
    .byte W12
    .byte    Gn4
    .byte W12
    .byte PATT
    .word LABEL_080A374D
    .byte PATT
    .word LABEL_080A374D
    .byte LFODL, 8
    .byte    N24, En4, v100
    .byte W24
    .byte    Dn4
    .byte W24
    .byte    Cs4
    .byte W24
    .byte    N18, An3
    .byte W18
    .byte LFODL, 14
    .byte TIE, Bn3
    .byte W06
    .byte W96
    .byte W48
    .byte VOL  , 94
    .byte W12
    .byte    Fn5
    .byte W12
    .byte    Cs5
    .byte W12
    .byte    Gs4
    .byte W12
    .byte    Ds4
    .byte W12
    .byte    As3
    .byte W12
    .byte    Fs3
    .byte W12
    .byte    Cs3
    .byte W12
    .byte    Gs2
    .byte W12
    .byte    Ds2
    .byte W12
    .byte    Bn1
    .byte W12
    .byte    Fs1
    .byte W12
    .byte    Cs1
    .byte W12
    .byte    An0
    .byte W12
    .byte    En0
    .byte W12
    .byte    BnM1
    .byte W12
    .byte EOT
    .byte VOL  , 18
    .byte    N06
    .byte W06
    .byte    Bn3, v040
    .byte W06
    .byte    An3, v100
    .byte W06
    .byte    An3, v040
    .byte W06
    .byte VOL  , 33
    .byte    N06, Bn3, v100
    .byte W06
    .byte    Bn3, v040
    .byte W06
    .byte    Cs4, v100
    .byte W06
    .byte    Cs4, v040
    .byte W06
LABEL_080A37DD:
    .byte VOL  , 94
    .byte W12
    .byte    N06, Dn4, v100
    .byte W06
    .byte    Dn4, v052
    .byte W06
    .byte    En4, v100
    .byte W06
    .byte    En4, v052
    .byte W06
    .byte    Fs4, v100
    .byte W06
    .byte    Fs4, v052
    .byte W06
    .byte    Gn4, v100
    .byte W06
    .byte    Gn4, v052
    .byte W06
    .byte    Gn4, v032
    .byte W06
    .byte    Fs4, v100
    .byte W06
    .byte    Fs4, v052
    .byte W06
    .byte    Fs4, v032
    .byte W06
    .byte    Dn4, v100
    .byte W06
    .byte    Dn4, v052
    .byte W06
    .byte    Gn4, v100
    .byte W06
    .byte    Gn4, v052
    .byte W06
    .byte    Gn4, v032
    .byte W06
    .byte    Fs4, v100
    .byte W06
    .byte    Fs4, v052
    .byte W06
    .byte    Fs4, v032
    .byte W06
    .byte    N54, An4, v100
    .byte W54
    .byte    N06, An4, v052
    .byte W06
    .byte W96
    .byte W96
    .byte W12
    .byte    Dn4, v100
    .byte W06
    .byte    Dn4, v052
    .byte W06
    .byte    En4, v100
    .byte W06
    .byte    En4, v052
    .byte W06
    .byte    Fs4, v100
    .byte W06
    .byte    Fs4, v052
    .byte W06
    .byte    Gn4, v100
    .byte W06
    .byte    Gn4, v052
    .byte W06
    .byte    Gn4, v032
    .byte W06
    .byte    Fs4, v100
    .byte W06
    .byte    Fs4, v052
    .byte W06
    .byte    Fs4, v032
    .byte W06
    .byte    Dn4, v100
    .byte W06
    .byte    Dn4, v052
    .byte W06
    .byte    Gn4, v100
    .byte W06
    .byte    Gn4, v052
    .byte W06
    .byte    Gn4, v032
    .byte W06
    .byte    Fs4, v100
    .byte W06
    .byte    Fs4, v052
    .byte W06
    .byte    Fs4, v032
    .byte W06
    .byte    N54, Dn4, v100
    .byte W54
    .byte    N06, Dn4, v052
    .byte W06
    .byte W96
    .byte W96
    .byte GOTO
    .word LABEL_080A37DD
    .byte FINE

Track_080A3874:
    .byte KEYSH, 0
    .byte W06
    .byte VOICE, 27
    .byte PAN  , 64
    .byte W06
    .byte VOL  , 0
    .byte BENDR, 12
    .byte LFOS , 30
    .byte LFODL, 12
    .byte MOD  , 4
    .byte MODT , 0
    .byte    N72, As2, v080
    .byte    N80, En3
    .byte    N84, An3
    .byte W05
    .byte VOL  , 2
    .byte W05
    .byte    EnM2
    .byte W05
    .byte    GnM2
    .byte W05
    .byte    AsM2
    .byte W04
    .byte    BnM2
    .byte W08
    .byte    CnM1
    .byte W04
    .byte    DnM1
    .byte W04
    .byte    DsM1
    .byte W04
    .byte    FnM1
    .byte W04
    .byte    GnM1
    .byte W04
    .byte    BnM1
    .byte W04
    .byte    En0
    .byte W04
    .byte    As0
    .byte W04
    .byte    Fs1
    .byte W04
    .byte    Fn2
    .byte W04
    .byte    Fs3
    .byte W04
    .byte    Cs5
    .byte W04
    .byte    Bn6
    .byte W04
    .byte VOICE, 21
    .byte VOL  , 113
    .byte TIE, Bn3, v040
    .byte W96
    .byte W96
    .byte EOT
    .byte TIE, An3
    .byte W96
    .byte W72
    .byte EOT
    .byte    N24, As3
    .byte W24
    .byte TIE, Bn3
    .byte W96
    .byte W96
    .byte EOT
    .byte    N48, An3
    .byte W48
    .byte    N42, Fs3, v032
    .byte W42
    .byte TIE, En3, v016
    .byte TIE, Gn3, v032
    .byte W06
    .byte W96
    .byte W96
    .byte VOL  , 113
    .byte W12
    .byte    Cn7
    .byte W12
    .byte    Fs6
    .byte W12
    .byte    Dn6
    .byte W12
    .byte    Gs5
    .byte W12
    .byte    Dn5
    .byte W12
    .byte    As4
    .byte W12
    .byte    En4
    .byte W12
    .byte    As3
    .byte W12
    .byte    Fs3
    .byte W12
    .byte    Cn3
    .byte W12
    .byte    Gn2
    .byte W12
    .byte    Dn2
    .byte W12
    .byte    Gs1
    .byte W12
    .byte    Ds1
    .byte W12
    .byte    As0
    .byte W12
    .byte EOT, En3, v067
LABEL_080A3900:
    .byte VOICE, 22
    .byte VOL  , 75
    .byte BEND , 64
    .byte TIE, Dn3, v040
    .byte TIE, Fs3
    .byte W96
LABEL_080A390C:
    .byte W84
    .byte W02
    .byte BEND , 63
    .byte W03
    .byte    Dn3
    .byte W02
    .byte    Cs3
    .byte W01
    .byte    Cn3
    .byte W01
    .byte    Bn2
    .byte W01
    .byte    As2
    .byte W01
    .byte    Gs2
    .byte W01
    .byte PEND
    .byte    Fn2
    .byte W96
    .byte W96
    .byte EOT, Dn3, v066
    .byte BEND , 64
    .byte TIE, Dn3, v040
    .byte TIE, Fs3
    .byte W96
    .byte PATT
    .word LABEL_080A390C
    .byte BEND , 53
    .byte W96
    .byte W96
    .byte EOT, Dn3, v066
    .byte GOTO
    .word LABEL_080A3900
    .byte FINE

    .align 2, 0

global_label SongHeader_080A3940
    .byte 6
    .byte 0
    .byte 0
    .byte 163
    .word 0x809EF60
    .word Track_080A2F38
    .word Track_080A320B
    .word Track_080A3383
    .word Track_080A359A
    .word Track_080A3715
    .word Track_080A3874

    .end
