Track_080A50D8:
    .byte KEYSH, 0
LABEL_080A50DA:
    .byte TEMPO, 75
    .byte VOICE, 0
    .byte VOL  , 120
    .byte PAN  , 64
    .byte XCMD , xIECL, 0, xIECL, 0
    .byte BENDR, 12
    .byte LFOS , 0
    .byte LFODL, 0
    .byte MODT , 0
    .byte MOD  , 4
    .byte PRIO , 20
    .byte    N06, Bn0, v112
    .byte    N36, Cs2, v060
    .byte W18
    .byte    N06, Cs1, v127
    .byte W18
    .byte    Bn0, v100
    .byte    N02, Fs1, v052
    .byte W06
    .byte    Fs1, v032
    .byte W06
    .byte    N06, Bn0, v112
    .byte    N02, Fs1, v060
    .byte W06
    .byte    Fs1, v032
    .byte W06
    .byte    N06, Bn0, v100
    .byte    N02, Fs1, v052
    .byte W06
    .byte    Fs1, v032
    .byte W06
    .byte    N06, Cs1, v127
    .byte    N02, Fs1, v060
    .byte W06
    .byte    Fs1, v032
    .byte W06
    .byte    Fs1, v052
    .byte W06
    .byte    Fs1, v032
    .byte W06
LABEL_080A512B:
    .byte    N06, Bn0, v112
    .byte    N02, Fs1, v060
    .byte W06
    .byte    Fs1, v032
    .byte W06
    .byte    Fs1, v052
    .byte W06
    .byte    N06, Cs1, v127
    .byte    N02, Fs1, v032
    .byte W06
    .byte    Fs1, v060
    .byte W06
    .byte    Fs1, v032
    .byte W06
    .byte    N06, Bn0, v100
    .byte    N02, Fs1, v052
    .byte W06
    .byte    N06, Bn0, v060
    .byte    N02, Fs1, v032
    .byte W06
    .byte    N06, Bn0, v112
    .byte    N02, Fs1, v060
    .byte W06
    .byte    Fs1, v032
    .byte W06
    .byte    N06, Bn0, v100
    .byte    N02, Fs1, v052
    .byte W06
    .byte    Fs1, v032
    .byte W06
    .byte    N06, Cs1, v127
    .byte    N02, Fs1, v060
    .byte W06
    .byte    Fs1, v032
    .byte W06
    .byte    Fs1, v052
    .byte W06
    .byte    Fs1, v032
    .byte W06
    .byte PEND
LABEL_080A5178:
    .byte    N06, Bn0, v112
    .byte    N36, Cs2, v060
    .byte W18
    .byte    N06, Cs1, v127
    .byte W18
    .byte    Bn0, v100
    .byte    N02, Fs1, v052
    .byte W06
    .byte    Fs1, v032
    .byte W06
    .byte    N06, Bn0, v112
    .byte    N02, Fs1, v060
    .byte W06
    .byte    Fs1, v032
    .byte W06
    .byte    N06, Bn0, v100
    .byte    N02, Fs1, v052
    .byte W06
    .byte    Fs1, v032
    .byte W06
    .byte    N06, Cs1, v127
    .byte    N02, Fs1, v060
    .byte W06
    .byte    Fs1, v032
    .byte W06
    .byte    Fs1, v052
    .byte W06
    .byte    Fs1, v032
    .byte W06
    .byte PEND
    .byte PATT
    .word LABEL_080A512B
    .byte PATT
    .word LABEL_080A5178
    .byte PATT
    .word LABEL_080A512B
    .byte PATT
    .word LABEL_080A5178
    .byte    N06, Bn0, v112
    .byte    N02, Fs1, v060
    .byte W06
    .byte    Fs1, v032
    .byte W06
    .byte    Fs1, v052
    .byte W06
    .byte    N06, Cs1, v127
    .byte    N02, Fs1, v032
    .byte W06
    .byte    Fs1, v060
    .byte W06
    .byte    Fs1, v032
    .byte W06
    .byte    N06, Bn0, v100
    .byte    N02, Fs1, v052
    .byte W06
    .byte    N06, Bn0, v060
    .byte    N02, Fs1, v032
    .byte W06
    .byte    N06, Bn0, v112
    .byte    N02, Fs1, v060
    .byte W06
    .byte    Fs1, v032
    .byte W06
    .byte    N06, Bn0, v100
    .byte    N02, Fs1, v052
    .byte W06
    .byte    Fs1, v032
    .byte W06
    .byte    N06, Cs1, v060
    .byte    N02, Fs1
    .byte W06
    .byte    N06, Cs1, v080
    .byte    N02, Fs1, v032
    .byte W06
    .byte    N06, Bn0, v060
    .byte    N06, Cs1, v100
    .byte    N02, Fs1, v052
    .byte W06
    .byte    N06, Bn0, v092
    .byte    N06, Cs1, v127
    .byte    N02, Fs1, v032
    .byte W06
    .byte GOTO
    .word LABEL_080A50DA
    .byte FINE

Track_080A5228:
    .byte KEYSH, 0
LABEL_080A522A:
    .byte VOICE, 15
    .byte VOL  , 85
    .byte PAN  , 64
    .byte XCMD , xIECL, 0, xIECL, 0
    .byte BENDR, 12
    .byte LFOS , 0
    .byte LFODL, 0
    .byte MODT , 0
    .byte MOD  , 4
    .byte PRIO , 20
    .byte    N06, Cs2, v127
    .byte W06
    .byte    N06
    .byte W06
    .byte    Cs2, v040
    .byte W06
    .byte    Cs3, v100
    .byte W06
    .byte    Cs3, v060
    .byte W06
    .byte    Cs3, v040
    .byte W06
    .byte    Cs2, v127
    .byte W06
    .byte    Cs2, v040
    .byte W06
    .byte    Cs2, v127
    .byte W06
    .byte    Cs2, v040
    .byte W06
    .byte    Cs2, v127
    .byte W06
    .byte    Cs2, v040
    .byte W06
    .byte    Cs3, v100
    .byte W06
    .byte    Cs3, v040
    .byte W06
    .byte    Cs2, v127
    .byte W06
    .byte    Cs2, v040
    .byte W06
LABEL_080A5271:
    .byte    N06, Cs2, v127
    .byte W06
    .byte    Cs2, v040
    .byte W06
    .byte    Cs2, v127
    .byte W06
    .byte    Cs2, v040
    .byte W06
    .byte    Cs3, v100
    .byte W06
    .byte    Cs3, v040
    .byte W06
    .byte    Cs2, v127
    .byte W06
    .byte    Cs2, v040
    .byte W06
    .byte    N12, En2, v127
    .byte W12
    .byte    N06, En2, v040
    .byte W06
    .byte    N12, Ds2, v127
    .byte W12
    .byte    N06, Ds2, v040
    .byte W06
    .byte    N12, Dn2, v127
    .byte W12
    .byte PEND
    .byte    N06, Cs2
    .byte W06
    .byte    N06
    .byte W06
    .byte    Cs2, v040
    .byte W06
    .byte    Cs3, v100
    .byte W06
    .byte    Cs3, v060
    .byte W06
    .byte    Cs3, v040
    .byte W06
    .byte    Cs2, v127
    .byte W06
    .byte    Cs2, v040
    .byte W06
    .byte    Cs2, v127
    .byte W06
    .byte    Cs2, v040
    .byte W06
    .byte    Cs2, v127
    .byte W06
    .byte    Cs2, v040
    .byte W06
    .byte    Cs3, v100
    .byte W06
    .byte    Cs3, v040
    .byte W06
    .byte    Cs2, v127
    .byte W06
    .byte    Cs2, v040
    .byte W06
    .byte PATT
    .word LABEL_080A5271
LABEL_080A52D3:
    .byte    N06, Ds2, v127
    .byte W06
    .byte    N06
    .byte W06
    .byte    Ds2, v040
    .byte W06
    .byte    Ds3, v100
    .byte W06
    .byte    Ds3, v060
    .byte W06
    .byte    Ds3, v040
    .byte W06
    .byte    Ds2, v127
    .byte W06
    .byte    Ds2, v040
    .byte W06
    .byte    Ds2, v127
    .byte W06
    .byte    Ds2, v040
    .byte W06
    .byte    Ds2, v127
    .byte W06
    .byte    Ds2, v040
    .byte W06
    .byte    Ds3, v100
    .byte W06
    .byte    Ds3, v040
    .byte W06
    .byte    Ds2, v127
    .byte W06
    .byte    Ds2, v040
    .byte W06
    .byte PEND
    .byte    Ds2, v127
    .byte W06
    .byte    Ds2, v040
    .byte W06
    .byte    Ds2, v127
    .byte W06
    .byte    Ds2, v040
    .byte W06
    .byte    Ds3, v100
    .byte W06
    .byte    Ds3, v040
    .byte W06
    .byte    Ds2, v127
    .byte W06
    .byte    Ds2, v040
    .byte W06
    .byte    N12, Fs2, v127
    .byte W12
    .byte    N06, Fs2, v040
    .byte W06
    .byte    N12, Fn2, v127
    .byte W12
    .byte    N06, Fn2, v040
    .byte W06
    .byte    N12, En2, v127
    .byte W12
    .byte PATT
    .word LABEL_080A52D3
    .byte    N06, Ds2, v127
    .byte W06
    .byte    Ds2, v040
    .byte W06
    .byte    Ds2, v127
    .byte W06
    .byte    Ds2, v040
    .byte W06
    .byte    Ds3, v100
    .byte W06
    .byte    Ds3, v040
    .byte W06
    .byte    Ds2, v127
    .byte W06
    .byte    Ds2, v040
    .byte W06
    .byte    N12, En2, v127
    .byte W12
    .byte    N06, En2, v040
    .byte W06
    .byte    N12, Ds2, v127
    .byte W12
    .byte    N06, Ds2, v040
    .byte W06
    .byte    N12, Dn2, v127
    .byte W12
    .byte GOTO
    .word LABEL_080A522A
    .byte FINE

Track_080A5368:
    .byte KEYSH, 0
LABEL_080A536A:
    .byte VOICE, 5
    .byte VOL  , 103
    .byte PAN  , 64
    .byte XCMD , xIECL, 0, xIECL, 0
    .byte BENDR, 12
    .byte LFOS , 28
    .byte LFODL, 14
    .byte MODT , 0
    .byte MOD  , 6
    .byte PRIO , 20
    .byte    N06, Cs3, v100
    .byte W06
    .byte    En3
    .byte W06
    .byte    En3, v040
    .byte W06
    .byte    Bn3, v100
    .byte W06
    .byte    Bn3, v040
    .byte W06
    .byte    Bn3, v020
    .byte W06
    .byte TIE, As3, v100
    .byte W60
    .byte W96
    .byte EOT
    .byte    N06, Cs3
    .byte W06
    .byte    En3
    .byte W06
    .byte    En3, v040
    .byte W06
    .byte    Bn3, v100
    .byte W06
    .byte    Bn3, v040
    .byte W06
    .byte    Bn3, v020
    .byte W06
    .byte TIE, As3, v100
    .byte W60
    .byte W96
    .byte EOT
LABEL_080A53B0:
    .byte    N06, Ds3, v100
    .byte W06
    .byte    Fs3
    .byte W06
    .byte    Fs3, v040
    .byte W06
    .byte    Cs4, v100
    .byte W06
    .byte    Cs4, v040
    .byte W06
    .byte    Cs4, v020
    .byte W06
    .byte TIE, Cn4, v100
    .byte W60
    .byte PEND
    .byte W96
    .byte EOT
    .byte PATT
    .word LABEL_080A53B0
    .byte W96
    .byte EOT, Cn4
    .byte GOTO
    .word LABEL_080A536A
    .byte FINE

Track_080A53D7:
    .byte KEYSH, 0
LABEL_080A53D9:
    .byte VOICE, 2
    .byte VOL  , 75
    .byte PAN  , 0
    .byte XCMD , xIECL, 0, xIECL, 0
    .byte BENDR, 12
    .byte LFOS , 28
    .byte LFODL, 14
    .byte MODT , 0
    .byte MOD  , 4
    .byte PRIO , 20
    .byte    N03, Gs4, v100
    .byte W06
    .byte    Ds4
    .byte W06
    .byte    En4
    .byte W06
    .byte    Cs4
    .byte W06
    .byte PAN  , 127
    .byte    N03, Gs4
    .byte W06
    .byte    Ds4
    .byte W06
    .byte    En4
    .byte W06
    .byte    Cs4
    .byte W06
    .byte PAN  , 0
    .byte    N03, Gs4
    .byte W06
    .byte    Ds4
    .byte W06
    .byte    En4
    .byte W06
    .byte    Cs4
    .byte W06
    .byte PAN  , 127
    .byte    N03, Gs4
    .byte W06
    .byte    Ds4
    .byte W06
    .byte    En4
    .byte W06
    .byte    Cs4
    .byte W06
LABEL_080A541B:
    .byte PAN  , 0
    .byte    N03, Gs4, v100
    .byte W06
    .byte    Ds4
    .byte W06
    .byte    En4
    .byte W06
    .byte    Cs4
    .byte W06
    .byte PAN  , 127
    .byte    N03, Gs4
    .byte W06
    .byte    Ds4
    .byte W06
    .byte    En4
    .byte W06
    .byte    Cs4
    .byte W06
    .byte PAN  , 0
    .byte    N03, Gs4
    .byte W06
    .byte    Ds4
    .byte W06
    .byte    En4
    .byte W06
    .byte    Cs4
    .byte W06
    .byte PAN  , 127
    .byte    N03, Gs4
    .byte W06
    .byte    Ds4
    .byte W06
    .byte    En4
    .byte W06
    .byte    Cs4
    .byte W06
    .byte PEND
    .byte PATT
    .word LABEL_080A541B
    .byte PATT
    .word LABEL_080A541B
LABEL_080A5453:
    .byte PAN  , 0
    .byte    N03, As4, v100
    .byte W06
    .byte    Fn4
    .byte W06
    .byte    Fs4
    .byte W06
    .byte    Ds4
    .byte W06
    .byte PAN  , 127
    .byte    N03, As4
    .byte W06
    .byte    Fn4
    .byte W06
    .byte    Fs4
    .byte W06
    .byte    Ds4
    .byte W06
    .byte PAN  , 0
    .byte    N03, As4
    .byte W06
    .byte    Fn4
    .byte W06
    .byte    Fs4
    .byte W06
    .byte    Ds4
    .byte W06
    .byte PAN  , 127
    .byte    N03, As4
    .byte W06
    .byte    Fn4
    .byte W06
    .byte    Fs4
    .byte W06
    .byte    Ds4
    .byte W06
    .byte PEND
    .byte PATT
    .word LABEL_080A5453
    .byte PATT
    .word LABEL_080A5453
    .byte PATT
    .word LABEL_080A5453
    .byte GOTO
    .word LABEL_080A53D9
    .byte FINE

Track_080A5496:
    .byte KEYSH, 0
LABEL_080A5498:
    .byte VOICE, 16
    .byte VOL  , 94
    .byte PAN  , 64
    .byte BENDR, 12
    .byte W48
    .byte    N06, En3, v052
    .byte    N06, Bn3, v060
    .byte W06
    .byte    En3, v020
    .byte    N06, Bn3, v040
    .byte W06
    .byte    En3, v012
    .byte    N06, Bn3, v020
    .byte W06
    .byte    En3, v052
    .byte    N06, As3, v060
    .byte W06
    .byte    En3, v020
    .byte    N06, As3, v040
    .byte W06
    .byte    En3, v012
    .byte    N06, As3, v020
    .byte W18
LABEL_080A54C6:
    .byte W48
    .byte    N06, En3, v052
    .byte    N06, Bn3, v060
    .byte W06
    .byte    En3, v020
    .byte    N06, Bn3, v040
    .byte W06
    .byte    En3, v012
    .byte    N06, Bn3, v020
    .byte W06
    .byte    En3, v052
    .byte    N06, As3, v060
    .byte W06
    .byte    En3, v020
    .byte    N06, As3, v040
    .byte W06
    .byte    En3, v012
    .byte    N06, As3, v020
    .byte W18
    .byte PEND
    .byte PATT
    .word LABEL_080A54C6
    .byte W48
    .byte    N06, En3, v052
    .byte    N06, Bn3, v060
    .byte W06
    .byte    En3, v020
    .byte    N06, Bn3, v040
    .byte W06
    .byte    En3, v012
    .byte    N06, Bn3, v020
    .byte W06
    .byte    En3, v052
    .byte    N06, As3, v060
    .byte W06
    .byte    En3, v020
    .byte    N06, As3, v040
    .byte W06
    .byte    En3, v012
    .byte    N06, As3, v020
    .byte W06
    .byte    Gs3, v052
    .byte    N06, Cs4, v060
    .byte W06
    .byte    Gs3, v012
    .byte    N06, Cs4, v020
    .byte W06
LABEL_080A5524:
    .byte W48
    .byte    N06, Fs3, v052
    .byte    N06, Cs4, v060
    .byte W06
    .byte    Fs3, v020
    .byte    N06, Cs4, v040
    .byte W06
    .byte    Fs3, v012
    .byte    N06, Cs4, v020
    .byte W06
    .byte    Fs3, v052
    .byte    N06, Cn4, v060
    .byte W06
    .byte    Fs3, v020
    .byte    N06, Cn4, v040
    .byte W06
    .byte    Fs3, v012
    .byte    N06, Cn4, v020
    .byte W18
    .byte PEND
    .byte PATT
    .word LABEL_080A5524
    .byte PATT
    .word LABEL_080A5524
    .byte W48
    .byte    N06, Fs3, v052
    .byte    N06, Cs4, v060
    .byte W06
    .byte    Fs3, v020
    .byte    N06, Cs4, v040
    .byte W06
    .byte    Fs3, v012
    .byte    N06, Cs4, v020
    .byte W06
    .byte    Fs3, v052
    .byte    N06, Cn4, v060
    .byte W06
    .byte    Fs3, v020
    .byte    N06, Cn4, v040
    .byte W06
    .byte    Fs3, v012
    .byte    N06, Cn4, v020
    .byte W06
    .byte    Fn3, v052
    .byte    N06, Bn3, v060
    .byte W06
    .byte    Fn3, v012
    .byte    N06, Bn3, v020
    .byte W06
    .byte GOTO
    .word LABEL_080A5498
    .byte FINE

    .align 2, 0

global_label SongHeader_080A5590
    .byte 5
    .byte 0
    .byte 0
    .byte 163
    .word 0x809F380
    .word Track_080A50D8
    .word Track_080A5228
    .word Track_080A5368
    .word Track_080A53D7
    .word Track_080A5496
