Track_080AA144:
    .byte KEYSH, 0
    .byte TEMPO, 76
    .byte W24
LABEL_080AA149:
    .byte VOICE, 0
    .byte VOL  , 120
    .byte PAN  , 64
    .byte XCMD , xIECV, 20, xIECL, 2
    .byte    N06, Bn0, v112
    .byte    N42, Cs2, v072
    .byte W12
    .byte    N06, Bn0, v092
    .byte W12
    .byte    N10, Cs1, v120
    .byte W12
    .byte    N06, Bn0, v080
    .byte W06
    .byte    Cs1, v032
    .byte W06
    .byte    Bn0, v112
    .byte    N02, Fs1, v072
    .byte W06
    .byte    N06, Cs1, v080
    .byte W06
    .byte    Bn0, v092
    .byte    N02, Fs1, v072
    .byte W12
LABEL_080AA17A:
    .byte    N10, Cs1, v120
    .byte    N02, Fs1, v072
    .byte W12
    .byte    N06, Bn0, v080
    .byte    N12, As1, v052
    .byte W12
    .byte    N06, Bn0, v112
    .byte    N02, Fs1, v072
    .byte W12
    .byte    N06, Bn0, v092
    .byte    N02, Fs1, v052
    .byte W12
    .byte    N10, Cs1, v120
    .byte    N02, Fs1, v072
    .byte W12
    .byte    N06, Bn0, v080
    .byte    N02, Fs1, v052
    .byte W06
    .byte    N06, Cs1, v032
    .byte W06
    .byte    Bn0, v112
    .byte    N02, Fs1, v072
    .byte W06
    .byte    N06, Cs1, v080
    .byte W06
    .byte    Bn0, v092
    .byte    N02, Fs1, v072
    .byte W12
    .byte PEND
    .byte    N10, Cs1, v120
    .byte    N02, Fs1, v072
    .byte W12
    .byte    N06, Bn0, v080
    .byte    N02, Fs1, v052
    .byte W12
    .byte    N06, Bn0, v112
    .byte    N36, Cs2, v060
    .byte W12
    .byte    N06, Bn0, v092
    .byte W12
    .byte    N10, Cs1, v120
    .byte W12
    .byte    N06, Bn0, v080
    .byte    N02, Fs1, v052
    .byte W06
    .byte    N06, Cs1, v032
    .byte W06
    .byte    Bn0, v112
    .byte    N02, Fs1, v072
    .byte W06
    .byte    N06, Cs1, v080
    .byte W06
    .byte    Bn0, v092
    .byte    N02, Fs1, v072
    .byte W12
    .byte PATT
    .word LABEL_080AA17A
LABEL_080AA1F6:
    .byte    N06, Cs1, v120
    .byte    N02, Fs1, v072
    .byte W06
    .byte    N06, Cs1, v060
    .byte W06
    .byte    Cs1, v092
    .byte    N02, Fs1, v052
    .byte W06
    .byte    N06, Cs1, v120
    .byte W06
    .byte    Bn0, v112
    .byte    N42, Cs2, v072
    .byte W12
    .byte    N06, Bn0, v092
    .byte W12
    .byte    N10, Cs1, v120
    .byte W12
    .byte    N06, Bn0, v080
    .byte W06
    .byte    Cs1, v032
    .byte W06
    .byte    Bn0, v112
    .byte    N02, Fs1, v072
    .byte W06
    .byte    N06, Cs1, v080
    .byte W06
    .byte    Bn0, v092
    .byte    N02, Fs1, v072
    .byte W12
    .byte PEND
    .byte PATT
    .word LABEL_080AA17A
LABEL_080AA236:
    .byte    N10, Cs1, v120
    .byte    N02, Fs1, v072
    .byte W12
    .byte    N06, Bn0, v080
    .byte    N02, Fs1, v052
    .byte W06
    .byte    N06, Cs1, v080
    .byte W06
    .byte    Bn0, v112
    .byte    N02, Fs1, v072
    .byte W12
    .byte    N06, Bn0, v092
    .byte    N02, Fs1, v052
    .byte W12
    .byte    N10, Cs1, v120
    .byte    N02, Fs1, v072
    .byte W12
    .byte    N06, Bn0, v080
    .byte    N02, Fs1, v052
    .byte W06
    .byte    N06, Cs1, v032
    .byte W06
    .byte    Bn0, v112
    .byte    N02, Fs1, v072
    .byte W06
    .byte    N06, Cs1, v080
    .byte W06
    .byte    Bn0, v092
    .byte    N02, Fs1, v072
    .byte W12
    .byte PEND
    .byte PATT
    .word LABEL_080AA17A
LABEL_080AA27D:
    .byte    N06, Cs1, v120
    .byte    N02, Fs1, v072
    .byte W06
    .byte    N06, Cs1, v060
    .byte W06
    .byte    N10, Cs1, v092
    .byte    N02, Fs1, v052
    .byte W12
    .byte    N06, Bn0, v112
    .byte    N42, Cs2, v072
    .byte W12
    .byte    N06, Bn0, v092
    .byte W12
    .byte    N10, Cs1, v120
    .byte W12
    .byte    N06, Bn0, v080
    .byte W06
    .byte    Cs1, v032
    .byte W06
    .byte    Bn0, v112
    .byte    N02, Fs1, v072
    .byte W06
    .byte    N06, Cs1, v080
    .byte W06
    .byte    Bn0, v092
    .byte    N02, Fs1, v072
    .byte W12
    .byte PEND
    .byte PATT
    .word LABEL_080AA17A
    .byte PATT
    .word LABEL_080AA236
    .byte PATT
    .word LABEL_080AA17A
    .byte    N06, Cs1, v120
    .byte    N02, Fs1, v072
    .byte W06
    .byte    N06, Dn1, v060
    .byte W06
    .byte    Cs1, v092
    .byte    N02, Fs1, v052
    .byte W06
    .byte    N06, Cs1, v120
    .byte W06
    .byte    Bn0, v112
    .byte    N42, Cs2, v060
    .byte W12
    .byte    N06, Bn0, v092
    .byte W12
    .byte    N10, Cs1, v120
    .byte W12
    .byte    N06, Bn0, v080
    .byte W06
    .byte    Cs1, v032
    .byte W06
    .byte    Bn0, v112
    .byte    N02, Fs1, v072
    .byte W06
    .byte    N06, Cs1, v080
    .byte W06
    .byte    Bn0, v092
    .byte    N02, Fs1, v072
    .byte W12
    .byte PATT
    .word LABEL_080AA17A
    .byte PATT
    .word LABEL_080AA236
    .byte PATT
    .word LABEL_080AA17A
    .byte PATT
    .word LABEL_080AA27D
    .byte PATT
    .word LABEL_080AA17A
    .byte PATT
    .word LABEL_080AA236
    .byte PATT
    .word LABEL_080AA17A
    .byte PATT
    .word LABEL_080AA1F6
    .byte PATT
    .word LABEL_080AA17A
    .byte PATT
    .word LABEL_080AA236
    .byte PATT
    .word LABEL_080AA17A
    .byte PATT
    .word LABEL_080AA27D
    .byte PATT
    .word LABEL_080AA17A
    .byte    N10, Cs1, v120
    .byte    N02, Fs1, v072
    .byte W12
    .byte    N06, Bn0, v080
    .byte    N02, Fs1, v052
    .byte W06
    .byte    N06, Cs1, v080
    .byte W06
    .byte    Bn0, v112
    .byte    N02, Fs1, v072
    .byte W12
    .byte    N06, Bn0, v092
    .byte    N02, Fs1, v052
    .byte W12
    .byte    N10, Cs1, v120
    .byte    N02, Fs1, v072
    .byte W12
    .byte    N06, Bn0, v080
    .byte    N02, Fs1, v052
    .byte W06
    .byte    N06, Cs1, v032
    .byte W06
    .byte    Bn0, v112
    .byte    N02, Fs1, v072
    .byte    N48, Bn1, v100
    .byte W06
    .byte    N06, Cs1, v080
    .byte W06
    .byte    Bn0, v092
    .byte W12
    .byte    N10, Cs1, v120
    .byte W12
    .byte    N06, Bn0, v080
    .byte W12
    .byte    Bn0, v112
    .byte    N24, Cs2, v052
    .byte W24
    .byte    N06, Bn0, v112
    .byte    N24, Cs2, v052
    .byte W24
    .byte    N06, Bn0, v112
    .byte    N24, Cs2, v052
    .byte W24
    .byte    N06, An1, v112
    .byte    N24, Cs2, v060
    .byte W06
    .byte    N06, An1, v120
    .byte W06
    .byte    Gs1
    .byte W06
    .byte    Gn1, v112
    .byte W06
    .byte GOTO
    .word LABEL_080AA149
    .byte FINE

Track_080AA3B3:
    .byte KEYSH, 0
    .byte W24
LABEL_080AA3B6:
    .byte VOICE, 1
    .byte VOL  , 56
    .byte XCMD , xIECV, 40, xIECL, 3
    .byte BENDR, 12
    .byte LFOS , 28
    .byte LFODL, 14
    .byte MOD  , 3
    .byte MODT , 0
    .byte PAN  , 64
    .byte    N03, Fs3, v100
    .byte W03
    .byte    Fs3, v040
    .byte W03
    .byte    An3, v100
    .byte W03
    .byte    An3, v040
    .byte W03
    .byte    En4, v100
    .byte W03
    .byte    En4, v040
    .byte W03
    .byte    An3, v100
    .byte W03
    .byte    An3, v040
    .byte W03
    .byte    Fs3, v100
    .byte W03
    .byte    Fs3, v040
    .byte W03
    .byte    An3, v100
    .byte W03
    .byte    An3, v040
    .byte W03
    .byte    En4, v100
    .byte W03
    .byte    En4, v040
    .byte W03
    .byte    An3, v100
    .byte W03
    .byte    An3, v040
    .byte W03
    .byte    Fs3, v100
    .byte W03
    .byte    Fs3, v040
    .byte W03
    .byte    An3, v100
    .byte W03
    .byte    An3, v040
    .byte W03
    .byte    Ds4, v100
    .byte W03
    .byte    Ds4, v040
    .byte W03
    .byte    An3, v100
    .byte W03
    .byte    An3, v040
    .byte W03
LABEL_080AA414:
    .byte    N03, Fs3, v100
    .byte W03
    .byte    Fs3, v040
    .byte W03
    .byte    An3, v100
    .byte W03
    .byte    An3, v040
    .byte W03
    .byte    Ds4, v100
    .byte W03
    .byte    Ds4, v040
    .byte W03
    .byte    An3, v100
    .byte W03
    .byte    An3, v040
    .byte W03
    .byte    Fs3, v100
    .byte W03
    .byte    Fs3, v040
    .byte W03
    .byte    An3, v100
    .byte W03
    .byte    An3, v040
    .byte W03
    .byte    Dn4, v100
    .byte W03
    .byte    Dn4, v040
    .byte W03
    .byte    An3, v100
    .byte W03
    .byte    An3, v040
    .byte W03
    .byte    Fs3, v100
    .byte W03
    .byte    Fs3, v040
    .byte W03
    .byte    An3, v100
    .byte W03
    .byte    An3, v040
    .byte W03
    .byte    Dn4, v100
    .byte W03
    .byte    Dn4, v040
    .byte W03
    .byte    An3, v100
    .byte W03
    .byte    An3, v040
    .byte W03
    .byte    Fs3, v100
    .byte W03
    .byte    Fs3, v040
    .byte W03
    .byte    An3, v100
    .byte W03
    .byte    An3, v040
    .byte W03
    .byte    Cs4, v100
    .byte W03
    .byte    Cs4, v040
    .byte W03
    .byte    An3, v100
    .byte W03
    .byte    An3, v040
    .byte W03
    .byte PEND
LABEL_080AA476:
    .byte    N03, Fs3, v100
    .byte W03
    .byte    Fs3, v040
    .byte W03
    .byte    An3, v100
    .byte W03
    .byte    An3, v040
    .byte W03
    .byte    Cs4, v100
    .byte W03
    .byte    Cs4, v040
    .byte W03
    .byte    An3, v100
    .byte W03
    .byte    An3, v040
    .byte W03
    .byte    Fs3, v100
    .byte W03
    .byte    Fs3, v040
    .byte W03
    .byte    An3, v100
    .byte W03
    .byte    An3, v040
    .byte W03
    .byte    En4, v100
    .byte W03
    .byte    En4, v040
    .byte W03
    .byte    An3, v100
    .byte W03
    .byte    An3, v040
    .byte W03
    .byte    Fs3, v100
    .byte W03
    .byte    Fs3, v040
    .byte W03
    .byte    An3, v100
    .byte W03
    .byte    An3, v040
    .byte W03
    .byte    En4, v100
    .byte W03
    .byte    En4, v040
    .byte W03
    .byte    An3, v100
    .byte W03
    .byte    An3, v040
    .byte W03
    .byte    Fs3, v100
    .byte W03
    .byte    Fs3, v040
    .byte W03
    .byte    An3, v100
    .byte W03
    .byte    An3, v040
    .byte W03
    .byte    Ds4, v100
    .byte W03
    .byte    Ds4, v040
    .byte W03
    .byte    An3, v100
    .byte W03
    .byte    An3, v040
    .byte W03
    .byte PEND
    .byte PATT
    .word LABEL_080AA414
    .byte PATT
    .word LABEL_080AA476
    .byte PATT
    .word LABEL_080AA414
    .byte PATT
    .word LABEL_080AA476
    .byte PATT
    .word LABEL_080AA414
    .byte PATT
    .word LABEL_080AA476
    .byte PATT
    .word LABEL_080AA414
    .byte PATT
    .word LABEL_080AA476
    .byte PATT
    .word LABEL_080AA414
    .byte    N03, Fs3, v100
    .byte W03
    .byte    Fs3, v040
    .byte W03
    .byte    An3, v100
    .byte W03
    .byte    An3, v040
    .byte W03
    .byte    Cs4, v100
    .byte W03
    .byte    Cs4, v040
    .byte W03
    .byte    An3, v100
    .byte W03
    .byte    An3, v040
    .byte W03
    .byte    Gn3, v100
    .byte W03
    .byte    Gn3, v040
    .byte W03
    .byte    Bn3, v100
    .byte W03
    .byte    Bn3, v040
    .byte W03
    .byte    Fs4, v100
    .byte W03
    .byte    Fs4, v040
    .byte W03
    .byte    Dn4, v100
    .byte W03
    .byte    Dn4, v040
    .byte W03
    .byte    Gn3, v100
    .byte W03
    .byte    Gn3, v040
    .byte W03
    .byte    Bn3, v100
    .byte W03
    .byte    Bn3, v040
    .byte W03
    .byte    Fs4, v100
    .byte W03
    .byte    Fs4, v040
    .byte W03
    .byte    Dn4, v100
    .byte W03
    .byte    Dn4, v040
    .byte W03
    .byte    Gn3, v100
    .byte W03
    .byte    Gn3, v040
    .byte W03
    .byte    Bn3, v100
    .byte W03
    .byte    Bn3, v040
    .byte W03
    .byte    Fs4, v100
    .byte W03
    .byte    Fs4, v040
    .byte W03
    .byte    Dn4, v100
    .byte W03
    .byte    Dn4, v040
    .byte W03
    .byte    Gn3, v100
    .byte W03
    .byte    Gn3, v040
    .byte W03
    .byte    Bn3, v100
    .byte W03
    .byte    Bn3, v040
    .byte W03
    .byte    Fs4, v100
    .byte W03
    .byte    Fs4, v040
    .byte W03
    .byte    Dn4, v100
    .byte W03
    .byte    Dn4, v040
    .byte W03
    .byte    Gn3, v100
    .byte W03
    .byte    Gn3, v040
    .byte W03
    .byte    Bn3, v100
    .byte W03
    .byte    Bn3, v040
    .byte W03
    .byte    Fs4, v100
    .byte W03
    .byte    Fs4, v040
    .byte W03
    .byte    Dn4, v100
    .byte W03
    .byte    Dn4, v040
    .byte W03
    .byte    Gn3, v100
    .byte W03
    .byte    Gn3, v040
    .byte W03
    .byte    Bn3, v100
    .byte W03
    .byte    Bn3, v040
    .byte W03
    .byte    Fs4, v100
    .byte W03
    .byte    Fs4, v040
    .byte W03
    .byte    Dn4, v100
    .byte W03
    .byte    Dn4, v040
    .byte W03
    .byte    Gn3, v100
    .byte W03
    .byte    Gn3, v040
    .byte W03
    .byte    Bn3, v100
    .byte W03
    .byte    Bn3, v040
    .byte W03
    .byte    Fs4, v100
    .byte W03
    .byte    Fs4, v040
    .byte W03
    .byte    Dn4, v100
    .byte W03
    .byte    Dn4, v040
    .byte W03
    .byte    Gn3, v100
    .byte W03
    .byte    Gn3, v040
    .byte W03
    .byte    Bn3, v100
    .byte W03
    .byte    Bn3, v040
    .byte W03
    .byte    Fs4, v100
    .byte W03
    .byte    Fs4, v040
    .byte W03
    .byte    Dn4, v100
    .byte W03
    .byte    Dn4, v040
    .byte W03
    .byte    Bn3, v100
    .byte W03
    .byte    Bn3, v040
    .byte W03
    .byte    Dn4, v100
    .byte W03
    .byte    Dn4, v040
    .byte W03
    .byte    An4, v100
    .byte W03
    .byte    An4, v040
    .byte W03
    .byte    Fs4, v100
    .byte W03
    .byte    Fs4, v040
    .byte W03
    .byte    Bn3, v100
    .byte W03
    .byte    Bn3, v040
    .byte W03
    .byte    Dn4, v100
    .byte W03
    .byte    Dn4, v040
    .byte W03
    .byte    An4, v100
    .byte W03
    .byte    An4, v040
    .byte W03
    .byte    Fs4, v100
    .byte W03
    .byte    Fs4, v040
    .byte W03
    .byte    Bn3, v100
    .byte W03
    .byte    Bn3, v040
    .byte W03
    .byte    Dn4, v100
    .byte W03
    .byte    Dn4, v040
    .byte W03
    .byte    An4, v100
    .byte W03
    .byte    An4, v040
    .byte W03
    .byte    Fs4, v100
    .byte W03
    .byte    Fs4, v040
    .byte W03
    .byte    Bn3, v100
    .byte W03
    .byte    Bn3, v040
    .byte W03
    .byte    Dn4, v100
    .byte W03
    .byte    Dn4, v040
    .byte W03
    .byte    An4, v100
    .byte W03
    .byte    An4, v040
    .byte W03
    .byte    Fs4, v100
    .byte W03
    .byte    Fs4, v040
    .byte W03
    .byte    Gn3, v100
    .byte W03
    .byte    Gn3, v040
    .byte W03
    .byte    Bn3, v100
    .byte W03
    .byte    Bn3, v040
    .byte W03
    .byte    Fs4, v100
    .byte W03
    .byte    Fs4, v040
    .byte W03
    .byte    Dn4, v100
    .byte W03
    .byte    Dn4, v040
    .byte W03
    .byte    Gn3, v100
    .byte W03
    .byte    Gn3, v040
    .byte W03
    .byte    Bn3, v100
    .byte W03
    .byte    Bn3, v040
    .byte W03
    .byte    Fs4, v100
    .byte W03
    .byte    Fs4, v040
    .byte W03
    .byte    Dn4, v100
    .byte W03
    .byte    Dn4, v040
    .byte W03
    .byte    Bn3, v100
    .byte W03
    .byte    Bn3, v040
    .byte W03
    .byte    Dn4, v100
    .byte W03
    .byte    Dn4, v040
    .byte W03
    .byte    An4, v100
    .byte W03
    .byte    An4, v040
    .byte W03
    .byte    Fs4, v100
    .byte W03
    .byte    Fs4, v040
    .byte W03
    .byte    Gn3, v100
    .byte W03
    .byte    Gn3, v040
    .byte W03
    .byte    Bn3, v100
    .byte W03
    .byte    Bn3, v040
    .byte W03
    .byte    Fs4, v100
    .byte W03
    .byte    Fs4, v040
    .byte W03
    .byte    Dn4, v100
    .byte W03
    .byte    Dn4, v040
    .byte W03
    .byte    Fs3, v100
    .byte W03
    .byte    Fs3, v040
    .byte W03
    .byte    An3, v100
    .byte W03
    .byte    An3, v040
    .byte W03
    .byte    En4, v100
    .byte W03
    .byte    En4, v040
    .byte W03
    .byte    An3, v100
    .byte W03
    .byte    An3, v040
    .byte W03
    .byte    Fs3, v100
    .byte W03
    .byte    Fs3, v040
    .byte W03
    .byte    An3, v100
    .byte W03
    .byte    An3, v040
    .byte W03
    .byte    En4, v100
    .byte W03
    .byte    En4, v040
    .byte W03
    .byte    An3, v100
    .byte W03
    .byte    An3, v040
    .byte W03
    .byte    Fs3, v100
    .byte W03
    .byte    Fs3, v040
    .byte W03
    .byte    An3, v100
    .byte W03
    .byte    An3, v040
    .byte W03
    .byte    Ds4, v100
    .byte W03
    .byte    Ds4, v040
    .byte W03
    .byte    An3, v100
    .byte W03
    .byte    An3, v040
    .byte W03
    .byte PATT
    .word LABEL_080AA414
    .byte PATT
    .word LABEL_080AA476
    .byte    N03, Fs3, v100
    .byte W03
    .byte    Fs3, v040
    .byte W03
    .byte    An3, v100
    .byte W03
    .byte    An3, v040
    .byte W03
    .byte    Ds4, v100
    .byte W03
    .byte    Ds4, v040
    .byte W03
    .byte    An3, v100
    .byte W03
    .byte    An3, v040
    .byte W03
    .byte    Fs3, v100
    .byte W03
    .byte    Fs3, v040
    .byte W03
    .byte    An3, v100
    .byte W03
    .byte    An3, v040
    .byte W03
    .byte    Dn4, v100
    .byte W03
    .byte    Dn4, v040
    .byte W03
    .byte    An3, v100
    .byte W03
    .byte    An3, v040
    .byte W03
    .byte    Fs3, v100
    .byte W03
    .byte    Fs3, v040
    .byte W03
    .byte    An3, v100
    .byte W03
    .byte    An3, v040
    .byte W03
    .byte    Dn4, v100
    .byte W03
    .byte    Dn4, v040
    .byte W03
    .byte    An3, v100
    .byte W03
    .byte    An3, v040
    .byte W03
    .byte VOL  , 75
    .byte    N03, Fs3, v100
    .byte W03
    .byte    Fs3, v040
    .byte W03
    .byte    Gs3, v100
    .byte W03
    .byte    Gs3, v040
    .byte W03
    .byte VOL  , 85
    .byte    N03, An3, v100
    .byte W03
    .byte    An3, v040
    .byte W03
    .byte    Bn3, v100
    .byte W03
    .byte    Bn3, v040
    .byte W03
    .byte VOL  , 94
    .byte    N03, Cs4, v100
    .byte W03
    .byte    Cs4, v040
    .byte W03
    .byte    Dn4, v100
    .byte W03
    .byte    Dn4, v040
    .byte W03
    .byte VOL  , 103
    .byte    N03, En4, v100
    .byte W03
    .byte    En4, v040
    .byte W03
    .byte    Fs4, v100
    .byte W03
    .byte    Fs4, v040
    .byte W03
    .byte VOL  , 75
    .byte    N03, Dn3, v100
    .byte W03
    .byte    Dn3, v040
    .byte W03
    .byte    Fs3, v100
    .byte W03
    .byte    Fs3, v040
    .byte W03
    .byte    Cs4, v100
    .byte W03
    .byte    Cs4, v040
    .byte W03
    .byte    An3, v100
    .byte W03
    .byte    An3, v040
    .byte W03
    .byte    Dn3, v100
    .byte W03
    .byte    Dn3, v040
    .byte W03
    .byte    Fs3, v100
    .byte W03
    .byte    Fs3, v040
    .byte W03
    .byte    Cs4, v100
    .byte W03
    .byte    Cs4, v040
    .byte W03
    .byte    An3, v100
    .byte W03
    .byte    An3, v040
    .byte W03
    .byte    Dn3, v100
    .byte W03
    .byte    Dn3, v040
    .byte W03
    .byte    Fs3, v100
    .byte W03
    .byte    Fs3, v040
    .byte W03
    .byte    Cs4, v100
    .byte W03
    .byte    Cs4, v040
    .byte W03
    .byte    An3, v100
    .byte W03
    .byte    An3, v040
    .byte W03
LABEL_080AA7C0:
    .byte    N03, Dn3, v100
    .byte W03
    .byte    Dn3, v040
    .byte W03
    .byte    Fs3, v100
    .byte W03
    .byte    Fs3, v040
    .byte W03
    .byte    Cs4, v100
    .byte W03
    .byte    Cs4, v040
    .byte W03
    .byte    An3, v100
    .byte W03
    .byte    An3, v040
    .byte W03
    .byte    Dn3, v100
    .byte W03
    .byte    Dn3, v040
    .byte W03
    .byte    Fs3, v100
    .byte W03
    .byte    Fs3, v040
    .byte W03
    .byte    Cs4, v100
    .byte W03
    .byte    Cs4, v040
    .byte W03
    .byte    An3, v100
    .byte W03
    .byte    An3, v040
    .byte W03
    .byte    Fs3, v100
    .byte W03
    .byte    Fs3, v040
    .byte W03
    .byte    An3, v100
    .byte W03
    .byte    An3, v040
    .byte W03
    .byte    En4, v100
    .byte W03
    .byte    En4, v040
    .byte W03
    .byte    Cs4, v100
    .byte W03
    .byte    Cs4, v040
    .byte W03
    .byte    An3, v100
    .byte W03
    .byte    An3, v040
    .byte W03
    .byte    Cs4, v100
    .byte W03
    .byte    Cs4, v040
    .byte W03
    .byte    Gs4, v100
    .byte W03
    .byte    Gs4, v040
    .byte W03
    .byte    En4, v100
    .byte W03
    .byte    En4, v040
    .byte W03
    .byte PEND
    .byte    Cs4, v100
    .byte W03
    .byte    Cs4, v040
    .byte W03
    .byte    En4, v100
    .byte W03
    .byte    En4, v040
    .byte W03
    .byte    An4, v100
    .byte W03
    .byte    An4, v040
    .byte W03
    .byte    Fs4, v100
    .byte W03
    .byte    Fs4, v040
    .byte W03
    .byte    Ds3, v100
    .byte W03
    .byte    Ds3, v040
    .byte W03
    .byte    Fs3, v100
    .byte W03
    .byte    Fs3, v040
    .byte W03
    .byte    Cs4, v100
    .byte W03
    .byte    Cs4, v040
    .byte W03
    .byte    As3, v100
    .byte W03
    .byte    As3, v040
    .byte W03
    .byte    Ds3, v100
    .byte W03
    .byte    Ds3, v040
    .byte W03
    .byte    Fs3, v100
    .byte W03
    .byte    Fs3, v040
    .byte W03
    .byte    Cs4, v100
    .byte W03
    .byte    Cs4, v040
    .byte W03
    .byte    As3, v100
    .byte W03
    .byte    As3, v040
    .byte W03
    .byte    Ds3, v100
    .byte W03
    .byte    Ds3, v040
    .byte W03
    .byte    Fs3, v100
    .byte W03
    .byte    Fs3, v040
    .byte W03
    .byte    Cs4, v100
    .byte W03
    .byte    Cs4, v040
    .byte W03
    .byte    As3, v100
    .byte W03
    .byte    As3, v040
    .byte W03
    .byte    Ds3, v100
    .byte W03
    .byte    Ds3, v040
    .byte W03
    .byte    Fs3, v100
    .byte W03
    .byte    Fs3, v040
    .byte W03
    .byte    Cs4, v100
    .byte W03
    .byte    Cs4, v040
    .byte W03
    .byte    As3, v100
    .byte W03
    .byte    As3, v040
    .byte W03
    .byte    Ds3, v100
    .byte W03
    .byte    Ds3, v040
    .byte W03
    .byte    Fs3, v100
    .byte W03
    .byte    Fs3, v040
    .byte W03
    .byte    Cs4, v100
    .byte W03
    .byte    Cs4, v040
    .byte W03
    .byte    As3, v100
    .byte W03
    .byte    As3, v040
    .byte W03
    .byte    Fs3, v100
    .byte W03
    .byte    Fs3, v040
    .byte W03
    .byte    As3, v100
    .byte W03
    .byte    As3, v040
    .byte W03
    .byte    Fn4, v100
    .byte W03
    .byte    Fn4, v040
    .byte W03
    .byte    Cs4, v100
    .byte W03
    .byte    Cs4, v040
    .byte W03
    .byte    As3, v100
    .byte W03
    .byte    As3, v040
    .byte W03
    .byte    Cs4, v100
    .byte W03
    .byte    Cs4, v040
    .byte W03
    .byte    Gs4, v100
    .byte W03
    .byte    Gs4, v040
    .byte W03
    .byte    Fn4, v100
    .byte W03
    .byte    Fn4, v040
    .byte W03
    .byte    As3, v100
    .byte W03
    .byte    As3, v040
    .byte W03
    .byte    Cs4, v100
    .byte W03
    .byte    Cs4, v040
    .byte W03
    .byte    Gs4, v100
    .byte W03
    .byte    Gs4, v040
    .byte W03
    .byte    Fn4, v100
    .byte W03
    .byte    Fn4, v040
    .byte W03
    .byte    Dn3, v100
    .byte W03
    .byte    Dn3, v040
    .byte W03
    .byte    Fs3, v100
    .byte W03
    .byte    Fs3, v040
    .byte W03
    .byte    Cs4, v100
    .byte W03
    .byte    Cs4, v040
    .byte W03
    .byte    An3, v100
    .byte W03
    .byte    An3, v040
    .byte W03
    .byte    Dn3, v100
    .byte W03
    .byte    Dn3, v040
    .byte W03
    .byte    Fs3, v100
    .byte W03
    .byte    Fs3, v040
    .byte W03
    .byte    Cs4, v100
    .byte W03
    .byte    Cs4, v040
    .byte W03
    .byte    An3, v100
    .byte W03
    .byte    An3, v040
    .byte W03
    .byte    Dn3, v100
    .byte W03
    .byte    Dn3, v040
    .byte W03
    .byte    Fs3, v100
    .byte W03
    .byte    Fs3, v040
    .byte W03
    .byte    Cs4, v100
    .byte W03
    .byte    Cs4, v040
    .byte W03
    .byte    An3, v100
    .byte W03
    .byte    An3, v040
    .byte W03
    .byte PATT
    .word LABEL_080AA7C0
    .byte    N03, Cs4, v100
    .byte W03
    .byte    Cs4, v040
    .byte W03
    .byte    En4, v100
    .byte W03
    .byte    En4, v040
    .byte W03
    .byte    An4, v100
    .byte W03
    .byte    An4, v040
    .byte W03
    .byte    Fs4, v100
    .byte W03
    .byte    Fs4, v040
    .byte W03
    .byte    Cs3, v100
    .byte W03
    .byte    Cs3, v040
    .byte W03
    .byte    Cs2, v100
    .byte W03
    .byte    Cs2, v040
    .byte W03
    .byte    Fs2, v100
    .byte W03
    .byte    Fs2, v040
    .byte W03
    .byte    Gs2, v100
    .byte W03
    .byte    Gs2, v040
    .byte W03
    .byte    Cs3, v100
    .byte W03
    .byte    Cs3, v040
    .byte W03
    .byte    Cs2, v100
    .byte W03
    .byte    Cs2, v040
    .byte W03
    .byte    Fs2, v100
    .byte W03
    .byte    Fs2, v040
    .byte W03
    .byte    Gs2, v100
    .byte W03
    .byte    Gs2, v040
    .byte W03
    .byte    Cs3, v100
    .byte W03
    .byte    Cs3, v040
    .byte W03
    .byte    Fs3, v100
    .byte W03
    .byte    Fs3, v040
    .byte W03
    .byte    Gs3, v100
    .byte W03
    .byte    Gs3, v040
    .byte W03
    .byte    Bn3, v100
    .byte W03
    .byte    Bn3, v040
    .byte W03
    .byte    Cs4, v100
    .byte W03
    .byte    Cs4, v040
    .byte W03
    .byte    Fs4, v100
    .byte W03
    .byte    Fs4, v040
    .byte W03
    .byte    Gs4, v100
    .byte W03
    .byte    Gs4, v040
    .byte W03
    .byte    Bn4, v100
    .byte W03
    .byte    Bn4, v040
    .byte W03
    .byte    Cs5, v100
    .byte W03
    .byte    Cs5, v040
    .byte W03
    .byte    N03
    .byte W03
    .byte    N03
    .byte W15
    .byte VOL  , 113
    .byte PAN  , 127
    .byte    N03, Fn4, v100
    .byte W03
    .byte    Fn4, v040
    .byte W03
    .byte    Fn3, v100
    .byte W03
    .byte    Fn2, v040
    .byte W03
    .byte    An3, v100
    .byte W03
    .byte    An3, v040
    .byte W03
    .byte    Cn4, v100
    .byte W03
    .byte    Cn4, v040
    .byte W03
    .byte PAN  , 0
    .byte    N03, Cs4, v100
    .byte W03
    .byte    Cs4, v040
    .byte W03
    .byte    Cs3, v100
    .byte W03
    .byte    Cs3, v040
    .byte W03
    .byte    Fs3, v100
    .byte W03
    .byte    Fs3, v040
    .byte W03
    .byte    As3, v100
    .byte W03
    .byte    As3, v040
    .byte W03
    .byte PAN  , 64
    .byte    N03, Ds4, v100
    .byte W03
    .byte    Ds4, v040
    .byte W03
    .byte    Ds3, v100
    .byte W03
    .byte    Ds3, v040
    .byte W03
    .byte    Fs3, v100
    .byte W03
    .byte    Fs3, v040
    .byte W03
    .byte    Bn3, v100
    .byte W03
    .byte    Bn3, v040
    .byte W03
    .byte GOTO
    .word LABEL_080AA3B6
    .byte FINE

Track_080AAA23:
    .byte KEYSH, 0
    .byte VOICE, 30
    .byte PAN  , 64
    .byte BENDR, 12
    .byte VOL  , 99
    .byte    N06, Cs4, v060
    .byte W06
    .byte    Ds4, v072
    .byte W06
    .byte    En4, v080
    .byte W06
    .byte    Fn4, v092
    .byte W06
LABEL_080AAA3A:
    .byte VOICE, 30
    .byte VOL  , 99
    .byte PAN  , 64
    .byte BENDR, 12
    .byte    N10, Fs3, v127
    .byte W12
    .byte    Fs3, v052
    .byte W12
    .byte    Fs3, v020
    .byte W12
    .byte VOICE, 27
    .byte PAN  , 0
    .byte VOL  , 75
    .byte    N11, An2, v032
    .byte    N12, En3, v072
    .byte W12
    .byte    N11, An2, v012
    .byte    N12, En3, v032
    .byte W12
    .byte    N11, An2
    .byte    N12, Ds3, v072
    .byte W12
LABEL_080AAA66:
    .byte    N11, An2, v012
    .byte    N12, Ds3, v032
    .byte W12
    .byte    N11, An2, v008
    .byte    N12, Ds3, v012
    .byte W48
    .byte PAN  , 127
    .byte    N11, An2, v032
    .byte    N12, Dn3, v072
    .byte W12
    .byte    N11, An2, v012
    .byte    N12, Dn3, v032
    .byte W12
    .byte    N11, An2
    .byte    N12, Cs3, v072
    .byte W12
    .byte PEND
LABEL_080AAA8B:
    .byte    N11, An2, v012
    .byte    N12, Cs3, v032
    .byte W12
    .byte    N11, An2, v008
    .byte    N12, Cs3, v012
    .byte W12
    .byte VOICE, 30
    .byte PAN  , 64
    .byte VOL  , 99
    .byte    N10, Fs3, v127
    .byte W12
    .byte    Fs3, v052
    .byte W12
    .byte    Fs3, v020
    .byte W12
    .byte VOICE, 27
    .byte PAN  , 0
    .byte VOL  , 75
    .byte    N11, An2, v032
    .byte    N12, En3, v072
    .byte W12
    .byte    N11, An2, v012
    .byte    N12, En3, v032
    .byte W12
    .byte    N11, An2
    .byte    N12, Ds3, v072
    .byte W12
    .byte PEND
    .byte PATT
    .word LABEL_080AAA66
    .byte PATT
    .word LABEL_080AAA8B
    .byte PATT
    .word LABEL_080AAA66
LABEL_080AAAD3:
    .byte    N11, An2, v012
    .byte    N12, Cs3, v032
    .byte W12
    .byte    N11, An2, v008
    .byte    N12, Cs3, v012
    .byte W48
    .byte PAN  , 0
    .byte    N11, An2, v032
    .byte    N12, En3, v072
    .byte W12
    .byte    N11, An2, v012
    .byte    N12, En3, v032
    .byte W12
    .byte    N11, An2
    .byte    N12, Ds3, v072
    .byte W12
    .byte PEND
    .byte PATT
    .word LABEL_080AAA66
    .byte PATT
    .word LABEL_080AAA8B
    .byte    N11, An2, v012
    .byte    N12, Ds3, v032
    .byte W12
    .byte    Ds3, v012
    .byte W48
    .byte PAN  , 127
    .byte    N11, An2, v032
    .byte    N11, Dn3, v072
    .byte W12
    .byte    An2, v012
    .byte    N11, Dn3, v032
    .byte W12
    .byte    An2
    .byte    N11, Cs3, v072
    .byte W12
    .byte    An2, v012
    .byte    N11, Cs3, v032
    .byte W12
    .byte    An2, v008
    .byte    N11, Cs3, v012
    .byte W48
    .byte PAN  , 0
    .byte    N11, An2, v032
    .byte    N12, En3, v072
    .byte W12
    .byte    N11, An2, v012
    .byte    N12, En3, v032
    .byte W12
    .byte    N11, An2
    .byte    N12, Ds3, v072
    .byte W12
    .byte PATT
    .word LABEL_080AAA66
    .byte    N11, An2, v012
    .byte    N12, Cs3, v032
    .byte W12
    .byte    N11, An2, v008
    .byte    N12, Cs3, v012
    .byte W12
    .byte VOICE, 30
    .byte PAN  , 64
    .byte VOL  , 99
    .byte    N10, Gn3, v127
    .byte W12
    .byte    Gn3, v052
    .byte W12
    .byte    Gn3, v020
    .byte W12
    .byte VOICE, 27
    .byte PAN  , 0
    .byte VOL  , 75
    .byte    N11, Dn3, v032
    .byte    N12, Fs3, v072
    .byte W12
    .byte    N11, Dn3, v012
    .byte    N12, Fs3, v032
    .byte W12
    .byte    N11, Bn2
    .byte    N12, En3, v072
    .byte W12
LABEL_080AAB7F:
    .byte    N11, Bn2, v012
    .byte    N12, En3, v032
    .byte W12
    .byte    N11, Bn2, v008
    .byte    N12, En3, v012
    .byte W48
    .byte PAN  , 127
    .byte    N11, An2, v032
    .byte    N12, Dn3, v072
    .byte W12
    .byte    N11, An2, v012
    .byte    N12, Dn3, v032
    .byte W12
    .byte    N11, Bn2
    .byte    N12, En3, v072
    .byte W12
    .byte PEND
    .byte    N11, Bn2, v012
    .byte    N12, En3, v032
    .byte W12
    .byte    N11, Bn2, v008
    .byte    N12, En3, v012
    .byte W48
    .byte PAN  , 0
    .byte    N11, Dn3, v032
    .byte    N12, Fs3, v072
    .byte W12
    .byte    N11, Dn3, v012
    .byte    N12, Fs3, v032
    .byte W12
    .byte    N11, Bn2
    .byte    N12, En3, v072
    .byte W12
    .byte PATT
    .word LABEL_080AAB7F
    .byte    N11, Bn2, v012
    .byte    N12, En3, v032
    .byte W12
    .byte    N11, Bn2, v008
    .byte    N12, En3, v012
    .byte W12
    .byte VOICE, 30
    .byte PAN  , 64
    .byte VOL  , 99
    .byte    N10, Fs3, v127
    .byte W12
    .byte    Fs3, v052
    .byte W12
    .byte    Fs3, v020
    .byte W12
    .byte VOICE, 27
    .byte PAN  , 0
    .byte VOL  , 75
    .byte    N11, An2, v032
    .byte    N12, En3, v072
    .byte W12
    .byte    N11, An2, v012
    .byte    N12, En3, v032
    .byte W12
    .byte    N11, An2
    .byte    N12, Ds3, v072
    .byte W12
    .byte PATT
    .word LABEL_080AAA66
    .byte PATT
    .word LABEL_080AAAD3
    .byte PATT
    .word LABEL_080AAA66
    .byte    N11, An2, v012
    .byte    N12, Cs3, v032
    .byte W12
    .byte    N11, An2, v008
    .byte    N12, Cs3, v012
    .byte W12
    .byte VOICE, 20
    .byte PAN  , 64
    .byte VOL  , 99
    .byte    N12, Gs2, v100
    .byte W12
    .byte    Gs2, v060
    .byte W12
    .byte    Gs2, v032
    .byte W12
    .byte    Fs2, v100
    .byte W12
    .byte    Fs2, v060
    .byte W12
    .byte    Fs2, v032
    .byte W12
LABEL_080AAC3B:
    .byte    N12, Cs2, v100
    .byte W12
    .byte    Fs2
    .byte W12
    .byte    Fs2, v040
    .byte W12
    .byte    Fs2, v020
    .byte W12
    .byte    Fs2, v012
    .byte W36
    .byte    Fs2, v100
    .byte W12
    .byte PEND
    .byte    Cs2
    .byte W12
    .byte    Fs2
    .byte W12
    .byte    Gs2
    .byte W12
    .byte    Gs2, v060
    .byte W12
    .byte    Gs2, v032
    .byte W12
    .byte    Fs2, v100
    .byte W12
    .byte    Fs2, v060
    .byte W12
    .byte    Fs2, v032
    .byte W12
    .byte PATT
    .word LABEL_080AAC3B
    .byte    N12, En2, v100
    .byte W12
    .byte    Fs2
    .byte W12
    .byte    Gs2
    .byte W12
    .byte    Gs2, v060
    .byte W12
    .byte    Gs2, v032
    .byte W12
    .byte    Fs2, v100
    .byte W12
    .byte    Fs2, v060
    .byte W12
    .byte    Fs2, v032
    .byte W12
    .byte    Fs2, v100
    .byte W12
    .byte    Fs2, v040
    .byte W12
    .byte    Bn2, v100
    .byte W12
    .byte    Bn2, v060
    .byte W12
    .byte    Bn2, v032
    .byte W12
    .byte    An2, v100
    .byte W12
    .byte    An2, v060
    .byte W12
    .byte    An2, v032
    .byte W12
    .byte    Bn2, v100
    .byte W12
    .byte    Bn2, v040
    .byte W12
    .byte    Gs2, v100
    .byte W12
    .byte    Gs2, v060
    .byte W12
    .byte    Gs2, v032
    .byte W48
    .byte W24
    .byte VOICE, 21
    .byte    N12, Ds3
    .byte    N12, Fs3, v052
    .byte W12
    .byte    Ds3, v012
    .byte    N12, Fs3, v032
    .byte W12
    .byte    N21, Cn4
    .byte    N21, Fn4, v052
    .byte W21
    .byte    N03, Fn4, v032
    .byte W03
    .byte    N21, As3
    .byte    N21, Cs4, v052
    .byte W21
    .byte    N03, Cs4, v032
    .byte W03
    .byte    N21, Bn3
    .byte    N21, Ds4, v052
    .byte W21
    .byte    N03, Ds4, v032
    .byte W03
    .byte GOTO
    .word LABEL_080AAA3A
    .byte FINE

Track_080AACD9:
    .byte KEYSH, 0
    .byte W24
LABEL_080AACDC:
    .byte VOICE, 15
    .byte VOL  , 120
    .byte PAN  , 64
    .byte XCMD , xIECV, 40, xIECL, 3
    .byte BENDR, 12
    .byte LFOS , 28
    .byte LFODL, 14
    .byte MOD  , 3
    .byte MODT , 0
    .byte    N06, Fs2, v100
    .byte W06
    .byte    Fs2, v040
    .byte W06
    .byte    Fs2, v100
    .byte W06
    .byte    Fs2, v040
    .byte W06
    .byte    Fs2, v100
    .byte W06
    .byte    Fs2, v040
    .byte W06
    .byte    Fs2, v100
    .byte W06
    .byte    Fs2, v040
    .byte W06
    .byte    Fs2, v100
    .byte W06
    .byte    Fs2, v040
    .byte W06
    .byte    Fs2, v100
    .byte W06
    .byte    Fs2, v040
    .byte W06
LABEL_080AAD16:
    .byte    N06, Fs2, v100
    .byte W06
    .byte    Fs2, v040
    .byte W06
    .byte    Fs2, v100
    .byte W06
    .byte    Fs2, v040
    .byte W06
    .byte    Fs2, v100
    .byte W06
    .byte    Fs2, v040
    .byte W06
    .byte    Fs2, v100
    .byte W06
    .byte    Fs2, v040
    .byte W06
    .byte    Fs2, v100
    .byte W06
    .byte    Fs2, v040
    .byte W06
    .byte    Fs2, v100
    .byte W06
    .byte    Fs2, v040
    .byte W06
    .byte    Fs2, v100
    .byte W06
    .byte    Fs2, v040
    .byte W06
    .byte    Fs2, v100
    .byte W06
    .byte    Fs2, v040
    .byte W06
    .byte PEND
LABEL_080AAD48:
    .byte    N06, An2, v100
    .byte W06
    .byte    An2, v040
    .byte W06
    .byte    Bn2, v100
    .byte W06
    .byte    Bn2, v040
    .byte W06
    .byte    Fs2, v100
    .byte W06
    .byte    Fs2, v040
    .byte W06
    .byte    Fs2, v100
    .byte W06
    .byte    Fs2, v040
    .byte W06
    .byte    Fs2, v100
    .byte W06
    .byte    Fs2, v040
    .byte W06
    .byte    Fs2, v100
    .byte W06
    .byte    Fs2, v040
    .byte W06
    .byte    Fs2, v100
    .byte W06
    .byte    Fs2, v040
    .byte W06
    .byte    Fs2, v100
    .byte W06
    .byte    Fs2, v040
    .byte W06
    .byte PEND
LABEL_080AAD7A:
    .byte    N06, Fs2, v100
    .byte W06
    .byte    Fs2, v040
    .byte W06
    .byte    Fs2, v100
    .byte W06
    .byte    Fs2, v040
    .byte W06
    .byte    Fs2, v100
    .byte W06
    .byte    Fs2, v040
    .byte W06
    .byte    Fs2, v100
    .byte W06
    .byte    Fs2, v040
    .byte W06
    .byte    Fs2, v100
    .byte W06
    .byte    Fs2, v040
    .byte W06
    .byte    Fs2, v100
    .byte W06
    .byte    Fs2, v040
    .byte W06
    .byte    N04, Fs2, v100
    .byte W06
    .byte    Cs3
    .byte W06
    .byte    Gs2
    .byte W06
    .byte    An2
    .byte W06
    .byte PEND
LABEL_080AADAA:
    .byte    N04, Cn3, v100
    .byte W06
    .byte    Bn2
    .byte W06
    .byte    En2
    .byte W06
    .byte    Fn2
    .byte W06
    .byte    N06, Fs2
    .byte W06
    .byte    Fs2, v040
    .byte W06
    .byte    Fs2, v100
    .byte W06
    .byte    Fs2, v040
    .byte W06
    .byte    Fs2, v100
    .byte W06
    .byte    Fs2, v040
    .byte W06
    .byte    Fs2, v100
    .byte W06
    .byte    Fs2, v040
    .byte W06
    .byte    Fs2, v100
    .byte W06
    .byte    Fs2, v040
    .byte W06
    .byte    Fs2, v100
    .byte W06
    .byte    Fs2, v040
    .byte W06
    .byte PEND
    .byte PATT
    .word LABEL_080AAD16
    .byte PATT
    .word LABEL_080AAD48
    .byte PATT
    .word LABEL_080AAD7A
    .byte PATT
    .word LABEL_080AADAA
    .byte PATT
    .word LABEL_080AAD16
    .byte PATT
    .word LABEL_080AAD48
    .byte PATT
    .word LABEL_080AAD7A
    .byte    N04, Cn3, v100
    .byte W06
    .byte    Bn2
    .byte W06
    .byte    En2
    .byte W06
    .byte    Fn2
    .byte W06
    .byte    N06, Gn2
    .byte W06
    .byte    Gn2, v040
    .byte W06
    .byte    Gn2, v100
    .byte W06
    .byte    Gn2, v040
    .byte W06
    .byte    Gn2, v100
    .byte W06
    .byte    Gn2, v040
    .byte W06
    .byte    Gn2, v100
    .byte W06
    .byte    Gn2, v040
    .byte W06
    .byte    Gn2, v100
    .byte W06
    .byte    Gn2, v040
    .byte W06
    .byte    Gn2, v100
    .byte W06
    .byte    Gn2, v040
    .byte W06
    .byte    Gn2, v100
    .byte W06
    .byte    Gn2, v040
    .byte W06
    .byte    Gn2, v100
    .byte W06
    .byte    Gn2, v040
    .byte W06
    .byte    Gn2, v100
    .byte W06
    .byte    Gn2, v040
    .byte W06
    .byte    Gn2, v100
    .byte W06
    .byte    Gn2, v040
    .byte W06
    .byte    Gn2, v100
    .byte W06
    .byte    Gn2, v040
    .byte W06
    .byte    Gn2, v100
    .byte W06
    .byte    Gn2, v040
    .byte W06
    .byte    Gn2, v100
    .byte W06
    .byte    Gn2, v040
    .byte W06
    .byte    Gn2, v100
    .byte W06
    .byte    Gn2, v040
    .byte W06
    .byte    Dn2, v100
    .byte W06
    .byte    Dn2, v040
    .byte W06
    .byte    Dn2, v100
    .byte W06
    .byte    Dn2, v040
    .byte W06
    .byte    Gn2, v100
    .byte W06
    .byte    Gn2, v040
    .byte W06
    .byte    Gn2, v100
    .byte W06
    .byte    Gn2, v040
    .byte W06
    .byte    Gn2, v100
    .byte W06
    .byte    Gn2, v040
    .byte W06
    .byte    Gn2, v100
    .byte W06
    .byte    Gn2, v040
    .byte W06
    .byte    Gn2, v100
    .byte W06
    .byte    Gn2, v040
    .byte W06
    .byte    Gn2, v100
    .byte W06
    .byte    Gn2, v040
    .byte W06
    .byte    Dn3, v100
    .byte W06
    .byte    Dn3, v040
    .byte W06
    .byte    Dn3, v100
    .byte W06
    .byte    Dn3, v040
    .byte W06
    .byte    Gn3, v100
    .byte W06
    .byte    Gn3, v040
    .byte W06
    .byte    Gn3, v100
    .byte W06
    .byte    Gn3, v040
    .byte W06
    .byte    Gn3, v100
    .byte W06
    .byte    Gn3, v040
    .byte W06
    .byte    Gn3, v100
    .byte W06
    .byte    Gn3, v040
    .byte W06
    .byte    N04, Gn3, v100
    .byte W06
    .byte    Gn2
    .byte W06
    .byte    Dn3
    .byte W06
    .byte    Fs3
    .byte W06
    .byte    N06, Gn3
    .byte W06
    .byte    Gn3, v040
    .byte W06
    .byte    Dn3, v100
    .byte W06
    .byte    Dn3, v040
    .byte W06
    .byte    Fs2, v100
    .byte W06
    .byte    Fs2, v040
    .byte W06
    .byte    Fs2, v100
    .byte W06
    .byte    Fs2, v040
    .byte W06
    .byte    Fs2, v100
    .byte W06
    .byte    Fs2, v040
    .byte W06
    .byte    Fs2, v100
    .byte W06
    .byte    Fs2, v040
    .byte W06
    .byte    Fs2, v100
    .byte W06
    .byte    Fs2, v040
    .byte W06
    .byte    Fs2, v100
    .byte W06
    .byte    Fs2, v040
    .byte W06
    .byte PATT
    .word LABEL_080AAD16
    .byte PATT
    .word LABEL_080AAD48
    .byte PATT
    .word LABEL_080AAD7A
    .byte    N04, Bn2, v100
    .byte W06
    .byte    An2
    .byte W06
    .byte    Bn2
    .byte W06
    .byte    Cs3
    .byte W06
    .byte    N06, Dn3
    .byte W06
    .byte    Dn3, v040
    .byte W06
    .byte    Dn3, v100
    .byte W06
    .byte    Dn3, v040
    .byte W06
    .byte    Dn3, v100
    .byte W06
    .byte    Dn3, v040
    .byte W06
    .byte    Dn3, v100
    .byte W06
    .byte    Dn3, v040
    .byte W06
    .byte    Dn3, v100
    .byte W06
    .byte    Dn3, v040
    .byte W06
    .byte    Dn3, v100
    .byte W06
    .byte    Dn3, v040
    .byte W06
LABEL_080AAF25:
    .byte    N06, Dn3, v100
    .byte W06
    .byte    Dn3, v040
    .byte W06
    .byte    Dn3, v100
    .byte W06
    .byte    Dn3, v040
    .byte W06
    .byte    Dn3, v100
    .byte W06
    .byte    Dn3, v040
    .byte W06
    .byte    Dn3, v100
    .byte W06
    .byte    Dn3, v040
    .byte W06
    .byte    Dn3, v100
    .byte W06
    .byte    Dn3, v040
    .byte W06
    .byte    Dn3, v100
    .byte W06
    .byte    Dn3, v040
    .byte W06
    .byte    Dn3, v100
    .byte W06
    .byte    Dn3, v040
    .byte W06
    .byte    Dn3, v100
    .byte W06
    .byte    Dn3, v040
    .byte W06
    .byte PEND
    .byte    An2, v100
    .byte W06
    .byte    An2, v040
    .byte W06
    .byte    Dn3, v100
    .byte W06
    .byte    Dn3, v040
    .byte W06
    .byte    Ds3, v100
    .byte W06
    .byte    Ds3, v040
    .byte W06
    .byte    Ds3, v100
    .byte W06
    .byte    Ds3, v040
    .byte W06
    .byte    Ds3, v100
    .byte W06
    .byte    Ds3, v040
    .byte W06
    .byte    Ds3, v100
    .byte W06
    .byte    Ds3, v040
    .byte W06
    .byte    Ds3, v100
    .byte W06
    .byte    Ds3, v040
    .byte W06
    .byte    Ds3, v100
    .byte W06
    .byte    Ds3, v040
    .byte W06
    .byte    Ds3, v100
    .byte W06
    .byte    Ds3, v040
    .byte W06
    .byte    Ds3, v100
    .byte W06
    .byte    Ds3, v040
    .byte W06
    .byte    Ds3, v100
    .byte W06
    .byte    Ds3, v040
    .byte W06
    .byte    Ds3, v100
    .byte W06
    .byte    Ds3, v040
    .byte W06
    .byte    Ds3, v100
    .byte W06
    .byte    Ds3, v040
    .byte W06
    .byte    Ds3, v100
    .byte W06
    .byte    Ds3, v040
    .byte W06
    .byte    Ds3, v100
    .byte W06
    .byte    Ds3, v040
    .byte W06
    .byte    Ds3, v100
    .byte W06
    .byte    Ds3, v040
    .byte W06
    .byte    As2, v100
    .byte W06
    .byte    As2, v040
    .byte W06
    .byte    Ds3, v100
    .byte W06
    .byte    Ds3, v040
    .byte W06
    .byte    Dn3, v100
    .byte W06
    .byte    Dn3, v040
    .byte W06
    .byte    Dn3, v100
    .byte W06
    .byte    Dn3, v040
    .byte W06
    .byte    Dn3, v100
    .byte W06
    .byte    Dn3, v040
    .byte W06
    .byte    Dn3, v100
    .byte W06
    .byte    Dn3, v040
    .byte W06
    .byte    Dn3, v100
    .byte W06
    .byte    Dn3, v040
    .byte W06
    .byte    Dn3, v100
    .byte W06
    .byte    Dn3, v040
    .byte W06
    .byte PATT
    .word LABEL_080AAF25
    .byte    N06, An2, v100
    .byte W06
    .byte    An2, v040
    .byte W06
    .byte    Dn3, v100
    .byte W06
    .byte    Dn3, v040
    .byte W06
    .byte    Cs3, v100
    .byte W06
    .byte    Cs3, v040
    .byte W06
    .byte    Cs3, v100
    .byte W06
    .byte    Cs3, v040
    .byte W06
    .byte    Cs3, v100
    .byte W06
    .byte    Cs3, v040
    .byte W06
    .byte    Cs3, v100
    .byte W06
    .byte    Cs3, v040
    .byte W06
    .byte    Cs3, v100
    .byte W06
    .byte    Cs3, v040
    .byte W06
    .byte    Gs2, v100
    .byte W06
    .byte    Gs2, v040
    .byte W06
    .byte    Bn2, v100
    .byte W06
    .byte    Bn2, v040
    .byte W06
    .byte    Cn3, v100
    .byte W06
    .byte    Cn3, v040
    .byte W06
    .byte    N10, Cs3, v100
    .byte W24
    .byte    N22, Ds2
    .byte W24
    .byte    N17, En2
    .byte W24
    .byte    N24, An2
    .byte W24
    .byte GOTO
    .word LABEL_080AACDC
    .byte FINE

Track_080AB03C:
    .byte KEYSH, 0
    .byte W24
LABEL_080AB03F:
    .byte VOICE, 5
    .byte VOL  , 94
    .byte PAN  , 64
    .byte XCMD , xIECV, 40, xIECL, 3
    .byte BENDR, 12
    .byte LFOS , 31
    .byte LFODL, 14
    .byte MOD  , 5
    .byte MODT , 0
    .byte W72
    .byte W96
    .byte W96
    .byte W96
    .byte W24
    .byte    N96, Gs4, v092
    .byte W72
LABEL_080AB05D:
    .byte W24
    .byte    N36, Fs4, v092
    .byte W36
    .byte    Bn4
    .byte W36
    .byte PEND
    .byte    N24, Cs5
    .byte W24
    .byte TIE, Gs4
    .byte W72
    .byte W24
    .byte VOL  , 94
    .byte W48
    .byte    As5
    .byte W06
    .byte    Cn5
    .byte W06
    .byte    Cs4
    .byte W06
    .byte    Ds3
    .byte W06
    .byte    Ds2
    .byte W06
    .byte    Cs1
    .byte W06
    .byte    BnM1
    .byte W06
    .byte    DnM1
    .byte W06
    .byte EOT
    .byte VOL  , 94
    .byte    N96
    .byte W72
    .byte PATT
    .word LABEL_080AB05D
    .byte    N16, Cs5, v092
    .byte W16
    .byte    N04, Bn4, v052
    .byte W04
    .byte    An4
    .byte W04
    .byte TIE, Gs4, v092
    .byte W72
    .byte W24
    .byte VOL  , 94
    .byte W36
    .byte    As5
    .byte W04
    .byte    Cs5
    .byte W04
    .byte    Ds4
    .byte W04
    .byte    Fs3
    .byte W04
    .byte    Gs2
    .byte W04
    .byte    Bn1
    .byte W04
    .byte    Cs1
    .byte W04
    .byte    BnM1
    .byte W04
    .byte    AnM2
    .byte W02
    .byte EOT
    .byte W02
    .byte VOL  , 94
    .byte    N24
    .byte W24
    .byte    N36, Bn4
    .byte W36
    .byte    An4
    .byte W36
    .byte    N24, Gs4
    .byte W24
    .byte TIE, Fs4
    .byte W72
    .byte W96
    .byte W24
    .byte VOL  , 94
    .byte W06
    .byte    As5
    .byte W04
    .byte    Dn5
    .byte W04
    .byte    Fs4
    .byte W04
    .byte    As3
    .byte W04
    .byte    Dn3
    .byte W04
    .byte    Fs2
    .byte W04
    .byte    As1
    .byte W04
    .byte    Cs1
    .byte W04
    .byte    Fs0
    .byte W04
    .byte    AnM1
    .byte W04
    .byte    DnM1
    .byte W02
    .byte EOT
    .byte VOL  , 94
    .byte    N24, En4
    .byte W24
    .byte    Fs4
    .byte W24
    .byte TIE, Gs4
    .byte W72
    .byte W96
    .byte W72
    .byte VOL  , 94
    .byte W06
    .byte    Cn5
    .byte W06
    .byte    Cs4
    .byte W06
    .byte    Ds3
    .byte W06
    .byte    Ds2
    .byte W05
    .byte    Fn1
    .byte W05
    .byte    Gn0
    .byte W05
    .byte    GsM1
    .byte W05
    .byte    AnM2
    .byte W04
    .byte EOT
    .byte VOL  , 47
    .byte W06
    .byte    N03, Fs3, v100
    .byte W03
    .byte    Fs3, v040
    .byte W03
    .byte    An3, v100
    .byte W03
    .byte    An3, v040
    .byte W03
    .byte    Dn4, v100
    .byte W03
    .byte    Dn4, v040
    .byte W03
    .byte    An3, v100
    .byte W03
    .byte    An3, v040
    .byte W03
    .byte    Fs3, v100
    .byte W03
    .byte    Fs3, v040
    .byte W03
    .byte    An3, v100
    .byte W03
    .byte    An3, v040
    .byte W03
    .byte    Dn4, v100
    .byte W03
    .byte    Dn4, v040
    .byte W03
    .byte    An3, v100
    .byte W03
    .byte    An3, v040
    .byte W03
    .byte VOL  , 61
    .byte    N03, Fs3, v100
    .byte W03
    .byte    Fs3, v040
    .byte W03
    .byte    Gs3, v100
    .byte W03
    .byte    Gs3, v040
    .byte W03
    .byte    An3, v100
    .byte W03
    .byte    An3, v040
    .byte W03
    .byte    Bn3, v100
    .byte W03
    .byte    Bn3, v040
    .byte W03
    .byte    Cs4, v100
    .byte W03
    .byte    Cs4, v040
    .byte W03
    .byte    Dn4, v100
    .byte W03
    .byte    Dn4, v040
    .byte W03
    .byte    En4, v100
    .byte W03
    .byte    En4, v040
    .byte W03
    .byte    Fs4, v100
    .byte W03
    .byte    Fs4, v040
    .byte W03
    .byte    Fs4, v020
    .byte W66
    .byte W24
    .byte PAN  , 64
    .byte VOL  , 75
    .byte    N36, Bn4, v100
    .byte W36
    .byte    An4
    .byte W36
    .byte    N24, Gs4
    .byte W24
    .byte    N96, Fs4
    .byte W48
    .byte VOL  , 75
    .byte W04
    .byte    As3
    .byte W04
    .byte    Fn3
    .byte W04
    .byte    Bn2
    .byte W04
    .byte    Fn2
    .byte W04
    .byte    Cn2
    .byte W04
    .byte    Fs1
    .byte W04
    .byte    Cs1
    .byte W04
    .byte    Gs0
    .byte W04
    .byte    Dn0
    .byte W04
    .byte    FsM1
    .byte W04
    .byte    AnM2
    .byte W04
    .byte    Ds4
    .byte    N36, Bn4
    .byte W36
    .byte    An4
    .byte W36
    .byte    N24, Bn4
    .byte W24
    .byte    N96, Cs5
    .byte W72
    .byte W24
    .byte    Fs4, v080
    .byte W72
    .byte W24
    .byte    Fn4, v072
    .byte W72
    .byte W24
    .byte    N12, Bn2, v100
    .byte W24
    .byte    N18, An3
    .byte W24
    .byte    Fs3
    .byte W24
    .byte    N18
    .byte W24
    .byte GOTO
    .word LABEL_080AB03F
    .byte FINE

    .align 2, 0

global_label SongHeader_080AB1B4
    .byte 5
    .byte 0
    .byte 0
    .byte 163
    .word 0x809FB54
    .word Track_080AA144
    .word Track_080AA3B3
    .word Track_080AAA23
    .word Track_080AACD9
    .word Track_080AB03C
