#include "offsets.h"
    .include "constants.inc"
    .include "macros.inc"

Track_080AD88C:
    .byte KEYSH, 0
    .byte TEMPO, 77
    .byte VOICE, 0
    .byte VOL  , 120
    .byte PAN  , 64
    .byte XCMD , xIECV, 20, xIECL, 2
    .byte    N06, Bn0, v112
    .byte    N24, Cs2, v060
    .byte W18
    .byte    N06, Dn1, v080
    .byte W06
    .byte    N10, Dn1, v120
    .byte    N02, Fs1, v060
    .byte W06
    .byte    Fs1, v040
    .byte W06
    .byte    N06, Bn0, v100
    .byte    N12, As1, v040
    .byte W12
    .byte    N02, Fs1, v060
    .byte W06
    .byte    Fs1, v040
    .byte W06
    .byte    N10, Dn1, v120
    .byte    N12, As1, v040
    .byte W12
    .byte    N06, Bn0, v060
    .byte    N06, Ds1, v040
    .byte    N02, Fs1, v060
    .byte W06
    .byte    N06, Dn1, v080
    .byte    N02, Fs1, v040
    .byte W06
    .byte    N10, Dn1, v120
    .byte    N12, As1, v060
    .byte W06
    .byte    N06, Bn0, v052
    .byte W06
    .byte    Bn0, v100
    .byte    N60, Cs2, v072
    .byte W24
    .byte    N06, Bn0, v060
    .byte W12
    .byte    Bn0, v092
    .byte W24
    .byte    Bn0, v032
    .byte    N36, Bn1, v072
    .byte W12
    .byte    N06, Bn0, v100
    .byte    N06, Fn1
    .byte W06
    .byte    Fn1, v040
    .byte W06
    .byte    Fn1, v060
    .byte W06
    .byte    Fn1, v120
    .byte W06
LABEL_080AD903:
    .byte    N06, Bn0, v112
    .byte    N24, Cs2, v060
    .byte W18
    .byte    N06, Dn1, v080
    .byte W06
    .byte    N10, Dn1, v120
    .byte    N02, Fs1, v060
    .byte W06
    .byte    Fs1, v040
    .byte W06
    .byte    N06, Bn0, v100
    .byte    N12, As1, v040
    .byte W12
    .byte    N02, Fs1, v060
    .byte W06
    .byte    Fs1, v040
    .byte W06
    .byte    N10, Dn1, v120
    .byte    N12, As1, v040
    .byte W12
    .byte    N06, Bn0, v060
    .byte    N02, Fs1
    .byte W06
    .byte    Fs1, v040
    .byte W06
    .byte    N10, Dn1, v100
    .byte    N12, As1, v060
    .byte W06
    .byte    N06, Bn0, v052
    .byte W06
    .byte PEND
LABEL_080AD942:
    .byte    N06, Bn0, v112
    .byte    N02, Fs1, v060
    .byte W06
    .byte    Fs1, v040
    .byte W06
    .byte    N12, As1
    .byte W12
    .byte    N10, Dn1, v120
    .byte    N02, Fs1, v060
    .byte W06
    .byte    Fs1, v040
    .byte W06
    .byte    N06, Bn0, v100
    .byte    N10, As1, v040
    .byte W12
    .byte    Dn1, v120
    .byte W06
    .byte    N02, Fs1, v060
    .byte W06
    .byte    N10, Dn1, v120
    .byte    N02, Fs1, v060
    .byte W06
    .byte    Fs1, v040
    .byte W06
    .byte    N06, Bn0, v060
    .byte    N02, Fs1
    .byte W06
    .byte    Fs1, v040
    .byte W06
    .byte    N10, Dn1, v100
    .byte    N12, As1, v040
    .byte W06
    .byte    N06, Bn0, v080
    .byte W06
    .byte PEND
LABEL_080AD986:
    .byte    N06, Bn0, v112
    .byte    N02, Fs1, v060
    .byte W06
    .byte    Fs1, v040
    .byte W06
    .byte    N12, As1
    .byte W06
    .byte    N06, Dn1, v080
    .byte W06
    .byte    N10, Dn1, v120
    .byte    N02, Fs1, v060
    .byte W06
    .byte    Fs1, v040
    .byte W06
    .byte    N06, Bn0, v100
    .byte    N10, As1, v040
    .byte W12
    .byte    N02, Fs1, v060
    .byte W06
    .byte    Fs1, v040
    .byte W06
    .byte    N10, Dn1, v120
    .byte    N12, As1, v040
    .byte W12
    .byte    N06, Bn0, v060
    .byte    N02, Fs1
    .byte W06
    .byte    Fs1, v040
    .byte W06
    .byte    N10, Dn1, v100
    .byte    N12, As1, v040
    .byte W06
    .byte    N06, Bn0, v080
    .byte W06
    .byte PEND
LABEL_080AD9CB:
    .byte    N06, Bn0, v112
    .byte    N02, Fs1, v060
    .byte W06
    .byte    Fs1, v040
    .byte W06
    .byte    N12, As1
    .byte W12
    .byte    N06, Dn1, v120
    .byte    N02, Fs1, v060
    .byte W06
    .byte    N10, Dn1, v080
    .byte    N02, Fs1, v040
    .byte W06
    .byte    N06, Bn0, v100
    .byte    N10, As1, v040
    .byte W12
    .byte    N02, Fs1, v052
    .byte W06
    .byte    N06, Bn0, v080
    .byte    N02, Fs1, v060
    .byte W06
    .byte    N10, Dn1, v120
    .byte    N02, Fs1, v060
    .byte W06
    .byte    Fs1, v040
    .byte W06
    .byte    N06, Bn0, v060
    .byte    N02, Fs1
    .byte W06
    .byte    Fs1, v040
    .byte W06
    .byte    N10, Dn1, v100
    .byte    N12, As1, v040
    .byte W06
    .byte    N06, Bn0, v080
    .byte W06
    .byte PEND
    .byte PATT
    .word LABEL_080AD903
    .byte PATT
    .word LABEL_080AD942
    .byte PATT
    .word LABEL_080AD986
    .byte    N06, Bn0, v112
    .byte    N02, Fs1, v060
    .byte W06
    .byte    Fs1, v040
    .byte W06
    .byte    N12, As1
    .byte W12
    .byte    N06, Dn1, v120
    .byte    N02, Fs1, v060
    .byte W06
    .byte    N10, Dn1, v080
    .byte    N02, Fs1, v040
    .byte W06
    .byte    N06, Bn0, v100
    .byte    N10, As1, v040
    .byte W12
    .byte    N02, Fs1, v052
    .byte W06
    .byte    N06, Bn0, v080
    .byte    N02, Fs1, v060
    .byte W06
    .byte    N10, Dn1, v120
    .byte    N02, Fs1, v060
    .byte W06
    .byte    Fs1, v040
    .byte W06
    .byte    N06, Bn0, v060
    .byte    N02, Fs1
    .byte W06
    .byte    Fs1, v040
    .byte W06
    .byte    N06, Dn1, v100
    .byte    N12, As1, v040
    .byte W06
    .byte    N06, Dn1, v080
    .byte W06
    .byte PATT
    .word LABEL_080AD903
    .byte PATT
    .word LABEL_080AD942
    .byte PATT
    .word LABEL_080AD986
    .byte PATT
    .word LABEL_080AD9CB
    .byte PATT
    .word LABEL_080AD903
    .byte PATT
    .word LABEL_080AD942
    .byte PATT
    .word LABEL_080AD986
    .byte    N06, Bn0, v112
    .byte    N02, Fs1, v060
    .byte W06
    .byte    Fs1, v040
    .byte W06
    .byte    N12, As1
    .byte W12
    .byte    N06, Dn1, v120
    .byte    N02, Fs1, v060
    .byte W06
    .byte    N10, Dn1, v080
    .byte    N02, Fs1, v040
    .byte W06
    .byte    N06, Bn0, v100
    .byte    N10, As1, v040
    .byte W12
    .byte    N05, Fn1, v032
    .byte    N02, Fs1, v052
    .byte W06
    .byte    N06, Bn0, v080
    .byte    N05, Fn1, v040
    .byte    N02, Fs1, v060
    .byte W06
    .byte    N10, Dn1, v120
    .byte    N05, Fn1, v052
    .byte    N02, Fs1, v060
    .byte W06
    .byte    N05, Fn1, v072
    .byte    N02, Fs1, v040
    .byte W06
    .byte    N06, Bn0, v060
    .byte    N05, Fn1, v092
    .byte    N02, Fs1, v060
    .byte W06
    .byte    N05, Fn1, v100
    .byte    N02, Fs1, v040
    .byte W06
    .byte    N10, Dn1, v100
    .byte    N05, Fn1, v112
    .byte    N12, As1, v040
    .byte W06
    .byte    N06, Bn0, v080
    .byte    N05, Fn1, v120
    .byte W06
LABEL_080ADAFA:
    .byte    N06, Bn0, v112
    .byte    N48, Cs2, v072
    .byte W18
    .byte    N06, Dn1, v080
    .byte W06
    .byte    N10, Dn1, v120
    .byte W12
    .byte    N06, Bn0, v100
    .byte W12
    .byte    N02, Fs1, v060
    .byte W06
    .byte    Fs1, v040
    .byte W06
    .byte    N10, Dn1, v120
    .byte    N12, As1, v040
    .byte W12
    .byte    N06, Bn0, v060
    .byte    N02, Fs1
    .byte W06
    .byte    Fs1, v040
    .byte W06
    .byte    N10, Dn1, v100
    .byte    N12, As1, v060
    .byte W06
    .byte    N06, Bn0, v052
    .byte W06
    .byte PEND
    .byte PATT
    .word LABEL_080AD942
LABEL_080ADB35:
    .byte    N06, Bn0, v112
    .byte    N48, Cs2, v072
    .byte W18
    .byte    N06, Dn1, v080
    .byte W06
    .byte    N10, Dn1, v120
    .byte W12
    .byte    N06, Bn0, v100
    .byte W12
    .byte    N02, Fs1, v060
    .byte W06
    .byte    Fs1, v040
    .byte W06
    .byte    N10, Dn1, v120
    .byte    N12, As1, v040
    .byte W12
    .byte    N06, Bn0, v060
    .byte    N02, Fs1
    .byte W06
    .byte    Fs1, v040
    .byte W06
    .byte    N10, Dn1, v100
    .byte    N12, As1, v040
    .byte W06
    .byte    N06, Bn0, v080
    .byte W06
    .byte PEND
LABEL_080ADB6B:
    .byte    N06, Bn0, v112
    .byte    N02, Fs1, v060
    .byte W06
    .byte    Fs1, v040
    .byte W06
    .byte    N12, As1
    .byte W12
    .byte    N06, Dn1, v120
    .byte    N02, Fs1, v060
    .byte W06
    .byte    N10, Dn1, v080
    .byte    N02, Fs1, v040
    .byte W06
    .byte    N06, Bn0, v100
    .byte    N10, As1, v040
    .byte W12
    .byte    N02, Fs1, v052
    .byte W06
    .byte    N06, Dn1, v100
    .byte    N02, Fs1, v060
    .byte W06
    .byte    N10, Dn1, v120
    .byte    N02, Fs1, v060
    .byte W06
    .byte    Fs1, v040
    .byte W06
    .byte    N06, Bn0, v060
    .byte    N02, Fs1
    .byte W06
    .byte    Fs1, v040
    .byte W06
    .byte    N10, Dn1, v100
    .byte    N12, As1, v040
    .byte W06
    .byte    N06, Bn0, v080
    .byte W06
    .byte PEND
    .byte PATT
    .word LABEL_080ADAFA
    .byte PATT
    .word LABEL_080AD942
    .byte PATT
    .word LABEL_080ADB35
    .byte PATT
    .word LABEL_080ADB6B
    .byte    N06, Bn0, v112
    .byte    N36, Cs2, v060
    .byte W18
    .byte    N06, Dn1, v080
    .byte W06
    .byte    N10, Dn1, v120
    .byte W12
    .byte    N06, Bn0, v100
    .byte W06
    .byte    N02, Fs1, v040
    .byte W06
    .byte    N06, Bn0, v092
    .byte    N36, Cs2, v060
    .byte W12
    .byte    N10, Dn1, v120
    .byte W12
    .byte    N06, Bn0, v060
    .byte W12
    .byte    N10, Dn1, v100
    .byte    N12, As1, v060
    .byte W06
    .byte    N06, Bn0, v052
    .byte W06
    .byte    Bn0, v112
    .byte    N36, Cs2, v060
    .byte W24
    .byte    N10, Dn1, v120
    .byte W12
    .byte    N06, Bn0, v100
    .byte    N10, As1, v040
    .byte W12
    .byte    N06, Bn0, v092
    .byte    N36, Cs2, v060
    .byte W12
    .byte    N10, Dn1, v120
    .byte W12
    .byte    N06, Bn0, v060
    .byte W12
    .byte    N10, Dn1, v100
    .byte    N12, As1, v040
    .byte W06
    .byte    N06, Bn0, v080
    .byte W06
    .byte    Bn0, v112
    .byte    N02, Fs1, v060
    .byte W06
    .byte    Fs1, v040
    .byte W06
    .byte    N12, As1
    .byte W12
    .byte    N10, Dn1, v120
    .byte    N02, Fs1, v060
    .byte W06
    .byte    Fs1, v040
    .byte W06
    .byte    N06, Bn0, v100
    .byte    N10, As1, v040
    .byte W12
    .byte    Dn1, v120
    .byte W06
    .byte    N02, Fs1, v060
    .byte W06
    .byte    N10, Dn1, v120
    .byte    N02, Fs1, v060
    .byte W06
    .byte    Fs1, v040
    .byte W06
    .byte    N06, Bn0, v060
    .byte    N06, Dn1, v080
    .byte    N02, Fs1, v060
    .byte W06
    .byte    N06, Dn1, v100
    .byte    N02, Fs1, v040
    .byte W06
    .byte    N06, Dn1, v112
    .byte    N12, As1, v040
    .byte W06
    .byte    N06, Bn0, v080
    .byte    N06, Dn1, v120
    .byte W06
    .byte    Bn0, v112
    .byte    N48, Cs2, v072
    .byte W18
    .byte    N06, Dn1, v080
    .byte W06
    .byte    N05, Fn1, v052
    .byte W06
    .byte    N05
    .byte W06
    .byte    Fn1, v060
    .byte W06
    .byte    N05
    .byte W06
    .byte    N05
    .byte    N12, As1, v052
    .byte W06
    .byte    N05, Fn1, v072
    .byte W06
    .byte    N05
    .byte    N12, As1, v052
    .byte W06
    .byte    N05, Fn1, v080
    .byte W06
    .byte    Fn1, v092
    .byte    N12, As1, v052
    .byte W06
    .byte    N05, Fn1, v100
    .byte W06
    .byte    Fn1, v112
    .byte    N12, As1, v052
    .byte W06
    .byte    N05, Fn1, v120
    .byte W06
    .byte GOTO
    .word LABEL_080AD903
    .byte FINE

Track_080ADCB5:
    .byte KEYSH, 0
    .byte W24
    .byte VOICE, 1
    .byte W06
    .byte VOL  , 94
    .byte W06
    .byte W06
    .byte XCMD , xIECV, 40
    .byte W06
    .byte W06
    .byte    AnM2, v003
    .byte W06
    .byte BENDR, 12
    .byte W06
    .byte LFOS , 28
    .byte W06
    .byte LFODL, 14
    .byte W06
    .byte MOD  , 3
    .byte W06
    .byte MODT , 0
    .byte W06
    .byte PAN  , 64
    .byte W06
    .byte    N96, Fs3, v072
    .byte W96
LABEL_080ADCDD:
    .byte PAN  , 127
    .byte    N03, Gn1, v100
    .byte W03
    .byte    Gn1, v060
    .byte W03
    .byte    Cn2, v100
    .byte W03
    .byte    Cn2, v060
    .byte W03
    .byte    Dn2, v100
    .byte W03
    .byte    Dn2, v060
    .byte W03
    .byte    Gn2, v100
    .byte W03
    .byte    Gn2, v060
    .byte W03
    .byte PAN  , 0
    .byte    N03, Gn2, v100
    .byte W03
    .byte    Gn2, v060
    .byte W03
    .byte    Cn3, v100
    .byte W03
    .byte    Cn3, v060
    .byte W03
    .byte    Dn3, v100
    .byte W03
    .byte    Dn3, v060
    .byte W03
    .byte    Fs3, v100
    .byte W03
    .byte    Fs3, v060
    .byte W03
    .byte PAN  , 127
    .byte    N03, Gn3, v100
    .byte W03
    .byte    Gn3, v060
    .byte W03
    .byte    Cn4, v100
    .byte W03
    .byte    Cn4, v060
    .byte W03
    .byte    Cs4, v100
    .byte W03
    .byte    Cs4, v060
    .byte W03
    .byte    Fn4, v100
    .byte W03
    .byte    Fn4, v060
    .byte W03
    .byte PAN  , 0
    .byte    N03, Gn4, v100
    .byte W03
    .byte    Gn4, v060
    .byte W03
    .byte    Cn5, v100
    .byte W03
    .byte    Cn5, v060
    .byte W03
    .byte    Cs5, v100
    .byte W03
    .byte    Cs5, v060
    .byte W03
    .byte    Gn5, v100
    .byte W03
    .byte    Gn5, v060
    .byte W03
    .byte PEND
LABEL_080ADD4A:
    .byte PAN  , 64
    .byte    N06, Gn3, v080
    .byte W06
    .byte    Gn3, v032
    .byte W06
    .byte    Gn3, v060
    .byte W06
    .byte    Gn3, v020
    .byte W06
    .byte    Gn3, v032
    .byte W06
    .byte    Gn3, v012
    .byte W06
    .byte    Fn3, v080
    .byte W06
    .byte    Fn3, v032
    .byte W06
    .byte    Fn3, v060
    .byte W06
    .byte    Fn3, v020
    .byte W06
    .byte    Fn3, v032
    .byte W06
    .byte    Fn3, v012
    .byte W06
    .byte    Gs3, v080
    .byte W06
    .byte    Gs3, v032
    .byte W06
    .byte    Gs3, v040
    .byte W06
    .byte    Gs3, v012
    .byte W06
    .byte PEND
LABEL_080ADD7E:
    .byte PAN  , 127
    .byte    N03, Gn5, v100
    .byte W03
    .byte    Gn5, v060
    .byte W03
    .byte    Dn5, v100
    .byte W03
    .byte    Dn5, v060
    .byte W03
    .byte    Cn5, v100
    .byte W03
    .byte    Cn5, v060
    .byte W03
    .byte    Gn4, v100
    .byte W03
    .byte    Gn4, v060
    .byte W03
    .byte PAN  , 0
    .byte    N03, Fs4, v100
    .byte W03
    .byte    Fs4, v060
    .byte W03
    .byte    Dn4, v100
    .byte W03
    .byte    Dn4, v060
    .byte W03
    .byte    Cn4, v100
    .byte W03
    .byte    Cn4, v060
    .byte W03
    .byte    Gn3, v100
    .byte W03
    .byte    Gn3, v060
    .byte W03
    .byte PAN  , 127
    .byte    N03, Fn3, v100
    .byte W03
    .byte    Fn3, v060
    .byte W03
    .byte    Cs3, v100
    .byte W03
    .byte    Cs3, v060
    .byte W03
    .byte    Cn3, v100
    .byte W03
    .byte    Cn3, v060
    .byte W03
    .byte    Gn2, v100
    .byte W03
    .byte    Gn2, v060
    .byte W03
    .byte PAN  , 0
    .byte    N03, Gn2, v100
    .byte W03
    .byte    Gn2, v060
    .byte W03
    .byte    Cs2, v100
    .byte W03
    .byte    Cs2, v060
    .byte W03
    .byte    Cn2, v100
    .byte W03
    .byte    Cn2, v060
    .byte W03
    .byte    Gn1, v100
    .byte W03
    .byte    Gn1, v060
    .byte W03
    .byte PEND
LABEL_080ADDEB:
    .byte PAN  , 64
    .byte    N06, Gn3, v080
    .byte W06
    .byte    Gn3, v032
    .byte W06
    .byte    Gn3, v060
    .byte W06
    .byte    Gn3, v020
    .byte W06
    .byte    Gn3, v032
    .byte W06
    .byte    Gn3, v012
    .byte W06
    .byte    Fn3, v080
    .byte W06
    .byte    Fn3, v032
    .byte W06
    .byte    Fn3, v060
    .byte W06
    .byte    Fn3, v020
    .byte W06
    .byte    Fn3, v032
    .byte W06
    .byte    Fn3, v012
    .byte W06
    .byte    Cs3, v080
    .byte W06
    .byte    Cs3, v032
    .byte W06
    .byte    Cs3, v040
    .byte W06
    .byte    Cs3, v012
    .byte W06
    .byte PEND
    .byte    N03, Gn1, v100
    .byte W03
    .byte    Gn1, v060
    .byte W03
    .byte    Cn2, v100
    .byte W03
    .byte    Cn2, v060
    .byte W03
    .byte    Dn2, v100
    .byte W03
    .byte    Dn2, v060
    .byte W03
    .byte    Gn2, v100
    .byte W03
    .byte    Gn2, v060
    .byte W03
    .byte PAN  , 0
    .byte    N03, Gn2, v100
    .byte W03
    .byte    Gn2, v060
    .byte W03
    .byte    Cn3, v100
    .byte W03
    .byte    Cn3, v060
    .byte W03
    .byte    Dn3, v100
    .byte W03
    .byte    Dn3, v060
    .byte W03
    .byte    Fs3, v100
    .byte W03
    .byte    Fs3, v060
    .byte W03
    .byte PAN  , 127
    .byte    N03, Gn3, v100
    .byte W03
    .byte    Gn3, v060
    .byte W03
    .byte    Cn4, v100
    .byte W03
    .byte    Cn4, v060
    .byte W03
    .byte    Cs4, v100
    .byte W03
    .byte    Cs4, v060
    .byte W03
    .byte    Fn4, v100
    .byte W03
    .byte    Fn4, v060
    .byte W03
    .byte PAN  , 0
    .byte    N03, Gn4, v100
    .byte W03
    .byte    Gn4, v060
    .byte W03
    .byte    Cn5, v100
    .byte W03
    .byte    Cn5, v060
    .byte W03
    .byte    Cs5, v100
    .byte W03
    .byte    Cs5, v060
    .byte W03
    .byte    Gn5, v100
    .byte W03
    .byte    Gn5, v060
    .byte W03
    .byte PAN  , 64
    .byte    N06, Gn3, v080
    .byte W06
    .byte    Gn3, v032
    .byte W06
    .byte    Gn3, v060
    .byte W06
    .byte    Gn3, v020
    .byte W06
    .byte    Gn3, v032
    .byte W06
    .byte    Gn3, v012
    .byte W06
    .byte    Fn3, v080
    .byte W06
    .byte    Fn3, v032
    .byte W06
    .byte    Fn3, v060
    .byte W06
    .byte    Fn3, v020
    .byte W06
    .byte    Fn3, v032
    .byte W06
    .byte    Fn3, v012
    .byte W06
    .byte    Gs3, v100
    .byte W06
    .byte    Gs3, v032
    .byte W06
    .byte    Gs3, v040
    .byte W06
    .byte    Gs3, v012
    .byte W06
    .byte PATT
    .word LABEL_080ADD7E
    .byte PATT
    .word LABEL_080ADDEB
    .byte PATT
    .word LABEL_080ADCDD
    .byte PATT
    .word LABEL_080ADD4A
    .byte PATT
    .word LABEL_080ADD7E
    .byte PATT
    .word LABEL_080ADDEB
LABEL_080ADEDA:
    .byte PAN  , 127
    .byte    N03, En1, v100
    .byte W03
    .byte    En1, v060
    .byte W03
    .byte    An1, v100
    .byte W03
    .byte    An1, v060
    .byte W03
    .byte    Bn1, v100
    .byte W03
    .byte    Bn1, v060
    .byte W03
    .byte    En2, v100
    .byte W03
    .byte    En2, v060
    .byte W03
    .byte PAN  , 0
    .byte    N03, En2, v100
    .byte W03
    .byte    En2, v060
    .byte W03
    .byte    An2, v100
    .byte W03
    .byte    An2, v060
    .byte W03
    .byte    Bn2, v100
    .byte W03
    .byte    Bn2, v060
    .byte W03
    .byte    Ds3, v100
    .byte W03
    .byte    Ds3, v060
    .byte W03
    .byte PAN  , 127
    .byte    N03, En3, v100
    .byte W03
    .byte    En3, v060
    .byte W03
    .byte    An3, v100
    .byte W03
    .byte    An3, v060
    .byte W03
    .byte    As3, v100
    .byte W03
    .byte    As3, v060
    .byte W03
    .byte    Dn4, v100
    .byte W03
    .byte    Dn4, v060
    .byte W03
    .byte PAN  , 0
    .byte    N03, En4, v100
    .byte W03
    .byte    En4, v060
    .byte W03
    .byte    An4, v100
    .byte W03
    .byte    An4, v060
    .byte W03
    .byte    As4, v100
    .byte W03
    .byte    As4, v060
    .byte W03
    .byte    En5, v100
    .byte W03
    .byte    En5, v060
    .byte W03
    .byte PEND
    .byte PAN  , 64
    .byte    N06, En3, v080
    .byte W06
    .byte    En3, v032
    .byte W06
    .byte    En3, v060
    .byte W06
    .byte    En3, v020
    .byte W06
    .byte    En3, v032
    .byte W06
    .byte    En3, v012
    .byte W06
    .byte    Dn3, v080
    .byte W06
    .byte    Dn3, v032
    .byte W06
    .byte    Dn3, v060
    .byte W06
    .byte    Dn3, v020
    .byte W06
    .byte    Dn3, v032
    .byte W06
    .byte    Dn3, v012
    .byte W06
    .byte    Fs3, v080
    .byte W06
    .byte    Fs3, v032
    .byte W06
    .byte    Fs3, v040
    .byte W06
    .byte    Fs3, v012
    .byte W06
LABEL_080ADF7A:
    .byte PAN  , 127
    .byte    N03, En5, v100
    .byte W03
    .byte    En5, v060
    .byte W03
    .byte    Bn4, v100
    .byte W03
    .byte    Bn4, v060
    .byte W03
    .byte    An4, v100
    .byte W03
    .byte    An4, v060
    .byte W03
    .byte    En4, v100
    .byte W03
    .byte    En4, v060
    .byte W03
    .byte PAN  , 0
    .byte    N03, Ds4, v112
    .byte W03
    .byte    Ds4, v060
    .byte W03
    .byte    Bn3, v112
    .byte W03
    .byte    Bn3, v060
    .byte W03
    .byte    An3, v112
    .byte W03
    .byte    An3, v060
    .byte W03
    .byte    En3, v112
    .byte W03
    .byte    En3, v060
    .byte W03
    .byte PAN  , 127
    .byte    N03, Dn3, v120
    .byte W03
    .byte    Dn3, v080
    .byte W03
    .byte    As2, v120
    .byte W03
    .byte    As2, v080
    .byte W03
    .byte    An2, v120
    .byte W03
    .byte    An2, v080
    .byte W03
    .byte    En2, v120
    .byte W03
    .byte    En2, v080
    .byte W03
    .byte PAN  , 0
    .byte    N03, En2, v120
    .byte W03
    .byte    En2, v080
    .byte W03
    .byte    As1, v120
    .byte W03
    .byte    As1, v080
    .byte W03
    .byte    An1, v120
    .byte W03
    .byte    An1, v080
    .byte W03
    .byte    En1, v120
    .byte W03
    .byte    En1, v080
    .byte W03
    .byte PEND
    .byte PAN  , 64
    .byte    N06, En4
    .byte W06
    .byte    En4, v032
    .byte W06
    .byte    En4, v060
    .byte W06
    .byte    En4, v020
    .byte W06
    .byte    En4, v032
    .byte W06
    .byte    En4, v012
    .byte W06
    .byte    Dn4, v080
    .byte W06
    .byte    Dn4, v032
    .byte W06
    .byte    Dn4, v060
    .byte W06
    .byte    Dn4, v020
    .byte W06
    .byte    Dn4, v032
    .byte W06
    .byte    Dn4, v012
    .byte W06
    .byte    Bn3, v080
    .byte W06
    .byte    Bn3, v032
    .byte W06
    .byte    Bn3, v040
    .byte W06
    .byte    Bn3, v012
    .byte W06
    .byte PATT
    .word LABEL_080ADEDA
LABEL_080AE01E:
    .byte PAN  , 64
    .byte    N06, En4, v092
    .byte W06
    .byte    En4, v060
    .byte W06
    .byte    En4, v032
    .byte W06
    .byte    Ds4, v092
    .byte W06
    .byte    Ds4, v060
    .byte W06
    .byte    Ds4, v032
    .byte W06
    .byte    Dn4, v092
    .byte W06
    .byte    Dn4, v060
    .byte W06
    .byte    Ds4, v092
    .byte W06
    .byte    Ds4, v060
    .byte W06
    .byte    Ds4, v032
    .byte W06
    .byte    Cs4, v092
    .byte W06
    .byte    Cs4, v060
    .byte W06
    .byte    Cs4, v032
    .byte W06
    .byte    As3, v092
    .byte W06
    .byte    As3, v060
    .byte W06
    .byte PEND
    .byte PATT
    .word LABEL_080ADF7A
    .byte W48
    .byte PAN  , 127
    .byte    N03, Dn3, v060
    .byte W03
    .byte    Dn3, v032
    .byte W03
    .byte    As2, v060
    .byte W03
    .byte    As2, v032
    .byte W03
    .byte    An2, v080
    .byte W03
    .byte    An2, v052
    .byte W03
    .byte    En2, v080
    .byte W03
    .byte    En2, v052
    .byte W03
    .byte PAN  , 0
    .byte    N03, En2, v100
    .byte W03
    .byte    En2, v060
    .byte W03
    .byte    As1, v100
    .byte W03
    .byte    As1, v060
    .byte W03
    .byte    An1, v120
    .byte W03
    .byte    An1, v080
    .byte W03
    .byte    En1, v120
    .byte W03
    .byte    En1, v080
    .byte W03
    .byte PATT
    .word LABEL_080ADEDA
    .byte PATT
    .word LABEL_080AE01E
    .byte PATT
    .word LABEL_080ADF7A
    .byte W72
    .byte PAN  , 0
    .byte    N03, En2, v100
    .byte W03
    .byte    En2, v060
    .byte W03
    .byte    As1, v100
    .byte W03
    .byte    As1, v060
    .byte W03
    .byte    An1, v120
    .byte W03
    .byte    An1, v080
    .byte W03
    .byte    En1, v120
    .byte W03
    .byte    En1, v080
    .byte W03
    .byte PAN  , 127
    .byte    N03, En1, v100
    .byte W03
    .byte    En1, v060
    .byte W03
    .byte    An1, v100
    .byte W03
    .byte    An1, v060
    .byte W03
    .byte    Bn1, v100
    .byte W03
    .byte    Bn1, v060
    .byte W03
    .byte    En2, v100
    .byte W03
    .byte    En2, v060
    .byte W03
    .byte PAN  , 0
    .byte    N03, An3, v100
    .byte W03
    .byte    An3, v060
    .byte W03
    .byte    Bn3, v100
    .byte W03
    .byte    Bn3, v060
    .byte W03
    .byte    Dn4, v100
    .byte W03
    .byte    Dn4, v060
    .byte W03
    .byte    En4, v100
    .byte W03
    .byte    En4, v060
    .byte W03
    .byte PAN  , 127
    .byte    N03, Gn3, v100
    .byte W03
    .byte    Gn3, v060
    .byte W03
    .byte    Cn4, v100
    .byte W03
    .byte    Cn4, v060
    .byte W03
    .byte    Cs4, v100
    .byte W03
    .byte    Cs4, v060
    .byte W03
    .byte    Fn4, v100
    .byte W03
    .byte    Fn4, v060
    .byte W03
    .byte PAN  , 0
    .byte    N03, Gn4, v100
    .byte W03
    .byte    Gn4, v060
    .byte W03
    .byte    Cn5, v100
    .byte W03
    .byte    Cn5, v060
    .byte W03
    .byte    Cs5, v100
    .byte W03
    .byte    Cs5, v060
    .byte W03
    .byte    Gn5, v100
    .byte W03
    .byte    Gn5, v060
    .byte W03
    .byte PAN  , 127
    .byte    N03, Gs5, v100
    .byte W03
    .byte    Gs5, v060
    .byte W03
    .byte    Ds5, v100
    .byte W03
    .byte    Ds5, v060
    .byte W03
    .byte    Cs5, v100
    .byte W03
    .byte    Cs5, v060
    .byte W03
    .byte    Gs4, v100
    .byte W03
    .byte    Gs4, v060
    .byte W03
    .byte PAN  , 0
    .byte    N03, Gn4, v100
    .byte W03
    .byte    Gn4, v060
    .byte W03
    .byte    Ds4, v100
    .byte W03
    .byte    Ds4, v060
    .byte W03
    .byte    Cs4, v100
    .byte W03
    .byte    Cs4, v060
    .byte W03
    .byte    Gs3, v100
    .byte W03
    .byte    Gs3, v060
    .byte W03
    .byte PAN  , 127
    .byte    N03, Cn3, v100
    .byte W03
    .byte    Cn3, v060
    .byte W03
    .byte    Gs2, v100
    .byte W03
    .byte    Gs2, v060
    .byte W03
    .byte    Gn2, v100
    .byte W03
    .byte    Gn2, v060
    .byte W03
    .byte    Dn2, v100
    .byte W03
    .byte    Dn2, v060
    .byte W03
    .byte PAN  , 0
    .byte    N03, Dn2, v100
    .byte W03
    .byte    Dn2, v060
    .byte W03
    .byte    Gs1, v100
    .byte W03
    .byte    Gs1, v060
    .byte W03
    .byte    Gn1, v100
    .byte W03
    .byte    Gn1, v060
    .byte W03
    .byte    Dn1, v100
    .byte W03
    .byte    Dn1, v060
    .byte W03
    .byte    Bn1, v100
    .byte W03
    .byte    Bn1, v060
    .byte W03
    .byte    En2, v100
    .byte W03
    .byte    En2, v060
    .byte W03
    .byte    Fs2, v100
    .byte W03
    .byte    Fs2, v060
    .byte W03
    .byte    Bn2, v100
    .byte W03
    .byte    Bn2, v060
    .byte W03
    .byte PAN  , 0
    .byte    N03, Bn2, v100
    .byte W03
    .byte    Bn2, v060
    .byte W03
    .byte    En3, v100
    .byte W03
    .byte    En3, v060
    .byte W03
    .byte    Fs3, v100
    .byte W03
    .byte    Fs3, v060
    .byte W03
    .byte    As3, v100
    .byte W03
    .byte    As3, v060
    .byte W03
    .byte PAN  , 127
    .byte    N03, Bn3, v100
    .byte W03
    .byte    Bn3, v060
    .byte W03
    .byte    En4, v100
    .byte W03
    .byte    En4, v060
    .byte W03
    .byte    Fn4, v100
    .byte W03
    .byte    Fn4, v060
    .byte W03
    .byte    An4, v100
    .byte W03
    .byte    An4, v060
    .byte W03
    .byte PAN  , 0
    .byte    N03, Bn4, v100
    .byte W03
    .byte    Bn4, v060
    .byte W03
    .byte    En5, v100
    .byte W03
    .byte    En5, v060
    .byte W03
    .byte    Fn5, v100
    .byte W03
    .byte    Fn5, v060
    .byte W03
    .byte    Bn5, v100
    .byte W03
    .byte    Bn5, v060
    .byte W03
    .byte W48
    .byte PAN  , 127
    .byte    N03, Cs1, v100
    .byte W03
    .byte    N03
    .byte W03
    .byte    En1
    .byte W03
    .byte    Fs1
    .byte W03
    .byte    Bn2
    .byte W03
    .byte    Cs2
    .byte W03
    .byte    En2
    .byte W03
    .byte    Fs2
    .byte W03
    .byte PAN  , 0
    .byte    N03, Bn3
    .byte W03
    .byte    Cs3
    .byte W03
    .byte    En3
    .byte W03
    .byte    Fs3
    .byte W03
    .byte    Bn3
    .byte W03
    .byte    Cs4
    .byte W03
    .byte    En4
    .byte W03
    .byte    Fs4
    .byte W03
    .byte GOTO
    .word LABEL_080ADCDD
    .byte FINE

Track_080AE228:
    .byte KEYSH, 0
    .byte VOICE, 23
    .byte VOL  , 113
    .byte PAN  , 64
    .byte BENDR, 12
    .byte    N15, Gn3, v112
    .byte W15
    .byte    N03, Gn3, v036
    .byte W03
    .byte    N15, Fs3, v112
    .byte W15
    .byte    N03, Fs3, v036
    .byte W03
    .byte    N07, Fn3, v112
    .byte W07
    .byte    N05, Fn3, v036
    .byte W05
    .byte    N15, En3, v112
    .byte W15
    .byte    N03, En3, v036
    .byte W03
    .byte    N15, Ds3, v112
    .byte W15
    .byte    N03, Ds3, v036
    .byte W03
    .byte    N07, Dn3, v112
    .byte W07
    .byte    N05, Dn3, v036
    .byte W05
    .byte    N66, Cs3, v100
    .byte W66
    .byte    N06, Cs3, v040
    .byte W06
    .byte    N04, Bn2, v100
    .byte W04
    .byte    N01, Bn2, v032
    .byte W02
    .byte    N04, As2, v100
    .byte W04
    .byte    N01, As2, v032
    .byte W02
    .byte    N04, An2, v100
    .byte W04
    .byte    N01, An2, v032
    .byte W02
    .byte    N04, Gs2, v100
    .byte W04
    .byte    N01, Gs2, v032
    .byte W02
LABEL_080AE28A:
    .byte VOICE, 26
    .byte    N12, Gn2, v120
    .byte W12
    .byte    An2
    .byte W12
    .byte    As2
    .byte W12
    .byte TIE, Fn3
    .byte W60
    .byte W48
    .byte EOT
    .byte    N48, Ds3
    .byte W48
    .byte TIE, Dn3
    .byte W96
    .byte W60
    .byte EOT
    .byte    N12, Dn3, v060
    .byte W12
    .byte    Dn3, v040
    .byte W12
    .byte    Dn3, v020
    .byte W12
    .byte    Gn2, v120
    .byte W12
    .byte    An2
    .byte W12
    .byte    As2
    .byte W12
    .byte TIE, Fn3
    .byte W60
    .byte W48
    .byte EOT
    .byte    N36, Ds3
    .byte W36
    .byte    N06, Fn3
    .byte W06
    .byte    Ds3
    .byte W06
    .byte    N96, Dn3
    .byte W96
    .byte    N60
    .byte W60
    .byte    N12, Dn3, v060
    .byte W12
    .byte    Dn3, v040
    .byte W12
    .byte    Dn3, v020
    .byte W12
    .byte    Cn3, v120
    .byte W12
    .byte    Dn3
    .byte W12
    .byte    Ds3
    .byte W12
    .byte    N60, Gn3
    .byte W60
    .byte    N12, Gn3, v052
    .byte W12
    .byte    Gn3, v020
    .byte W12
    .byte    N24, Fn3, v120
    .byte W24
    .byte    N36, As3
    .byte W36
    .byte    N06, An3
    .byte W06
    .byte    Gs3
    .byte W06
    .byte TIE, Gn3
    .byte W96
    .byte W48
    .byte EOT
    .byte    N12, Gn3, v060
    .byte W12
    .byte    Gn3, v040
    .byte W12
    .byte    N24, Gn3, v120
    .byte W24
    .byte    N18, Fs3
    .byte W18
    .byte    Gn3
    .byte W18
    .byte    N06, Fs3
    .byte W06
    .byte    Dn3
    .byte W06
    .byte TIE, Bn2
    .byte W48
    .byte W96
    .byte W60
    .byte EOT
    .byte    N12, Bn2, v060
    .byte W12
    .byte    Bn2, v040
    .byte W12
    .byte    Bn2, v020
    .byte W12
    .byte W96
    .byte    N10, En0, v127
    .byte W12
    .byte    En0, v120
    .byte W12
    .byte    En1, v112
    .byte W12
    .byte    En0, v127
    .byte W12
    .byte    N16, As0
    .byte W18
    .byte    An0
    .byte W18
    .byte    N10, Gn0
    .byte W12
LABEL_080AE32B:
    .byte BEND , 64
    .byte    N24, En0, v127
    .byte W06
    .byte BEND , 63
    .byte W04
    .byte    Dn3
    .byte W02
    .byte    Cn3
    .byte W02
    .byte    As2
    .byte W02
    .byte    Fs2
    .byte W02
    .byte    Cn2
    .byte W02
    .byte    Ds1
    .byte W02
    .byte    Cn0
    .byte W02
    .byte    En3
    .byte W48
    .byte    N12, Dn0, v100
    .byte W12
    .byte    Ds0
    .byte W12
    .byte PEND
LABEL_080AE34B:
    .byte    N10, En0, v127
    .byte W12
    .byte    En0, v120
    .byte W12
    .byte    En1, v112
    .byte W12
    .byte    En0, v127
    .byte W12
    .byte    N16, Gn0
    .byte W18
    .byte    An0
    .byte W18
    .byte    N12, As0
    .byte W12
    .byte PEND
    .byte VOICE, 21
    .byte MODT , 2
    .byte PAN  , 127
    .byte    N92, Fs4, v120
    .byte W08
    .byte PAN  , 110
    .byte W08
    .byte    En6
    .byte W08
    .byte    Fs5
    .byte W08
    .byte    Gs4
    .byte W08
    .byte    As3
    .byte W08
    .byte    Cn3
    .byte W08
    .byte    An1
    .byte W08
    .byte    Fs0
    .byte W08
    .byte    GsM1
    .byte W08
    .byte    AsM2
    .byte W08
    .byte    CnM2
    .byte W05
    .byte    N03, Fs4, v052
    .byte W03
    .byte VOICE, 26
    .byte PAN  , 64
    .byte    N10, En0, v127
    .byte W12
    .byte    N10
    .byte W12
    .byte    En1, v112
    .byte W12
    .byte    En0, v127
    .byte W12
    .byte    N16, As0
    .byte W18
    .byte    An0
    .byte W18
    .byte    N10, Gn0
    .byte W12
    .byte PATT
    .word LABEL_080AE32B
    .byte PATT
    .word LABEL_080AE34B
    .byte VOICE, 21
    .byte MODT , 2
    .byte PAN  , 0
    .byte    N92, Ds4, v120
    .byte W08
    .byte PAN  , 10
    .byte W08
    .byte    GsM1
    .byte W08
    .byte    Fs0
    .byte W08
    .byte    An1
    .byte W08
    .byte    Cn3
    .byte W08
    .byte    As3
    .byte W08
    .byte    Gs4
    .byte W08
    .byte    Fs5
    .byte W08
    .byte    En6
    .byte W08
    .byte    Dn7
    .byte W08
    .byte    Gn8
    .byte W05
    .byte    N03, Ds4, v052
    .byte W03
    .byte VOICE, 26
    .byte PAN  , 64
    .byte    N16, En0, v120
    .byte W18
    .byte    En1, v100
    .byte W18
    .byte    N10, En0, v120
    .byte W12
    .byte    N16, Gn0
    .byte W18
    .byte    Gn1, v100
    .byte W18
    .byte    N10, Gn0, v120
    .byte W12
    .byte    N16, Gs0
    .byte W18
    .byte    Gs1, v100
    .byte W18
    .byte    N10, Gs0, v120
    .byte W12
    .byte    N16, Cn1
    .byte W18
    .byte    Cn2, v100
    .byte W18
    .byte    N10, Cn1, v120
    .byte W12
    .byte    N16, Bn0
    .byte W18
    .byte    Bn1, v100
    .byte W18
    .byte    N10, Bn0, v120
    .byte W12
    .byte    N16, Bn1
    .byte W18
    .byte    Bn0, v100
    .byte W18
    .byte    N10, An0, v120
    .byte W12
    .byte BEND , 64
    .byte    N24, Bn0
    .byte W06
    .byte BEND , 63
    .byte W04
    .byte    Dn3
    .byte W02
    .byte    Cn3
    .byte W02
    .byte    As2
    .byte W02
    .byte    Fs2
    .byte W02
    .byte    Cn2
    .byte W02
    .byte    Ds1
    .byte W02
    .byte    Cn0
    .byte W02
    .byte    En3
    .byte W48
    .byte VOICE, 23
    .byte    N04, Bn2, v127
    .byte W04
    .byte    N01, Bn2, v012
    .byte W02
    .byte    N04, As2, v127
    .byte W04
    .byte    N01, As2, v012
    .byte W02
    .byte    N04, An2, v127
    .byte W04
    .byte    N01, An2, v012
    .byte W02
    .byte    N04, Gs2, v127
    .byte W04
    .byte    N01, Gs2, v012
    .byte W02
    .byte GOTO
    .word LABEL_080AE28A
    .byte FINE

Track_080AE44E:
    .byte KEYSH, 0
    .byte W24
    .byte VOICE, 15
    .byte W06
    .byte VOL  , 103
    .byte W06
    .byte PAN  , 64
    .byte W06
    .byte W06
    .byte XCMD , xIECV, 40
    .byte W06
    .byte W06
    .byte    AnM2, v003
    .byte W06
    .byte BENDR, 12
    .byte W06
    .byte LFOS , 28
    .byte W06
    .byte LFODL, 14
    .byte W06
    .byte MOD  , 3
    .byte W06
    .byte MODT , 0
    .byte W06
    .byte BEND , 64
    .byte    N72, Gs3, v100
    .byte W54
    .byte BEND , 63
    .byte W03
    .byte    Dn3
    .byte W02
    .byte    Cs3
    .byte W01
    .byte    Cn3
    .byte W02
    .byte    As2
    .byte W01
    .byte    Gs2
    .byte W01
    .byte    Gn2
    .byte W01
    .byte    En2
    .byte W01
    .byte    Cn2
    .byte W01
    .byte    An1
    .byte W01
    .byte    Ds1
    .byte W01
    .byte    Gs0
    .byte W01
    .byte    Cs0
    .byte W01
    .byte    CnM2
    .byte W01
    .byte    En3
    .byte    N24, Gs2
    .byte W24
LABEL_080AE499:
    .byte    N06, Gn2, v100
    .byte W06
    .byte    Gn2, v040
    .byte W06
    .byte    Gn2, v100
    .byte W06
    .byte    Gn2, v040
    .byte W06
    .byte    Gn2, v100
    .byte W06
    .byte    Gn2, v040
    .byte W06
    .byte    Gn2, v100
    .byte W06
    .byte    Gn2, v040
    .byte W06
    .byte    N04, As2, v100
    .byte W06
    .byte    N06
    .byte W06
    .byte    As2, v040
    .byte W06
    .byte    N04, An2, v100
    .byte W06
    .byte    N06
    .byte W06
    .byte    An2, v040
    .byte W06
    .byte    N04, Gs2, v100
    .byte W06
    .byte    N04
    .byte W06
    .byte PEND
LABEL_080AE4CB:
    .byte    N06, Gn2, v100
    .byte W06
    .byte    Gn2, v040
    .byte W06
    .byte    Gn2, v100
    .byte W06
    .byte    Gn2, v040
    .byte W06
    .byte    Gn2, v100
    .byte W06
    .byte    Gn2, v040
    .byte W06
    .byte    Gn2, v100
    .byte W06
    .byte    Gn2, v040
    .byte W06
    .byte    N04, As2, v100
    .byte W06
    .byte    N06
    .byte W06
    .byte    As2, v040
    .byte W06
    .byte    N04, Cn3, v100
    .byte W06
    .byte    N06
    .byte W06
    .byte    Cn3, v040
    .byte W06
    .byte    N04, Gs2, v100
    .byte W06
    .byte    N04
    .byte W06
    .byte PEND
    .byte PATT
    .word LABEL_080AE499
    .byte PATT
    .word LABEL_080AE4CB
    .byte PATT
    .word LABEL_080AE499
    .byte PATT
    .word LABEL_080AE4CB
    .byte PATT
    .word LABEL_080AE499
    .byte PATT
    .word LABEL_080AE4CB
LABEL_080AE51B:
    .byte    N06, Fn2, v100
    .byte W06
    .byte    Fn2, v040
    .byte W06
    .byte    Fn2, v100
    .byte W06
    .byte    Fn2, v040
    .byte W06
    .byte    Fn2, v100
    .byte W06
    .byte    Fn2, v040
    .byte W06
    .byte    Fn2, v100
    .byte W06
    .byte    Fn2, v040
    .byte W06
    .byte    N04, Gs2, v100
    .byte W06
    .byte    N06
    .byte W06
    .byte    Gs2, v040
    .byte W06
    .byte    N04, Gn2, v100
    .byte W06
    .byte    N06
    .byte W06
    .byte    Gn2, v040
    .byte W06
    .byte    N04, Fs2, v100
    .byte W06
    .byte    N04
    .byte W06
    .byte PEND
LABEL_080AE54D:
    .byte    N06, Fn2, v100
    .byte W06
    .byte    Fn2, v040
    .byte W06
    .byte    Fn2, v100
    .byte W06
    .byte    Fn2, v040
    .byte W06
    .byte    Fn2, v100
    .byte W06
    .byte    Fn2, v040
    .byte W06
    .byte    Fn2, v100
    .byte W06
    .byte    Fn2, v040
    .byte W06
    .byte    N04, Gs2, v100
    .byte W06
    .byte    N06
    .byte W06
    .byte    Gs2, v040
    .byte W06
    .byte    N04, As2, v100
    .byte W06
    .byte    N06
    .byte W06
    .byte    As2, v040
    .byte W06
    .byte    N04, Fs2, v100
    .byte W06
    .byte    N04
    .byte W06
    .byte PEND
    .byte PATT
    .word LABEL_080AE51B
    .byte PATT
    .word LABEL_080AE54D
LABEL_080AE589:
    .byte    N06, En2, v100
    .byte W06
    .byte    En2, v040
    .byte W06
    .byte    En2, v100
    .byte W06
    .byte    En2, v040
    .byte W06
    .byte    En2, v100
    .byte W06
    .byte    En2, v040
    .byte W06
    .byte    En2, v100
    .byte W06
    .byte    En2, v040
    .byte W06
    .byte    N04, Gn2, v100
    .byte W06
    .byte    N06
    .byte W06
    .byte    Gn2, v040
    .byte W06
    .byte    N04, Fs2, v100
    .byte W06
    .byte    N06
    .byte W06
    .byte    Fs2, v040
    .byte W06
    .byte    N04, Fn2, v100
    .byte W06
    .byte    N04
    .byte W06
    .byte PEND
LABEL_080AE5BB:
    .byte    N06, En2, v100
    .byte W06
    .byte    En2, v040
    .byte W06
    .byte    En2, v100
    .byte W06
    .byte    En2, v040
    .byte W06
    .byte    En2, v100
    .byte W06
    .byte    En2, v040
    .byte W06
    .byte    En2, v100
    .byte W06
    .byte    En2, v040
    .byte W06
    .byte    N04, Gn2, v100
    .byte W06
    .byte    N06
    .byte W06
    .byte    Gn2, v040
    .byte W06
    .byte    N04, An2, v100
    .byte W06
    .byte    N06
    .byte W06
    .byte    An2, v040
    .byte W06
    .byte    N04, Fn2, v100
    .byte W06
    .byte    N04
    .byte W06
    .byte PEND
    .byte PATT
    .word LABEL_080AE589
    .byte PATT
    .word LABEL_080AE5BB
    .byte PATT
    .word LABEL_080AE589
LABEL_080AE5FC:
    .byte    N06, En2, v100
    .byte W06
    .byte    En2, v040
    .byte W90
    .byte PEND
    .byte PATT
    .word LABEL_080AE5BB
    .byte PATT
    .word LABEL_080AE5FC
    .byte PATT
    .word LABEL_080AE589
    .byte PATT
    .word LABEL_080AE5FC
    .byte PATT
    .word LABEL_080AE5BB
    .byte PATT
    .word LABEL_080AE5FC
    .byte    N06, En2, v100
    .byte W06
    .byte    En2, v060
    .byte W06
    .byte    En2, v032
    .byte W06
    .byte    En3, v100
    .byte W06
    .byte    En3, v060
    .byte W06
    .byte    En3, v032
    .byte W06
    .byte    En2, v100
    .byte W06
    .byte    En2, v060
    .byte W06
    .byte    N04, Gn2, v100
    .byte W06
    .byte    N06, Gn2, v060
    .byte W06
    .byte    Gn2, v032
    .byte W06
    .byte    N04, Gn3, v100
    .byte W06
    .byte    N06, Gn3, v060
    .byte W06
    .byte    Gn3, v032
    .byte W06
    .byte    N04, Gn2, v100
    .byte W06
    .byte    Gn2, v060
    .byte W06
    .byte    N06, Gs2, v100
    .byte W06
    .byte    Gs2, v060
    .byte W06
    .byte    Gs2, v032
    .byte W06
    .byte    Gs3, v100
    .byte W06
    .byte    Gs3, v060
    .byte W06
    .byte    Gs3, v032
    .byte W06
    .byte    Gs2, v100
    .byte W06
    .byte    Gs2, v060
    .byte W06
    .byte    N04, Cn3, v100
    .byte W06
    .byte    N06, Cn3, v060
    .byte W06
    .byte    Cn3, v032
    .byte W06
    .byte    N04, Cn4, v100
    .byte W06
    .byte    N06, Cn4, v060
    .byte W06
    .byte    Cn4, v032
    .byte W06
    .byte    N04, Cn3, v100
    .byte W06
    .byte    Cn3, v060
    .byte W06
    .byte    N06, Bn2, v100
    .byte W06
    .byte    Bn2, v060
    .byte W06
    .byte    Bn2, v032
    .byte W06
    .byte    Bn3, v100
    .byte W06
    .byte    Bn3, v060
    .byte W06
    .byte    Bn3, v032
    .byte W06
    .byte    Bn2, v100
    .byte W06
    .byte    Bn2, v060
    .byte W06
    .byte    N04, Bn2, v100
    .byte W06
    .byte    N06, Bn2, v060
    .byte W06
    .byte    Bn2, v032
    .byte W06
    .byte    N04, An2, v100
    .byte W06
    .byte    N06, An2, v060
    .byte W06
    .byte    An2, v032
    .byte W06
    .byte    N04, As2, v100
    .byte W06
    .byte    As2, v060
    .byte W06
    .byte    N10, Bn2, v100
    .byte W96
    .byte GOTO
    .word LABEL_080AE499
    .byte FINE

Track_080AE6CE:
    .byte KEYSH, 0
    .byte W24
    .byte VOICE, 5
    .byte W06
    .byte VOL  , 120
    .byte W06
    .byte PAN  , 64
    .byte W06
    .byte W06
    .byte XCMD , xIECV, 40
    .byte W06
    .byte W06
    .byte    AnM2, v003
    .byte W06
    .byte BENDR, 12
    .byte W06
    .byte LFOS , 31
    .byte W06
    .byte LFODL, 14
    .byte W06
    .byte MOD  , 5
    .byte W06
    .byte MODT , 0
    .byte W06
    .byte    N90, As4, v040
    .byte W90
    .byte    N06, As4, v028
    .byte W06
LABEL_080AE6FA:
    .byte W96
    .byte VOICE, 5
    .byte PAN  , 64
    .byte    N06, Cn4, v100
    .byte W06
    .byte    Cn4, v032
    .byte W06
    .byte    Cn4, v060
    .byte W06
    .byte    Cn4, v020
    .byte W06
    .byte    Cn4, v032
    .byte W06
    .byte    Cn4, v012
    .byte W06
    .byte    Bn3, v100
    .byte W06
    .byte    Bn3, v032
    .byte W06
    .byte    Bn3, v060
    .byte W06
    .byte    Bn3, v020
    .byte W06
    .byte    Bn3, v032
    .byte W06
    .byte    Bn3, v012
    .byte W06
    .byte    Dn4, v100
    .byte W06
    .byte    Dn4, v032
    .byte W06
    .byte    Dn4, v060
    .byte W06
    .byte    Dn4, v020
    .byte W06
LABEL_080AE730:
    .byte    N06, Dn4, v032
    .byte W06
    .byte    Dn4, v012
    .byte W90
    .byte PEND
LABEL_080AE738:
    .byte    N06, Cn4, v100
    .byte W06
    .byte    Cn4, v032
    .byte W06
    .byte    Cn4, v060
    .byte W06
    .byte    Cn4, v020
    .byte W06
    .byte    Cn4, v032
    .byte W06
    .byte    Cn4, v012
    .byte W06
    .byte    Bn3, v100
    .byte W06
    .byte    Bn3, v032
    .byte W06
    .byte    Bn3, v060
    .byte W06
    .byte    Bn3, v020
    .byte W06
    .byte    Bn3, v032
    .byte W06
    .byte    Bn3, v012
    .byte W06
    .byte    Gn3, v100
    .byte W06
    .byte    Gn3, v032
    .byte W06
    .byte    Gn3, v040
    .byte W06
    .byte    Gn3, v012
    .byte W06
    .byte PEND
LABEL_080AE76A:
    .byte    N06, Gn3, v032
    .byte W06
    .byte    Gn3, v012
    .byte W90
    .byte PEND
LABEL_080AE772:
    .byte    N06, Cn4, v100
    .byte W06
    .byte    Cn4, v032
    .byte W06
    .byte    Cn4, v060
    .byte W06
    .byte    Cn4, v020
    .byte W06
    .byte    Cn4, v032
    .byte W06
    .byte    Cn4, v012
    .byte W06
    .byte    Bn3, v100
    .byte W06
    .byte    Bn3, v032
    .byte W06
    .byte    Bn3, v060
    .byte W06
    .byte    Bn3, v020
    .byte W06
    .byte    Bn3, v032
    .byte W06
    .byte    Bn3, v012
    .byte W06
    .byte    Dn4, v100
    .byte W06
    .byte    Dn4, v032
    .byte W06
    .byte    Dn4, v060
    .byte W06
    .byte    Dn4, v020
    .byte W06
    .byte PEND
    .byte PATT
    .word LABEL_080AE730
    .byte PATT
    .word LABEL_080AE738
    .byte PATT
    .word LABEL_080AE76A
    .byte PATT
    .word LABEL_080AE772
    .byte PATT
    .word LABEL_080AE730
    .byte PATT
    .word LABEL_080AE738
    .byte W96
    .byte    N06, An3, v100
    .byte W06
    .byte    An3, v032
    .byte W06
    .byte    An3, v060
    .byte W06
    .byte    An3, v020
    .byte W06
    .byte    An3, v032
    .byte W06
    .byte    An3, v012
    .byte W06
    .byte    Gn3, v100
    .byte W06
    .byte    Gn3, v032
    .byte W06
    .byte    Gn3, v060
    .byte W06
    .byte    Gn3, v020
    .byte W06
    .byte    Gn3, v032
    .byte W06
    .byte    Gn3, v012
    .byte W06
    .byte    Bn3, v100
    .byte W06
    .byte    Bn3, v032
    .byte W06
    .byte    Bn3, v060
    .byte W06
    .byte    Bn3, v020
    .byte W06
    .byte    Bn3, v032
    .byte W06
    .byte    Bn3, v012
    .byte W18
    .byte PAN  , 0
    .byte    N03, En2, v100
    .byte W03
    .byte    En2, v060
    .byte W03
    .byte    An2, v100
    .byte W03
    .byte    An2, v060
    .byte W03
    .byte    Bn2, v100
    .byte W03
    .byte    Bn2, v060
    .byte W03
    .byte    Dn3, v100
    .byte W03
    .byte    Dn3, v060
    .byte W03
    .byte PAN  , 127
    .byte    N03, En3, v112
    .byte W03
    .byte    En3, v080
    .byte W03
    .byte    An3, v112
    .byte W03
    .byte    An3, v080
    .byte W03
    .byte    Bn3, v112
    .byte W03
    .byte    Bn3, v080
    .byte W03
    .byte    Dn4, v112
    .byte W03
    .byte    Dn4, v080
    .byte W03
    .byte PAN  , 0
    .byte    N03, En4, v120
    .byte W03
    .byte    En4, v080
    .byte W03
    .byte    An4, v120
    .byte W03
    .byte    An4, v080
    .byte W03
    .byte    Bn4, v120
    .byte W03
    .byte    Bn4, v080
    .byte W03
    .byte    Dn5, v120
    .byte W03
    .byte    Dn5, v080
    .byte W03
    .byte PAN  , 64
    .byte    N06, An4, v100
    .byte W06
    .byte    An4, v032
    .byte W06
    .byte    An4, v060
    .byte W06
    .byte    An4, v020
    .byte W06
    .byte    An4, v032
    .byte W06
    .byte    An4, v012
    .byte W06
    .byte    Gn4, v100
    .byte W06
    .byte    Gn4, v032
    .byte W06
    .byte    Gn4, v060
    .byte W06
    .byte    Gn4, v020
    .byte W06
    .byte    Gn4, v032
    .byte W06
    .byte    Gn4, v012
    .byte W06
    .byte    En4, v100
    .byte W06
    .byte    En4, v032
    .byte W06
    .byte    En4, v040
    .byte W06
    .byte    En4, v012
    .byte W06
    .byte VOICE, 4
    .byte    N06, Gn4, v040
    .byte W06
    .byte    Gn4, v020
    .byte W06
    .byte    En4, v040
    .byte W06
    .byte    En4, v020
    .byte W06
    .byte    Gn4, v040
    .byte W06
    .byte    Gn4, v020
    .byte W06
    .byte    En4, v040
    .byte W06
    .byte    En4, v020
    .byte W06
    .byte    N03, Gn4, v040
    .byte W06
    .byte    N06
    .byte W06
    .byte    Gn4, v020
    .byte W06
    .byte    N03, As4, v040
    .byte W06
    .byte    N05
    .byte W06
    .byte    N06, As4, v020
    .byte W06
    .byte    N03, Dn4, v040
    .byte W06
    .byte    N03
    .byte W06
LABEL_080AE8B2:
    .byte    N06, As4, v080
    .byte W06
    .byte    As4, v040
    .byte W06
    .byte    As4, v020
    .byte W06
    .byte    An4, v080
    .byte W06
    .byte    An4, v040
    .byte W06
    .byte    An4, v020
    .byte W06
    .byte    Gn4, v080
    .byte W06
    .byte    Gn4, v040
    .byte W06
    .byte    An4, v080
    .byte W06
    .byte    An4, v040
    .byte W06
    .byte    An4, v020
    .byte W06
    .byte    Gn4, v080
    .byte W06
    .byte    Gn4, v040
    .byte W06
    .byte    Gn4, v020
    .byte W06
    .byte    En4, v080
    .byte W06
    .byte    En4, v040
    .byte W06
    .byte PEND
LABEL_080AE8E4:
    .byte    N06, Gn4, v040
    .byte W06
    .byte    Gn4, v020
    .byte W06
    .byte    En4, v040
    .byte W06
    .byte    En4, v020
    .byte W06
    .byte    Gn4, v040
    .byte W06
    .byte    Gn4, v020
    .byte W06
    .byte    En4, v040
    .byte W06
    .byte    En4, v020
    .byte W06
    .byte    N03, Gn4, v040
    .byte W06
    .byte    N06
    .byte W06
    .byte    Gn4, v020
    .byte W06
    .byte    N03, En4, v040
    .byte W06
    .byte    N05
    .byte W06
    .byte    N06, En4, v020
    .byte W06
    .byte    N03, As4, v040
    .byte W06
    .byte    N03
    .byte W06
    .byte PEND
    .byte W48
    .byte PAN  , 127
    .byte    N03, En3, v060
    .byte W03
    .byte    En3, v032
    .byte W03
    .byte    An3, v060
    .byte W03
    .byte    An3, v032
    .byte W03
    .byte    Bn3, v080
    .byte W03
    .byte    Bn3, v052
    .byte W03
    .byte    Dn4, v080
    .byte W03
    .byte    Dn4, v052
    .byte W03
    .byte PAN  , 0
    .byte    N03, En4, v100
    .byte W03
    .byte    En4, v060
    .byte W03
    .byte    An4, v100
    .byte W03
    .byte    An4, v060
    .byte W03
    .byte    Bn4, v120
    .byte W03
    .byte    Bn4, v080
    .byte W03
    .byte    Dn5, v120
    .byte W03
    .byte    Dn5, v080
    .byte W03
    .byte PAN  , 64
    .byte    N06, Gn4, v040
    .byte W06
    .byte    Gn4, v020
    .byte W06
    .byte    En4, v040
    .byte W06
    .byte    En4, v020
    .byte W06
    .byte    Gn4, v040
    .byte W06
    .byte    Gn4, v020
    .byte W06
    .byte    En4, v040
    .byte W06
    .byte    En4, v020
    .byte W06
    .byte    N03, Gn4, v040
    .byte W06
    .byte    N06
    .byte W06
    .byte    Gn4, v020
    .byte W06
    .byte    N03, As4, v040
    .byte W06
    .byte    N05
    .byte W06
    .byte    N06, As4, v020
    .byte W06
    .byte    N03, Dn4, v040
    .byte W06
    .byte    Dn4, v020
    .byte W06
    .byte PATT
    .word LABEL_080AE8B2
    .byte PATT
    .word LABEL_080AE8E4
    .byte W72
    .byte PAN  , 0
    .byte    N03, En4, v100
    .byte W03
    .byte    En4, v060
    .byte W03
    .byte    An4, v100
    .byte W03
    .byte    An4, v060
    .byte W03
    .byte    Bn4, v120
    .byte W03
    .byte    Bn4, v080
    .byte W03
    .byte    Dn5, v120
    .byte W03
    .byte    Dn5, v080
    .byte W03
    .byte PAN  , 127
    .byte    N03, En5, v100
    .byte W03
    .byte    En5, v060
    .byte W03
    .byte    As4, v100
    .byte W03
    .byte    As4, v060
    .byte W03
    .byte    An4, v100
    .byte W03
    .byte    An4, v060
    .byte W03
    .byte    Gn4, v100
    .byte W03
    .byte    Gn4, v060
    .byte W03
    .byte PAN  , 0
    .byte    N03, En4, v100
    .byte W03
    .byte    En4, v060
    .byte W03
    .byte    As3, v100
    .byte W03
    .byte    As3, v060
    .byte W03
    .byte    An3, v100
    .byte W03
    .byte    An3, v060
    .byte W03
    .byte    Gn3, v100
    .byte W03
    .byte    Gn3, v060
    .byte W03
    .byte PAN  , 127
    .byte    N03, Fn3, v112
    .byte W03
    .byte    Fn3, v080
    .byte W03
    .byte    Dn3, v112
    .byte W03
    .byte    Dn3, v080
    .byte W03
    .byte    Cn3, v112
    .byte W03
    .byte    Cn3, v080
    .byte W03
    .byte    Gn2, v112
    .byte W03
    .byte    Gn2, v080
    .byte W03
    .byte PAN  , 0
    .byte    N03, Fn2, v120
    .byte W03
    .byte    Fn2, v080
    .byte W03
    .byte    Dn2, v120
    .byte W03
    .byte    Dn2, v080
    .byte W03
    .byte    Cn2, v120
    .byte W03
    .byte    Cn2, v080
    .byte W03
    .byte    Gn1, v120
    .byte W03
    .byte    Gn1, v080
    .byte W03
    .byte PAN  , 127
    .byte    N03, Gs1, v100
    .byte W03
    .byte    Gs1, v060
    .byte W03
    .byte    Cs2, v100
    .byte W03
    .byte    Cs2, v060
    .byte W03
    .byte    Ds2, v100
    .byte W03
    .byte    Ds2, v060
    .byte W03
    .byte    Gn2, v100
    .byte W03
    .byte    Gn2, v060
    .byte W03
    .byte PAN  , 0
    .byte    N03, Gs2, v100
    .byte W03
    .byte    Gs2, v060
    .byte W03
    .byte    Cs3, v100
    .byte W03
    .byte    Cs3, v060
    .byte W03
    .byte    Ds3, v100
    .byte W03
    .byte    Ds3, v060
    .byte W03
    .byte    Gn3, v100
    .byte W03
    .byte    Gn3, v060
    .byte W03
    .byte PAN  , 127
    .byte    N03, Dn4, v100
    .byte W03
    .byte    Dn4, v060
    .byte W03
    .byte    Gn4, v100
    .byte W03
    .byte    Gn4, v060
    .byte W03
    .byte    Gs4, v100
    .byte W03
    .byte    Gs4, v060
    .byte W03
    .byte    Cn5, v100
    .byte W03
    .byte    Cn5, v060
    .byte W03
    .byte PAN  , 0
    .byte    N03, Dn5, v100
    .byte W03
    .byte    Dn5, v060
    .byte W03
    .byte    Gn5, v100
    .byte W03
    .byte    Gn5, v060
    .byte W03
    .byte    Gs5, v100
    .byte W03
    .byte    Gs5, v060
    .byte W03
    .byte    Cn6, v100
    .byte W03
    .byte    Cn6, v060
    .byte W03
    .byte PAN  , 127
    .byte    N03, Bn5, v100
    .byte W03
    .byte    Bn5, v060
    .byte W03
    .byte    Fs5, v100
    .byte W03
    .byte    Fs5, v060
    .byte W03
    .byte    En5, v100
    .byte W03
    .byte    En5, v060
    .byte W03
    .byte    Bn4, v100
    .byte W03
    .byte    Bn4, v060
    .byte W03
    .byte PAN  , 0
    .byte    N03, As4, v100
    .byte W03
    .byte    As4, v060
    .byte W03
    .byte    Fs4, v100
    .byte W03
    .byte    Fs4, v060
    .byte W03
    .byte    En4, v100
    .byte W03
    .byte    En4, v060
    .byte W03
    .byte    Bn3, v100
    .byte W03
    .byte    Bn3, v060
    .byte W03
    .byte PAN  , 127
    .byte    N03, An3, v100
    .byte W03
    .byte    An3, v060
    .byte W03
    .byte    Fn3, v100
    .byte W03
    .byte    Fn3, v060
    .byte W03
    .byte    En3, v100
    .byte W03
    .byte    En3, v060
    .byte W03
    .byte    Bn2, v100
    .byte W03
    .byte    Bn2, v060
    .byte W03
    .byte PAN  , 0
    .byte    N03, Bn2, v100
    .byte W03
    .byte    Bn2, v060
    .byte W03
    .byte    Fn2, v100
    .byte W03
    .byte    Fn2, v060
    .byte W03
    .byte    En2, v100
    .byte W03
    .byte    En2, v060
    .byte W03
    .byte    Bn1, v100
    .byte W03
    .byte    Bn1, v060
    .byte W03
    .byte W48
    .byte PAN  , 127
    .byte    N03, Bn5, v100
    .byte W03
    .byte    Fs5
    .byte W03
    .byte    En5
    .byte W03
    .byte    Cs5
    .byte W03
    .byte    Bn4
    .byte W03
    .byte    Fs4
    .byte W03
    .byte    En4
    .byte W03
    .byte    Cs4
    .byte W03
    .byte PAN  , 0
    .byte    N03, Bn3
    .byte W03
    .byte    Fs3
    .byte W03
    .byte    En3
    .byte W03
    .byte    Cs3
    .byte W03
    .byte    Bn2
    .byte W03
    .byte    Fs2
    .byte W03
    .byte    En2
    .byte W03
    .byte    Cs2
    .byte W03
    .byte GOTO
    .word LABEL_080AE6FA
    .byte FINE

    .align 2, 0

global_label SongHeader_080AEB1C
    .byte 5
    .byte 0
    .byte 0
    .byte 163
    .word 0x80A0088
    .word Track_080AD88C
    .word Track_080ADCB5
    .word Track_080AE228
    .word Track_080AE44E
    .word Track_080AE6CE

    .end
