Track_080A96A0:
    .byte KEYSH, 0
    .byte TEMPO, 57
    .byte VOICE, 0
    .byte VOL  , 120
    .byte PAN  , 64
    .byte XCMD , xIECV, 20, xIECL, 2
    .byte    N06, Bn0, v092
    .byte    N36, Cs2, v060
    .byte    N10, Gn2, v080
    .byte W12
    .byte    N06, Gn2, v004
    .byte W06
    .byte    Gn2, v080
    .byte W12
    .byte    Fs2
    .byte W06
    .byte    N10, Gs2
    .byte W18
    .byte    N06
    .byte W06
    .byte    N10, Gn2
    .byte W12
    .byte    Fs2
    .byte W12
    .byte    N06
    .byte W06
    .byte    Gn2
    .byte W06
    .byte    Bn0, v092
    .byte    N36, Cs2, v060
    .byte    N10, Gn2, v080
    .byte W12
    .byte    N06, Gn2, v004
    .byte W06
    .byte    Gn2, v080
    .byte W12
    .byte    Fs2
    .byte W06
    .byte    N10, Gs2
    .byte W12
    .byte    N06, Gn2
    .byte W06
    .byte    N06
    .byte W06
    .byte    Gs2
    .byte W06
    .byte    Gn2
    .byte W12
    .byte    Gs2
    .byte W06
    .byte    Fs2
    .byte W12
LABEL_080A96F2:
    .byte    N06, Bn0, v112
    .byte    N36, Cs2, v060
    .byte    N10, Gn2, v080
    .byte W12
    .byte    N06, Gn2, v004
    .byte W06
    .byte    Bn0, v092
    .byte    N06, Gn2, v080
    .byte W06
    .byte    N10, Dn1, v127
    .byte W06
    .byte    N06, Fs2, v080
    .byte W06
    .byte    Bn0, v092
    .byte    N02, Fs1, v040
    .byte    N10, Gs2, v080
    .byte W12
    .byte    N02, Fs1, v052
    .byte W06
    .byte    N10, Dn1, v080
    .byte    N06, Gs2
    .byte W06
    .byte    Bn0, v092
    .byte    N02, Fs1, v040
    .byte    N10, Gn2, v080
    .byte W12
    .byte    Dn1, v127
    .byte    N02, Fs1, v052
    .byte    N10, Fs2, v080
    .byte W12
    .byte    N11, Fs1, v040
    .byte    N06, Fs2, v080
    .byte W06
    .byte    Gn2
    .byte W06
    .byte    Bn0, v112
    .byte    N02, Fs1, v052
    .byte    N10, Gn2, v080
    .byte W12
    .byte    N02, Fs1, v040
    .byte    N06, Gn2, v004
    .byte W06
    .byte    Bn0, v092
    .byte    N06, Gn2, v080
    .byte W06
    .byte    N10, Dn1, v127
    .byte    N02, Fs1, v052
    .byte W06
    .byte    N06, Fs2, v080
    .byte W06
    .byte    Bn0, v092
    .byte    N02, Fs1, v040
    .byte    N10, Gn2, v080
    .byte W12
    .byte    N02, Fs1, v052
    .byte W12
    .byte    N06, Bn0, v092
    .byte    N02, Fs1, v040
    .byte W12
    .byte    N10, Dn1, v127
    .byte    N02, Fs1, v052
    .byte W12
    .byte    N06, Dn1, v080
    .byte    N02, Fs1, v040
    .byte W12
LABEL_080A977F:
    .byte    N06, Bn0, v112
    .byte    N02, Fs1, v052
    .byte    N10, Gn2
    .byte W12
    .byte    N02, Fs1, v040
    .byte    N06, Gn2, v004
    .byte W06
    .byte    Bn0, v092
    .byte    N06, Gn2, v052
    .byte W06
    .byte    N10, Dn1, v127
    .byte    N02, Fs1, v052
    .byte W06
    .byte    N06, Fs2
    .byte W06
    .byte    Bn0, v092
    .byte    N02, Fs1, v040
    .byte    N06, Gs2, v052
    .byte W12
    .byte    N02, Fs1
    .byte W06
    .byte    N10, Dn1, v080
    .byte    N06, Gs2, v052
    .byte W06
    .byte    Bn0, v092
    .byte    N02, Fs1, v040
    .byte    N06, Gn2, v052
    .byte W12
    .byte    N10, Dn1, v127
    .byte    N02, Fs1, v052
    .byte    N06, Fs2
    .byte W12
    .byte    N11, Fs1, v040
    .byte    N06, Fs2, v052
    .byte W06
    .byte    Gn2
    .byte W06
    .byte PEND
LABEL_080A97CE:
    .byte    N06, Bn0, v112
    .byte    N02, Fs1, v052
    .byte    N06, Gn2
    .byte W12
    .byte    N02, Fs1, v040
    .byte    N06, Gn2, v004
    .byte W06
    .byte    Bn0, v092
    .byte    N06, Gn2, v052
    .byte W06
    .byte    N10, Dn1, v127
    .byte    N02, Fs1, v052
    .byte W06
    .byte    N06, Fs2
    .byte W06
    .byte    Bn0, v092
    .byte    N02, Fs1, v040
    .byte    N06, Gs2, v052
    .byte W12
    .byte    N02, Fs1
    .byte    N06, Gn2
    .byte W06
    .byte    N06
    .byte W06
    .byte    Bn0, v092
    .byte    N02, Fs1, v040
    .byte    N06, Gs2, v052
    .byte W06
    .byte    Gn2
    .byte W06
    .byte    N10, Dn1, v127
    .byte    N02, Fs1, v052
    .byte W06
    .byte    N06, Gs2
    .byte W06
    .byte    Dn1, v080
    .byte    N02, Fs1, v040
    .byte    N06, Fs2, v052
    .byte W12
    .byte PEND
    .byte    N36, Cs2, v060
    .byte    N06, Gn2, v052
    .byte W12
    .byte    Gn2, v004
    .byte W06
    .byte    Bn0, v092
    .byte    N06, Gn2, v052
    .byte W06
    .byte    N10, Dn1, v127
    .byte W06
    .byte    N06, Fs2, v052
    .byte W06
    .byte    Bn0, v092
    .byte    N02, Fs1, v040
    .byte    N06, Gs2, v052
    .byte W12
    .byte    N02, Fs1
    .byte W06
    .byte    N10, Dn1, v080
    .byte    N06, Gs2, v052
    .byte W06
    .byte    Bn0, v092
    .byte    N02, Fs1, v040
    .byte    N06, Gn2, v052
    .byte W12
    .byte    N10, Dn1, v127
    .byte    N02, Fs1, v052
    .byte    N06, Fs2
    .byte W12
    .byte    N11, Fs1, v040
    .byte    N06, Fs2, v052
    .byte W06
    .byte    Gn2
    .byte W06
    .byte PATT
    .word LABEL_080A97CE
    .byte PATT
    .word LABEL_080A977F
    .byte    N06, Bn0, v112
    .byte    N02, Fs1, v052
    .byte    N06, Gn2
    .byte W12
    .byte    N02, Fs1, v040
    .byte    N06, Gn2, v004
    .byte W06
    .byte    Bn0, v092
    .byte    N06, Gn2, v052
    .byte W06
    .byte    N10, Dn1, v127
    .byte    N02, Fs1, v052
    .byte W06
    .byte    N06, Fs2
    .byte W06
    .byte    Bn0, v092
    .byte    N02, Fs1, v040
    .byte    N06, Gs2, v052
    .byte W12
    .byte    N02, Fs1
    .byte    N06, Gn2
    .byte W06
    .byte    N06
    .byte W06
    .byte    Bn0, v092
    .byte    N02, Fs1, v040
    .byte    N06, Gs2, v052
    .byte W06
    .byte    N42, Bn1, v072
    .byte    N06, Gn2, v052
    .byte W06
    .byte    Dn1, v127
    .byte W06
    .byte    Dn1, v052
    .byte    N06, Gs2
    .byte W06
    .byte    Dn1, v080
    .byte    N06, Fs2, v052
    .byte W06
    .byte    Dn1, v112
    .byte W06
    .byte    Bn0
    .byte    N36, Cs2, v060
    .byte    N06, Gn2, v052
    .byte W12
    .byte    Gn2, v004
    .byte W06
    .byte    Bn0, v092
    .byte    N06, Gn2, v052
    .byte W06
    .byte    N10, Dn1, v127
    .byte W06
    .byte    N06, Fs2, v052
    .byte W06
    .byte    Bn0, v092
    .byte    N02, Fs1, v040
    .byte    N06, Gs2, v052
    .byte W12
    .byte    N02, Fs1
    .byte W06
    .byte    N10, Dn1, v080
    .byte    N06, Gs2, v052
    .byte W06
    .byte    Bn0, v092
    .byte    N02, Fs1, v040
    .byte    N06, Gn2, v052
    .byte W12
    .byte    N10, Dn1, v127
    .byte    N02, Fs1, v052
    .byte    N06, Fs2
    .byte W12
    .byte    N11, Fs1, v040
    .byte    N06, Fs2, v052
    .byte W06
    .byte    Gn2
    .byte W06
    .byte PATT
    .word LABEL_080A97CE
    .byte PATT
    .word LABEL_080A977F
    .byte    N06, Bn0, v112
    .byte    N02, Fs1, v052
    .byte    N06, Gn2
    .byte W12
    .byte    N02, Fs1, v040
    .byte    N06, Gn2, v004
    .byte W06
    .byte    Bn0, v092
    .byte    N06, Gn2, v052
    .byte W06
    .byte    N10, Dn1, v127
    .byte    N02, Fs1, v052
    .byte W06
    .byte    N06, Fs2
    .byte W06
    .byte    Bn0, v092
    .byte    N02, Fs1, v040
    .byte    N06, Gs2, v052
    .byte W12
    .byte    N02, Fs1
    .byte    N06, Gn2
    .byte W06
    .byte    N42, Bn1, v060
    .byte    N06, Gn2, v052
    .byte W06
    .byte    Bn0, v092
    .byte    N06, Gs2, v052
    .byte W06
    .byte    Gn2
    .byte W06
    .byte    Dn1, v127
    .byte W06
    .byte    Dn1, v052
    .byte    N06, Gs2
    .byte W06
    .byte    Dn1, v080
    .byte    N06, Fs2, v052
    .byte W06
    .byte    Dn1, v112
    .byte W06
    .byte    Bn0
    .byte    N02, Fs1, v052
    .byte    N06, Gn2
    .byte W12
    .byte    N02, Fs1, v040
    .byte    N06, Gn2, v004
    .byte W06
    .byte    Bn0, v092
    .byte    N06, Gn2, v052
    .byte W06
    .byte    N10, Dn1, v127
    .byte    N02, Fs1, v052
    .byte W06
    .byte    N06, Fs2
    .byte W06
    .byte    Bn0, v092
    .byte    N02, Fs1, v040
    .byte    N06, Gs2, v052
    .byte W12
    .byte    N02, Fs1
    .byte W06
    .byte    N10, Dn1, v080
    .byte    N06, Gs2, v052
    .byte W06
    .byte    Bn0, v092
    .byte    N02, Fs1, v040
    .byte    N06, Gn2, v052
    .byte W12
    .byte    N10, Dn1, v127
    .byte    N02, Fs1, v052
    .byte    N06, Fs2
    .byte W12
    .byte    N11, Fs1, v040
    .byte    N06, Fs2, v052
    .byte W06
    .byte    Gn2
    .byte W06
    .byte PATT
    .word LABEL_080A97CE
    .byte    N36, Cs2, v060
    .byte    N10, Gn2, v052
    .byte W12
    .byte    N06, Gn2, v004
    .byte W06
    .byte    Bn0, v092
    .byte    N06, Gn2, v052
    .byte W06
    .byte    N10, Dn1, v127
    .byte W06
    .byte    N06, Fs2, v052
    .byte W06
    .byte    Bn0, v092
    .byte    N02, Fs1, v040
    .byte    N06, Gs2, v052
    .byte W12
    .byte    N02, Fs1
    .byte W06
    .byte    N10, Dn1, v080
    .byte    N06, Gs2, v052
    .byte W06
    .byte    Bn0, v092
    .byte    N02, Fs1, v040
    .byte    N06, Gn2, v052
    .byte W12
    .byte    N10, Dn1, v127
    .byte    N02, Fs1, v052
    .byte    N06, Fs2
    .byte W12
    .byte    N11, Fs1, v040
    .byte    N06, Fs2, v052
    .byte W06
    .byte    Gn2
    .byte W06
    .byte    Bn0, v112
    .byte    N36, Cs2, v060
    .byte    N06, Gn2, v052
    .byte W12
    .byte    Gn2, v004
    .byte W06
    .byte    Gn2, v052
    .byte W12
    .byte    Fs2
    .byte W06
    .byte    Gs2
    .byte W12
    .byte    Gn2
    .byte W06
    .byte    N06
    .byte W06
    .byte    Gs2
    .byte W06
    .byte    Gn2
    .byte W12
    .byte    Gs2
    .byte W06
    .byte    Fs2
    .byte W12
    .byte GOTO
    .word LABEL_080A96F2
    .byte FINE

Track_080A9A1A:
    .byte KEYSH, 0
    .byte VOICE, 15
    .byte VOL  , 120
    .byte PAN  , 64
    .byte BENDR, 12
    .byte XCMD , xIECV, 40, xIECL, 3
    .byte    N48, Fn4, v072
    .byte W48
    .byte    Bn3
    .byte W48
    .byte    As3
    .byte W48
    .byte    En3
    .byte W48
LABEL_080A9A33:
    .byte    N05, Cs2, v100
    .byte W06
    .byte    Ds2
    .byte W06
    .byte    N06, Ds2, v020
    .byte W06
    .byte    Ds2, v100
    .byte W06
    .byte    Ds2, v040
    .byte W06
    .byte    Ds2, v020
    .byte W06
    .byte    Ds3, v100
    .byte W06
    .byte    Ds3, v040
    .byte W06
    .byte    Ds3, v020
    .byte W12
    .byte    N12, Ds3, v100
    .byte W12
    .byte    N11, Gs2
    .byte W12
    .byte    As2
    .byte W12
    .byte PEND
LABEL_080A9A59:
    .byte    N05, Cs2, v100
    .byte W06
    .byte    Ds2
    .byte W06
    .byte    N06, Ds2, v020
    .byte W06
    .byte    Ds2, v100
    .byte W06
    .byte    Ds2, v040
    .byte W06
    .byte    Ds2, v020
    .byte W06
    .byte    Ds3, v100
    .byte W06
    .byte    Ds3, v040
    .byte W06
    .byte    N23, Gs2, v100
    .byte W24
    .byte    Fs2
    .byte W24
    .byte PEND
    .byte PATT
    .word LABEL_080A9A33
LABEL_080A9A7E:
    .byte    N05, Cs2, v100
    .byte W06
    .byte    Ds2
    .byte W06
    .byte    N06, Ds2, v020
    .byte W06
    .byte    Ds2, v100
    .byte W06
    .byte    Ds2, v040
    .byte W06
    .byte    Ds2, v020
    .byte W06
    .byte    Ds3, v100
    .byte W06
    .byte    Ds3, v040
    .byte W06
    .byte    N23, Cn3, v100
    .byte W24
    .byte    Cs3
    .byte W24
    .byte PEND
    .byte PATT
    .word LABEL_080A9A33
    .byte PATT
    .word LABEL_080A9A59
    .byte PATT
    .word LABEL_080A9A33
    .byte PATT
    .word LABEL_080A9A7E
LABEL_080A9AB2:
    .byte    N05, Fs2, v100
    .byte W06
    .byte    Gs2
    .byte W06
    .byte    N06, Gs2, v020
    .byte W06
    .byte    Gs2, v100
    .byte W06
    .byte    Gs2, v040
    .byte W06
    .byte    Gs2, v020
    .byte W06
    .byte    Gs3, v100
    .byte W06
    .byte    Gs3, v040
    .byte W06
    .byte    Gs3, v020
    .byte W12
    .byte    N11, Gs2, v100
    .byte W12
    .byte    N11
    .byte W12
    .byte    As2
    .byte W12
    .byte PEND
LABEL_080A9AD7:
    .byte    N05, An2, v100
    .byte W06
    .byte    Bn2
    .byte W06
    .byte    N06, Bn2, v020
    .byte W06
    .byte    Bn2, v100
    .byte W06
    .byte    Bn2, v040
    .byte W06
    .byte    Bn2, v020
    .byte W06
    .byte    Bn3, v100
    .byte W06
    .byte    Bn3, v040
    .byte W06
    .byte    Bn3, v020
    .byte W12
    .byte    N12, Bn2, v100
    .byte W12
    .byte    N11, As2
    .byte W12
    .byte    An2
    .byte W12
    .byte PEND
    .byte PATT
    .word LABEL_080A9AB2
    .byte    N05, En2, v100
    .byte W06
    .byte    Fs2
    .byte W06
    .byte    N06, Fs2, v020
    .byte W06
    .byte    Fs2, v100
    .byte W06
    .byte    Fs2, v040
    .byte W06
    .byte    Fs2, v020
    .byte W06
    .byte    Fs3, v100
    .byte W06
    .byte    Fs3, v040
    .byte W06
    .byte    N05, An2, v100
    .byte W06
    .byte    Bn2
    .byte W06
    .byte    N06, Bn2, v020
    .byte W06
    .byte    Bn2, v100
    .byte W06
    .byte    Bn2, v040
    .byte W06
    .byte    Bn2, v020
    .byte W06
    .byte    Bn3, v100
    .byte W06
    .byte    Bn3, v040
    .byte W06
    .byte PATT
    .word LABEL_080A9AB2
    .byte PATT
    .word LABEL_080A9AD7
    .byte    N05, Fs2, v100
    .byte W06
    .byte    Gs2
    .byte W06
    .byte    N06, Gs2, v020
    .byte W06
    .byte    Gs2, v100
    .byte W06
    .byte    Gs2, v040
    .byte W06
    .byte    Gs2, v020
    .byte W06
    .byte    Gs3, v100
    .byte W06
    .byte    Gs3, v040
    .byte W06
    .byte    Gs3, v020
    .byte W12
    .byte    N11, Gs2, v100
    .byte W12
    .byte    N11
    .byte W12
    .byte    Fs2
    .byte W12
    .byte W48
    .byte    N03, En7, v072
    .byte W03
    .byte    Ds7
    .byte W03
    .byte    Dn7
    .byte W03
    .byte    Cs7
    .byte W03
    .byte    Cn7
    .byte W03
    .byte    Bn6
    .byte W03
    .byte    As6
    .byte W03
    .byte    An6
    .byte W03
    .byte    Gs6
    .byte W03
    .byte    Gn6
    .byte W03
    .byte    Fs6
    .byte W03
    .byte    Fn6
    .byte W03
    .byte    En6
    .byte W03
    .byte    Ds6
    .byte W03
    .byte    Dn6
    .byte W03
    .byte    Cs6
    .byte W03
    .byte GOTO
    .word LABEL_080A9A33
    .byte FINE

Track_080A9B8B:
    .byte KEYSH, 0
    .byte VOICE, 6
    .byte VOL  , 75
    .byte PAN  , 64
    .byte LFOS , 28
    .byte LFODL, 14
    .byte BENDR, 12
    .byte MODT , 0
    .byte MOD  , 4
    .byte XCMD , xIECV, 40, xIECL, 3
    .byte    N06, En5, v080
    .byte W06
    .byte    En4
    .byte W06
    .byte    Ds5
    .byte W06
    .byte    Ds4
    .byte W06
    .byte    Dn5
    .byte W06
    .byte    Dn4
    .byte W06
    .byte    Cs5
    .byte W06
    .byte    Cs4
    .byte W06
    .byte    Dn5
    .byte W06
    .byte    Dn4
    .byte W06
    .byte    Cs5
    .byte W06
    .byte    Cs4
    .byte W06
    .byte    Cn5
    .byte W06
    .byte    Cn4
    .byte W06
    .byte    Bn4
    .byte W06
    .byte    Bn3
    .byte W06
    .byte    As4
    .byte W06
    .byte    As3
    .byte W06
    .byte    An4
    .byte W06
    .byte    An3
    .byte W06
    .byte    Gs4
    .byte W06
    .byte    Gs3
    .byte W06
    .byte    Gn4
    .byte W06
    .byte    Gn3
    .byte W06
    .byte    Gs4
    .byte W06
    .byte    Gs3
    .byte W06
    .byte    Gn4
    .byte W06
    .byte    Gn3
    .byte W06
    .byte    Fs4
    .byte W06
    .byte    Fs3
    .byte W06
    .byte    Fn4
    .byte W06
    .byte    Fn3
    .byte W06
LABEL_080A9BE4:
    .byte    N05, As3, v100
    .byte W06
    .byte    N05
    .byte W06
    .byte    N06, As3, v040
    .byte W06
    .byte    As3, v100
    .byte W06
    .byte    As3, v040
    .byte W06
    .byte    As3, v020
    .byte W06
    .byte    As3, v012
    .byte W12
    .byte    N05, Gs3, v100
    .byte W06
    .byte    N05
    .byte W06
    .byte    N06, Gs3, v040
    .byte W06
    .byte    Gs3, v100
    .byte W06
    .byte    Gs3, v040
    .byte W06
    .byte    Gs3, v020
    .byte W06
    .byte    Gs3, v012
    .byte W12
LABEL_080A9C10:
    .byte PAN  , 127
    .byte    N06, Ds5, v100
    .byte W06
    .byte    Ds4
    .byte W06
    .byte    Dn5
    .byte W06
    .byte    Dn4
    .byte W06
    .byte    Cs5
    .byte W06
    .byte    Cs4
    .byte W06
    .byte    Cn5
    .byte W06
    .byte    Cn4
    .byte W06
    .byte PAN  , 0
    .byte    N06, Cs5
    .byte W06
    .byte    Cs4
    .byte W06
    .byte    Cn5
    .byte W06
    .byte    Cn4
    .byte W06
    .byte    Bn4
    .byte W06
    .byte    Bn3
    .byte W06
    .byte    As4
    .byte W06
    .byte    As3
    .byte W06
    .byte PEND
LABEL_080A9C38:
    .byte PAN  , 64
    .byte    N05, As3, v100
    .byte W06
    .byte    N05
    .byte W06
    .byte    N06, As3, v040
    .byte W06
    .byte    As3, v100
    .byte W06
    .byte    As3, v040
    .byte W06
    .byte    As3, v020
    .byte W06
    .byte    As3, v012
    .byte W12
    .byte    N05, Gs3, v100
    .byte W06
    .byte    N05
    .byte W06
    .byte    N06, Gs3, v040
    .byte W06
    .byte    Gs3, v100
    .byte W06
    .byte    Gs3, v040
    .byte W06
    .byte    Gs3, v020
    .byte W06
    .byte    Gs3, v012
    .byte W12
    .byte PEND
    .byte PAN  , 127
    .byte    N06, Gs4, v100
    .byte W06
    .byte    Fn5
    .byte W06
    .byte    En5
    .byte W06
    .byte    Gn4
    .byte W06
    .byte    Fs4
    .byte W06
    .byte    Ds5
    .byte W06
    .byte    Dn5
    .byte W06
    .byte    Fn4
    .byte W06
    .byte PAN  , 0
    .byte    N06, En4
    .byte W06
    .byte    Cs5
    .byte W06
    .byte    Cn5
    .byte W06
    .byte    Ds4
    .byte W06
    .byte    Dn4
    .byte W06
    .byte    Bn4
    .byte W06
    .byte    As4
    .byte W06
    .byte    Cs4
    .byte W06
    .byte PATT
    .word LABEL_080A9C38
    .byte PATT
    .word LABEL_080A9C10
    .byte PATT
    .word LABEL_080A9C38
    .byte PAN  , 64
    .byte    N06, Ds2, v100
    .byte W06
    .byte    Gs2
    .byte W06
    .byte    As2
    .byte W06
    .byte    Cs3
    .byte W06
    .byte    Ds3
    .byte W06
    .byte    Gs3
    .byte W06
    .byte    As3
    .byte W06
    .byte    Cs4
    .byte W06
    .byte PAN  , 0
    .byte    N06, Ds4
    .byte W06
    .byte    Gs4
    .byte W06
    .byte    As4
    .byte W06
    .byte    Cs5
    .byte W06
    .byte PAN  , 127
    .byte    N06, Ds5
    .byte W06
    .byte    Gs5
    .byte W06
    .byte    As5
    .byte W06
    .byte    Ds6
    .byte W06
    .byte PAN  , 64
    .byte    N06, Gs4
    .byte W06
    .byte    As4
    .byte W06
    .byte    As4, v040
    .byte W06
    .byte    As4, v100
    .byte W06
    .byte    As4, v040
    .byte W06
    .byte    As4, v020
    .byte W06
    .byte    Cn5, v100
    .byte W06
    .byte    Cn5, v040
    .byte W06
    .byte    Fs4, v100
    .byte W06
    .byte    Fs4, v040
    .byte W06
    .byte    Ds4, v100
    .byte W06
    .byte    Ds4, v040
    .byte W06
    .byte    Fn4, v100
    .byte W06
    .byte    Fn4, v040
    .byte W06
    .byte    Ds4, v100
    .byte W06
    .byte    Ds4, v040
    .byte W06
LABEL_080A9CF8:
    .byte    N06, An4, v100
    .byte W06
    .byte    An4, v040
    .byte W06
    .byte    An4, v020
    .byte W06
    .byte    An4, v100
    .byte W06
    .byte    An4, v040
    .byte W06
    .byte    An4, v100
    .byte W06
    .byte    Gs4
    .byte W06
    .byte    Fs4
    .byte W06
    .byte    Ds4
    .byte W06
    .byte    Ds4, v040
    .byte W06
    .byte    Cs4, v100
    .byte W06
    .byte    Cs4, v040
    .byte W06
    .byte    Ds4, v100
    .byte W06
    .byte    Ds4, v040
    .byte W18
    .byte PEND
LABEL_080A9D21:
    .byte    N06, Gs4, v100
    .byte W06
    .byte    As4
    .byte W06
    .byte    As4, v040
    .byte W06
    .byte    As4, v100
    .byte W06
    .byte    As4, v040
    .byte W06
    .byte    As4, v020
    .byte W06
    .byte    Cn5, v100
    .byte W06
    .byte    Cn5, v040
    .byte W06
    .byte    Fs4, v100
    .byte W06
    .byte    Fs4, v040
    .byte W06
    .byte    Ds4, v100
    .byte W06
    .byte    Ds4, v040
    .byte W06
    .byte    Fn4, v100
    .byte W06
    .byte    Fn4, v040
    .byte W06
    .byte    Ds4, v100
    .byte W06
    .byte    Ds4, v040
    .byte W06
    .byte PEND
    .byte    Ds5, v100
    .byte W06
    .byte    Ds5, v040
    .byte W06
    .byte    Ds5, v020
    .byte W06
    .byte    Ds5, v012
    .byte W06
    .byte    Cs5, v100
    .byte W06
    .byte    Cs5, v040
    .byte W06
    .byte    Cs5, v020
    .byte W06
    .byte    Cs5, v012
    .byte W06
    .byte    Gs4, v100
    .byte W06
    .byte    Gs4, v040
    .byte W06
    .byte    Gs4, v020
    .byte W06
    .byte    Gs4, v012
    .byte W06
    .byte    Fs4, v100
    .byte W06
    .byte    Fs4, v040
    .byte W06
    .byte    Fs4, v020
    .byte W06
    .byte    Fs4, v012
    .byte W06
    .byte PATT
    .word LABEL_080A9D21
    .byte PATT
    .word LABEL_080A9CF8
    .byte    N06, Gs4, v100
    .byte W06
    .byte    As4
    .byte W06
    .byte    As4, v040
    .byte W06
    .byte    As4, v100
    .byte W06
    .byte    As4, v040
    .byte W06
    .byte    As4, v020
    .byte W06
    .byte    Gs4, v100
    .byte W06
    .byte    Gs4, v040
    .byte W06
    .byte    Gs4, v100
    .byte W06
    .byte    Gs4, v040
    .byte W06
    .byte    As4, v100
    .byte W06
    .byte    As4, v040
    .byte W06
    .byte    Bn4, v100
    .byte W06
    .byte    Bn4, v040
    .byte W06
    .byte    Cn5, v100
    .byte W06
    .byte    Cn5, v040
    .byte W06
    .byte    En5, v080
    .byte W06
    .byte    En4
    .byte W06
    .byte    Ds5
    .byte W06
    .byte    Ds4
    .byte W06
    .byte    Dn5
    .byte W06
    .byte    Dn4
    .byte W06
    .byte    Cs5
    .byte W06
    .byte    Cs4
    .byte W06
    .byte    Cn5
    .byte W06
    .byte    Cn4
    .byte W06
    .byte    Bn4
    .byte W06
    .byte    Bn3
    .byte W06
    .byte    As4
    .byte W06
    .byte    As3
    .byte W06
    .byte    An4
    .byte W06
    .byte    An3
    .byte W06
    .byte GOTO
    .word LABEL_080A9BE4
    .byte FINE

Track_080A9DE3:
    .byte KEYSH, 0
    .byte VOICE, 1
    .byte VOL  , 66
    .byte PAN  , 64
    .byte LFOS , 28
    .byte LFODL, 14
    .byte BENDR, 12
    .byte MODT , 0
    .byte MOD  , 4
    .byte XCMD , xIECV, 40, xIECL, 3
    .byte    N06, Bn4, v080
    .byte W06
    .byte    Bn4, v040
    .byte W06
    .byte    As4, v080
    .byte W06
    .byte    As4, v040
    .byte W06
    .byte    An4, v080
    .byte W06
    .byte    An4, v040
    .byte W06
    .byte    Gs4, v080
    .byte W06
    .byte    Gs4, v040
    .byte W06
    .byte    An4, v080
    .byte W06
    .byte    An4, v040
    .byte W06
    .byte    Gs4, v080
    .byte W06
    .byte    Gs4, v040
    .byte W06
    .byte    Gn4, v080
    .byte W06
    .byte    Gn4, v040
    .byte W06
    .byte    Fs4, v080
    .byte W06
    .byte    Fs4, v040
    .byte W06
    .byte    Fn4, v080
    .byte W06
    .byte    Fn4, v040
    .byte W06
    .byte    En4, v080
    .byte W06
    .byte    En4, v040
    .byte W06
    .byte    Ds4, v080
    .byte W06
    .byte    Ds4, v040
    .byte W06
    .byte    Dn4, v080
    .byte W06
    .byte    Dn4, v040
    .byte W06
    .byte    Ds4, v080
    .byte W06
    .byte    Ds4, v040
    .byte W06
    .byte    Dn4, v080
    .byte W06
    .byte    Dn4, v040
    .byte W06
    .byte    Cs4, v080
    .byte W06
    .byte    Cs4, v040
    .byte W06
    .byte    Cn4, v080
    .byte W06
    .byte    Cn4, v040
    .byte W06
LABEL_080A9E5B:
    .byte    N05, Fn3, v100
    .byte W06
    .byte    N05
    .byte W06
    .byte    N06, Fn3, v040
    .byte W06
    .byte    Fn3, v100
    .byte W06
    .byte    Fn3, v040
    .byte W06
    .byte    Fn3, v020
    .byte W06
    .byte    Fn3, v012
    .byte W12
    .byte    N05, Ds3, v100
    .byte W06
    .byte    N05
    .byte W06
    .byte    N06, Ds3, v040
    .byte W06
    .byte    Ds3, v100
    .byte W06
    .byte    Ds3, v040
    .byte W06
    .byte    Ds3, v020
    .byte W06
    .byte    Ds3, v012
    .byte W12
LABEL_080A9E87:
    .byte PAN  , 127
    .byte    N06, An4, v100
    .byte W06
    .byte    An3
    .byte W06
    .byte    Gs4
    .byte W06
    .byte    Gs3
    .byte W06
    .byte    Gn4
    .byte W06
    .byte    Gn3
    .byte W06
    .byte    Fs4
    .byte W06
    .byte    Fs3
    .byte W06
    .byte PAN  , 0
    .byte    N06, Gn4
    .byte W06
    .byte    Gn3
    .byte W06
    .byte    Fs4
    .byte W06
    .byte    Fs3
    .byte W06
    .byte    Fn4
    .byte W06
    .byte    Fn3
    .byte W06
    .byte    En4
    .byte W06
    .byte    En3
    .byte W06
    .byte PEND
LABEL_080A9EAF:
    .byte PAN  , 64
    .byte    N05, Fn3, v100
    .byte W06
    .byte    N05
    .byte W06
    .byte    N06, Fn3, v040
    .byte W06
    .byte    Fn3, v100
    .byte W06
    .byte    Fn3, v040
    .byte W06
    .byte    Fn3, v020
    .byte W06
    .byte    Fn3, v012
    .byte W12
    .byte    N05, Ds3, v100
    .byte W06
    .byte    N05
    .byte W06
    .byte    N06, Ds3, v040
    .byte W06
    .byte    Ds3, v100
    .byte W06
    .byte    Ds3, v040
    .byte W06
    .byte    Ds3, v020
    .byte W06
    .byte    Ds3, v012
    .byte W12
    .byte PEND
    .byte PAN  , 127
    .byte    N06, Dn4, v100
    .byte W06
    .byte    Bn4
    .byte W06
    .byte    As4
    .byte W06
    .byte    Cs4
    .byte W06
    .byte    Cn4
    .byte W06
    .byte    An4
    .byte W06
    .byte    Gs4
    .byte W06
    .byte    Bn3
    .byte W06
    .byte PAN  , 0
    .byte    N06, As3
    .byte W06
    .byte    Gn4
    .byte W06
    .byte    Fs4
    .byte W06
    .byte    An3
    .byte W06
    .byte    Gs3
    .byte W06
    .byte    Fn4
    .byte W06
    .byte    En4
    .byte W06
    .byte    Gn3
    .byte W06
    .byte PATT
    .word LABEL_080A9EAF
    .byte PATT
    .word LABEL_080A9E87
    .byte PATT
    .word LABEL_080A9EAF
    .byte W06
    .byte PAN  , 64
    .byte    N06, Ds2, v100
    .byte W06
    .byte    Gs2
    .byte W06
    .byte    As2
    .byte W06
    .byte    Cs3
    .byte W06
    .byte    Ds3
    .byte W06
    .byte    Gs3
    .byte W06
    .byte    As3
    .byte W06
    .byte    Cs4
    .byte W06
    .byte PAN  , 0
    .byte    N06, Ds4
    .byte W06
    .byte    Gs4
    .byte W06
    .byte    As4
    .byte W06
    .byte    Cs5
    .byte W06
    .byte PAN  , 127
    .byte    N06, Ds5
    .byte W06
    .byte    Gs5
    .byte W06
    .byte    As5
    .byte W06
LABEL_080A9F3D:
    .byte PAN  , 64
    .byte    N06, Ds4, v100
    .byte W06
    .byte    Fn4
    .byte W06
    .byte    Fn4, v040
    .byte W06
    .byte    Fn4, v100
    .byte W06
    .byte    Fn4, v040
    .byte W06
    .byte    Fn4, v020
    .byte W06
    .byte    Fs4, v100
    .byte W06
    .byte    Fs4, v040
    .byte W06
    .byte    Cs4, v100
    .byte W06
    .byte    Cs4, v040
    .byte W06
    .byte    As3, v100
    .byte W06
    .byte    As3, v040
    .byte W06
    .byte    Cn4, v100
    .byte W06
    .byte    Cn4, v040
    .byte W06
    .byte    As3, v100
    .byte W06
    .byte    As3, v040
    .byte W06
    .byte PEND
LABEL_080A9F70:
    .byte    N06, En4, v100
    .byte W06
    .byte    En4, v040
    .byte W06
    .byte    En4, v020
    .byte W06
    .byte    En4, v100
    .byte W06
    .byte    En4, v040
    .byte W06
    .byte    En4, v100
    .byte W06
    .byte    Ds4
    .byte W06
    .byte    Cs4
    .byte W06
    .byte    As3
    .byte W06
    .byte    As3, v040
    .byte W06
    .byte    Gs3, v100
    .byte W06
    .byte    Gs3, v040
    .byte W06
    .byte    As3, v100
    .byte W06
    .byte    As3, v040
    .byte W18
    .byte PEND
    .byte    Ds4, v100
    .byte W06
    .byte    Fn4
    .byte W06
    .byte    Fn4, v040
    .byte W06
    .byte    Fn4, v100
    .byte W06
    .byte    Fn4, v040
    .byte W06
    .byte    Fn4, v020
    .byte W06
    .byte    Fs4, v100
    .byte W06
    .byte    Fs4, v040
    .byte W06
    .byte    Cs4, v100
    .byte W06
    .byte    Cs4, v040
    .byte W06
    .byte    As3, v100
    .byte W06
    .byte    As3, v040
    .byte W06
    .byte    Cn4, v100
    .byte W06
    .byte    Cn4, v040
    .byte W06
    .byte    As3, v100
    .byte W06
    .byte    As3, v040
    .byte W06
    .byte PAN  , 0
    .byte    N06, Ds5, v100
    .byte W06
    .byte    As4
    .byte W06
    .byte    Dn5
    .byte W06
    .byte    An4
    .byte W06
    .byte PAN  , 127
    .byte    N06, Cs5
    .byte W06
    .byte    Gs4
    .byte W06
    .byte    Cn5
    .byte W06
    .byte    Gn4
    .byte W06
    .byte PAN  , 0
    .byte    N06, Bn4
    .byte W06
    .byte    Fs4
    .byte W06
    .byte    As4
    .byte W06
    .byte    Fn4
    .byte W06
    .byte PAN  , 127
    .byte    N06, An4
    .byte W06
    .byte    En4
    .byte W06
    .byte    Gs4
    .byte W06
    .byte    Ds4
    .byte W06
    .byte PATT
    .word LABEL_080A9F3D
    .byte PATT
    .word LABEL_080A9F70
    .byte    N06, Ds4, v100
    .byte W06
    .byte    Fn4
    .byte W06
    .byte    Fn4, v040
    .byte W06
    .byte    Fn4, v100
    .byte W06
    .byte    Fn4, v040
    .byte W06
    .byte    Fn4, v020
    .byte W06
    .byte    Ds4, v100
    .byte W06
    .byte    Ds4, v040
    .byte W06
    .byte    Ds4, v100
    .byte W06
    .byte    Ds4, v040
    .byte W06
    .byte    Fn4, v100
    .byte W06
    .byte    Fn4, v040
    .byte W06
    .byte    Fs4, v100
    .byte W06
    .byte    Fs4, v040
    .byte W06
    .byte    Gn4, v100
    .byte W06
    .byte    Gn4, v040
    .byte W06
    .byte    Bn4, v080
    .byte W06
    .byte    Bn4, v040
    .byte W06
    .byte    As4, v080
    .byte W06
    .byte    As4, v040
    .byte W06
    .byte    An4, v080
    .byte W06
    .byte    An4, v040
    .byte W06
    .byte    Gs4, v080
    .byte W06
    .byte    Gs4, v040
    .byte W06
    .byte    Gn4, v080
    .byte W06
    .byte    Gn3, v040
    .byte W06
    .byte    Fs4, v080
    .byte W06
    .byte    Fs3, v040
    .byte W06
    .byte    Fn4, v080
    .byte W06
    .byte    Fn3, v040
    .byte W06
    .byte    En4, v080
    .byte W06
    .byte    En3, v040
    .byte W06
    .byte GOTO
    .word LABEL_080A9E5B
    .byte FINE

Track_080AA065:
    .byte KEYSH, 0
    .byte VOICE, 28
    .byte VOL  , 85
    .byte PAN  , 64
    .byte XCMD , xIECV, 40, xIECL, 3
    .byte W96
LABEL_080AA073:
    .byte W84
    .byte    N06, As3, v080
    .byte W06
    .byte    Cs4
    .byte W06
    .byte PEND
LABEL_080AA07B:
    .byte    N06, Ds4, v080
    .byte W06
    .byte    Ds4, v040
    .byte W06
    .byte    Ds4, v020
    .byte W06
    .byte    Ds4, v080
    .byte W06
    .byte    Ds4, v040
    .byte W06
    .byte    Ds4, v020
    .byte W06
    .byte    Ds4, v012
    .byte W60
    .byte PEND
    .byte PATT
    .word LABEL_080AA073
    .byte    N06, Ds4, v080
    .byte W06
    .byte    Ds4, v040
    .byte W06
    .byte    As3, v080
    .byte W06
    .byte    Ds4
    .byte W06
    .byte    Ds4, v040
    .byte W06
    .byte    Ds4, v020
    .byte W06
    .byte    Cs4, v080
    .byte W06
    .byte    Cs4, v040
    .byte W06
    .byte    Cs4, v020
    .byte W06
    .byte    Cs4, v012
    .byte W42
    .byte PATT
    .word LABEL_080AA073
    .byte PATT
    .word LABEL_080AA07B
    .byte PATT
    .word LABEL_080AA073
    .byte    N06, Ds4, v080
    .byte W06
    .byte    Ds4, v040
    .byte W06
    .byte    As3, v080
    .byte W06
    .byte    Ds4
    .byte W06
    .byte    Ds4, v040
    .byte W06
    .byte    Ds4, v020
    .byte W06
    .byte    Fn4, v080
    .byte W06
    .byte    Fn4, v040
    .byte W06
    .byte    Fn4, v020
    .byte W06
    .byte    Fn4, v012
    .byte W06
    .byte    Cs4, v080
    .byte W06
    .byte    Cs4, v040
    .byte W06
    .byte    Cs4, v020
    .byte W06
    .byte    Cs4, v012
    .byte W18
    .byte W96
LABEL_080AA0EF:
    .byte    N92, Cn3, v080
    .byte    N92, As3, v060
    .byte W96
    .byte PEND
LABEL_080AA0F7:
    .byte    N92, An2, v080
    .byte    N92, Gs3, v060
    .byte W96
    .byte PEND
    .byte PATT
    .word LABEL_080AA0EF
    .byte    N44, An2, v080
    .byte    N44, Gs3, v060
    .byte W48
    .byte    An2, v080
    .byte    N44, Gs3, v060
    .byte W48
    .byte PATT
    .word LABEL_080AA0EF
    .byte PATT
    .word LABEL_080AA0F7
    .byte PATT
    .word LABEL_080AA0EF
    .byte W96
    .byte GOTO
    .word LABEL_080AA07B
    .byte FINE

    .align 2, 0

global_label SongHeader_080AA128
    .byte 5
    .byte 0
    .byte 0
    .byte 163
    .word 0x809F9F8
    .word Track_080A96A0
    .word Track_080A9A1A
    .word Track_080A9B8B
    .word Track_080A9DE3
    .word Track_080AA065
