Track_080AEFFC:
    .byte KEYSH, 0
    .byte TEMPO, 63
    .byte W12
    .byte VOICE, 0
    .byte VOL  , 120
    .byte PAN  , 64
    .byte    N06, Bn0, v112
    .byte    N06, Dn1, v120
    .byte    N36, Cs2, v060
    .byte W06
    .byte    N06, Dn1, v120
    .byte W06
    .byte    Bn0, v100
    .byte W06
    .byte    Bn0, v112
    .byte    N10, An1, v120
    .byte W12
    .byte    N06, Gs1
    .byte W06
    .byte    Gn1
    .byte W06
    .byte    Bn0, v112
    .byte    N06, Dn1, v120
    .byte    N54, Cs2, v060
    .byte W42
    .byte W60
    .byte FINE

Track_080AF02E:
    .byte KEYSH, 0
    .byte W02
    .byte PAN  , 64
    .byte W03
    .byte VOICE, 14
    .byte W02
    .byte VOL  , 94
    .byte W05
    .byte BENDR, 12
    .byte BEND , 59
    .byte    N15, Cs3, v100
    .byte W01
    .byte BEND , 61
    .byte W01
    .byte    En3
    .byte W13
    .byte    N03, Cs3, v060
    .byte W03
    .byte    N22, Cs2, v100
    .byte W24
    .byte    N78, Cn2
    .byte W42
    .byte W36
    .byte    N12, Cn2, v060
    .byte W12
    .byte    Cn2, v032
    .byte W12
    .byte FINE

Track_080AF05B:
    .byte KEYSH, 0
    .byte W12
    .byte VOICE, 5
    .byte VOL  , 94
    .byte PAN  , 0
    .byte LFOS , 28
    .byte LFODL, 14
    .byte MODT , 0
    .byte MOD  , 4
    .byte PRIO , 20
    .byte    N03, As4, v100
    .byte W03
    .byte    As4, v040
    .byte W03
    .byte    As4, v060
    .byte W03
    .byte    As4, v032
    .byte W03
    .byte    As4, v040
    .byte W03
    .byte    As4, v012
    .byte W03
    .byte PAN  , 127
    .byte    N03, Gs4, v100
    .byte W03
    .byte    Gs4, v040
    .byte W03
    .byte    Gs4, v060
    .byte W03
    .byte    Gs4, v032
    .byte W03
    .byte    Gs4, v040
    .byte W03
    .byte    Gs4, v012
    .byte W03
    .byte    Gs4, v032
    .byte W03
    .byte    Gs4, v008
    .byte W03
    .byte PAN  , 64
    .byte TIE, Ds4, v052
    .byte W06
    .byte VOL  , 94
    .byte W36
    .byte W14
    .byte    Fs5
    .byte W02
    .byte    Dn5
    .byte W02
    .byte    Bn4
    .byte W02
    .byte    Gn4
    .byte W02
    .byte    Ds4
    .byte W02
    .byte    As3
    .byte W02
    .byte    Gn3
    .byte W02
    .byte    Ds3
    .byte W02
    .byte    Bn2
    .byte W02
    .byte    Gn2
    .byte W02
    .byte    Ds2
    .byte W02
    .byte    Bn1
    .byte W02
    .byte    Gn1
    .byte W02
    .byte    Ds1
    .byte W02
    .byte    Bn0
    .byte W02
    .byte    Gs0
    .byte W02
    .byte    En0
    .byte W02
    .byte    BnM1
    .byte W02
    .byte    GnM1
    .byte W02
    .byte    EnM1
    .byte W02
    .byte    CnM1
    .byte W02
    .byte    GsM2
    .byte W02
    .byte    EnM2
    .byte W02
    .byte EOT
    .byte VOL  , 0
    .byte FINE

Track_080AF0D8:
    .byte KEYSH, 0
    .byte W01
    .byte VOL  , 47
    .byte W01
    .byte PAN  , 0
    .byte W01
    .byte VOICE, 2
    .byte W01
    .byte LFOS , 28
    .byte W01
    .byte LFODL, 14
    .byte W01
    .byte MODT , 0
    .byte W01
    .byte MOD  , 4
    .byte W01
    .byte PRIO , 20
    .byte W04
    .byte    N03, Ds4, v100
    .byte W03
    .byte    Ds4, v040
    .byte W03
    .byte    Ds4, v060
    .byte W03
    .byte    Ds4, v032
    .byte W03
    .byte    Ds4, v040
    .byte W03
    .byte    Ds4, v012
    .byte W03
    .byte PAN  , 127
    .byte    N03, Bn3, v100
    .byte W03
    .byte    Bn3, v040
    .byte W03
    .byte    Bn3, v060
    .byte W03
    .byte    Bn3, v032
    .byte W03
    .byte    Bn3, v040
    .byte W03
    .byte    Bn3, v012
    .byte W03
    .byte    Bn3, v032
    .byte W03
    .byte    Bn3, v008
    .byte W03
    .byte PAN  , 64
    .byte TIE, As3, v052
    .byte W06
    .byte VOL  , 47
    .byte W32
    .byte    As1
    .byte W04
    .byte W06
    .byte    An1
    .byte W06
    .byte    Gs1
    .byte W06
    .byte    Gn1
    .byte W04
    .byte    Fs1
    .byte W02
    .byte    Fn1
    .byte W04
    .byte    En1
    .byte W02
    .byte    Ds1
    .byte W02
    .byte    Dn1
    .byte W02
    .byte    Cs1
    .byte W02
    .byte    Bn0
    .byte W02
    .byte    As0
    .byte W02
    .byte    An0
    .byte W02
    .byte    Gn0
    .byte W02
    .byte    Fn0
    .byte W02
    .byte    Ds0
    .byte W02
    .byte    BnM1
    .byte W02
    .byte    AnM1
    .byte W02
    .byte    FsM1
    .byte W02
    .byte    DnM1
    .byte W02
    .byte    AsM2
    .byte W02
    .byte    FsM2
    .byte W02
    .byte EOT
    .byte VOL  , 0
    .byte FINE

Track_080AF15B:
    .byte VOL  , 120
    .byte KEYSH, 0
    .byte    N03, Dn3, v040
    .byte W03
    .byte VOICE, 21
    .byte VOL  , 113
    .byte PAN  , 64
    .byte    N03, Ds3
    .byte W03
    .byte    Fn3
    .byte W03
    .byte    Gn3, v032
    .byte W03
    .byte    N06, Ds3, v040
    .byte    N06, As3, v060
    .byte W06
    .byte    Ds3, v040
    .byte W06
    .byte    Ds3, v020
    .byte W06
    .byte    Ds3, v032
    .byte    N06, Fn3, v040
    .byte    N06, Gs3, v060
    .byte W06
    .byte    Ds3, v016
    .byte    N06, Fn3, v020
    .byte    N06, Gs3, v040
    .byte W06
    .byte    Ds3, v012
    .byte    N06, Fn3
    .byte    N06, Gs3, v020
    .byte W06
    .byte    Ds3, v008
    .byte    N06, Fn3
    .byte    N06, Gs3, v012
    .byte W06
    .byte TIE, Dn3, v032
    .byte TIE, Gn3, v052
    .byte W42
    .byte W16
    .byte VOL  , 103
    .byte W04
    .byte    As5
    .byte W04
    .byte    Cs5
    .byte W04
    .byte    Ds4
    .byte W04
    .byte    Fs3
    .byte W04
    .byte    Gs2
    .byte W04
    .byte    Bn1
    .byte W04
    .byte    Cs1
    .byte W04
    .byte    En0
    .byte W04
    .byte    FsM1
    .byte W04
    .byte    AnM2
    .byte W04
    .byte EOT, Dn3, v067
    .byte FINE

    .align 2, 0

global_label SongHeader_080AF1C4
    .byte 5
    .byte 0
    .byte 0
    .byte 163
    .word 0x80A02D4
    .word Track_080AEFFC
    .word Track_080AF02E
    .word Track_080AF05B
    .word Track_080AF0D8
    .word Track_080AF15B
