Track_080A74D4:
    .byte KEYSH, 0
LABEL_080A74D6:
    .byte TEMPO, 70
    .byte VOICE, 23
    .byte VOL  , 113
    .byte PAN  , 64
    .byte XCMD , xIECV, 20, xIECL, 2
    .byte    N06, Cn1, v120
    .byte    N02, Fs1, v060
    .byte W06
    .byte    Fs1, v040
    .byte W06
    .byte    Fs1, v060
    .byte W06
    .byte    Fs1, v040
    .byte W06
    .byte    N06, Dn1, v120
    .byte    N02, Fs1, v080
    .byte W06
    .byte    Fs1, v040
    .byte W06
    .byte    N06, Cn1, v120
    .byte    N02, Fs1, v072
    .byte W06
    .byte    Fs1, v040
    .byte W06
    .byte    Fs1, v060
    .byte W06
    .byte    Fs1, v040
    .byte W06
    .byte    N06, Dn1, v120
    .byte    N02, Fs1, v060
    .byte W06
    .byte    Fs1, v040
    .byte W06
    .byte    N02
    .byte W06
    .byte    Fs1, v072
    .byte W06
    .byte    N06, Cn1, v100
    .byte    N02, Fs1, v080
    .byte    N06, Gn2, v068
    .byte W06
    .byte    N02, Fs1, v060
    .byte W06
    .byte    N06, Cn1, v120
    .byte    N02, Fs1, v060
    .byte W06
    .byte    Fs1, v040
    .byte W06
    .byte    Fs1, v072
    .byte W06
    .byte    Fs1, v040
    .byte W06
    .byte    N06, Dn1, v120
    .byte    N02, Fs1, v040
    .byte W06
    .byte    Fs1, v072
    .byte W06
    .byte    N06, Cn1, v120
    .byte    N02, Fs1, v080
    .byte W06
    .byte    Fs1, v040
    .byte W06
    .byte    Fs1, v060
    .byte W06
    .byte    Fs1, v040
    .byte W06
    .byte    N06, Dn1, v120
    .byte    N02, Fs1, v060
    .byte W06
    .byte    Fs1, v040
    .byte W06
    .byte    N02
    .byte W06
    .byte    Fs1, v072
    .byte W06
    .byte    N06, Cn1, v112
    .byte    N12, Fs1, v060
    .byte    N06, Gs2, v068
    .byte W06
    .byte    Cn1, v092
    .byte    N06, An2, v068
    .byte W06
    .byte    Cn1, v120
    .byte    N02, Fs1, v060
    .byte W06
    .byte    Fs1, v040
    .byte W06
    .byte    Fs1, v072
    .byte W06
    .byte    Fs1, v040
    .byte W06
    .byte    N06, Dn1, v120
    .byte    N02, Fs1, v080
    .byte W06
    .byte    Fs1, v040
    .byte W06
    .byte    N06, Cn1, v120
    .byte    N02, Fs1, v072
    .byte W06
    .byte    Fs1, v040
    .byte W06
    .byte    Fs1, v060
    .byte W06
    .byte    Fs1, v040
    .byte W06
    .byte    N06, Dn1, v120
    .byte    N02, Fs1, v060
    .byte W06
    .byte    Fs1, v040
    .byte W06
    .byte    N02
    .byte W06
    .byte    Fs1, v072
    .byte W06
    .byte    N06, Cn1, v112
    .byte    N02, Fs1, v080
    .byte    N06, Gn2, v068
    .byte W06
    .byte    N02, Fs1, v040
    .byte W06
    .byte    N06, Cn1, v120
    .byte    N02, Fs1, v060
    .byte W06
    .byte    Fs1, v040
    .byte W06
    .byte    Fs1, v060
    .byte W06
    .byte    Fs1, v040
    .byte W06
    .byte    N06, Dn1, v120
    .byte    N02, Fs1, v080
    .byte W06
    .byte    Fs1, v040
    .byte W06
    .byte    N06, Cn1, v120
    .byte    N02, Fs1, v072
    .byte W06
    .byte    Fs1, v040
    .byte W01
    .byte    N01, Ds1
    .byte W02
    .byte    Ds1, v052
    .byte W01
    .byte    Ds1, v072
    .byte W02
    .byte    N06, Dn1, v120
    .byte    N02, Fs1, v060
    .byte W06
    .byte    Fs1, v040
    .byte W06
    .byte    N06, Dn1, v120
    .byte    N02, Fs1, v060
    .byte W06
    .byte    Fs1, v040
    .byte W06
    .byte    N06, Cn1, v120
    .byte    N02, Fs1, v040
    .byte W06
    .byte    Fs1, v072
    .byte W06
    .byte    N06, Dn1, v120
    .byte    N02, Fs1, v080
    .byte    N06, An2, v068
    .byte W06
    .byte    Cn1, v100
    .byte    N02, Fs1, v040
    .byte    N06, Gs2, v068
    .byte W06
    .byte    Cn1, v120
    .byte    N02, Fs1, v060
    .byte W06
    .byte    Fs1, v040
    .byte W06
    .byte    Fs1, v060
    .byte W06
    .byte    Fs1, v040
    .byte W06
    .byte    N06, Dn1, v120
    .byte    N02, Fs1, v072
    .byte W06
    .byte    Fs1, v040
    .byte W06
    .byte    N06, Cn1, v112
    .byte    N02, Fs1, v060
    .byte W06
    .byte    Fs1, v040
    .byte W06
    .byte    Fs1, v060
    .byte W06
    .byte    Fs1, v040
    .byte W06
    .byte    N06, Dn1, v120
    .byte    N02, Fs1, v060
    .byte W06
    .byte    Fs1, v040
    .byte W06
    .byte    N02
    .byte W06
    .byte    Fs1, v072
    .byte W06
    .byte    N06, Cn1, v100
    .byte    N02, Fs1, v080
    .byte    N06, Gn2, v068
    .byte W06
    .byte    N02, Fs1, v040
    .byte W06
    .byte    N06, Cn1, v120
    .byte    N06, Dn1
    .byte    N02, Fs1, v060
    .byte W06
    .byte    Fs1, v040
    .byte W06
    .byte    Fs1, v060
    .byte W06
    .byte    Fs1, v040
    .byte W06
    .byte    N06, Dn1, v120
    .byte    N02, Fs1, v040
    .byte W06
    .byte    Fs1, v072
    .byte W06
    .byte    N06, Cn1, v120
    .byte    N02, Fs1, v080
    .byte W06
    .byte    Fs1, v040
    .byte W06
    .byte    Fs1, v060
    .byte W06
    .byte    Fs1, v040
    .byte W06
    .byte    N06, Cn1, v112
    .byte    N02, Fs1, v060
    .byte W06
    .byte    Fs1, v040
    .byte W06
    .byte    Fs1, v072
    .byte W06
    .byte    Fs1, v060
    .byte W06
    .byte    N06, Dn1, v120
    .byte    N12, Fs1, v072
    .byte    N06, Gs2, v068
    .byte W06
    .byte    Dn1, v100
    .byte    N06, An2, v068
    .byte W06
LABEL_080A76A9:
    .byte    N06, Cn1, v120
    .byte    N02, Fs1, v060
    .byte W06
    .byte    Fs1, v040
    .byte W06
    .byte    Fs1, v060
    .byte W06
    .byte    Fs1, v040
    .byte W06
    .byte    N06, Dn1, v120
    .byte    N02, Fs1, v072
    .byte W06
    .byte    Fs1, v040
    .byte W06
    .byte    N06, Cn1, v120
    .byte    N02, Fs1, v060
    .byte W06
    .byte    Fs1, v040
    .byte W06
    .byte    Fs1, v060
    .byte W06
    .byte    Fs1, v040
    .byte W06
    .byte    N06, Dn1, v120
    .byte    N02, Fs1, v060
    .byte W06
    .byte    Fs1, v040
    .byte W06
    .byte    N02
    .byte W06
    .byte    Fs1, v072
    .byte W06
    .byte    N06, Cn1, v100
    .byte    N02, Fs1, v080
    .byte    N06, Gn2, v068
    .byte W06
    .byte    N02, Fs1, v040
    .byte W06
    .byte PEND
    .byte    N06, Cn1, v120
    .byte    N02, Fs1, v060
    .byte W06
    .byte    Fs1, v040
    .byte W06
    .byte    Fs1, v060
    .byte W06
    .byte    Fs1, v040
    .byte W06
    .byte    N06, Dn1, v120
    .byte    N02, Fs1, v072
    .byte W06
    .byte    Fs1, v040
    .byte W06
    .byte    N06, Cn1, v120
    .byte    N02, Fs1, v060
    .byte W06
    .byte    Fs1, v040
    .byte W06
    .byte    Fs1, v060
    .byte W06
    .byte    Fs1, v040
    .byte W06
    .byte    N06, Dn1, v120
    .byte    N02, Fs1, v060
    .byte W06
    .byte    Fs1, v040
    .byte W06
    .byte    N06, Cn1, v120
    .byte    N02, Fs1, v040
    .byte W06
    .byte    N06, Fn1, v060
    .byte    N02, Fs1, v072
    .byte W06
    .byte    N06, Dn1, v120
    .byte    N06, Fn1, v080
    .byte    N02, Fs1
    .byte W06
    .byte    N06, Cn1, v100
    .byte    N06, Fn1
    .byte    N02, Fs1, v040
    .byte W06
    .byte    N06, Cn1, v120
    .byte    N48, Cs2, v072
    .byte W24
    .byte    N06, Dn1, v120
    .byte W12
    .byte    Cn1
    .byte W12
    .byte    N02, Fs1, v060
    .byte W06
    .byte    Fs1, v040
    .byte W06
    .byte    N06, Dn1, v120
    .byte    N02, Fs1, v060
    .byte W06
    .byte    Fs1, v040
    .byte W06
    .byte    N02
    .byte W06
    .byte    Fs1, v072
    .byte W06
    .byte    N06, Cn1, v100
    .byte    N02, Fs1, v080
    .byte    N06, Gn2, v068
    .byte W06
    .byte    N02, Fs1, v040
    .byte W06
    .byte    N06, Cn1, v120
    .byte    N02, Fs1, v060
    .byte W06
    .byte    Fs1, v040
    .byte W06
    .byte    Fs1, v060
    .byte W06
    .byte    Fs1, v040
    .byte W06
    .byte    N06, Dn1, v120
    .byte    N02, Fs1, v072
    .byte W06
    .byte    Fs1, v040
    .byte W06
    .byte    N06, Cn1, v120
    .byte    N02, Fs1, v060
    .byte W06
    .byte    Fs1, v040
    .byte W06
    .byte    Fs1, v060
    .byte W06
    .byte    Fs1, v040
    .byte W06
    .byte    N06, Dn1, v120
    .byte    N02, Fs1, v060
    .byte W06
    .byte    Fs1, v040
    .byte W06
    .byte    N02
    .byte W06
    .byte    Fs1, v072
    .byte W06
    .byte    N06, Cn1, v112
    .byte    N12, Fs1, v072
    .byte    N06, Gs2, v068
    .byte W06
    .byte    Cn1, v092
    .byte    N06, An2, v068
    .byte W06
    .byte PATT
    .word LABEL_080A76A9
    .byte    N06, Cn1, v120
    .byte    N02, Fs1, v060
    .byte W06
    .byte    Fs1, v040
    .byte W06
    .byte    Fs1, v060
    .byte W06
    .byte    Fs1, v040
    .byte W06
    .byte    N06, Dn1, v120
    .byte    N02, Fs1, v040
    .byte W06
    .byte    Fs1, v072
    .byte W06
    .byte    N06, Cn1, v120
    .byte    N02, Fs1, v080
    .byte W06
    .byte    Fs1, v040
    .byte W06
    .byte    Fs1, v060
    .byte W06
    .byte    Fs1, v040
    .byte W06
    .byte    N06, Dn1, v120
    .byte    N02, Fs1, v060
    .byte W06
    .byte    Fs1, v040
    .byte W06
    .byte    Fs1, v072
    .byte W06
    .byte    Fs1, v040
    .byte W06
    .byte    N06, Cn1, v100
    .byte    N02, Fs1, v072
    .byte    N06, An2, v068
    .byte W06
    .byte    Dn1, v100
    .byte    N02, Fs1, v080
    .byte    N06, Gs2, v068
    .byte W06
    .byte PATT
    .word LABEL_080A76A9
    .byte    N06, Cn1, v120
    .byte    N02, Fs1, v060
    .byte W06
    .byte    Fs1, v040
    .byte W06
    .byte    Fs1, v060
    .byte W06
    .byte    Fs1, v040
    .byte W06
    .byte    N06, Dn1, v120
    .byte    N02, Fs1, v072
    .byte W06
    .byte    Fs1, v040
    .byte W06
    .byte    N06, Cn1, v120
    .byte    N02, Fs1, v060
    .byte W06
    .byte    Fs1, v040
    .byte W06
    .byte    Fs1, v060
    .byte W06
    .byte    Fs1, v040
    .byte W06
    .byte    N06, Dn1, v120
    .byte    N02, Fs1, v060
    .byte W06
    .byte    Fs1, v040
    .byte W06
    .byte    N02
    .byte W06
    .byte    Fs1, v072
    .byte W06
    .byte    N06, Cn1, v112
    .byte    N12, Fs1, v060
    .byte    N06, Gs2, v068
    .byte W06
    .byte    Cn1, v092
    .byte    N06, An2, v068
    .byte W06
    .byte PATT
    .word LABEL_080A76A9
    .byte    N06, Cn1, v120
    .byte    N02, Fs1, v060
    .byte W06
    .byte    Fs1, v040
    .byte W06
    .byte    Fs1, v060
    .byte W06
    .byte    Fs1, v040
    .byte W06
    .byte    N06, Dn1, v120
    .byte    N02, Fs1, v072
    .byte W06
    .byte    Fs1, v040
    .byte W06
    .byte    N06, Cn1, v120
    .byte    N02, Fs1, v060
    .byte W06
    .byte    Fs1, v040
    .byte W06
    .byte    N48, Bn1, v072
    .byte W12
    .byte    N06, Dn1, v120
    .byte W12
    .byte    Cn1
    .byte    N06, Fn1, v060
    .byte W06
    .byte    Fn1, v080
    .byte W06
    .byte    Dn1, v120
    .byte    N06, Fn1, v100
    .byte W06
    .byte    Cn1
    .byte    N06, Fn1, v120
    .byte W06
    .byte    Bn0, v100
    .byte    N06, Cn1, v120
    .byte    N36, Cs2, v080
    .byte W18
    .byte    N06, En2, v100
    .byte W06
    .byte    Dn1, v120
    .byte W12
    .byte    Bn0, v100
    .byte    N06, Cn1, v080
    .byte    N48, Cs2
    .byte W12
    .byte    N06, En2, v100
    .byte W12
    .byte    Dn1, v120
    .byte W06
    .byte    Bn0, v100
    .byte W12
    .byte    N02, Fs1, v040
    .byte W06
    .byte    N06, Cn1, v100
    .byte W06
    .byte    N02, Fs1, v060
    .byte W06
    .byte    N06, Bn0, v100
    .byte    N06, Cn1, v112
    .byte    N48, Cs2, v072
    .byte W18
    .byte    N06, En2, v100
    .byte W06
    .byte    Dn1, v120
    .byte W12
    .byte    Bn0, v100
    .byte    N06, Cn1, v120
    .byte W12
    .byte    N02, Fs1, v060
    .byte    N06, Ds2, v100
    .byte W06
    .byte    N02, Fs1, v040
    .byte W06
    .byte    N06, Dn1, v120
    .byte    N02, Fs1, v060
    .byte W06
    .byte    Fs1, v040
    .byte    N06, Fn2, v100
    .byte W06
    .byte    N02, Fs1, v040
    .byte W06
    .byte    Fs1, v072
    .byte W06
    .byte    N06, Cn1, v112
    .byte    N12, Fs1, v060
    .byte    N06, Fs2, v120
    .byte W06
    .byte    Cn1, v092
    .byte W06
    .byte    Bn0, v100
    .byte    N06, Cn1, v120
    .byte    N36, Cs2, v080
    .byte W18
    .byte    N06, En2, v100
    .byte W06
    .byte    Dn1, v120
    .byte W12
    .byte    Bn0, v100
    .byte    N06, Cn1, v120
    .byte    N48, Cs2, v080
    .byte W12
    .byte    N06, En2, v100
    .byte W12
    .byte    Dn1, v120
    .byte W06
    .byte    Bn0, v100
    .byte W12
    .byte    N02, Fs1, v040
    .byte W06
    .byte    N06, Cn1, v100
    .byte W06
    .byte    N02, Fs1, v060
    .byte W06
    .byte    N06, Bn0, v100
    .byte    N06, Cn1, v120
    .byte    N06, Dn1
    .byte W06
    .byte    N02, Fs1, v040
    .byte W06
    .byte    Fs1, v060
    .byte W06
    .byte    Fs1, v040
    .byte    N06, En2, v100
    .byte W06
    .byte    Dn1, v120
    .byte    N02, Fs1, v080
    .byte W06
    .byte    Fs1, v040
    .byte W06
    .byte    N06, Bn0, v100
    .byte    N06, Cn1, v120
    .byte    N02, Fs1, v072
    .byte W06
    .byte    Fs1, v040
    .byte W01
    .byte    N01, Ds1
    .byte W02
    .byte    Ds1, v052
    .byte W01
    .byte    Ds1, v072
    .byte W02
    .byte    N06, Dn1, v120
    .byte    N02, Fs1, v060
    .byte    N06, Ds2, v100
    .byte W06
    .byte    N02, Fs1, v040
    .byte W06
    .byte    N06, Dn1, v120
    .byte    N02, Fs1, v060
    .byte W06
    .byte    Fs1, v040
    .byte    N06, Fn2, v100
    .byte W06
    .byte    Cn1, v120
    .byte    N06, Dn1, v080
    .byte    N02, Fs1, v040
    .byte W06
    .byte    N06, Dn1, v092
    .byte    N02, Fs1, v072
    .byte W06
    .byte    N06, Dn1, v120
    .byte    N02, Fs1, v080
    .byte    N06, Fs2, v120
    .byte W06
    .byte    Cn1, v100
    .byte    N06, Dn1, v120
    .byte    N02, Fs1, v040
    .byte W06
    .byte    N06, Bn0, v100
    .byte    N06, Cn1, v120
    .byte    N36, Cs2, v080
    .byte W18
    .byte    N06, En2, v100
    .byte W06
    .byte    Dn1, v120
    .byte W12
    .byte    Bn0, v100
    .byte    N06, Cn1, v120
    .byte    N48, Cs2, v080
    .byte W12
    .byte    N06, En2, v100
    .byte W12
    .byte    Dn1, v120
    .byte W06
    .byte    Bn0, v100
    .byte W12
    .byte    N02, Fs1, v040
    .byte W06
    .byte    N06, Cn1, v100
    .byte    N06, Cs1
    .byte W06
    .byte    N02, Fs1, v060
    .byte W06
    .byte    N06, Bn0, v100
    .byte    N06, Cn1, v120
    .byte    N48, Cs2, v072
    .byte W18
    .byte    N06, En2, v100
    .byte W06
    .byte    Dn1, v120
    .byte W06
    .byte    Cs1, v092
    .byte W06
    .byte    Bn0, v100
    .byte    N06, Cn1, v120
    .byte    N06, Cs1
    .byte W12
    .byte    N02, Fs1, v060
    .byte    N06, Ds2, v100
    .byte W06
    .byte    N02, Fs1, v040
    .byte W06
    .byte    N06, Dn1, v120
    .byte    N02, Fs1, v060
    .byte W06
    .byte    Fs1, v040
    .byte    N06, Fn2, v100
    .byte W06
    .byte    Cs1, v120
    .byte    N02, Fs1, v040
    .byte W06
    .byte    Fs1, v072
    .byte W06
    .byte    N06, Cn1, v112
    .byte    N12, Fs1, v060
    .byte    N06, Fs2, v120
    .byte W06
    .byte    Cn1, v092
    .byte W06
    .byte    Bn0, v100
    .byte    N06, Cn1, v120
    .byte    N36, Cs2, v080
    .byte W18
    .byte    N06, En2, v100
    .byte W06
    .byte    Dn1, v120
    .byte W12
    .byte    Bn0, v100
    .byte    N06, Cn1, v120
    .byte    N48, Cs2, v080
    .byte W12
    .byte    N06, En2, v100
    .byte W12
    .byte    Dn1, v120
    .byte W06
    .byte    Bn0, v100
    .byte W12
    .byte    N02, Fs1, v040
    .byte W06
    .byte    N06, Cn1, v100
    .byte    N06, Cs1, v120
    .byte W06
    .byte    N02, Fs1, v060
    .byte W06
    .byte    N06, Bn0, v100
    .byte W18
    .byte    En2
    .byte W18
    .byte    Bn0
    .byte W12
    .byte    Fn1, v052
    .byte    N44, Bn1, v100
    .byte    N06, Ds2
    .byte W06
    .byte    Fn1, v052
    .byte W06
    .byte    Fn1, v060
    .byte W06
    .byte    N06
    .byte    N06, Fn2, v100
    .byte W06
    .byte    Fn1, v076
    .byte W06
    .byte    Fn1, v092
    .byte W06
    .byte    Fn1, v108
    .byte    N06, Fs2, v120
    .byte W06
    .byte    Fn1
    .byte W06
    .byte GOTO
    .word LABEL_080A74D6
    .byte FINE

Track_080A7A93:
    .byte KEYSH, 0
LABEL_080A7A95:
    .byte W02
    .byte VOICE, 1
    .byte W02
    .byte VOL  , 113
    .byte W02
    .byte PAN  , 64
    .byte W02
    .byte W02
    .byte XCMD , xIECV, 40
    .byte W02
    .byte W02
    .byte    AnM2, v003
    .byte W02
    .byte BENDR, 12
    .byte W80
    .byte W96
    .byte W96
    .byte W96
    .byte W96
    .byte W96
    .byte W96
    .byte W96
    .byte    N06, Fn1, v120
    .byte W06
    .byte    Fn1, v080
    .byte W06
    .byte    Fn1, v060
    .byte W06
    .byte    Fn1, v120
    .byte W06
    .byte    Fn1, v080
    .byte W06
    .byte    Fn1, v060
    .byte W06
    .byte    Cn1, v120
    .byte W06
    .byte    Cn1, v100
    .byte W06
    .byte    Cn1, v080
    .byte W06
    .byte    Cn1, v060
    .byte W06
    .byte    Cn1, v040
    .byte W06
    .byte    Cn1, v032
    .byte W06
    .byte    Cn1, v020
    .byte W06
    .byte    Cn1, v012
    .byte W18
    .byte W96
    .byte    Cs1, v120
    .byte W06
    .byte    Cs1, v080
    .byte W06
    .byte    Cs1, v060
    .byte W06
    .byte    Cs1, v120
    .byte W06
    .byte    Cs1, v080
    .byte W06
    .byte    Cs1, v060
    .byte W06
    .byte    Gs1, v120
    .byte W06
    .byte    Gs1, v100
    .byte W06
    .byte    Gs1, v080
    .byte W06
    .byte    Gs1, v060
    .byte W06
    .byte    Gs1, v040
    .byte W06
    .byte    Gs1, v032
    .byte W06
    .byte    Gs1, v020
    .byte W06
    .byte    Gs1, v012
    .byte W18
    .byte W96
    .byte    Ds1, v120
    .byte W06
    .byte    Ds1, v080
    .byte W06
    .byte    Ds1, v060
    .byte W06
    .byte    Ds1, v120
    .byte W06
    .byte    Ds1, v080
    .byte W06
    .byte    Ds1, v060
    .byte W06
    .byte    As1, v120
    .byte W06
    .byte    As1, v100
    .byte W06
    .byte    As1, v080
    .byte W06
    .byte    As1, v060
    .byte W06
    .byte    As1, v040
    .byte W06
    .byte    As1, v032
    .byte W06
    .byte    As1, v020
    .byte W06
    .byte    As1, v012
    .byte W18
    .byte W96
    .byte    Fs1, v120
    .byte W06
    .byte    Fs1, v080
    .byte W06
    .byte    Fs1, v060
    .byte W06
    .byte    Fs1, v120
    .byte W06
    .byte    Fs1, v080
    .byte W06
    .byte    Fs1, v060
    .byte W06
    .byte    Cs1, v120
    .byte W06
    .byte    Cs1, v100
    .byte W06
    .byte    Cs1, v080
    .byte W06
    .byte    Cs1, v060
    .byte W06
    .byte    Cs1, v040
    .byte W06
    .byte    Cs1, v032
    .byte W06
    .byte    Cs1, v020
    .byte W06
    .byte    Cs1, v012
    .byte W18
    .byte W96
LABEL_080A7B5F:
    .byte    N06, Cn1, v120
    .byte W06
    .byte    Cn1, v080
    .byte W06
    .byte    Cn1, v060
    .byte W06
    .byte    Cn1, v120
    .byte W06
    .byte    Cn1, v080
    .byte W06
    .byte    Cn1, v060
    .byte W06
    .byte    Cn1, v120
    .byte W06
    .byte    Cn1, v100
    .byte W06
    .byte    Cn1, v080
    .byte W06
    .byte    Cn1, v060
    .byte W06
    .byte    Cn1, v040
    .byte W06
    .byte    Cn1, v032
    .byte W06
    .byte    Cn1, v020
    .byte W06
    .byte    Cn1, v012
    .byte W18
    .byte PEND
    .byte W72
    .byte    N21, Cs1, v100
    .byte W24
    .byte PATT
    .word LABEL_080A7B5F
    .byte W48
    .byte    N16, Ds1, v100
    .byte W18
    .byte    Cs1
    .byte W18
    .byte    N10, Ds1
    .byte W12
    .byte PATT
    .word LABEL_080A7B5F
    .byte VOL  , 37
    .byte W10
    .byte    N04, As4, v100
    .byte W06
    .byte    Cn5
    .byte W06
    .byte    Cn5, v040
    .byte W06
    .byte    Gn4, v100
    .byte W06
    .byte    As4
    .byte W06
    .byte    As4, v040
    .byte W06
    .byte    Fn4, v100
    .byte W06
    .byte    Gn4
    .byte W06
    .byte    Gn4, v040
    .byte W06
    .byte    Ds4, v100
    .byte W06
    .byte    N02, Fn4
    .byte W02
    .byte VOL  , 113
    .byte    N21, Cs1
    .byte W24
    .byte PATT
    .word LABEL_080A7B5F
    .byte VOL  , 37
    .byte W10
    .byte    N04, As4, v100
    .byte W06
    .byte    Cn5
    .byte W06
    .byte    Cn5, v040
    .byte W06
    .byte    Gn4, v100
    .byte W06
    .byte    As4
    .byte W06
    .byte    As4, v040
    .byte W06
    .byte    Ds5, v100
    .byte W06
    .byte    Fn5
    .byte W06
    .byte    Fn5, v040
    .byte W06
    .byte    Cs5, v100
    .byte W06
    .byte    Ds5
    .byte W06
    .byte    Ds5, v040
    .byte W06
    .byte    As4, v100
    .byte W06
    .byte    Cs5
    .byte W06
    .byte    N02, Cs5, v040
    .byte W02
    .byte GOTO
    .word LABEL_080A7A95
    .byte FINE

Track_080A7C03:
    .byte KEYSH, 0
LABEL_080A7C05:
    .byte VOICE, 22
    .byte VOL  , 113
    .byte PAN  , 64
    .byte XCMD , xIECV, 40, xIECL, 3
    .byte BENDR, 12
    .byte LFOS , 28
    .byte LFODL, 14
    .byte MOD  , 3
    .byte MODT , 0
    .byte TIE, Cn3, v120
    .byte W96
    .byte W92
    .byte W03
    .byte EOT
    .byte W01
    .byte TIE, Gs2
    .byte W96
    .byte W92
    .byte W03
    .byte EOT
    .byte W01
    .byte TIE, As2
    .byte W96
    .byte W92
    .byte W03
    .byte EOT
    .byte W01
    .byte TIE, Cs3
    .byte W96
    .byte W92
    .byte W03
    .byte EOT
    .byte W01
    .byte TIE, Cn3
    .byte W96
    .byte W92
    .byte W03
    .byte EOT
    .byte W01
    .byte TIE, Gs2
    .byte W96
    .byte W92
    .byte W03
    .byte EOT
    .byte W01
    .byte TIE, As2
    .byte W96
    .byte W92
    .byte W03
    .byte EOT
    .byte W01
    .byte TIE, Cs3
    .byte W96
    .byte W78
    .byte BEND , 70
    .byte W06
    .byte    Ds4
    .byte W06
    .byte    An4
    .byte W06
    .byte EOT
    .byte VOL  , 120
    .byte BEND , 64
    .byte TIE, Fn3
    .byte W54
    .byte VOL  , 116
    .byte W06
    .byte    Ds7
    .byte W06
    .byte    Bn6
    .byte W06
    .byte    Fs6
    .byte W06
    .byte    Dn6
    .byte W06
    .byte    As5
    .byte W06
    .byte    Fn5
    .byte W06
    .byte    Cs5
    .byte W06
    .byte    An4
    .byte W06
    .byte    En4
    .byte W06
    .byte    Cn4
    .byte W06
    .byte    Gs3
    .byte W06
    .byte    Ds3
    .byte W06
    .byte    Bn2
    .byte W06
    .byte    Fs2
    .byte W06
    .byte    Ds2
    .byte W06
    .byte    As1
    .byte W06
    .byte    Fn1
    .byte W06
    .byte    Cs1
    .byte W06
    .byte    An0
    .byte W06
    .byte    Fn0
    .byte W06
    .byte    Cn0
    .byte W06
    .byte    GnM1
    .byte W05
    .byte EOT
    .byte W01
    .byte VOL  , 18
    .byte W96
    .byte W96
    .byte W96
    .byte W96
    .byte W96
    .byte W96
    .byte GOTO
    .word LABEL_080A7C05
    .byte FINE

Track_080A7C9E:
    .byte KEYSH, 0
LABEL_080A7CA0:
    .byte W02
    .byte VOICE, 15
    .byte W02
    .byte VOL  , 75
    .byte W02
    .byte PAN  , 64
    .byte W02
    .byte W02
    .byte XCMD , xIECV, 40
    .byte W02
    .byte W02
    .byte    AnM2, v003
    .byte W02
    .byte BENDR, 12
    .byte W02
    .byte LFOS , 28
    .byte W02
    .byte LFODL, 14
    .byte W02
    .byte MOD  , 4
    .byte W02
    .byte MODT , 0
    .byte W48
    .byte PAN  , 127
    .byte    N03, Fn3, v100
    .byte W06
    .byte    Fn4
    .byte W06
    .byte    Fn5
    .byte W06
    .byte    Fn4
    .byte W06
LABEL_080A7CCE:
    .byte W72
    .byte PAN  , 0
    .byte    N03, Fn3, v100
    .byte W06
    .byte    Fn4
    .byte W06
    .byte    Fn5
    .byte W06
    .byte    Fn4
    .byte W06
    .byte PEND
LABEL_080A7CDC:
    .byte W72
    .byte PAN  , 127
    .byte    N03, Fn3, v100
    .byte W06
    .byte    Fn4
    .byte W06
    .byte    Fn5
    .byte W06
    .byte    Fn4
    .byte W06
    .byte PEND
    .byte PATT
    .word LABEL_080A7CCE
    .byte PATT
    .word LABEL_080A7CDC
    .byte PATT
    .word LABEL_080A7CCE
    .byte PATT
    .word LABEL_080A7CDC
    .byte PATT
    .word LABEL_080A7CCE
    .byte PATT
    .word LABEL_080A7CDC
    .byte PATT
    .word LABEL_080A7CCE
    .byte PATT
    .word LABEL_080A7CDC
    .byte PATT
    .word LABEL_080A7CCE
    .byte PATT
    .word LABEL_080A7CDC
    .byte PATT
    .word LABEL_080A7CCE
    .byte PATT
    .word LABEL_080A7CDC
    .byte PATT
    .word LABEL_080A7CCE
    .byte PAN  , 64
    .byte    N04, Cn5, v100
    .byte W06
    .byte    Gn5
    .byte W06
    .byte    As5
    .byte W06
    .byte    Cn6
    .byte W06
    .byte    Cn6, v040
    .byte W12
    .byte    Cn6, v100
    .byte W06
    .byte    Cn6, v040
    .byte W12
    .byte    Cn6, v100
    .byte W06
    .byte    Cn6, v040
    .byte W12
    .byte    Cn6, v100
    .byte W06
    .byte    Cn6, v040
    .byte W18
    .byte VOL  , 47
    .byte W10
    .byte    N04, As5, v100
    .byte W06
    .byte    Cn6
    .byte W12
    .byte    Gn5
    .byte W06
    .byte    As5
    .byte W12
    .byte    Fn5
    .byte W06
    .byte    Gn5
    .byte W12
    .byte    Ds5
    .byte W06
    .byte    Fn5
    .byte W12
    .byte    Cs5
    .byte W06
    .byte    Ds5
    .byte W08
    .byte W10
    .byte    Cn5
    .byte W06
    .byte    Gn5
    .byte W06
    .byte    As5
    .byte W06
    .byte    Cn6
    .byte W18
    .byte    N04
    .byte W18
    .byte    N04
    .byte W18
    .byte    N04
    .byte W14
    .byte W10
    .byte    As5
    .byte W06
    .byte    Cn6
    .byte W12
    .byte    Gn5
    .byte W06
    .byte    As5
    .byte W12
    .byte    Ds6
    .byte W06
    .byte    Fn6
    .byte W12
    .byte    Cs6
    .byte W06
    .byte    Ds6
    .byte W12
    .byte    As5
    .byte W06
    .byte    Cs6
    .byte W08
    .byte VOL  , 94
    .byte    N04, Gn4
    .byte W06
    .byte    Dn5
    .byte W06
    .byte    Fn5
    .byte W06
    .byte    Gn5
    .byte W06
    .byte    Gn5, v040
    .byte W12
    .byte    Gn5, v100
    .byte W06
    .byte    Gn5, v040
    .byte W12
    .byte    Gn5, v100
    .byte W06
    .byte    Gn5, v040
    .byte W12
    .byte    Gn5, v100
    .byte W06
    .byte    Gn5, v040
    .byte W18
    .byte    Fn5, v100
    .byte W06
    .byte    Gn5
    .byte W06
    .byte    Gn5, v040
    .byte W06
    .byte    Dn5, v100
    .byte W06
    .byte    Fn5
    .byte W06
    .byte    Fn5, v040
    .byte W06
    .byte    Cn5, v100
    .byte W06
    .byte    Dn5
    .byte W06
    .byte    Dn5, v040
    .byte W06
    .byte    As4, v100
    .byte W06
    .byte    Cn5
    .byte W06
    .byte    Cn5, v040
    .byte W06
    .byte    Gs4, v100
    .byte W06
    .byte    As4
    .byte W06
    .byte    As4, v040
    .byte W12
    .byte    Gn4, v100
    .byte W06
    .byte    Dn5
    .byte W06
    .byte    Fn5
    .byte W06
    .byte    Gn5
    .byte W06
    .byte    Gn5, v040
    .byte W12
    .byte    Gn5, v100
    .byte W06
    .byte    Gn5, v040
    .byte W12
    .byte    Gn5, v100
    .byte W06
    .byte    Gn5, v040
    .byte W12
    .byte    Gn5, v100
    .byte W06
    .byte    Gn5, v040
    .byte W18
    .byte    Fn5, v100
    .byte W06
    .byte    Gn5
    .byte W06
    .byte    Gn5, v040
    .byte W06
    .byte    Dn5, v100
    .byte W06
    .byte    Fn5
    .byte W06
    .byte    Fn5, v040
    .byte W06
    .byte    As5, v100
    .byte W06
    .byte    Cn6
    .byte W06
    .byte    Cn6, v040
    .byte W06
    .byte    Gs5, v100
    .byte W06
    .byte    As5
    .byte W06
    .byte    As5, v040
    .byte W06
    .byte    Fn5, v100
    .byte W06
    .byte    Gs5
    .byte W06
    .byte    Gs5, v040
    .byte W12
    .byte GOTO
    .word LABEL_080A7CA0
    .byte FINE

Track_080A7E1D:
    .byte KEYSH, 0
LABEL_080A7E1F:
    .byte W02
    .byte VOICE, 5
    .byte W02
    .byte VOL  , 120
    .byte W02
    .byte PAN  , 64
    .byte W02
    .byte W02
    .byte XCMD , xIECV, 40
    .byte W02
    .byte W02
    .byte    AnM2, v003
    .byte W02
    .byte BENDR, 12
    .byte W02
    .byte LFOS , 31
    .byte W02
    .byte LFODL, 14
    .byte W02
    .byte MOD  , 5
    .byte W02
    .byte MODT , 0
    .byte W72
    .byte W96
    .byte W96
    .byte W96
    .byte W96
    .byte W96
    .byte W96
    .byte W96
    .byte TIE, Cn5, v056
    .byte W96
    .byte W92
    .byte W03
    .byte EOT
    .byte W01
    .byte TIE, Fn4
    .byte W96
    .byte W72
    .byte EOT
    .byte    N24
    .byte W24
    .byte TIE, Gn4
    .byte W96
    .byte W92
    .byte W03
    .byte EOT
    .byte W01
    .byte TIE, Gs4
    .byte W96
    .byte W48
    .byte EOT
    .byte    N36, Ds5
    .byte W36
    .byte    N06, Dn5
    .byte W06
    .byte    Cs5
    .byte W06
    .byte VOL  , 120
    .byte    N92, Cn5, v100
    .byte W30
    .byte VOL  , 112
    .byte W06
    .byte    Gn6
    .byte W06
    .byte    Bn5
    .byte W06
    .byte    Dn5
    .byte W06
    .byte    Fs4
    .byte W06
    .byte    An3
    .byte W06
    .byte    Cs3
    .byte W06
    .byte    En2
    .byte W06
    .byte    Gs1
    .byte W06
    .byte    Bn0
    .byte W06
    .byte    Ds0
    .byte W06
    .byte VOICE, 6
    .byte VOL  , 94
    .byte    N04, As4
    .byte W06
    .byte    Cn5
    .byte W06
    .byte    Cn5, v032
    .byte W06
    .byte    Gn4, v100
    .byte W06
    .byte    As4
    .byte W06
    .byte    As4, v032
    .byte W06
    .byte    Fn4, v100
    .byte W06
    .byte    Gn4
    .byte W06
    .byte    Gn4, v032
    .byte W06
    .byte    Ds4, v100
    .byte W06
    .byte    Fn4
    .byte W06
    .byte    Fn4, v032
    .byte W06
    .byte    Cs4, v100
    .byte W06
    .byte    Ds4
    .byte W06
    .byte    Ds4, v032
    .byte W12
LABEL_080A7EB4:
    .byte    N04, Cn4, v100
    .byte W06
    .byte    Gn4
    .byte W06
    .byte    As4
    .byte W06
    .byte    Cn5
    .byte W06
    .byte    Cn5, v032
    .byte W12
    .byte    Cn5, v100
    .byte W06
    .byte    Cn5, v032
    .byte W12
    .byte    Cn5, v100
    .byte W06
    .byte    Cn5, v032
    .byte W12
    .byte    Cn5, v100
    .byte W06
    .byte    Cn5, v032
    .byte W18
    .byte PEND
LABEL_080A7ED4:
    .byte    N04, As4, v100
    .byte W06
    .byte    Cn5
    .byte W06
    .byte    Cn5, v032
    .byte W06
    .byte    Gn4, v100
    .byte W06
    .byte    As4
    .byte W06
    .byte    As4, v032
    .byte W06
    .byte    Ds5, v100
    .byte W06
    .byte    Fn5
    .byte W06
    .byte    Fn5, v032
    .byte W06
    .byte    Cs5, v100
    .byte W06
    .byte    Ds5
    .byte W06
    .byte    Ds5, v032
    .byte W06
    .byte    As4, v100
    .byte W06
    .byte    Cs5
    .byte W06
    .byte    Cs5, v032
    .byte W12
    .byte PEND
    .byte PATT
    .word LABEL_080A7EB4
    .byte    N04, As4, v100
    .byte W06
    .byte    Cn5
    .byte W06
    .byte    Cn5, v032
    .byte W06
    .byte    Gn4, v100
    .byte W06
    .byte    As4
    .byte W06
    .byte    As4, v032
    .byte W06
    .byte    Fn4, v100
    .byte W06
    .byte    Gn4
    .byte W06
    .byte    Gn4, v032
    .byte W06
    .byte    Ds4, v100
    .byte W06
    .byte    Fn4
    .byte W06
    .byte    Fn4, v032
    .byte W06
    .byte    Cs4, v100
    .byte W06
    .byte    Ds4
    .byte W06
    .byte    Ds4, v032
    .byte W12
    .byte PATT
    .word LABEL_080A7EB4
    .byte PATT
    .word LABEL_080A7ED4
    .byte GOTO
    .word LABEL_080A7E1F
    .byte FINE

    .align 2, 0

global_label SongHeader_080A7F3C
    .byte 5
    .byte 0
    .byte 0
    .byte 173
    .word 0x809F668
    .word Track_080A74D4
    .word Track_080A7A93
    .word Track_080A7C03
    .word Track_080A7C9E
    .word Track_080A7E1D
