Track_080A472C:
    .byte KEYSH, 0
LABEL_080A472E:
    .byte TEMPO, 65
    .byte VOICE, 0
    .byte VOL  , 94
    .byte PAN  , 64
    .byte XCMD , xIECV, 20, xIECL, 2
    .byte    N06, Bn0, v112
    .byte    N36, Cs2, v060
    .byte W24
    .byte    N06, Cs1, v127
    .byte W12
    .byte    N02, Fs1, v060
    .byte W12
    .byte    N06, Bn0, v100
    .byte    N02, Fs1, v072
    .byte W12
    .byte    Fs1, v060
    .byte W12
    .byte    N06, Cs1, v127
    .byte    N02, Fs1, v072
    .byte W12
    .byte    N06, Bn0, v080
    .byte    N02, Fs1, v060
    .byte W12
    .byte    N06, Bn0, v112
    .byte    N02, Fs1, v072
    .byte W12
    .byte    Fs1, v060
    .byte W12
    .byte    N06, Cs1, v127
    .byte    N02, Fs1, v072
    .byte W12
    .byte    Fs1, v060
    .byte W12
    .byte    N06, Bn0, v112
    .byte    N02, Fs1, v072
    .byte W12
    .byte    N06, Bn0, v092
    .byte    N02, Fs1, v060
    .byte W12
    .byte    N06, Cs1, v127
    .byte    N02, Fs1, v072
    .byte W12
    .byte    N06, Cs1, v080
    .byte    N12, As1, v060
    .byte W12
    .byte    N06, Bn0, v112
    .byte    N02, Fs1, v072
    .byte W12
    .byte    Fs1, v060
    .byte W12
    .byte    N06, Cs1, v127
    .byte    N02, Fs1, v072
    .byte W12
    .byte    Fs1, v060
    .byte W12
    .byte    N06, Bn0, v100
    .byte    N02, Fs1, v072
    .byte W12
    .byte    Fs1, v060
    .byte W12
    .byte    N06, Cs1, v127
    .byte    N02, Fs1, v072
    .byte W12
    .byte    N06, Bn0, v080
    .byte    N02, Fs1, v060
    .byte W12
    .byte    N06, Bn0, v112
    .byte    N02, Fs1, v072
    .byte W12
    .byte    Fs1, v060
    .byte W12
    .byte    N06, Cs1, v127
    .byte    N02, Fs1, v072
    .byte W12
    .byte    Fs1, v060
    .byte W12
    .byte    N06, Bn0, v112
    .byte    N02, Fs1, v072
    .byte W12
    .byte    Fs1, v060
    .byte    N12, An1, v127
    .byte W12
    .byte    N02, Fs1, v072
    .byte    N12, Gn1, v127
    .byte W06
    .byte    N01, Gs1, v008
    .byte W06
    .byte    N06, Bn0, v080
    .byte    N12, As1, v060
    .byte W12
    .byte GOTO
    .word LABEL_080A472E
    .byte FINE

Track_080A47F7:
    .byte KEYSH, 0
LABEL_080A47F9:
    .byte VOICE, 15
    .byte VOL  , 120
    .byte PAN  , 64
    .byte XCMD , xIECV, 40, xIECL, 3
    .byte    N06, As2, v100
    .byte W06
    .byte    As2, v060
    .byte W06
    .byte    As2, v100
    .byte W06
    .byte    As2, v060
    .byte W06
    .byte    As3, v100
    .byte W06
    .byte    As3, v060
    .byte W06
    .byte    As2, v100
    .byte W06
    .byte    As2, v060
    .byte W06
    .byte    Ds3, v100
    .byte W06
    .byte    Ds3, v060
    .byte W06
    .byte    Ds3, v100
    .byte W06
    .byte    Ds3, v060
    .byte W06
    .byte    Ds4, v100
    .byte W06
    .byte    Ds4, v060
    .byte W06
    .byte    Ds3, v100
    .byte W06
    .byte    Ds3, v060
    .byte W06
    .byte    Cn3, v100
    .byte W06
    .byte    Cn3, v060
    .byte W06
    .byte    Cn3, v100
    .byte W06
    .byte    Cn3, v060
    .byte W06
    .byte    Cn4, v100
    .byte W06
    .byte    Cn4, v060
    .byte W06
    .byte    Cn3, v100
    .byte W06
    .byte    Cn3, v060
    .byte W06
    .byte    Fn3, v100
    .byte W06
    .byte    Fn3, v060
    .byte W06
    .byte    Fn2, v100
    .byte W06
    .byte    Fn2, v060
    .byte W06
    .byte    Gn2, v100
    .byte W06
    .byte    Gn2, v060
    .byte W06
    .byte    An2, v100
    .byte W06
    .byte    An2, v060
    .byte W06
    .byte    As2, v100
    .byte W06
    .byte    As2, v060
    .byte W06
    .byte    As2, v100
    .byte W06
    .byte    As2, v060
    .byte W06
    .byte    As3, v100
    .byte W06
    .byte    As3, v060
    .byte W06
    .byte    As2, v100
    .byte W06
    .byte    As2, v060
    .byte W06
    .byte    Ds3, v100
    .byte W06
    .byte    Ds3, v060
    .byte W06
    .byte    Ds3, v100
    .byte W06
    .byte    Ds3, v060
    .byte W06
    .byte    Ds4, v100
    .byte W06
    .byte    Ds4, v060
    .byte W06
    .byte    Ds3, v100
    .byte W06
    .byte    Ds3, v060
    .byte W06
    .byte    Gs2, v100
    .byte W06
    .byte    Gs2, v060
    .byte W06
    .byte    Gs2, v100
    .byte W06
    .byte    Gs2, v060
    .byte W06
    .byte    Gs3, v100
    .byte W06
    .byte    Gs3, v060
    .byte W06
    .byte    Gs2, v100
    .byte W06
    .byte    Gs2, v060
    .byte W06
    .byte    Cs3, v100
    .byte W06
    .byte    Cs3, v060
    .byte W06
    .byte    Cs3, v100
    .byte W06
    .byte    Cs3, v060
    .byte W06
    .byte    Cs4, v100
    .byte W06
    .byte    Cs4, v060
    .byte W06
    .byte    Cs3, v100
    .byte W06
    .byte    Cs3, v060
    .byte W06
    .byte GOTO
    .word LABEL_080A47F9
    .byte FINE

Track_080A48CB:
    .byte KEYSH, 0
LABEL_080A48CD:
    .byte VOICE, 5
    .byte VOL  , 85
    .byte PAN  , 64
    .byte XCMD , xIECV, 40, xIECL, 3
    .byte    N06, Gs4, v100
    .byte W06
    .byte    Gs4, v040
    .byte W06
    .byte    As3, v100
    .byte W06
    .byte    As3, v040
    .byte W06
    .byte    Cs4, v100
    .byte W06
    .byte    Cs4, v040
    .byte W06
    .byte    Gs4, v100
    .byte W06
    .byte    Gs4, v040
    .byte W06
    .byte    Gn4, v100
    .byte W06
    .byte    Gn4, v040
    .byte W06
    .byte    Gn4, v020
    .byte W06
    .byte    Gn4, v008
    .byte W06
    .byte    Fn4, v100
    .byte W06
    .byte    Fn4, v040
    .byte W06
    .byte    Fn4, v020
    .byte W06
    .byte    Fn4, v008
    .byte W06
    .byte    Ds4, v100
    .byte W06
    .byte    Ds4, v040
    .byte W06
    .byte    Cn4, v100
    .byte W06
    .byte    Cn4, v040
    .byte W06
    .byte    Ds4, v100
    .byte W06
    .byte    Ds4, v040
    .byte W06
    .byte    Fs4, v100
    .byte W06
    .byte    Fs4, v040
    .byte W06
    .byte    Fn4, v100
    .byte W06
    .byte    Fn4, v040
    .byte W06
    .byte    Fn4, v020
    .byte W06
    .byte    Fn4, v008
    .byte W06
    .byte    Ds4, v100
    .byte W06
    .byte    Ds4, v040
    .byte W06
    .byte    Ds4, v020
    .byte W06
    .byte    Ds4, v008
    .byte W06
    .byte    Cs4, v100
    .byte W06
    .byte    Cs4, v040
    .byte W06
    .byte    As3, v100
    .byte W06
    .byte    As3, v040
    .byte W06
    .byte    Cs4, v100
    .byte W06
    .byte    Cs4, v040
    .byte W06
    .byte    Gs4, v100
    .byte W06
    .byte    Gs4, v040
    .byte W06
    .byte    Gn4, v100
    .byte W06
    .byte    Gn4, v040
    .byte W06
    .byte    Gn4, v020
    .byte W06
    .byte    Gn4, v008
    .byte W06
    .byte    As4, v100
    .byte W06
    .byte    As4, v040
    .byte W06
    .byte    As4, v020
    .byte W06
    .byte    As4, v008
    .byte W06
    .byte    As4, v100
    .byte W06
    .byte    As4, v040
    .byte W06
    .byte    Ds4, v100
    .byte W06
    .byte    Ds4, v040
    .byte W06
    .byte    Fs4, v100
    .byte W06
    .byte    Fs4, v040
    .byte W06
    .byte    As4, v100
    .byte W06
    .byte    As4, v040
    .byte W06
    .byte    Gs4, v100
    .byte W06
    .byte    Gs4, v040
    .byte W06
    .byte    Gs4, v020
    .byte W06
    .byte    Gs4, v008
    .byte W06
    .byte    Fn4, v100
    .byte W06
    .byte    Fn4, v040
    .byte W06
    .byte    Fs4, v100
    .byte W06
    .byte    Fs4, v040
    .byte W06
    .byte GOTO
    .word LABEL_080A48CD
    .byte FINE

Track_080A499F:
    .byte KEYSH, 0
LABEL_080A49A1:
    .byte VOICE, 1
    .byte VOL  , 85
    .byte PAN  , 64
    .byte XCMD , xIECV, 40, xIECL, 3
    .byte    N06, As2, v100
    .byte W06
    .byte    As2, v032
    .byte W06
    .byte    Cs3, v100
    .byte W06
    .byte    Cs3, v032
    .byte W06
    .byte    Gs3, v100
    .byte W06
    .byte    Gs3, v032
    .byte W06
    .byte    Cs3, v100
    .byte W06
    .byte    Cs3, v032
    .byte W06
    .byte    Ds3, v100
    .byte W06
    .byte    Ds3, v032
    .byte W06
    .byte    Gn3, v100
    .byte W06
    .byte    Gn3, v032
    .byte W06
    .byte    As3, v100
    .byte W06
    .byte    As3, v032
    .byte W06
    .byte    Ds3, v100
    .byte W06
    .byte    Ds3, v032
    .byte W06
    .byte    Cn3, v100
    .byte W06
    .byte    Cn3, v032
    .byte W06
    .byte    Ds3, v100
    .byte W06
    .byte    Ds3, v032
    .byte W06
    .byte    As3, v100
    .byte W06
    .byte    As3, v032
    .byte W06
    .byte    Ds3, v100
    .byte W06
    .byte    Ds3, v032
    .byte W06
    .byte    An3, v100
    .byte W06
    .byte    An3, v032
    .byte W06
    .byte    Cn3, v100
    .byte W06
    .byte    Cn3, v032
    .byte W06
    .byte    Fn3, v100
    .byte W06
    .byte    Fn3, v032
    .byte W06
    .byte    An3, v100
    .byte W06
    .byte    An3, v032
    .byte W06
    .byte    As2, v100
    .byte W06
    .byte    As2, v032
    .byte W06
    .byte    Cs3, v100
    .byte W06
    .byte    Cs3, v032
    .byte W06
    .byte    Gs3, v100
    .byte W06
    .byte    Gs3, v032
    .byte W06
    .byte    Cs3, v100
    .byte W06
    .byte    Cs3, v032
    .byte W06
    .byte    Ds3, v100
    .byte W06
    .byte    Ds3, v032
    .byte W06
    .byte    Cs3, v100
    .byte W06
    .byte    Cs3, v032
    .byte W06
    .byte    Gn3, v100
    .byte W06
    .byte    Gn3, v032
    .byte W06
    .byte    Ds3, v100
    .byte W06
    .byte    Ds3, v032
    .byte W06
    .byte    Bn2, v100
    .byte W06
    .byte    Bn2, v032
    .byte W06
    .byte    Fs3, v100
    .byte W06
    .byte    Fs3, v032
    .byte W06
    .byte    As3, v100
    .byte W06
    .byte    As3, v032
    .byte W06
    .byte    Ds3, v100
    .byte W06
    .byte    Ds3, v032
    .byte W06
    .byte    Ds3, v100
    .byte W06
    .byte    Ds3, v032
    .byte W06
    .byte    Bn2, v100
    .byte W06
    .byte    Bn2, v032
    .byte W06
    .byte    As3, v100
    .byte W06
    .byte    As3, v032
    .byte W06
    .byte    Fn3, v100
    .byte W06
    .byte    Fn3, v032
    .byte W06
    .byte GOTO
    .word LABEL_080A49A1
    .byte FINE

Track_080A4A73:
    .byte KEYSH, 0
LABEL_080A4A75:
    .byte VOL  , 94
    .byte W04
    .byte PAN  , 64
    .byte W04
    .byte VOICE, 18
    .byte W04
    .byte    N12, Dn2, v100
    .byte W12
    .byte    Ds2
    .byte W12
    .byte    En2
    .byte W24
    .byte    Fn2
    .byte W12
    .byte    Fs2
    .byte W12
    .byte    Gn2
    .byte W12
LABEL_080A4A8C:
    .byte W12
    .byte    N12, Dn2, v100
    .byte W12
    .byte    Ds2
    .byte W12
    .byte    En2
    .byte W24
    .byte    Fn2
    .byte W12
    .byte    Fs2
    .byte W12
    .byte    Gn2
    .byte W12
    .byte PEND
    .byte PATT
    .word LABEL_080A4A8C
    .byte W12
    .byte    N12, Dn2, v100
    .byte W12
    .byte    Ds2
    .byte W12
    .byte    En2
    .byte W48
    .byte    Fs2
    .byte W12
    .byte GOTO
    .word LABEL_080A4A75
    .byte FINE

    .align 2, 0

global_label SongHeader_080A4AB4
    .byte 5
    .byte 0
    .byte 0
    .byte 163
    .word 0x809F1D0
    .word Track_080A472C
    .word Track_080A47F7
    .word Track_080A48CB
    .word Track_080A499F
    .word Track_080A4A73
