Track_080A4AD0:
    .byte KEYSH, 0
LABEL_080A4AD2:
    .byte TEMPO, 75
    .byte VOICE, 0
    .byte VOL  , 120
    .byte PAN  , 64
    .byte XCMD , xIECL, 0, xIECL, 0
    .byte BENDR, 12
    .byte LFOS , 0
    .byte LFODL, 0
    .byte MODT , 0
    .byte MOD  , 4
    .byte PRIO , 20
    .byte    N06, Bn0, v127
    .byte    N36, Cs2, v060
    .byte W06
    .byte    N06, Bn0, v032
    .byte W06
    .byte    Bn0, v127
    .byte W06
    .byte    Bn0, v032
    .byte W18
    .byte    N02, Fs1, v060
    .byte W06
    .byte    Fs1, v032
    .byte W06
    .byte    Fs1, v060
    .byte W06
    .byte    Fs1, v032
    .byte W06
    .byte    Fs1, v060
    .byte W06
    .byte    Fs1, v032
    .byte W06
    .byte    Fs1, v060
    .byte W06
    .byte    Fs1, v032
    .byte W06
    .byte    Fs1, v060
    .byte W06
    .byte    Fs1, v032
    .byte W06
LABEL_080A4B1B:
    .byte    N02, Fs1, v060
    .byte W06
    .byte    Fs1, v032
    .byte W06
    .byte    Fs1, v060
    .byte W06
    .byte    Fs1, v032
    .byte W06
    .byte    Fs1, v060
    .byte W06
    .byte    Fs1, v032
    .byte W06
    .byte    Fs1, v060
    .byte W06
    .byte    Fs1, v032
    .byte W06
    .byte    Fs1, v060
    .byte W06
    .byte    Fs1, v032
    .byte W06
    .byte    Fs1, v060
    .byte W06
    .byte    Fs1, v032
    .byte W06
    .byte    Fs1, v060
    .byte W06
    .byte    Fs1, v032
    .byte W06
    .byte    Fs1, v060
    .byte W06
    .byte    Fs1, v032
    .byte W06
    .byte PEND
    .byte    N06, Bn0, v127
    .byte    N02, Fs1, v060
    .byte W06
    .byte    N06, Bn0, v032
    .byte    N02, Fs1, v060
    .byte W06
    .byte    N06, Bn0, v127
    .byte    N02, Fs1, v032
    .byte W06
    .byte    N06, Bn0, v040
    .byte    N02, Fs1, v032
    .byte W06
    .byte    Fs1, v060
    .byte W06
    .byte    Fs1, v032
    .byte W06
    .byte    Fs1, v060
    .byte W06
    .byte    Fs1, v032
    .byte W06
    .byte    Fs1, v060
    .byte W06
    .byte    Fs1, v032
    .byte W06
    .byte    Fs1, v060
    .byte W06
    .byte    Fs1, v032
    .byte W06
    .byte    Fs1, v060
    .byte W06
    .byte    Fs1, v032
    .byte W06
    .byte    Fs1, v060
    .byte W06
    .byte    Fs1, v032
    .byte W06
    .byte PATT
    .word LABEL_080A4B1B
    .byte    N06, Bn0, v127
    .byte    N36, Cs2, v060
    .byte W06
    .byte    N06, Bn0, v040
    .byte W06
    .byte    Bn0, v127
    .byte W06
    .byte    Bn0, v040
    .byte W18
    .byte    N02, Fs1, v060
    .byte W06
    .byte    Fs1, v032
    .byte W06
    .byte    Fs1, v060
    .byte W06
    .byte    Fs1, v032
    .byte W06
    .byte    Fs1, v060
    .byte W06
    .byte    Fs1, v032
    .byte W06
    .byte    Fs1, v060
    .byte W06
    .byte    Fs1, v032
    .byte W06
    .byte    Fs1, v060
    .byte W06
    .byte    Fs1, v032
    .byte W06
    .byte PATT
    .word LABEL_080A4B1B
LABEL_080A4BC7:
    .byte    N06, Bn0, v127
    .byte    N02, Fs1, v060
    .byte W06
    .byte    N06, Bn0, v040
    .byte    N02, Fs1, v032
    .byte W06
    .byte    N06, Bn0, v127
    .byte    N02, Fs1, v060
    .byte W06
    .byte    N06, Bn0, v040
    .byte    N02, Fs1, v032
    .byte W06
    .byte    Fs1, v060
    .byte W06
    .byte    Fs1, v032
    .byte W06
    .byte    Fs1, v060
    .byte W06
    .byte    Fs1, v032
    .byte W06
    .byte    Fs1, v060
    .byte W06
    .byte    Fs1, v032
    .byte W06
    .byte    Fs1, v060
    .byte W06
    .byte    Fs1, v032
    .byte W06
    .byte    Fs1, v060
    .byte W06
    .byte    Fs1, v032
    .byte W06
    .byte    Fs1, v060
    .byte W06
    .byte    Fs1, v032
    .byte W06
    .byte PEND
    .byte PATT
    .word LABEL_080A4B1B
    .byte PATT
    .word LABEL_080A4BC7
    .byte    N02, Fs1, v060
    .byte W06
    .byte    Fs1, v032
    .byte W06
    .byte    Fs1, v060
    .byte W06
    .byte    Fs1, v032
    .byte W06
    .byte    Fs1, v060
    .byte W06
    .byte    Fs1, v032
    .byte W06
    .byte    Fs1, v060
    .byte W06
    .byte    Fs1, v032
    .byte W06
    .byte    N06, Fn1, v040
    .byte    N02, Fs1, v060
    .byte W06
    .byte    N06, Fn1, v052
    .byte    N42, Bn1, v072
    .byte W06
    .byte    N06, Fn1, v060
    .byte W06
    .byte    Fn1, v072
    .byte W06
    .byte    Fn1, v080
    .byte W06
    .byte    Fn1, v092
    .byte W06
    .byte    Fn1, v100
    .byte W06
    .byte    Fn1, v120
    .byte W06
    .byte GOTO
    .word LABEL_080A4AD2
    .byte FINE

Track_080A4C52:
    .byte KEYSH, 0
LABEL_080A4C54:
    .byte VOICE, 14
    .byte VOL  , 94
    .byte PAN  , 64
    .byte XCMD , xIECL, 0, xIECL, 0
    .byte BENDR, 12
    .byte LFOS , 0
    .byte LFODL, 0
    .byte MODT , 0
    .byte MOD  , 4
    .byte PRIO , 20
    .byte    N06, En2, v100
    .byte W06
    .byte    En2, v040
    .byte W06
    .byte    As2, v100
    .byte W06
    .byte    As2, v040
    .byte W06
    .byte    Dn3, v100
    .byte W06
    .byte    Dn3, v040
    .byte W06
    .byte    Gs3, v100
    .byte W06
    .byte    Gs3, v040
    .byte W06
    .byte    En2, v100
    .byte W06
    .byte    En2, v040
    .byte W06
    .byte    As2, v100
    .byte W06
    .byte    As2, v040
    .byte W06
    .byte    Dn3, v100
    .byte W06
    .byte    Dn3, v040
    .byte W06
    .byte    Gs3, v100
    .byte W06
    .byte    Gs3, v040
    .byte W06
LABEL_080A4C9C:
    .byte PAN  , 0
    .byte    N06, En2, v120
    .byte W06
    .byte    En2, v060
    .byte W06
    .byte    As2, v120
    .byte W06
    .byte    As2, v060
    .byte W06
    .byte    Dn3, v120
    .byte W06
    .byte    Dn3, v060
    .byte W06
    .byte    Gs3, v120
    .byte W06
    .byte    Gs3, v060
    .byte W06
    .byte PAN  , 127
    .byte    N06, En2, v120
    .byte W06
    .byte    En2, v060
    .byte W06
    .byte    As2, v120
    .byte W06
    .byte    As2, v060
    .byte W06
    .byte    Dn3, v120
    .byte W06
    .byte    Dn3, v060
    .byte W06
    .byte    Gs3, v120
    .byte W06
    .byte    Gs3, v060
    .byte W06
    .byte PEND
LABEL_080A4CD3:
    .byte PAN  , 64
    .byte    N06, En2, v100
    .byte W06
    .byte    En2, v040
    .byte W06
    .byte    As2, v100
    .byte W06
    .byte    As2, v040
    .byte W06
    .byte    Dn3, v100
    .byte W06
    .byte    Dn3, v040
    .byte W06
    .byte    Gs3, v100
    .byte W06
    .byte    Gs3, v040
    .byte W06
    .byte    En2, v100
    .byte W06
    .byte    En2, v040
    .byte W06
    .byte    As2, v100
    .byte W06
    .byte    As2, v040
    .byte W06
    .byte    Dn3, v100
    .byte W06
    .byte    Dn3, v040
    .byte W06
    .byte    Gs3, v100
    .byte W06
    .byte    Gs3, v040
    .byte W06
    .byte PEND
    .byte PATT
    .word LABEL_080A4C9C
    .byte PATT
    .word LABEL_080A4CD3
    .byte PATT
    .word LABEL_080A4C9C
    .byte PATT
    .word LABEL_080A4CD3
    .byte PATT
    .word LABEL_080A4C9C
    .byte PATT
    .word LABEL_080A4CD3
    .byte    N06, En2, v112
    .byte W06
    .byte    En2, v052
    .byte W06
    .byte    As2, v112
    .byte W06
    .byte    As2, v052
    .byte W06
    .byte    Dn3, v112
    .byte W06
    .byte    Dn3, v052
    .byte W06
    .byte    Gs3, v112
    .byte W06
    .byte    Gs3, v052
    .byte W06
    .byte    En3, v112
    .byte W06
    .byte    En3, v052
    .byte W06
    .byte    As3, v112
    .byte W06
    .byte    As3, v052
    .byte W06
    .byte    Dn4, v112
    .byte W06
    .byte    Dn4, v052
    .byte W06
    .byte    Gs4, v112
    .byte W06
    .byte    Gs4, v052
    .byte W06
    .byte GOTO
    .word LABEL_080A4C54
    .byte FINE

Track_080A4D5C:
    .byte KEYSH, 0
LABEL_080A4D5E:
    .byte W48
    .byte VOICE, 5
    .byte VOL  , 85
    .byte PAN  , 64
    .byte XCMD , xIECL, 0, xIECL, 0
    .byte BENDR, 12
    .byte LFOS , 28
    .byte LFODL, 14
    .byte MODT , 0
    .byte MOD  , 4
    .byte PRIO , 20
    .byte    N06, Gs4, v100
    .byte W06
    .byte    Gs4, v060
    .byte W06
    .byte    Gs4, v100
    .byte W06
    .byte    Gs4, v060
    .byte W06
    .byte    Gs4, v040
    .byte W06
    .byte    Gs4, v020
    .byte W18
LABEL_080A4D89:
    .byte    N06, Gn4, v100
    .byte W06
    .byte    Gn4, v060
    .byte W06
    .byte    Gn4, v100
    .byte W06
    .byte    Gn4, v060
    .byte W06
    .byte    Gn4, v040
    .byte W06
    .byte    Gn4, v020
    .byte W18
    .byte    Gs4, v100
    .byte W06
    .byte    Gs4, v060
    .byte W06
    .byte    Gs4, v100
    .byte W06
    .byte    Gs4, v060
    .byte W06
    .byte    Gs4, v040
    .byte W06
    .byte    Gs4, v020
    .byte W18
    .byte PEND
LABEL_080A4DAF:
    .byte    N06, Gs4, v012
    .byte W06
    .byte    Gs4, v008
    .byte W42
    .byte    En4, v100
    .byte W06
    .byte    En4, v060
    .byte W06
    .byte    En4, v100
    .byte W06
    .byte    En4, v060
    .byte W06
    .byte    En4, v040
    .byte W06
    .byte    En4, v020
    .byte W18
    .byte PEND
    .byte    Fn4, v100
    .byte W06
    .byte    Fn4, v060
    .byte W06
    .byte    Fn4, v100
    .byte W06
    .byte    Fn4, v060
    .byte W06
    .byte    Fn4, v040
    .byte W06
    .byte    Fn4, v020
    .byte W18
    .byte    Dn4, v100
    .byte W06
    .byte    Dn4, v060
    .byte W06
    .byte    Dn4, v100
    .byte W06
    .byte    Dn4, v060
    .byte W06
    .byte    Dn4, v040
    .byte W06
    .byte    Dn4, v020
    .byte W18
    .byte    Dn4, v012
    .byte W06
    .byte    Dn4, v008
    .byte W42
    .byte    Gs4, v100
    .byte W06
    .byte    Gs4, v060
    .byte W06
    .byte    Gs4, v100
    .byte W06
    .byte    Gs4, v060
    .byte W06
    .byte    Gs4, v040
    .byte W06
    .byte    Gs4, v020
    .byte W18
    .byte PATT
    .word LABEL_080A4D89
    .byte PATT
    .word LABEL_080A4DAF
    .byte    N06, Fn4, v100
    .byte W06
    .byte    Fn4, v060
    .byte W06
    .byte    Fn4, v100
    .byte W06
    .byte    Fn4, v060
    .byte W06
    .byte    Fn4, v040
    .byte W06
    .byte    Fn4, v020
    .byte W18
    .byte    Dn5, v100
    .byte W06
    .byte    Dn5, v060
    .byte W06
    .byte    Dn5, v100
    .byte W06
    .byte    Dn5, v060
    .byte W06
    .byte    Dn5, v040
    .byte W06
    .byte    Dn5, v020
    .byte W18
    .byte    Cs5, v100
    .byte W06
    .byte    Cs5, v060
    .byte W06
    .byte    Cs5, v100
    .byte W06
    .byte    Cs5, v060
    .byte W06
    .byte    Cs5, v040
    .byte W06
    .byte    Cs5, v020
    .byte W06
    .byte    Cs5, v008
    .byte W06
    .byte    N06
    .byte W06
    .byte PAN  , 127
    .byte    N06, Cs5, v080
    .byte W06
    .byte    Cs5, v040
    .byte W06
    .byte    Cs5, v080
    .byte W06
    .byte    Cs5, v040
    .byte W06
    .byte    Cs5, v020
    .byte W06
    .byte    Cs5, v012
    .byte W06
    .byte    Cs5, v008
    .byte W06
    .byte    N06
    .byte W06
    .byte PAN  , 0
    .byte    N06, Cs5, v080
    .byte W06
    .byte    Cs5, v040
    .byte W06
    .byte    Cs5, v080
    .byte W06
    .byte    Cs5, v040
    .byte W06
    .byte    Cs5, v020
    .byte W06
    .byte    Cs5, v012
    .byte W06
    .byte    Cs5, v008
    .byte W06
    .byte    N06
    .byte W06
    .byte PAN  , 64
    .byte    N06, Cs5, v080
    .byte W06
    .byte    Cs5, v040
    .byte W06
    .byte    Cs5, v080
    .byte W06
    .byte    Cs5, v040
    .byte W06
    .byte    Cs5, v020
    .byte W06
    .byte    Cs5, v012
    .byte W06
    .byte    Cs5, v008
    .byte W06
    .byte    N06
    .byte W06
    .byte GOTO
    .word LABEL_080A4D5E
    .byte FINE

Track_080A4E9F:
    .byte KEYSH, 0
LABEL_080A4EA1:
    .byte W48
    .byte VOICE, 1
    .byte VOL  , 47
    .byte PAN  , 64
    .byte XCMD , xIECL, 0, xIECL, 0
    .byte BENDR, 12
    .byte LFOS , 28
    .byte LFODL, 14
    .byte MODT , 0
    .byte MOD  , 4
    .byte PRIO , 20
    .byte    N06, Fn4, v100
    .byte W06
    .byte    Fn4, v060
    .byte W06
    .byte    Fn4, v100
    .byte W06
    .byte    Fn4, v060
    .byte W06
    .byte    Fn4, v040
    .byte W06
    .byte    Fn4, v020
    .byte W18
LABEL_080A4ECC:
    .byte    N06, En4, v100
    .byte W06
    .byte    En4, v060
    .byte W06
    .byte    En4, v100
    .byte W06
    .byte    En4, v060
    .byte W06
    .byte    En4, v040
    .byte W06
    .byte    En4, v020
    .byte W18
    .byte    Fn4, v100
    .byte W06
    .byte    Fn4, v060
    .byte W06
    .byte    Fn4, v100
    .byte W06
    .byte    Fn4, v060
    .byte W06
    .byte    Fn4, v040
    .byte W06
    .byte    Fn4, v020
    .byte W18
    .byte PEND
LABEL_080A4EF2:
    .byte    N06, Fn4, v012
    .byte W06
    .byte    Fn4, v008
    .byte W42
    .byte    Cn4, v100
    .byte W06
    .byte    Cn4, v060
    .byte W06
    .byte    Cn4, v100
    .byte W06
    .byte    Cn4, v060
    .byte W06
    .byte    Cn4, v040
    .byte W06
    .byte    Cn4, v020
    .byte W18
    .byte PEND
    .byte    Dn4, v100
    .byte W06
    .byte    Dn4, v060
    .byte W06
    .byte    Dn4, v100
    .byte W06
    .byte    Dn4, v060
    .byte W06
    .byte    Dn4, v040
    .byte W06
    .byte    Dn4, v020
    .byte W18
    .byte    As3, v100
    .byte W06
    .byte    As3, v060
    .byte W06
    .byte    As3, v100
    .byte W06
    .byte    As3, v060
    .byte W06
    .byte    As3, v040
    .byte W06
    .byte    As3, v020
    .byte W18
    .byte    As3, v012
    .byte W06
    .byte    As3, v008
    .byte W42
    .byte    Fn4, v100
    .byte W06
    .byte    Fn4, v060
    .byte W06
    .byte    Fn4, v100
    .byte W06
    .byte    Fn4, v060
    .byte W06
    .byte    Fn4, v040
    .byte W06
    .byte    Fn4, v020
    .byte W18
    .byte PATT
    .word LABEL_080A4ECC
    .byte PATT
    .word LABEL_080A4EF2
    .byte    N06, Dn4, v100
    .byte W06
    .byte    Dn4, v060
    .byte W06
    .byte    Dn4, v100
    .byte W06
    .byte    Dn4, v060
    .byte W06
    .byte    Dn4, v040
    .byte W06
    .byte    Dn4, v020
    .byte W18
    .byte    As4, v100
    .byte W06
    .byte    As4, v060
    .byte W06
    .byte    As4, v100
    .byte W06
    .byte    As4, v060
    .byte W06
    .byte    As4, v040
    .byte W06
    .byte    As4, v020
    .byte W18
    .byte    As4, v100
    .byte W06
    .byte    As4, v060
    .byte W06
    .byte    As4, v100
    .byte W06
    .byte    As4, v060
    .byte W06
    .byte    As4, v040
    .byte W06
    .byte    As4, v020
    .byte W06
    .byte    N06
    .byte W06
    .byte    N06
    .byte W06
    .byte PAN  , 127
    .byte    N06, As4, v080
    .byte W06
    .byte    As4, v040
    .byte W06
    .byte    As4, v080
    .byte W06
    .byte    As4, v040
    .byte W06
    .byte    As4, v020
    .byte W06
    .byte    As4, v012
    .byte W06
    .byte    As4, v008
    .byte W06
    .byte    N06
    .byte W06
    .byte PAN  , 0
    .byte    N06, Gs4, v080
    .byte W06
    .byte    Gs4, v040
    .byte W06
    .byte    Gs4, v080
    .byte W06
    .byte    Gs4, v040
    .byte W06
    .byte    Gs4, v020
    .byte W06
    .byte    Gs4, v012
    .byte W06
    .byte    Gs4, v008
    .byte W06
    .byte    N06
    .byte W06
    .byte PAN  , 64
    .byte    N06, Gs4, v080
    .byte W06
    .byte    Gs4, v040
    .byte W06
    .byte    Gs4, v080
    .byte W06
    .byte    Gs4, v040
    .byte W06
    .byte    Gs4, v020
    .byte W06
    .byte    Gs4, v012
    .byte W06
    .byte    Gs4, v008
    .byte W06
    .byte    N06
    .byte W06
    .byte GOTO
    .word LABEL_080A4EA1
    .byte FINE

Track_080A4FE1:
    .byte KEYSH, 0
LABEL_080A4FE3:
    .byte VOICE, 15
    .byte VOL  , 75
    .byte BENDR, 12
    .byte PAN  , 10
    .byte BEND , 64
    .byte TIE, Cn3, v040
    .byte TIE, Gs3
    .byte W12
    .byte PAN  , 25
    .byte W12
    .byte    En1
    .byte W12
    .byte    Gn2
    .byte W12
    .byte    As3
    .byte W12
    .byte    Cs5
    .byte W12
    .byte    En6
    .byte W12
    .byte    Gn7
    .byte W12
LABEL_080A5002:
    .byte PAN  , 115
    .byte W12
    .byte    En6
    .byte W12
    .byte    Cs5
    .byte W12
    .byte    As3
    .byte W12
    .byte    Gn2
    .byte W12
    .byte    En1
    .byte W12
    .byte    Cs0
    .byte W12
    .byte    AsM2
    .byte W12
    .byte PEND
    .byte EOT, Cn3, v068
LABEL_080A5017:
    .byte PAN  , 115
    .byte TIE, As2, v040
    .byte TIE, En3
    .byte W12
    .byte PAN  , 100
    .byte W12
    .byte    Cs5
    .byte W12
    .byte    As3
    .byte W12
    .byte    Gn2
    .byte W12
    .byte    En1
    .byte W12
    .byte    Cs0
    .byte W12
    .byte    AsM2
    .byte W12
    .byte PEND
LABEL_080A502F:
    .byte PAN  , 10
    .byte W12
    .byte    Cs0
    .byte W12
    .byte    En1
    .byte W12
    .byte    Gn2
    .byte W12
    .byte    As3
    .byte W12
    .byte    Cs5
    .byte W12
    .byte    En6
    .byte W12
    .byte    Gn7
    .byte W12
    .byte PEND
    .byte EOT, As2, v064
    .byte PAN  , 10
    .byte TIE, Cn3, v040
    .byte TIE, Gs3
    .byte W12
    .byte PAN  , 25
    .byte W12
    .byte    En1
    .byte W12
    .byte    Gn2
    .byte W12
    .byte    As3
    .byte W12
    .byte    Cs5
    .byte W12
    .byte    En6
    .byte W12
    .byte    Gn7
    .byte W12
    .byte PATT
    .word LABEL_080A5002
    .byte EOT, Cn3, v068
    .byte PATT
    .word LABEL_080A5017
    .byte PATT
    .word LABEL_080A502F
    .byte PATT
    .word LABEL_080A5002
    .byte PAN  , 10
    .byte W12
    .byte    Cs0
    .byte W12
    .byte    En1
    .byte W12
    .byte    Gn2
    .byte W12
    .byte    As3
    .byte BEND , 64
    .byte W04
    .byte    Fn3
    .byte W02
    .byte    Fs3
    .byte W02
    .byte    Gn3
    .byte W02
    .byte    Gs3
    .byte W02
    .byte PAN  , 85
    .byte BEND , 69
    .byte W02
    .byte    As3
    .byte W02
    .byte    Bn3
    .byte W02
    .byte    Cn4
    .byte W02
    .byte    Cs4
    .byte W02
    .byte    Dn4
    .byte W02
    .byte PAN  , 100
    .byte BEND , 75
    .byte W02
    .byte    En4
    .byte W02
    .byte    Fn4
    .byte W02
    .byte    Fs4
    .byte W02
    .byte    Gn4
    .byte W02
    .byte    Gs4
    .byte W02
    .byte PAN  , 115
    .byte BEND , 81
    .byte W02
    .byte    As4
    .byte W03
    .byte    Bn4
    .byte W02
    .byte    Cn5
    .byte W03
    .byte    Cs5
    .byte W02
    .byte EOT, As2, v064
    .byte GOTO
    .word LABEL_080A4FE3
    .byte FINE

    .align 2, 0

global_label SongHeader_080A50BC
    .byte 5
    .byte 0
    .byte 0
    .byte 163
    .word 0x809F2C0
    .word Track_080A4AD0
    .word Track_080A4C52
    .word Track_080A4D5C
    .word Track_080A4E9F
    .word Track_080A4FE1
