Track_080B0AD0:
    .byte KEYSH, 0
    .byte TEMPO, 74
    .byte W12
    .byte VOL  , 113
    .byte W12
    .byte PAN  , 64
    .byte W12
    .byte VOICE, 0
    .byte W12
    .byte    N60, Bn1, v100
    .byte W48
    .byte W12
LABEL_080B0AE3:
    .byte    N06, Bn0, v120
    .byte    N48, Cs2, v072
    .byte W24
    .byte    N10, Cs1, v120
    .byte W12
    .byte    N11, As1, v064
    .byte W12
    .byte    N06, Bn0, v112
    .byte    N02, Fs1, v060
    .byte W06
    .byte    N06, Cs1, v052
    .byte    N02, Fs1, v032
    .byte W06
    .byte    N06, Bn0, v092
    .byte    N11, As1, v064
    .byte W12
    .byte    N10, Cs1, v120
    .byte    N02, Fs1, v060
    .byte W06
    .byte    Fs1, v032
    .byte W06
    .byte    N11, As1, v064
    .byte W12
    .byte    N06, Bn0, v108
    .byte    N02, Fs1, v060
    .byte W06
    .byte    Fs1, v032
    .byte W06
    .byte    N11, As1, v064
    .byte W12
    .byte    N10, Cs1, v120
    .byte    N02, Fs1, v060
    .byte W06
    .byte    Fs1, v032
    .byte W06
    .byte    N11, As1, v064
    .byte W12
    .byte    N06, Bn0, v100
    .byte    N02, Fs1, v060
    .byte W06
    .byte    Fs1, v032
    .byte W06
    .byte    N06, Bn0, v092
    .byte    N11, As1, v064
    .byte W12
    .byte    N06, Cs1, v120
    .byte    N02, Fs1, v060
    .byte W06
    .byte    N06, Cs1
    .byte    N02, Fs1, v032
    .byte W06
    .byte    N06, Cs1, v092
    .byte    N11, As1, v064
    .byte W06
    .byte    N05, Cs1, v120
    .byte W06
    .byte    N06, Bn0, v108
    .byte    N48, Cs2, v060
    .byte W24
    .byte    N10, Cs1, v120
    .byte W12
    .byte    N12, As1, v060
    .byte W12
    .byte    N06, Bn0, v100
    .byte    N02, Fs1, v060
    .byte W06
    .byte    N06, Cs1, v052
    .byte    N02, Fs1, v032
    .byte W06
    .byte    N06, Bn0, v092
    .byte    N11, As1, v064
    .byte W12
    .byte    N10, Cs1, v120
    .byte    N02, Fs1, v060
    .byte W06
    .byte    Fs1, v032
    .byte W06
    .byte    N11, As1, v064
    .byte W12
    .byte    N06, Bn0, v108
    .byte    N02, Fs1, v060
    .byte W06
    .byte    Fs1, v032
    .byte W06
    .byte    N11, As1, v064
    .byte W12
    .byte    N10, Cs1, v120
    .byte    N02, Fs1, v060
    .byte W06
    .byte    Fs1, v032
    .byte W06
    .byte    N11, As1, v064
    .byte W12
    .byte    N06, Bn0, v100
    .byte    N06, Cs1, v052
    .byte    N02, Fs1, v060
    .byte W06
    .byte    N06, Cs1, v052
    .byte    N02, Fs1, v032
    .byte W06
    .byte    N06, Bn0, v092
    .byte    N06, Cs1, v072
    .byte    N11, As1, v064
    .byte W06
    .byte    N06, Cs1, v092
    .byte W06
    .byte    Cs1, v100
    .byte    N02, Fs1, v060
    .byte W06
    .byte    N06, Cs1, v120
    .byte    N02, Fs1, v032
    .byte W06
    .byte    N11, Gn1, v112
    .byte    N11, As1, v060
    .byte W12
    .byte GOTO
    .word LABEL_080B0AE3
    .byte FINE

Track_080B0BE1:
    .byte VOL  , 120
    .byte KEYSH, 0
    .byte    N05, Bn3, v100
    .byte W06
    .byte VOICE, 14
    .byte VOL  , 94
    .byte PAN  , 64
    .byte BENDR, 12
    .byte    N05, Fn3
    .byte W06
    .byte    Bn2
    .byte W06
    .byte    As3
    .byte W06
    .byte    En3
    .byte W06
    .byte    As2
    .byte W06
    .byte    An3
    .byte W06
    .byte    Ds3
    .byte W06
    .byte    An2
    .byte W06
    .byte    Gs3
    .byte W06
    .byte    Dn3
    .byte W06
    .byte    Gs2
    .byte W06
    .byte    Gn3
    .byte W06
    .byte    Cs3
    .byte W06
    .byte    Gn2
    .byte W06
    .byte    Fs3
    .byte W06
    .byte    Cs3
    .byte W06
    .byte    Fs2
    .byte W06
LABEL_080B0C14:
    .byte BEND , 64
    .byte    N06, Bn2, v100
    .byte W06
    .byte    Bn2, v040
    .byte W06
    .byte    An2, v100
    .byte W06
    .byte    An2, v040
    .byte W06
    .byte    Bn2, v100
    .byte W06
    .byte    Bn2, v040
    .byte W06
    .byte    Dn3, v100
    .byte W06
    .byte    Dn3, v040
    .byte W06
    .byte    An2, v100
    .byte W06
    .byte    An2, v040
    .byte W06
    .byte    Bn2, v100
    .byte W06
    .byte    Bn2, v040
    .byte W06
    .byte    Dn3, v100
    .byte W06
    .byte    Dn3, v040
    .byte W06
    .byte    An2, v100
    .byte W06
    .byte    An2, v040
    .byte W06
    .byte    Bn2, v100
    .byte W06
    .byte    Bn2, v040
    .byte W06
    .byte    An2, v100
    .byte W06
    .byte    An2, v040
    .byte W06
    .byte    Bn2, v100
    .byte W06
    .byte    Bn2, v040
    .byte W06
    .byte    Fs3, v100
    .byte W06
    .byte    Fs3, v040
    .byte W06
    .byte    En3, v100
    .byte W06
    .byte    En3, v040
    .byte W06
    .byte    Dn3, v100
    .byte W06
    .byte    Dn3, v040
    .byte W06
    .byte    An2, v100
    .byte W06
    .byte    An2, v040
    .byte W06
    .byte    As2, v100
    .byte W06
    .byte    As2, v040
    .byte W06
    .byte    Cn3, v100
    .byte W06
    .byte    Cn3, v040
    .byte W06
    .byte    As2, v100
    .byte W06
    .byte    As2, v040
    .byte W06
    .byte    Cn3, v100
    .byte W06
    .byte    Cn3, v040
    .byte W06
    .byte    Ds3, v100
    .byte W06
    .byte    Ds3, v040
    .byte W06
    .byte    As2, v100
    .byte W06
    .byte    As2, v040
    .byte W06
    .byte    Cn3, v100
    .byte W06
    .byte    Cn3, v040
    .byte W06
    .byte    Ds3, v100
    .byte W06
    .byte    Ds3, v040
    .byte W06
    .byte    As2, v100
    .byte W06
    .byte    As2, v040
    .byte W06
    .byte    Cn3, v100
    .byte W06
    .byte    Cn3, v040
    .byte W06
    .byte    As2, v100
    .byte W06
    .byte    As2, v040
    .byte W06
    .byte    Cn3, v100
    .byte W06
    .byte    Cn3, v040
    .byte W06
    .byte    Gn3, v100
    .byte W06
    .byte    Gn3, v040
    .byte W06
    .byte    Fn3, v100
    .byte W06
    .byte    Fn3, v040
    .byte W06
    .byte    Ds3, v100
    .byte W06
    .byte    Ds3, v040
    .byte W06
    .byte    An2, v100
    .byte W06
    .byte    An2, v040
    .byte W06
    .byte    As2, v100
    .byte W06
    .byte    As2, v040
    .byte W06
    .byte GOTO
    .word LABEL_080B0C14
    .byte FINE

Track_080B0CDD:
    .byte KEYSH, 0
    .byte W36
    .byte VOL  , 103
    .byte W01
    .byte PAN  , 127
    .byte W01
    .byte VOICE, 5
    .byte W01
    .byte W01
    .byte XCMD , xIECV, 40
    .byte W01
    .byte W01
    .byte    AnM2, v004
    .byte W01
    .byte BENDR, 12
    .byte W01
    .byte LFOS , 28
    .byte W01
    .byte LFODL, 14
    .byte W01
    .byte MODT , 0
    .byte W01
    .byte MOD  , 4
    .byte W07
    .byte    N06, As4, v072
    .byte W06
    .byte    Fn4
    .byte W06
    .byte    As3
    .byte W06
    .byte PAN  , 0
    .byte    N06, An4, v100
    .byte W06
    .byte    Ds4
    .byte W06
    .byte    An3
    .byte W06
    .byte PAN  , 127
    .byte    N06, Gs4, v120
    .byte W06
    .byte    Dn4
    .byte W06
    .byte    Gs3
    .byte W06
LABEL_080B0D1D:
    .byte PAN  , 0
    .byte VOL  , 56
    .byte    N06, An2, v100
    .byte W06
    .byte    An2, v040
    .byte W06
    .byte    An3, v100
    .byte W06
    .byte    An3, v040
    .byte W06
    .byte    An4, v100
    .byte W06
    .byte    An4, v040
    .byte W06
    .byte    An3, v100
    .byte W06
    .byte    An3, v040
    .byte W06
    .byte PAN  , 127
    .byte    N06, An5, v100
    .byte W06
    .byte    An5, v040
    .byte W06
    .byte    An4, v100
    .byte W06
    .byte    An4, v040
    .byte W06
    .byte    An3, v100
    .byte W06
    .byte    An3, v040
    .byte W06
    .byte    An4, v100
    .byte W06
    .byte    An4, v040
    .byte W06
    .byte PAN  , 0
    .byte    N06, An2, v100
    .byte W06
    .byte    An2, v040
    .byte W06
    .byte    An3, v100
    .byte W06
    .byte    An3, v040
    .byte W06
    .byte    An4, v100
    .byte W06
    .byte    An4, v040
    .byte W06
    .byte    An3, v100
    .byte W06
    .byte    An3, v040
    .byte W06
    .byte PAN  , 127
    .byte    N06, An5, v100
    .byte W06
    .byte    An5, v040
    .byte W06
    .byte    An4, v100
    .byte W06
    .byte    An4, v040
    .byte W06
    .byte    An3, v100
    .byte W06
    .byte    An3, v040
    .byte W06
    .byte    An4, v100
    .byte W06
    .byte    An4, v040
    .byte W06
    .byte PAN  , 0
    .byte    N06, As2, v100
    .byte W06
    .byte    As2, v040
    .byte W06
    .byte    As3, v100
    .byte W06
    .byte    As3, v040
    .byte W06
    .byte    As4, v100
    .byte W06
    .byte    As4, v040
    .byte W06
    .byte    As3, v100
    .byte W06
    .byte    As3, v040
    .byte W06
    .byte PAN  , 127
    .byte    N06, As5, v100
    .byte W06
    .byte    As5, v040
    .byte W06
    .byte    As4, v100
    .byte W06
    .byte    As4, v040
    .byte W06
    .byte    As3, v100
    .byte W06
    .byte    As3, v040
    .byte W06
    .byte    As4, v100
    .byte W06
    .byte    As4, v040
    .byte W06
    .byte PAN  , 0
    .byte    N06, As2, v100
    .byte W06
    .byte    As2, v040
    .byte W06
    .byte    As3, v100
    .byte W06
    .byte    As3, v040
    .byte W06
    .byte    As4, v100
    .byte W06
    .byte    As4, v040
    .byte W06
    .byte    As3, v100
    .byte W06
    .byte    As3, v040
    .byte W06
    .byte PAN  , 127
    .byte    N06, As5, v100
    .byte W06
    .byte    As5, v040
    .byte W06
    .byte    As4, v100
    .byte W06
    .byte    As4, v040
    .byte W06
    .byte    As3, v100
    .byte W06
    .byte    As3, v040
    .byte W06
    .byte    As4, v100
    .byte W06
    .byte    As4, v040
    .byte W06
    .byte GOTO
    .word LABEL_080B0D1D
    .byte FINE

Track_080B0DFD:
    .byte KEYSH, 0
    .byte W36
    .byte VOL  , 103
    .byte W01
    .byte PAN  , 127
    .byte W01
    .byte VOICE, 2
    .byte W01
    .byte W01
    .byte XCMD , xIECL, 0
    .byte W01
    .byte W01
    .byte    AnM2, v000
    .byte W01
    .byte BENDR, 12
    .byte W01
    .byte LFOS , 28
    .byte W01
    .byte LFODL, 14
    .byte W01
    .byte MODT , 0
    .byte W01
    .byte MOD  , 4
    .byte W07
    .byte    N06, Fn4, v072
    .byte W06
    .byte    Bn3
    .byte W06
    .byte    Fn3
    .byte W06
    .byte PAN  , 0
    .byte    N06, En4, v100
    .byte W06
    .byte    As3
    .byte W06
    .byte    En3, v092
    .byte W06
    .byte PAN  , 127
    .byte    N06, Ds4, v120
    .byte W06
    .byte    An3
    .byte W06
    .byte    Ds3
    .byte W06
LABEL_080B0E3E:
    .byte PAN  , 127
    .byte VOL  , 56
    .byte    N06, Dn3, v100
    .byte W06
    .byte    Dn3, v040
    .byte W06
    .byte    Dn4, v100
    .byte W06
    .byte    Dn4, v040
    .byte W06
    .byte    Dn5, v100
    .byte W06
    .byte    Dn5, v040
    .byte W06
    .byte    Dn4, v100
    .byte W06
    .byte    Dn4, v040
    .byte W06
    .byte PAN  , 0
    .byte    N06, Dn6, v100
    .byte W06
    .byte    Dn6, v040
    .byte W06
    .byte    Dn5, v100
    .byte W06
    .byte    Dn5, v040
    .byte W06
    .byte    Dn4, v100
    .byte W06
    .byte    Dn4, v040
    .byte W06
    .byte    Dn5, v100
    .byte W06
    .byte    Dn5, v040
    .byte W06
    .byte PAN  , 127
    .byte    N06, Dn3, v100
    .byte W06
    .byte    Dn3, v040
    .byte W06
    .byte    Dn4, v100
    .byte W06
    .byte    Dn4, v040
    .byte W06
    .byte    Dn5, v100
    .byte W06
    .byte    Dn5, v040
    .byte W06
    .byte    Dn4, v100
    .byte W06
    .byte    Dn4, v040
    .byte W06
    .byte PAN  , 0
    .byte    N06, Dn6, v100
    .byte W06
    .byte    Dn6, v040
    .byte W06
    .byte    Dn5, v100
    .byte W06
    .byte    Dn5, v040
    .byte W06
    .byte    Dn4, v100
    .byte W06
    .byte    Dn4, v040
    .byte W06
    .byte    Dn5, v100
    .byte W06
    .byte    Dn5, v040
    .byte W06
    .byte PAN  , 127
    .byte    N06, Ds3, v100
    .byte W06
    .byte    Ds3, v040
    .byte W06
    .byte    Ds4, v100
    .byte W06
    .byte    Ds4, v040
    .byte W06
    .byte    Ds5, v100
    .byte W06
    .byte    Ds5, v040
    .byte W06
    .byte    Ds4, v100
    .byte W06
    .byte    Ds4, v040
    .byte W06
    .byte PAN  , 0
    .byte    N06, Ds6, v100
    .byte W06
    .byte    Ds6, v040
    .byte W06
    .byte    Ds5, v100
    .byte W06
    .byte    Ds5, v040
    .byte W06
    .byte    Ds4, v100
    .byte W06
    .byte    Ds4, v040
    .byte W06
    .byte    Ds5, v100
    .byte W06
    .byte    Ds5, v040
    .byte W06
    .byte PAN  , 127
    .byte    N06, Ds3, v100
    .byte W06
    .byte    Ds3, v040
    .byte W06
    .byte    Ds4, v100
    .byte W06
    .byte    Ds4, v040
    .byte W06
    .byte    Ds5, v100
    .byte W06
    .byte    Ds5, v040
    .byte W06
    .byte    Ds4, v100
    .byte W06
    .byte    Ds4, v040
    .byte W06
    .byte PAN  , 0
    .byte    N06, Ds6, v100
    .byte W06
    .byte    Ds6, v040
    .byte W06
    .byte    Ds5, v100
    .byte W06
    .byte    Ds5, v040
    .byte W06
    .byte    Ds4, v100
    .byte W06
    .byte    Ds4, v040
    .byte W06
    .byte    Ds5, v100
    .byte W06
    .byte    Ds5, v040
    .byte W06
    .byte GOTO
    .word LABEL_080B0E3E
    .byte FINE

Track_080B0F1E:
    .byte KEYSH, 0
    .byte VOICE, 20
    .byte VOL  , 113
    .byte PAN  , 64
    .byte BENDR, 12
    .byte    N06, Fn3, v032
    .byte    N06, Bn3, v060
    .byte W06
    .byte    Cn3, v032
    .byte    N06, Fn3, v060
    .byte W06
    .byte    Fn2, v040
    .byte    N06, Bn2, v060
    .byte W06
    .byte    En3, v032
    .byte    N06, As3, v060
    .byte W06
    .byte    Bn2, v032
    .byte    N06, En3, v060
    .byte W06
    .byte    En2, v032
    .byte    N06, As2, v052
    .byte W06
    .byte    Ds3, v032
    .byte    N06, An3, v052
    .byte W06
    .byte    As2, v032
    .byte    N06, Ds3, v052
    .byte W06
    .byte    Ds2, v020
    .byte    N06, An2, v040
    .byte W06
    .byte    Dn3, v020
    .byte    N06, Gs3, v040
    .byte W06
    .byte    As2, v020
    .byte    N06, Dn3, v040
    .byte W06
    .byte    Dn2, v020
    .byte    N06, Gs2, v040
    .byte W06
    .byte VOICE, 21
    .byte VOL  , 9
    .byte    N36, As2
    .byte    N36, Gn3, v060
    .byte W02
    .byte VOL  , 17
    .byte W02
    .byte    Dn0
    .byte W02
    .byte    As0
    .byte W02
    .byte    Gn1
    .byte W02
    .byte    Ds2
    .byte W02
    .byte    Cs3
    .byte W02
    .byte    An3
    .byte W02
    .byte    Fs4
    .byte W02
    .byte    Dn5
    .byte W02
    .byte    Bn5
    .byte W02
    .byte    Gn6
    .byte W02
    .byte    Fn7
    .byte W12
LABEL_080B0F94:
    .byte VOICE, 21
    .byte VOL  , 99
    .byte    N06, Dn3, v100
    .byte    N06, Fs3
    .byte W12
    .byte    Dn3
    .byte    N06, Fs3
    .byte W24
    .byte    Cs3
    .byte    N06, En3
    .byte W24
    .byte    Cs3
    .byte    N06, En3
    .byte W24
    .byte    Cs3, v040
    .byte    N06, En3
    .byte W12
    .byte VOICE, 20
    .byte    N10, Dn3, v100
    .byte W12
    .byte    Dn3, v040
    .byte W12
    .byte    Dn3, v020
    .byte W12
    .byte    Cs3, v100
    .byte W12
    .byte    Cs3, v040
    .byte W12
    .byte    Cs3, v020
    .byte W24
    .byte W12
    .byte VOICE, 21
    .byte    N06, Ds3, v100
    .byte    N06, Gn3
    .byte W12
    .byte    Ds3
    .byte    N06, Gn3
    .byte W24
    .byte    Dn3
    .byte    N06, Fn3
    .byte W24
    .byte    Dn3
    .byte    N06, Fn3
    .byte W24
    .byte    Dn3, v040
    .byte    N06, Fn3
    .byte W12
    .byte VOICE, 20
    .byte    N10, Ds3, v100
    .byte W12
    .byte    Ds3, v040
    .byte W12
    .byte    Ds3, v020
    .byte W12
    .byte    Fn3, v100
    .byte W12
    .byte    Fn3, v040
    .byte W12
    .byte    Fn3, v020
    .byte W24
    .byte W12
    .byte GOTO
    .word LABEL_080B0F94
    .byte FINE

    .align 2, 0

global_label SongHeader_080B0FFC
    .byte 5
    .byte 0
    .byte 0
    .byte 163
    .word 0x80A0640
    .word Track_080B0AD0
    .word Track_080B0BE1
    .word Track_080B0CDD
    .word Track_080B0DFD
    .word Track_080B0F1E
